<svg id="visual" viewBox="0 0 900 600" width="900" height="600" xmlns="http://www.w3.org/2000/svg" xmlns:xlink="http://www.w3.org/1999/xlink" version="1.1"><rect x="0" y="0" width="900" height="600" fill="#FFC803"></rect><defs><linearGradient id="grad1_0" x1="33.3%" y1="0%" x2="100%" y2="100%"><stop offset="20%" stop-color="#ffc803" stop-opacity="1"></stop><stop offset="80%" stop-color="#ffc803" stop-opacity="1"></stop></linearGradient></defs><defs><linearGradient id="grad2_0" x1="0%" y1="0%" x2="66.7%" y2="100%"><stop offset="20%" stop-color="#ffc803" stop-opacity="1"></stop><stop offset="80%" stop-color="#ffc803" stop-opacity="1"></stop></linearGradient></defs><g transform="translate(900, 0)"><path d="M0 351.5C-17.2 285.9 -34.4 220.3 -70.5 216.8C-106.5 213.4 -161.3 272.2 -204 280.7C-246.7 289.2 -277.3 247.4 -284.4 206.6C-291.5 165.8 -275.2 126 -282.5 91.8C-289.7 57.5 -320.6 28.8 -351.5 0L0 0Z" fill="#FD3541"></path></g><g transform="translate(0, 600)"><path d="M0 -351.5C37.8 -350.9 75.5 -350.3 108.6 -334.3C141.7 -318.4 170.2 -287.1 182.8 -251.6C195.4 -216.2 192.3 -176.6 208.7 -151.6C225.1 -126.7 261.1 -116.5 288.2 -93.6C315.2 -70.8 333.4 -35.4 351.5 0L0 0Z" fill="#FD3541"></path></g></svg>