<svg id="visual" viewBox="0 0 900 600" width="900" height="600" xmlns="http://www.w3.org/2000/svg" xmlns:xlink="http://www.w3.org/1999/xlink" version="1.1"><rect x="0" y="0" width="900" height="600" fill="#FFC803"></rect><defs><linearGradient id="grad1_0" x1="33.3%" y1="0%" x2="100%" y2="100%"><stop offset="20%" stop-color="#ffc803" stop-opacity="1"></stop><stop offset="80%" stop-color="#ffc803" stop-opacity="1"></stop></linearGradient></defs><defs><linearGradient id="grad2_0" x1="0%" y1="0%" x2="66.7%" y2="100%"><stop offset="20%" stop-color="#ffc803" stop-opacity="1"></stop><stop offset="80%" stop-color="#ffc803" stop-opacity="1"></stop></linearGradient></defs><g transform="translate(900, 0)"><path d="M0 486.7C-47.9 493.5 -95.8 500.2 -126 470.2C-156.2 440.1 -168.8 373.3 -199.5 345.5C-230.2 317.8 -279.2 329 -314.7 314.7C-350.2 300.3 -372.2 260.4 -385.4 222.5C-398.6 184.6 -402.8 148.8 -418.2 112.1C-433.7 75.3 -460.2 37.7 -486.7 0L0 0Z" fill="#FD3541"></path></g><g transform="translate(0, 600)"><path d="M0 -486.7C50.2 -498 100.4 -509.3 126 -470.2C151.5 -431.1 152.4 -341.6 175.5 -304C198.6 -266.3 243.8 -280.5 263 -263C282.3 -245.6 275.4 -196.7 287.5 -166C299.6 -135.3 330.7 -123 367.1 -98.4C403.4 -73.7 445.1 -36.9 486.7 0L0 0Z" fill="#FD3541"></path></g></svg>