<svg id="visual" viewBox="0 0 900 600" width="900" height="600" xmlns="http://www.w3.org/2000/svg" xmlns:xlink="http://www.w3.org/1999/xlink" version="1.1"><rect x="0" y="0" width="900" height="600" fill="#FFC803"></rect><defs><linearGradient id="grad1_0" x1="33.3%" y1="0%" x2="100%" y2="100%"><stop offset="20%" stop-color="#ffc803" stop-opacity="1"></stop><stop offset="80%" stop-color="#ffc803" stop-opacity="1"></stop></linearGradient></defs><defs><linearGradient id="grad2_0" x1="0%" y1="0%" x2="66.7%" y2="100%"><stop offset="20%" stop-color="#ffc803" stop-opacity="1"></stop><stop offset="80%" stop-color="#ffc803" stop-opacity="1"></stop></linearGradient></defs><g transform="translate(900, 0)"><path d="M0 351.5C-30 314.4 -60.1 277.2 -81.9 252C-103.7 226.8 -117.2 213.6 -154.6 212.8C-191.9 212 -253.1 223.6 -284.4 206.6C-315.7 189.7 -317.1 144.3 -323.4 105.1C-329.6 65.9 -340.6 32.9 -351.5 0L0 0Z" fill="#FD3541"></path></g><g transform="translate(0, 600)"><path d="M0 -351.5C25.3 -310.8 50.6 -270 85.9 -264.4C121.2 -258.8 166.6 -288.3 206.6 -284.4C246.7 -280.5 281.5 -243.3 275.9 -200.4C270.3 -157.6 224.3 -109.1 230.2 -74.8C236 -40.4 293.8 -20.2 351.5 0L0 0Z" fill="#FD3541"></path></g></svg>