<svg id="visual" viewBox="0 0 900 600" width="900" height="600" xmlns="http://www.w3.org/2000/svg" xmlns:xlink="http://www.w3.org/1999/xlink" version="1.1"><rect x="0" y="0" width="900" height="600" fill="#FFC803"></rect><path d="M0 463L21.5 466.3C43 469.7 86 476.3 128.8 475C171.7 473.7 214.3 464.3 257.2 450.8C300 437.3 343 419.7 385.8 416.8C428.7 414 471.3 426 514.2 426.2C557 426.3 600 414.7 642.8 412.3C685.7 410 728.3 417 771.2 417.7C814 418.3 857 412.7 878.5 409.8L900 407L900 601L878.5 601C857 601 814 601 771.2 601C728.3 601 685.7 601 642.8 601C600 601 557 601 514.2 601C471.3 601 428.7 601 385.8 601C343 601 300 601 257.2 601C214.3 601 171.7 601 128.8 601C86 601 43 601 21.5 601L0 601Z" fill="#fd3541"></path><path d="M0 510L21.5 501.2C43 492.3 86 474.7 128.8 465C171.7 455.3 214.3 453.7 257.2 460.2C300 466.7 343 481.3 385.8 480.8C428.7 480.3 471.3 464.7 514.2 457.3C557 450 600 451 642.8 456.8C685.7 462.7 728.3 473.3 771.2 483.3C814 493.3 857 502.7 878.5 507.3L900 512L900 601L878.5 601C857 601 814 601 771.2 601C728.3 601 685.7 601 642.8 601C600 601 557 601 514.2 601C471.3 601 428.7 601 385.8 601C343 601 300 601 257.2 601C214.3 601 171.7 601 128.8 601C86 601 43 601 21.5 601L0 601Z" fill="#ee2751"></path><path d="M0 505L21.5 508.3C43 511.7 86 518.3 128.8 519.8C171.7 521.3 214.3 517.7 257.2 512.8C300 508 343 502 385.8 504.7C428.7 507.3 471.3 518.7 514.2 520.2C557 521.7 600 513.3 642.8 511C685.7 508.7 728.3 512.3 771.2 511.8C814 511.3 857 506.7 878.5 504.3L900 502L900 601L878.5 601C857 601 814 601 771.2 601C728.3 601 685.7 601 642.8 601C600 601 557 601 514.2 601C471.3 601 428.7 601 385.8 601C343 601 300 601 257.2 601C214.3 601 171.7 601 128.8 601C86 601 43 601 21.5 601L0 601Z" fill="#db215e"></path><path d="M0 547L21.5 551.3C43 555.7 86 564.3 128.8 562.5C171.7 560.7 214.3 548.3 257.2 545.3C300 542.3 343 548.7 385.8 549.7C428.7 550.7 471.3 546.3 514.2 544.5C557 542.7 600 543.3 642.8 543.3C685.7 543.3 728.3 542.7 771.2 541.8C814 541 857 540 878.5 539.5L900 539L900 601L878.5 601C857 601 814 601 771.2 601C728.3 601 685.7 601 642.8 601C600 601 557 601 514.2 601C471.3 601 428.7 601 385.8 601C343 601 300 601 257.2 601C214.3 601 171.7 601 128.8 601C86 601 43 601 21.5 601L0 601Z" fill="#c62368"></path></svg>