<svg id="visual" viewBox="0 0 900 600" width="900" height="600" xmlns="http://www.w3.org/2000/svg" xmlns:xlink="http://www.w3.org/1999/xlink" version="1.1"><rect x="0" y="0" width="900" height="600" fill="#FFC803"></rect><path d="M586 600L593.5 585.7C601 571.3 616 542.7 613.7 514.2C611.3 485.7 591.7 457.3 587.3 428.8C583 400.3 594 371.7 609.7 343C625.3 314.3 645.7 285.7 648.5 257C651.3 228.3 636.7 199.7 629.2 171.2C621.7 142.7 621.3 114.3 614.5 85.8C607.7 57.3 594.3 28.7 587.7 14.3L581 0L900 0L900 14.3C900 28.7 900 57.3 900 85.8C900 114.3 900 142.7 900 171.2C900 199.7 900 228.3 900 257C900 285.7 900 314.3 900 343C900 371.7 900 400.3 900 428.8C900 457.3 900 485.7 900 514.2C900 542.7 900 571.3 900 585.7L900 600Z" fill="#ff0000"></path><path d="M648 600L659.5 585.7C671 571.3 694 542.7 685.2 514.2C676.3 485.7 635.7 457.3 620.8 428.8C606 400.3 617 371.7 630.2 343C643.3 314.3 658.7 285.7 665.3 257C672 228.3 670 199.7 669.2 171.2C668.3 142.7 668.7 114.3 661.2 85.8C653.7 57.3 638.3 28.7 630.7 14.3L623 0L900 0L900 14.3C900 28.7 900 57.3 900 85.8C900 114.3 900 142.7 900 171.2C900 199.7 900 228.3 900 257C900 285.7 900 314.3 900 343C900 371.7 900 400.3 900 428.8C900 457.3 900 485.7 900 514.2C900 542.7 900 571.3 900 585.7L900 600Z" fill="#ff1318"></path><path d="M673 600L672.7 585.7C672.3 571.3 671.7 542.7 679.3 514.2C687 485.7 703 457.3 706.8 428.8C710.7 400.3 702.3 371.7 703.7 343C705 314.3 716 285.7 725.5 257C735 228.3 743 199.7 734.2 171.2C725.3 142.7 699.7 114.3 696.8 85.8C694 57.3 714 28.7 724 14.3L734 0L900 0L900 14.3C900 28.7 900 57.3 900 85.8C900 114.3 900 142.7 900 171.2C900 199.7 900 228.3 900 257C900 285.7 900 314.3 900 343C900 371.7 900 400.3 900 428.8C900 457.3 900 485.7 900 514.2C900 542.7 900 571.3 900 585.7L900 600Z" fill="#ff2028"></path><path d="M816 600L800.7 585.7C785.3 571.3 754.7 542.7 744.2 514.2C733.7 485.7 743.3 457.3 744.7 428.8C746 400.3 739 371.7 744.8 343C750.7 314.3 769.3 285.7 769.8 257C770.3 228.3 752.7 199.7 753.3 171.2C754 142.7 773 114.3 777.8 85.8C782.7 57.3 773.3 28.7 768.7 14.3L764 0L900 0L900 14.3C900 28.7 900 57.3 900 85.8C900 114.3 900 142.7 900 171.2C900 199.7 900 228.3 900 257C900 285.7 900 314.3 900 343C900 371.7 900 400.3 900 428.8C900 457.3 900 485.7 900 514.2C900 542.7 900 571.3 900 585.7L900 600Z" fill="#fe2b35"></path><path d="M829 600L832.7 585.7C836.3 571.3 843.7 542.7 841 514.2C838.3 485.7 825.7 457.3 823.5 428.8C821.3 400.3 829.7 371.7 831.3 343C833 314.3 828 285.7 829.8 257C831.7 228.3 840.3 199.7 838.3 171.2C836.3 142.7 823.7 114.3 817 85.8C810.3 57.3 809.7 28.7 809.3 14.3L809 0L900 0L900 14.3C900 28.7 900 57.3 900 85.8C900 114.3 900 142.7 900 171.2C900 199.7 900 228.3 900 257C900 285.7 900 314.3 900 343C900 371.7 900 400.3 900 428.8C900 457.3 900 485.7 900 514.2C900 542.7 900 571.3 900 585.7L900 600Z" fill="#fd3541"></path></svg>