<svg id="visual" viewBox="0 0 900 600" width="900" height="600" xmlns="http://www.w3.org/2000/svg" xmlns:xlink="http://www.w3.org/1999/xlink" version="1.1"><rect x="0" y="0" width="900" height="600" fill="#000000"></rect><path d="M541 600L580 600L580 554L528 554L528 508L541 508L541 462L580 462L580 415L558 415L558 369L623 369L623 323L544 323L544 277L518 277L518 231L617 231L617 185L514 185L514 138L585 138L585 92L526 92L526 46L627 46L627 0L900 0L900 46L900 46L900 92L900 92L900 138L900 138L900 185L900 185L900 231L900 231L900 277L900 277L900 323L900 323L900 369L900 369L900 415L900 415L900 462L900 462L900 508L900 508L900 554L900 554L900 600L900 600Z" fill="#9900ff"></path><path d="M620 600L608 600L608 554L677 554L677 508L637 508L637 462L627 462L627 415L689 415L689 369L689 369L689 323L623 323L623 277L645 277L645 231L589 231L589 185L648 185L648 138L647 138L647 92L652 92L652 46L631 46L631 0L900 0L900 46L900 46L900 92L900 92L900 138L900 138L900 185L900 185L900 231L900 231L900 277L900 277L900 323L900 323L900 369L900 369L900 415L900 415L900 462L900 462L900 508L900 508L900 554L900 554L900 600L900 600Z" fill="#7c19d0"></path><path d="M684 600L694 600L694 554L747 554L747 508L719 508L719 462L704 462L704 415L669 415L669 369L710 369L710 323L714 323L714 277L729 277L729 231L650 231L650 185L738 185L738 138L693 138L693 92L706 92L706 46L689 46L689 0L900 0L900 46L900 46L900 92L900 92L900 138L900 138L900 185L900 185L900 231L900 231L900 277L900 277L900 323L900 323L900 369L900 369L900 415L900 415L900 462L900 462L900 508L900 508L900 554L900 554L900 600L900 600Z" fill="#621fa2"></path><path d="M754 600L773 600L773 554L730 554L730 508L722 508L722 462L792 462L792 415L726 415L726 369L735 369L735 323L759 323L759 277L720 277L720 231L772 231L772 185L788 185L788 138L798 138L798 92L746 92L746 46L726 46L726 0L900 0L900 46L900 46L900 92L900 92L900 138L900 138L900 185L900 185L900 231L900 231L900 277L900 277L900 323L900 323L900 369L900 369L900 415L900 415L900 462L900 462L900 508L900 508L900 554L900 554L900 600L900 600Z" fill="#4a1f76"></path><path d="M806 600L853 600L853 554L806 554L806 508L843 508L843 462L862 462L862 415L797 415L797 369L833 369L833 323L832 323L832 277L824 277L824 231L806 231L806 185L840 185L840 138L841 138L841 92L791 92L791 46L817 46L817 0L900 0L900 46L900 46L900 92L900 92L900 138L900 138L900 185L900 185L900 231L900 231L900 277L900 277L900 323L900 323L900 369L900 369L900 415L900 415L900 462L900 462L900 508L900 508L900 554L900 554L900 600L900 600Z" fill="#331b4c"></path></svg>