<svg id="visual" viewBox="0 0 900 600" width="900" height="600" xmlns="http://www.w3.org/2000/svg" xmlns:xlink="http://www.w3.org/1999/xlink" version="1.1"><rect width="900" height="600" fill="#090911"></rect><g><g transform="translate(739 157)"><path d="M0 -100.4L43.6 -90.5L78.5 -62.6L97.9 -22.3L97.9 22.3L78.5 62.6L43.6 90.5L0 100.4L-43.6 90.5L-78.5 62.6L-97.9 22.3L-97.9 -22.3L-78.5 -62.6L-43.6 -90.5Z" stroke="#8C34EB" fill="none" stroke-width="2"></path></g><g transform="translate(167 192)"><path d="M0 -95L41.2 -85.6L74.3 -59.2L92.6 -21.1L92.6 21.1L74.3 59.2L41.2 85.6L0 95L-41.2 85.6L-74.3 59.2L-92.6 21.1L-92.6 -21.1L-74.3 -59.2L-41.2 -85.6Z" stroke="#8C34EB" fill="none" stroke-width="2"></path></g><g transform="translate(515 55)"><path d="M0 -47L20.4 -42.3L36.7 -29.3L45.8 -10.5L45.8 10.5L36.7 29.3L20.4 42.3L0 47L-20.4 42.3L-36.7 29.3L-45.8 10.5L-45.8 -10.5L-36.7 -29.3L-20.4 -42.3Z" stroke="#8C34EB" fill="none" stroke-width="2"></path></g><g transform="translate(84 3)"><path d="M0 -12L5.2 -10.8L9.4 -7.5L11.7 -2.7L11.7 2.7L9.4 7.5L5.2 10.8L0 12L-5.2 10.8L-9.4 7.5L-11.7 2.7L-11.7 -2.7L-9.4 -7.5L-5.2 -10.8Z" stroke="#8C34EB" fill="none" stroke-width="2"></path></g><g transform="translate(392 533)"><path d="M0 -19L8.2 -17.1L14.9 -11.8L18.5 -4.2L18.5 4.2L14.9 11.8L8.2 17.1L0 19L-8.2 17.1L-14.9 11.8L-18.5 4.2L-18.5 -4.2L-14.9 -11.8L-8.2 -17.1Z" stroke="#8C34EB" fill="none" stroke-width="2"></path></g><g transform="translate(782 408)"><path d="M0 -74L32.1 -66.7L57.9 -46.1L72.1 -16.5L72.1 16.5L57.9 46.1L32.1 66.7L0 74L-32.1 66.7L-57.9 46.1L-72.1 16.5L-72.1 -16.5L-57.9 -46.1L-32.1 -66.7Z" stroke="#8C34EB" fill="none" stroke-width="2"></path></g><g transform="translate(64 376)"><path d="M0 -28L12.1 -25.2L21.9 -17.5L27.3 -6.2L27.3 6.2L21.9 17.5L12.1 25.2L0 28L-12.1 25.2L-21.9 17.5L-27.3 6.2L-27.3 -6.2L-21.9 -17.5L-12.1 -25.2Z" stroke="#8C34EB" fill="none" stroke-width="2"></path></g><g transform="translate(462 336)"><path d="M0 -39L16.9 -35.1L30.5 -24.3L38 -8.7L38 8.7L30.5 24.3L16.9 35.1L0 39L-16.9 35.1L-30.5 24.3L-38 8.7L-38 -8.7L-30.5 -24.3L-16.9 -35.1Z" stroke="#8C34EB" fill="none" stroke-width="2"></path></g><g transform="translate(7 570)"><path d="M0 -63L27.3 -56.8L49.3 -39.3L61.4 -14L61.4 14L49.3 39.3L27.3 56.8L0 63L-27.3 56.8L-49.3 39.3L-61.4 14L-61.4 -14L-49.3 -39.3L-27.3 -56.8Z" stroke="#8C34EB" fill="none" stroke-width="2"></path></g><g transform="translate(864 596)"><path d="M0 -93L40.4 -83.8L72.7 -58L90.7 -20.7L90.7 20.7L72.7 58L40.4 83.8L0 93L-40.4 83.8L-72.7 58L-90.7 20.7L-90.7 -20.7L-72.7 -58L-40.4 -83.8Z" stroke="#8C34EB" fill="none" stroke-width="2"></path></g><g transform="translate(592 583)"><path d="M0 -31L13.5 -27.9L24.2 -19.3L30.2 -6.9L30.2 6.9L24.2 19.3L13.5 27.9L0 31L-13.5 27.9L-24.2 19.3L-30.2 6.9L-30.2 -6.9L-24.2 -19.3L-13.5 -27.9Z" stroke="#8C34EB" fill="none" stroke-width="2"></path></g><g transform="translate(312 40)"><path d="M0 -48L20.8 -43.2L37.5 -29.9L46.8 -10.7L46.8 10.7L37.5 29.9L20.8 43.2L0 48L-20.8 43.2L-37.5 29.9L-46.8 10.7L-46.8 -10.7L-37.5 -29.9L-20.8 -43.2Z" stroke="#8C34EB" fill="none" stroke-width="2"></path></g></g></svg>