<svg id="visual" viewBox="0 0 900 600" width="900" height="600" xmlns="http://www.w3.org/2000/svg" xmlns:xlink="http://www.w3.org/1999/xlink" version="1.1"><rect x="0" y="0" width="900" height="600" fill="#000000"></rect><path d="M0 503L39 503L39 513L78 513L78 490L117 490L117 464L157 464L157 469L196 469L196 462L235 462L235 456L274 456L274 510L313 510L313 452L352 452L352 474L391 474L391 458L430 458L430 490L470 490L470 465L509 465L509 481L548 481L548 458L587 458L587 472L626 472L626 456L665 456L665 470L704 470L704 508L743 508L743 484L783 484L783 503L822 503L822 467L861 467L861 453L900 453L900 474L900 601L900 601L861 601L861 601L822 601L822 601L783 601L783 601L743 601L743 601L704 601L704 601L665 601L665 601L626 601L626 601L587 601L587 601L548 601L548 601L509 601L509 601L470 601L470 601L430 601L430 601L391 601L391 601L352 601L352 601L313 601L313 601L274 601L274 601L235 601L235 601L196 601L196 601L157 601L157 601L117 601L117 601L78 601L78 601L39 601L39 601L0 601Z" fill="#9900ff"></path><path d="M0 478L39 478L39 491L78 491L78 484L117 484L117 477L157 477L157 486L196 486L196 509L235 509L235 515L274 515L274 522L313 522L313 485L352 485L352 487L391 487L391 507L430 507L430 513L470 513L470 484L509 484L509 483L548 483L548 521L587 521L587 511L626 511L626 517L665 517L665 501L704 501L704 522L743 522L743 489L783 489L783 513L822 513L822 509L861 509L861 486L900 486L900 519L900 601L900 601L861 601L861 601L822 601L822 601L783 601L783 601L743 601L743 601L704 601L704 601L665 601L665 601L626 601L626 601L587 601L587 601L548 601L548 601L509 601L509 601L470 601L470 601L430 601L430 601L391 601L391 601L352 601L352 601L313 601L313 601L274 601L274 601L235 601L235 601L196 601L196 601L157 601L157 601L117 601L117 601L78 601L78 601L39 601L39 601L0 601Z" fill="#8217d9"></path><path d="M0 511L39 511L39 522L78 522L78 499L117 499L117 517L157 517L157 521L196 521L196 531L235 531L235 527L274 527L274 537L313 537L313 540L352 540L352 518L391 518L391 527L430 527L430 520L470 520L470 542L509 542L509 541L548 541L548 513L587 513L587 504L626 504L626 543L665 543L665 540L704 540L704 538L743 538L743 534L783 534L783 497L822 497L822 514L861 514L861 534L900 534L900 515L900 601L900 601L861 601L861 601L822 601L822 601L783 601L783 601L743 601L743 601L704 601L704 601L665 601L665 601L626 601L626 601L587 601L587 601L548 601L548 601L509 601L509 601L470 601L470 601L430 601L430 601L391 601L391 601L352 601L352 601L313 601L313 601L274 601L274 601L235 601L235 601L196 601L196 601L157 601L157 601L117 601L117 601L78 601L78 601L39 601L39 601L0 601Z" fill="#6c1eb4"></path><path d="M0 541L39 541L39 530L78 530L78 557L117 557L117 554L157 554L157 535L196 535L196 537L235 537L235 551L274 551L274 518L313 518L313 518L352 518L352 541L391 541L391 544L430 544L430 519L470 519L470 526L509 526L509 549L548 549L548 519L587 519L587 527L626 527L626 554L665 554L665 522L704 522L704 540L743 540L743 525L783 525L783 544L822 544L822 531L861 531L861 525L900 525L900 523L900 601L900 601L861 601L861 601L822 601L822 601L783 601L783 601L743 601L743 601L704 601L704 601L665 601L665 601L626 601L626 601L587 601L587 601L548 601L548 601L509 601L509 601L470 601L470 601L430 601L430 601L391 601L391 601L352 601L352 601L313 601L313 601L274 601L274 601L235 601L235 601L196 601L196 601L157 601L157 601L117 601L117 601L78 601L78 601L39 601L39 601L0 601Z" fill="#581f90"></path><path d="M0 562L39 562L39 542L78 542L78 571L117 571L117 562L157 562L157 568L196 568L196 547L235 547L235 539L274 539L274 572L313 572L313 560L352 560L352 542L391 542L391 560L430 560L430 544L470 544L470 546L509 546L509 564L548 564L548 563L587 563L587 545L626 545L626 560L665 560L665 552L704 552L704 570L743 570L743 539L783 539L783 541L822 541L822 551L861 551L861 540L900 540L900 549L900 601L900 601L861 601L861 601L822 601L822 601L783 601L783 601L743 601L743 601L704 601L704 601L665 601L665 601L626 601L626 601L587 601L587 601L548 601L548 601L509 601L509 601L470 601L470 601L430 601L430 601L391 601L391 601L352 601L352 601L313 601L313 601L274 601L274 601L235 601L235 601L196 601L196 601L157 601L157 601L117 601L117 601L78 601L78 601L39 601L39 601L0 601Z" fill="#451e6d"></path><path d="M0 580L39 580L39 585L78 585L78 570L117 570L117 568L157 568L157 585L196 585L196 580L235 580L235 571L274 571L274 579L313 579L313 577L352 577L352 582L391 582L391 568L430 568L430 562L470 562L470 577L509 577L509 571L548 571L548 578L587 578L587 578L626 578L626 583L665 583L665 567L704 567L704 569L743 569L743 586L783 586L783 574L822 574L822 581L861 581L861 583L900 583L900 584L900 601L900 601L861 601L861 601L822 601L822 601L783 601L783 601L743 601L743 601L704 601L704 601L665 601L665 601L626 601L626 601L587 601L587 601L548 601L548 601L509 601L509 601L470 601L470 601L430 601L430 601L391 601L391 601L352 601L352 601L313 601L313 601L274 601L274 601L235 601L235 601L196 601L196 601L157 601L157 601L117 601L117 601L78 601L78 601L39 601L39 601L0 601Z" fill="#331b4c"></path></svg>