<svg width="27" height="27" viewBox="0 0 27 27" fill="none" xmlns="http://www.w3.org/2000/svg">
<circle cx="13.5" cy="13.5" r="13.5" fill="#6600FF"/>
<g clip-path="url(#clip0)">
<path d="M16.1924 12.8609C14.9305 10.4522 14.4717 7.27414 14.4671 7.2417C14.4555 7.16837 14.4156 7.10252 14.356 7.05833C14.2964 7.01415 14.2217 6.99518 14.1482 7.00552C14.0747 7.01585 14.0082 7.05466 13.9631 7.11358C13.9179 7.17249 13.8978 7.24679 13.9069 7.32045C13.9262 7.45948 14.4015 10.7545 15.7693 13.2696C15.7936 13.3143 15.8295 13.3516 15.8732 13.3776C15.917 13.4036 15.9669 13.4173 16.0177 13.4173C16.2994 13.4173 16.5696 13.5292 16.7688 13.7284C16.968 13.9276 17.0799 14.1978 17.0799 14.4795C17.0799 14.7612 16.968 15.0313 16.7688 15.2305C16.5696 15.4297 16.2994 15.5416 16.0177 15.5416H15.1753C15.1932 15.4952 15.2103 15.4484 15.2256 15.4007C15.237 15.3653 15.2413 15.328 15.2383 15.291C15.2353 15.254 15.225 15.2179 15.208 15.1849C15.1911 15.1518 15.1678 15.1224 15.1395 15.0984C15.1111 15.0743 15.0784 15.0561 15.043 15.0447C15.0076 15.0333 14.9704 15.029 14.9333 15.032C14.8963 15.0351 14.8603 15.0454 14.8272 15.0623C14.7941 15.0793 14.7648 15.1026 14.7407 15.1309C14.7167 15.1592 14.6984 15.192 14.6871 15.2274C14.5603 15.6221 14.3115 15.9665 13.9765 16.2108C13.6414 16.4551 13.2375 16.5867 12.8228 16.5867C12.4082 16.5867 12.0043 16.4551 11.6692 16.2108C11.3342 15.9665 11.0854 15.6221 10.9586 15.2274C10.9357 15.1559 10.8852 15.0966 10.8185 15.0623C10.7517 15.0281 10.6741 15.0217 10.6027 15.0447C10.5313 15.0677 10.4719 15.1181 10.4376 15.1849C10.4034 15.2516 10.3971 15.3292 10.42 15.4007C10.4354 15.4488 10.4525 15.4952 10.4704 15.5416H9.62795C9.34625 15.5416 9.07609 15.4297 8.8769 15.2305C8.67771 15.0313 8.5658 14.7612 8.5658 14.4795C8.5658 14.1978 8.67771 13.9276 8.8769 13.7284C9.07609 13.5292 9.34625 13.4173 9.62795 13.4173C9.67882 13.4173 9.72875 13.4036 9.77248 13.3776C9.81621 13.3516 9.85213 13.3143 9.87646 13.2696C11.2443 10.7545 11.7192 7.45948 11.7388 7.32045C11.7446 7.28337 11.743 7.24551 11.7341 7.20906C11.7251 7.1726 11.709 7.1383 11.6866 7.10814C11.6643 7.07798 11.6362 7.05257 11.6039 7.03339C11.5717 7.0142 11.5359 7.00163 11.4987 6.99641C11.4616 6.99118 11.4237 6.9934 11.3874 7.00295C11.3511 7.01249 11.3171 7.02916 11.2873 7.05199C11.2575 7.07482 11.2326 7.10335 11.2139 7.13592C11.1952 7.16849 11.1833 7.20445 11.1786 7.2417C11.1741 7.27414 10.7165 10.45 9.45331 12.8609C9.03918 12.9057 8.65797 13.1075 8.38814 13.4249C8.11832 13.7422 7.9804 14.1509 8.00278 14.5668C8.02516 14.9827 8.20613 15.3743 8.50844 15.6608C8.81076 15.9474 9.21141 16.1071 9.62795 16.1072H10.7761C11.0103 16.431 11.3179 16.6945 11.6737 16.8763C12.0295 17.058 12.4233 17.1528 12.8228 17.1528C13.2224 17.1528 13.6162 17.058 13.972 16.8763C14.3278 16.6945 14.6354 16.431 14.8696 16.1072H16.0177C16.4343 16.1071 16.8349 15.9474 17.1373 15.6608C17.4396 15.3743 17.6205 14.9827 17.6429 14.5668C17.6653 14.1509 17.5274 13.7422 17.2575 13.4249C16.9877 13.1075 16.6065 12.9057 16.1924 12.8609Z" fill="white"/>
<path d="M9.87076 17.1506C9.83114 17.1506 9.79195 17.1589 9.75575 17.175C9.71954 17.1911 9.68712 17.2146 9.66058 17.2441C9.44251 17.4862 8.35455 18.7321 8.35455 19.4838C8.35455 19.886 8.51432 20.2717 8.7987 20.556C9.08308 20.8404 9.46878 21.0002 9.87096 21.0002C10.2731 21.0002 10.6588 20.8404 10.9432 20.556C11.2276 20.2717 11.3874 19.886 11.3874 19.4838C11.3874 18.7321 10.2994 17.4862 10.0813 17.2441C10.0547 17.2146 10.0223 17.191 9.98598 17.1749C9.94971 17.1588 9.91045 17.1505 9.87076 17.1506ZM9.87076 20.4343C9.61876 20.434 9.37716 20.3338 9.19896 20.1556C9.02075 19.9774 8.9205 19.7358 8.9202 19.4838C8.9202 19.1443 9.42335 18.4067 9.87086 17.8663C10.3183 18.4063 10.8213 19.1436 10.8213 19.4838C10.821 19.7358 10.7208 19.9774 10.5426 20.1556C10.3644 20.3338 10.1228 20.434 9.87076 20.4343Z" fill="white"/>
<path d="M15.6331 17.1506C15.5935 17.1506 15.5543 17.1589 15.5181 17.175C15.4819 17.1911 15.4494 17.2146 15.4229 17.2441C15.2048 17.4862 14.1169 18.7321 14.1169 19.4838C14.1169 19.886 14.2766 20.2717 14.561 20.5561C14.8454 20.8404 15.2311 21.0002 15.6333 21.0002C16.0355 21.0002 16.4212 20.8404 16.7055 20.5561C16.9899 20.2717 17.1497 19.886 17.1497 19.4838C17.1497 18.7321 16.0617 17.4862 15.8436 17.2441C15.817 17.2146 15.7845 17.191 15.7483 17.1749C15.712 17.1588 15.6728 17.1505 15.6331 17.1506ZM15.6331 20.4343C15.3811 20.434 15.1395 20.3338 14.9613 20.1556C14.7831 19.9774 14.6828 19.7358 14.6825 19.4838C14.6825 19.1443 15.1856 18.4067 15.6331 17.8663C16.0806 18.4063 16.5836 19.1437 16.5836 19.4838C16.5833 19.7358 16.483 19.9774 16.3048 20.1555C16.1267 20.3337 15.8851 20.434 15.6331 20.4343Z" fill="white"/>
<path d="M16.3821 7.56573H21.7176C21.7552 7.56643 21.7925 7.55962 21.8274 7.54572C21.8624 7.53182 21.8942 7.5111 21.921 7.48477C21.9478 7.45844 21.9691 7.42702 21.9837 7.39237C21.9982 7.35771 22.0057 7.3205 22.0057 7.28291C22.0057 7.24533 21.9982 7.20812 21.9837 7.17346C21.9691 7.1388 21.9478 7.10739 21.921 7.08106C21.8942 7.05473 21.8624 7.03401 21.8274 7.02011C21.7925 7.0062 21.7552 6.9994 21.7176 7.00009H16.3821C16.308 7.00146 16.2374 7.03186 16.1854 7.08475C16.1335 7.13764 16.1044 7.2088 16.1044 7.28291C16.1044 7.35703 16.1335 7.42819 16.1854 7.48108C16.2374 7.53397 16.308 7.56436 16.3821 7.56573Z" fill="white"/>
<path d="M21.7172 8.69701H18.1494C18.0753 8.69838 18.0046 8.72877 17.9527 8.78166C17.9008 8.83455 17.8717 8.90571 17.8717 8.97983C17.8717 9.05394 17.9008 9.1251 17.9527 9.17799C18.0046 9.23088 18.0753 9.26128 18.1494 9.26265H21.7172C21.7548 9.26334 21.7921 9.25654 21.827 9.24264C21.8619 9.22873 21.8937 9.20801 21.9206 9.18168C21.9474 9.15535 21.9687 9.12394 21.9832 9.08928C21.9978 9.05462 22.0053 9.01741 22.0053 8.97983C22.0053 8.94224 21.9978 8.90503 21.9832 8.87038C21.9687 8.83572 21.9474 8.8043 21.9206 8.77797C21.8937 8.75164 21.8619 8.73092 21.827 8.71702C21.7921 8.70312 21.7548 8.69632 21.7172 8.69701Z" fill="white"/>
<path d="M21.7171 10.3939H19.9167C19.8417 10.3939 19.7698 10.4237 19.7167 10.4768C19.6637 10.5298 19.6339 10.6018 19.6339 10.6768C19.6339 10.7518 19.6637 10.8238 19.7167 10.8768C19.7698 10.9299 19.8417 10.9597 19.9167 10.9597H21.7171C21.7922 10.9597 21.8641 10.9299 21.9172 10.8768C21.9702 10.8238 22 10.7518 22 10.6768C22 10.6018 21.9702 10.5298 21.9172 10.4768C21.8641 10.4237 21.7922 10.3939 21.7171 10.3939Z" fill="white"/>
</g>
<defs>
<clipPath id="clip0">
<rect width="14" height="14" fill="white" transform="translate(8 7)"/>
</clipPath>
</defs>
</svg>
