<svg width="27" height="27" viewBox="0 0 27 27" fill="none" xmlns="http://www.w3.org/2000/svg">
<circle cx="13.5" cy="13.5" r="13.5" fill="#A365FF"/>
<g clip-path="url(#clip0)">
<path d="M20.1377 17.6681C20.126 17.6274 20.106 17.5897 20.0788 17.5572C20.0516 17.5248 20.0179 17.4985 19.98 17.4799L18.4767 16.7431C18.5872 16.2729 18.6428 15.7915 18.6425 15.3085C18.6408 14.876 18.6015 14.4446 18.525 14.019H19.5797C19.6425 14.019 19.7038 13.9996 19.7551 13.9633L20.8715 13.1719C20.9371 13.1254 20.9815 13.0547 20.995 12.9755C21.0085 12.8962 20.99 12.8148 20.9434 12.7493C20.8969 12.6837 20.8263 12.6393 20.747 12.6258C20.6678 12.6123 20.5864 12.6309 20.5208 12.6774L19.4831 13.413H18.3944C18.2317 12.7671 17.9901 12.1438 17.6749 11.557L19.2011 10.3757C19.2543 10.3345 19.2923 10.2769 19.309 10.2117L19.7217 8.61096C19.7316 8.57244 19.7339 8.53233 19.7283 8.49293C19.7228 8.45353 19.7095 8.41561 19.6893 8.38134C19.6691 8.34706 19.6423 8.31711 19.6105 8.29318C19.5787 8.26925 19.5425 8.25182 19.504 8.24187C19.4655 8.23193 19.4254 8.22967 19.386 8.23523C19.3466 8.24079 19.3087 8.25405 19.2744 8.27426C19.2401 8.29447 19.2102 8.32124 19.1862 8.35302C19.1623 8.38481 19.1449 8.421 19.1349 8.45953L18.7478 9.95993L17.3584 11.0353C17.1675 10.7476 16.9462 10.4813 16.6982 10.241C16.9065 10.0049 17.0236 9.70207 17.0283 9.38721C17.0258 8.86607 16.6934 8.38092 16.0402 7.94519C15.8014 7.7736 15.6052 7.54946 15.4667 7.29005C15.4616 7.27986 15.4559 7.26997 15.4497 7.26044C15.407 7.1871 15.3658 7.11303 15.3254 7.03938C15.0572 6.55228 14.7536 6.00029 13.9782 6.00029H13.0199C12.2445 6.00029 11.9407 6.55228 11.6728 7.03938C11.6323 7.11303 11.5911 7.1871 11.5485 7.26044C11.5422 7.26997 11.5365 7.27986 11.5314 7.29005C11.3929 7.54943 11.1967 7.77356 10.958 7.94519C10.3048 8.38092 9.9724 8.86607 9.96993 9.38711C9.97443 9.70193 10.0913 10.0048 10.2994 10.241C10.0514 10.4813 9.83007 10.7476 9.63921 11.0353L8.24991 9.96004L7.86276 8.45963C7.84173 8.38286 7.79134 8.31745 7.72248 8.27752C7.65362 8.23759 7.57181 8.22637 7.49474 8.24625C7.41766 8.26614 7.35151 8.31555 7.31056 8.38381C7.26962 8.45207 7.25717 8.5337 7.27591 8.61107L7.68853 10.2118C7.70532 10.2769 7.74328 10.3346 7.79643 10.3758L9.32355 11.5567C9.00844 12.1435 8.76682 12.7669 8.60415 13.4128H7.51534L6.47748 12.6774C6.44501 12.6543 6.40832 12.6379 6.36951 12.6291C6.3307 12.6202 6.29052 12.6191 6.25127 12.6258C6.21203 12.6325 6.17449 12.6468 6.14078 12.668C6.10708 12.6892 6.07788 12.7168 6.05485 12.7493C6.03182 12.7817 6.01542 12.8184 6.00657 12.8572C5.99772 12.8961 5.9966 12.9362 6.00328 12.9755C6.00995 13.0147 6.02429 13.0523 6.04548 13.086C6.06666 13.1197 6.09428 13.1489 6.12676 13.1719L7.24321 13.9633C7.2945 13.9996 7.35576 14.019 7.41857 14.019H8.47334C8.39678 14.4446 8.35747 14.876 8.35584 15.3085C8.35551 15.7915 8.41114 16.2729 8.52162 16.7431L7.01833 17.4799C6.98035 17.4985 6.94668 17.5248 6.91951 17.5572C6.89235 17.5897 6.87228 17.6274 6.8606 17.6681L6.01091 20.6129C5.99906 20.6514 5.99501 20.6919 5.99897 20.7319C6.00293 20.772 6.01483 20.8109 6.03398 20.8463C6.05312 20.8817 6.07913 20.9129 6.11049 20.9382C6.14184 20.9634 6.17791 20.9822 6.21659 20.9933C6.25527 21.0045 6.29578 21.0078 6.33576 21.0031C6.37574 20.9985 6.41439 20.9859 6.44946 20.9661C6.48452 20.9463 6.51529 20.9197 6.53997 20.8879C6.56465 20.8561 6.58276 20.8198 6.59322 20.7809L7.40558 17.9647L8.69348 17.3335C9.4329 19.4745 11.3076 20.9997 13.499 20.9997C15.6904 20.9997 17.565 19.4745 18.3044 17.3334L19.5924 17.9647L20.4048 20.7809C20.423 20.844 20.4612 20.8995 20.5137 20.939C20.5662 20.9785 20.6301 20.9999 20.6958 21C20.7427 20.9999 20.789 20.989 20.831 20.968C20.873 20.947 20.9096 20.9166 20.9378 20.8791C20.9661 20.8415 20.9852 20.798 20.9937 20.7518C21.0023 20.7056 20.9999 20.6581 20.987 20.6129L20.1377 17.6681ZM11.2949 8.44911C11.5148 8.30023 11.7062 8.11302 11.86 7.8964L12.0112 8.03679C12.0701 8.09151 12.1483 8.12059 12.2286 8.11763C12.309 8.11467 12.3849 8.07992 12.4396 8.02102C12.4943 7.96211 12.5234 7.88388 12.5204 7.80354C12.5175 7.7232 12.4827 7.64733 12.4238 7.59261L12.1837 7.36959L12.2043 7.33131C12.4737 6.84153 12.6209 6.60613 13.0203 6.60613H13.9786C14.3781 6.60613 14.5253 6.84153 14.7947 7.33131C14.8016 7.344 14.8088 7.3569 14.8154 7.36959L14.5752 7.59261C14.5163 7.64733 14.4816 7.7232 14.4786 7.80354C14.4756 7.88388 14.5047 7.96211 14.5594 8.02102C14.6142 8.07992 14.69 8.11467 14.7704 8.11763C14.8507 8.12059 14.9289 8.09151 14.9878 8.03679L15.139 7.8964C15.2927 8.11302 15.4841 8.30023 15.7041 8.44911C16.1726 8.76167 16.421 9.08703 16.4224 9.38989C16.4142 9.5797 16.3339 9.75921 16.1978 9.89174C15.3449 9.52679 14.4269 9.33862 13.4993 9.33862C12.5716 9.33862 11.6536 9.52679 10.8007 9.89174C10.6647 9.75915 10.5843 9.57961 10.5762 9.38979C10.5776 9.08703 10.826 8.76167 11.2949 8.44911ZM13.4993 20.3939C10.9976 20.3939 8.9622 18.1126 8.9622 15.3084C8.9622 13.4748 9.81839 11.3747 10.9156 10.5069C11.6309 10.1708 12.4065 9.98207 13.1962 9.95199V18.2654C13.1962 18.3458 13.2282 18.4229 13.285 18.4797C13.3418 18.5366 13.4189 18.5685 13.4993 18.5685C13.5797 18.5685 13.6568 18.5366 13.7136 18.4797C13.7704 18.4229 13.8024 18.3458 13.8024 18.2654V9.95209C14.5921 9.98216 15.3678 10.1709 16.083 10.5071C17.1802 11.375 18.0363 13.475 18.0363 15.3085C18.0363 18.1125 16.001 20.3939 13.4993 20.3939Z" fill="white"/>
</g>
<defs>
<clipPath id="clip0">
<rect width="15" height="15" fill="white" transform="translate(6 6)"/>
</clipPath>
</defs>
</svg>
