<svg width="27" height="27" viewBox="0 0 27 27" fill="none" xmlns="http://www.w3.org/2000/svg">
<circle cx="13.5" cy="13.5" r="13.5" fill="#BD91FF"/>
<g clip-path="url(#clip0)">
<path d="M18.6229 16.2459C18.3425 16.2461 18.0644 16.2957 17.8013 16.3924C17.5341 15.8908 17.1354 15.4712 16.6481 15.1787C16.1608 14.8861 15.6031 14.7316 15.0347 14.7316C14.4663 14.7316 13.9086 14.8861 13.4212 15.1787C12.9339 15.4712 12.5353 15.8908 12.268 16.3924C11.9419 16.2723 11.5935 16.2251 11.2472 16.2542C10.9009 16.2833 10.5652 16.3879 10.2638 16.5608C9.96229 16.7337 9.7024 16.9705 9.50238 17.2547C9.30236 17.5389 9.16708 17.8634 9.10607 18.2056C9.04506 18.5477 9.0598 18.899 9.14926 19.2348C9.23872 19.5706 9.40073 19.8827 9.62386 20.1491C9.84698 20.4155 10.1258 20.6298 10.4407 20.7768C10.7556 20.9238 11.0989 20.9999 11.4464 20.9999H18.6229C19.2533 20.9999 19.8579 20.7495 20.3037 20.3037C20.7495 19.8579 20.9999 19.2533 20.9999 18.6229C20.9999 17.9924 20.7495 17.3878 20.3037 16.942C19.8579 16.4963 19.2533 16.2458 18.6229 16.2458V16.2459ZM18.6229 20.394H11.4464C10.9767 20.394 10.5262 20.2074 10.1941 19.8752C9.86196 19.5431 9.67537 19.0927 9.67537 18.623C9.67537 18.1533 9.86196 17.7028 10.1941 17.3707C10.5262 17.0386 10.9767 16.852 11.4464 16.852C11.7349 16.8511 12.0193 16.9216 12.274 17.0571C12.3113 17.077 12.3524 17.0887 12.3946 17.0917C12.4367 17.0947 12.479 17.0888 12.5188 17.0745C12.5586 17.0601 12.5949 17.0376 12.6254 17.0084C12.6559 16.9792 12.68 16.9439 12.6961 16.9048C12.8867 16.4412 13.2108 16.0447 13.6271 15.7657C14.0435 15.4867 14.5334 15.3377 15.0347 15.3377C15.5359 15.3377 16.0258 15.4867 16.4422 15.7657C16.8586 16.0447 17.1826 16.4412 17.3732 16.9048C17.3893 16.9439 17.4134 16.9792 17.4439 17.0084C17.4745 17.0376 17.5108 17.0601 17.5505 17.0745C17.5903 17.0888 17.6326 17.0947 17.6748 17.0917C17.7169 17.0887 17.758 17.077 17.7954 17.0571C18.05 16.9215 18.3343 16.8511 18.6229 16.852C19.0926 16.852 19.543 17.0386 19.8752 17.3707C20.2073 17.7028 20.3939 18.1533 20.3939 18.623C20.3939 19.0927 20.2073 19.5431 19.8752 19.8752C19.543 20.2074 19.0926 20.394 18.6229 20.394Z" fill="white"/>
<path d="M10.0383 12.7228C9.99801 12.7221 9.958 12.7294 9.92059 12.7443C9.88317 12.7592 9.8491 12.7814 9.82037 12.8096C9.79163 12.8378 9.76881 12.8714 9.75322 12.9086C9.73764 12.9457 9.72961 12.9856 9.72961 13.0258C9.72961 13.0661 9.73764 13.106 9.75322 13.1431C9.76881 13.1802 9.79163 13.2139 9.82037 13.2421C9.8491 13.2703 9.88317 13.2925 9.92059 13.3074C9.958 13.3223 9.99801 13.3296 10.0383 13.3289H13.6756C13.755 13.3274 13.8306 13.2948 13.8863 13.2382C13.9419 13.1815 13.9731 13.1052 13.9731 13.0258C13.9731 12.9464 13.9419 12.8702 13.8863 12.8135C13.8306 12.7568 13.755 12.7243 13.6756 12.7228H10.0383Z" fill="white"/>
<path d="M8.51997 20.3927H6.68182C7.19678 18.0939 8.30138 13.1806 8.3772 12.9178C8.5964 12.1644 9.05416 11.5025 9.6817 11.0316C10.3092 10.5606 11.0727 10.306 11.8573 10.306C12.6419 10.306 13.4053 10.5606 14.0329 11.0316C14.6604 11.5025 15.1182 12.1644 15.3374 12.9178C15.3457 12.9467 15.3796 13.0809 15.512 13.6557C15.521 13.6945 15.5374 13.7311 15.5605 13.7635C15.5836 13.7959 15.6129 13.8234 15.6466 13.8445C15.6803 13.8656 15.7179 13.8799 15.7571 13.8865C15.7964 13.893 15.8365 13.8918 15.8753 13.8829C15.9141 13.874 15.9507 13.8575 15.9831 13.8344C16.0155 13.8113 16.043 13.7821 16.0641 13.7483C16.0852 13.7146 16.0995 13.677 16.1061 13.6378C16.1126 13.5986 16.1114 13.5584 16.1025 13.5196C15.9627 12.9128 15.931 12.7892 15.9194 12.749C15.7257 12.091 15.3757 11.4896 14.8992 10.9963C14.4227 10.5029 13.8338 10.1322 13.183 9.91586V6.30187C13.1837 6.26161 13.1764 6.2216 13.1615 6.18419C13.1466 6.14677 13.1244 6.1127 13.0962 6.08396C13.068 6.05523 13.0343 6.0324 12.9972 6.01681C12.9601 6.00123 12.9202 5.99321 12.8799 5.99321C12.8397 5.99321 12.7998 6.00123 12.7627 6.01681C12.7255 6.0324 12.6919 6.05523 12.6637 6.08396C12.6354 6.1127 12.6132 6.14677 12.5983 6.18419C12.5834 6.2216 12.5762 6.26161 12.5769 6.30187V9.76278C12.1008 9.67888 11.6137 9.67888 11.1376 9.76278V6.30187C11.1376 6.22149 11.1056 6.1444 11.0488 6.08756C10.992 6.03073 10.9149 5.9988 10.8345 5.9988C10.7541 5.9988 10.677 6.03073 10.6202 6.08756C10.5633 6.1444 10.5314 6.22149 10.5314 6.30187V9.91586C9.88056 10.1322 9.29174 10.5029 8.81525 10.9963C8.33875 11.4896 7.98874 12.091 7.79509 12.749C7.69286 13.1016 6.0764 20.3224 6.00769 20.6295C5.99777 20.6738 5.99793 20.7198 6.00817 20.7641C6.01842 20.8083 6.03848 20.8497 6.06688 20.8852C6.09527 20.9206 6.13128 20.9493 6.17222 20.9689C6.21317 20.9886 6.25801 20.9988 6.30344 20.9988H8.52027C8.56054 20.9995 8.60054 20.9923 8.63796 20.9774C8.67537 20.9625 8.70944 20.9403 8.73818 20.912C8.76692 20.8838 8.78975 20.8502 8.80534 20.813C8.82092 20.7759 8.82895 20.736 8.82895 20.6958C8.82895 20.6555 8.82092 20.6156 8.80534 20.5785C8.78975 20.5414 8.76692 20.5077 8.73818 20.4795C8.70944 20.4513 8.67537 20.4291 8.63796 20.4142C8.60054 20.3993 8.56054 20.392 8.52027 20.3927H8.51997Z" fill="white"/>
<path d="M17.0715 12.1379C17.0715 12.5264 17.1867 12.9062 17.4025 13.2292C17.6184 13.5523 17.9251 13.804 18.2841 13.9527C18.643 14.1014 19.038 14.1403 19.419 14.0645C19.8 13.9887 20.1501 13.8016 20.4248 13.5269C20.6995 13.2522 20.8866 12.9022 20.9623 12.5211C21.0381 12.1401 20.9992 11.7451 20.8506 11.3862C20.7019 11.0273 20.4501 10.7205 20.1271 10.5047C19.8041 10.2888 19.4243 10.1736 19.0358 10.1736C18.515 10.1742 18.0157 10.3813 17.6474 10.7496C17.2792 11.1178 17.072 11.6171 17.0715 12.1379ZM19.0358 10.7797C19.3044 10.7797 19.567 10.8593 19.7904 11.0086C20.0138 11.1578 20.1879 11.3699 20.2907 11.6181C20.3935 11.8663 20.4204 12.1394 20.3679 12.4029C20.3155 12.6664 20.1862 12.9084 19.9962 13.0984C19.8063 13.2883 19.5642 13.4177 19.3008 13.4701C19.0373 13.5225 18.7642 13.4956 18.516 13.3928C18.2678 13.29 18.0557 13.1159 17.9064 12.8925C17.7572 12.6692 17.6775 12.4066 17.6775 12.1379C17.6779 11.7778 17.8211 11.4325 18.0758 11.1779C18.3304 10.9233 18.6757 10.78 19.0358 10.7797Z" fill="white"/>
<path d="M16.54 9.57303C16.8097 9.57303 17.0734 9.49306 17.2976 9.34322C17.5219 9.19338 17.6966 8.98042 17.7998 8.73125C17.9031 8.48207 17.9301 8.20789 17.8774 7.94337C17.8248 7.67885 17.695 7.43588 17.5043 7.24518C17.3135 7.05447 17.0706 6.9246 16.8061 6.87198C16.5415 6.81937 16.2673 6.84637 16.0182 6.94958C15.769 7.05279 15.556 7.22757 15.4062 7.45182C15.2564 7.67606 15.1764 7.93971 15.1764 8.20941C15.1768 8.57093 15.3206 8.91752 15.5763 9.17316C15.8319 9.42879 16.1785 9.5726 16.54 9.57303ZM16.54 7.45182C16.6899 7.45182 16.8363 7.49625 16.9609 7.5795C17.0855 7.66274 17.1826 7.78106 17.2399 7.91949C17.2973 8.05792 17.3123 8.21025 17.283 8.3572C17.2538 8.50416 17.1817 8.63915 17.0757 8.7451C16.9698 8.85105 16.8348 8.9232 16.6878 8.95243C16.5409 8.98166 16.3885 8.96666 16.2501 8.90932C16.1117 8.85198 15.9934 8.75488 15.9101 8.6303C15.8269 8.50571 15.7824 8.35924 15.7824 8.20941C15.7827 8.00855 15.8625 7.81599 16.0046 7.67396C16.1466 7.53193 16.3392 7.45204 16.54 7.45182Z" fill="white"/>
</g>
<defs>
<clipPath id="clip0">
<rect width="15" height="15" fill="white" transform="translate(6 6)"/>
</clipPath>
</defs>
</svg>
