<svg width="37" height="37" viewBox="0 0 37 37" fill="none" xmlns="http://www.w3.org/2000/svg">
<rect width="37" height="37" fill="#6600FF"/>
<path d="M20 14H21C21.2652 14 21.5196 13.8946 21.7071 13.7071C21.8946 13.5196 22 13.2652 22 13C22 12.7348 21.8946 12.4804 21.7071 12.2929C21.5196 12.1054 21.2652 12 21 12H20C19.7348 12 19.4804 12.1054 19.2929 12.2929C19.1054 12.4804 19 12.7348 19 13C19 13.2652 19.1054 13.5196 19.2929 13.7071C19.4804 13.8946 19.7348 14 20 14ZM20 18H21C21.2652 18 21.5196 17.8946 21.7071 17.7071C21.8946 17.5196 22 17.2652 22 17C22 16.7348 21.8946 16.4804 21.7071 16.2929C21.5196 16.1054 21.2652 16 21 16H20C19.7348 16 19.4804 16.1054 19.2929 16.2929C19.1054 16.4804 19 16.7348 19 17C19 17.2652 19.1054 17.5196 19.2929 17.7071C19.4804 17.8946 19.7348 18 20 18ZM15 14H16C16.2652 14 16.5196 13.8946 16.7071 13.7071C16.8946 13.5196 17 13.2652 17 13C17 12.7348 16.8946 12.4804 16.7071 12.2929C16.5196 12.1054 16.2652 12 16 12H15C14.7348 12 14.4804 12.1054 14.2929 12.2929C14.1054 12.4804 14 12.7348 14 13C14 13.2652 14.1054 13.5196 14.2929 13.7071C14.4804 13.8946 14.7348 14 15 14ZM15 18H16C16.2652 18 16.5196 17.8946 16.7071 17.7071C16.8946 17.5196 17 17.2652 17 17C17 16.7348 16.8946 16.4804 16.7071 16.2929C16.5196 16.1054 16.2652 16 16 16H15C14.7348 16 14.4804 16.1054 14.2929 16.2929C14.1054 16.4804 14 16.7348 14 17C14 17.2652 14.1054 17.5196 14.2929 17.7071C14.4804 17.8946 14.7348 18 15 18ZM27 26H26V9C26 8.73478 25.8946 8.48043 25.7071 8.29289C25.5196 8.10536 25.2652 8 25 8H11C10.7348 8 10.4804 8.10536 10.2929 8.29289C10.1054 8.48043 10 8.73478 10 9V26H9C8.73478 26 8.48043 26.1054 8.29289 26.2929C8.10536 26.4804 8 26.7348 8 27C8 27.2652 8.10536 27.5196 8.29289 27.7071C8.48043 27.8946 8.73478 28 9 28H27C27.2652 28 27.5196 27.8946 27.7071 27.7071C27.8946 27.5196 28 27.2652 28 27C28 26.7348 27.8946 26.4804 27.7071 26.2929C27.5196 26.1054 27.2652 26 27 26ZM19 26H17V22H19V26ZM24 26H21V21C21 20.7348 20.8946 20.4804 20.7071 20.2929C20.5196 20.1054 20.2652 20 20 20H16C15.7348 20 15.4804 20.1054 15.2929 20.2929C15.1054 20.4804 15 20.7348 15 21V26H12V10H24V26Z" fill="white"/>
</svg>
