<svg width="27" height="27" viewBox="0 0 27 27" fill="none" xmlns="http://www.w3.org/2000/svg">
<circle cx="13.5" cy="13.5" r="13.5" fill="#8432FF"/>
<g clip-path="url(#clip0)">
<path d="M14.391 13.0022C14.3001 12.9755 14.2174 12.9261 14.1506 12.8588C14.0838 12.7914 14.0352 12.7083 14.0092 12.6171C13.9453 12.3619 13.7961 12.1362 13.5863 11.9774C13.9305 11.5287 14.151 10.9975 14.2256 10.4369C14.2774 10.444 14.3296 10.4476 14.3819 10.4479C14.5912 10.4486 14.7968 10.3917 14.9761 10.2836C15.0595 10.2375 15.1533 10.2132 15.2486 10.2131C15.344 10.213 15.4378 10.237 15.5214 10.283C15.5945 10.327 15.6821 10.3404 15.7651 10.32C15.848 10.2997 15.9196 10.2474 15.9641 10.1745C16.0086 10.1016 16.0224 10.0141 16.0026 9.93104C15.9828 9.84798 15.9309 9.77612 15.8583 9.73117C15.6744 9.62312 15.465 9.56596 15.2517 9.56553C15.0384 9.56511 14.8288 9.62144 14.6444 9.72876C14.5246 9.79943 14.3817 9.81969 14.247 9.78509C14.1991 9.07778 13.9203 8.40577 13.4533 7.87239C13.4884 7.81286 13.5349 7.76084 13.5901 7.7193C13.6453 7.67776 13.7081 7.64752 13.7751 7.63031C13.9813 7.57589 14.1693 7.46754 14.3199 7.3164C14.4704 7.16526 14.578 6.97678 14.6316 6.7703C14.6416 6.72906 14.6434 6.68624 14.6368 6.6443C14.6303 6.60236 14.6156 6.56212 14.5935 6.52587C14.5714 6.48963 14.5424 6.45808 14.5081 6.43305C14.4738 6.40801 14.435 6.38998 14.3937 6.37996C14.3525 6.36995 14.3097 6.36815 14.2677 6.37469C14.2258 6.38122 14.1855 6.39595 14.1493 6.41803C14.113 6.44012 14.0815 6.46913 14.0565 6.5034C14.0314 6.53768 14.0134 6.57655 14.0034 6.6178C13.9768 6.7094 13.9274 6.79276 13.8599 6.86011C13.7923 6.92746 13.7088 6.97659 13.6171 7.00292C13.3619 7.06681 13.1362 7.21599 12.9773 7.42576C12.5286 7.08161 11.9974 6.86122 11.4369 6.78658C11.4724 6.52627 11.418 6.26163 11.2828 6.03638C11.2366 5.95295 11.2123 5.85917 11.2122 5.76381C11.2121 5.66845 11.2362 5.5746 11.2821 5.49105C11.325 5.41796 11.3374 5.33096 11.3168 5.2488C11.2961 5.16663 11.244 5.09586 11.1717 5.0517C11.0994 5.00754 11.0127 4.99353 10.9301 5.01269C10.8476 5.03185 10.7759 5.08265 10.7304 5.15414C10.6223 5.33803 10.565 5.5474 10.5646 5.76073C10.5641 5.97407 10.6205 6.18369 10.7279 6.36802C10.7986 6.48782 10.8189 6.63073 10.7844 6.76546C10.0768 6.81328 9.40467 7.09226 8.87121 7.55946C8.81166 7.52437 8.75963 7.47785 8.71809 7.4226C8.67655 7.36736 8.64632 7.30446 8.62914 7.2375C8.57475 7.03122 8.46639 6.84315 8.31522 6.69262C8.16405 6.54209 7.97553 6.43452 7.76902 6.381C7.6856 6.36129 7.59776 6.37552 7.52484 6.42057C7.45192 6.46562 7.39987 6.53778 7.38015 6.6212C7.36044 6.70462 7.37468 6.79245 7.41972 6.86537C7.46477 6.9383 7.53693 6.99035 7.62035 7.01006C7.71134 7.03681 7.79408 7.08615 7.86086 7.15349C7.92764 7.22082 7.97629 7.30397 8.00228 7.39518C8.06613 7.65042 8.21529 7.87617 8.42504 8.03501C8.08086 8.48373 7.86045 9.0149 7.78585 9.57547C7.5256 9.53987 7.26099 9.59401 7.03564 9.72897C6.95222 9.77521 6.85844 9.79952 6.76307 9.79964C6.6677 9.79975 6.57386 9.77566 6.49033 9.72963C6.4172 9.68646 6.33003 9.6738 6.24764 9.69437C6.16525 9.71495 6.09427 9.76711 6.05003 9.8396C6.00579 9.91208 5.99184 9.99905 6.0112 10.0817C6.03057 10.1644 6.08169 10.2361 6.15351 10.2814C6.34167 10.391 6.55558 10.4486 6.77332 10.4481C6.98268 10.4488 7.1882 10.392 7.3675 10.2839C7.48728 10.2132 7.63022 10.1929 7.76495 10.2274C7.81267 10.9348 8.09153 11.6069 8.55861 12.1402C8.52359 12.1998 8.47714 12.2518 8.42195 12.2934C8.36675 12.3349 8.30389 12.3651 8.23698 12.3823C8.0307 12.4367 7.84264 12.5451 7.69209 12.6963C7.54155 12.8474 7.43396 13.0359 7.38038 13.2424C7.36904 13.2901 7.36863 13.3397 7.37917 13.3875C7.38972 13.4353 7.41096 13.4801 7.44128 13.5186C7.47161 13.557 7.51023 13.5881 7.55428 13.6095C7.59833 13.6309 7.64665 13.6421 7.69562 13.6422C7.76803 13.6423 7.83834 13.618 7.89515 13.5731C7.95196 13.5282 7.99193 13.4654 8.00856 13.3949C8.03517 13.3034 8.08455 13.22 8.15209 13.1527C8.21962 13.0853 8.30311 13.0362 8.39477 13.0098C8.65002 12.9459 8.87577 12.7967 9.03461 12.587C9.48332 12.9312 10.0145 13.1516 10.5751 13.2263C10.5396 13.4865 10.5939 13.7511 10.7291 13.9764C10.7753 14.0598 10.7996 14.1536 10.7997 14.249C10.7998 14.3444 10.7758 14.4382 10.7298 14.5218C10.7077 14.558 10.6929 14.5983 10.6864 14.6402C10.6798 14.6821 10.6816 14.7249 10.6916 14.7662C10.7015 14.8075 10.7196 14.8463 10.7446 14.8806C10.7696 14.9149 10.8011 14.9439 10.8373 14.9661C10.8736 14.9882 10.9138 15.0029 10.9557 15.0095C10.9977 15.016 11.0405 15.0143 11.0817 15.0043C11.123 14.9943 11.1619 14.9763 11.1962 14.9513C11.2305 14.9263 11.2595 14.8947 11.2816 14.8585C11.3897 14.6746 11.4469 14.4652 11.4474 14.2519C11.4478 14.0385 11.3914 13.8289 11.284 13.6446C11.2133 13.5249 11.1931 13.382 11.2277 13.2474C11.9351 13.1995 12.6073 12.9206 13.1407 12.4534C13.2003 12.4885 13.2523 12.535 13.2938 12.5902C13.3354 12.6454 13.3656 12.7083 13.3828 12.7752C13.4372 12.9815 13.5455 13.1696 13.6967 13.3202C13.8478 13.4707 14.0363 13.5783 14.2428 13.6319C14.2841 13.6416 14.3269 13.6431 14.3688 13.6363C14.4107 13.6296 14.4509 13.6146 14.487 13.5923C14.5231 13.57 14.5545 13.5408 14.5793 13.5063C14.6041 13.4719 14.6219 13.4329 14.6317 13.3916C14.6414 13.3503 14.643 13.3075 14.6362 13.2656C14.6294 13.2237 14.6144 13.1836 14.5921 13.1475C14.5698 13.1114 14.5406 13.08 14.5062 13.0552C14.4717 13.0303 14.4328 13.0125 14.3915 13.0028L14.391 13.0022ZM11.0048 7.40321H11.0065C11.6967 7.40344 12.3585 7.6778 12.8464 8.16596C13.3343 8.65411 13.6084 9.31608 13.6082 10.0063C13.6081 10.6964 13.3339 11.3583 12.8458 11.8463C12.3577 12.3343 11.6958 12.6084 11.0056 12.6084C10.3155 12.6084 9.65353 12.3343 9.16546 11.8463C8.67739 11.3583 8.40314 10.6964 8.40302 10.0063C8.4029 9.31608 8.67694 8.65411 9.16484 8.16596C9.65275 7.6778 10.3146 7.40344 11.0048 7.40321Z" fill="white"/>
<path d="M21.8467 17.185C21.7045 17.1013 21.5425 17.057 21.3775 17.0565C21.2125 17.0561 21.0503 17.0996 20.9077 17.1825C20.8693 17.2054 20.8255 17.2175 20.7809 17.2176C20.734 16.768 20.557 16.3418 20.2714 15.9913C20.3032 15.9592 20.3431 15.9364 20.3869 15.9253C20.5464 15.8831 20.6919 15.7992 20.8083 15.6822C20.9247 15.5652 21.0078 15.4194 21.0492 15.2596C21.0675 15.1766 21.0525 15.0898 21.0074 15.0178C20.9622 14.9459 20.8906 14.8945 20.8079 14.875C20.7252 14.8555 20.6381 14.8693 20.5656 14.9134C20.493 14.9576 20.4407 15.0285 20.42 15.1109C20.4062 15.1555 20.3815 15.1959 20.3482 15.2286C20.3148 15.2612 20.2739 15.2851 20.2291 15.298C20.0644 15.3389 19.9149 15.4263 19.7984 15.5497C19.5193 15.3532 19.2002 15.2207 18.864 15.1617C18.8688 14.9924 18.8249 14.8253 18.7375 14.6802C18.7146 14.6385 18.7026 14.5917 18.7026 14.5441C18.7026 14.4965 18.7146 14.4497 18.7375 14.408C18.7803 14.3348 18.7926 14.2476 18.7718 14.1654C18.7509 14.0832 18.6986 14.0124 18.626 13.9684C18.5535 13.9244 18.4665 13.9107 18.3839 13.9303C18.3014 13.9498 18.2298 14.001 18.1847 14.0729C18.101 14.2151 18.0566 14.377 18.0562 14.5421C18.0558 14.7071 18.0993 14.8692 18.1823 15.0119C18.2051 15.0502 18.2172 15.0939 18.2174 15.1385C17.7677 15.1854 17.3415 15.3624 16.991 15.6479C16.959 15.6161 16.9361 15.5762 16.925 15.5325C16.8828 15.3729 16.7989 15.2275 16.6819 15.1111C16.5649 14.9948 16.4191 14.9116 16.2593 14.8703C16.218 14.8605 16.1752 14.859 16.1333 14.8658C16.0914 14.8726 16.0512 14.8876 16.0151 14.9099C15.979 14.9322 15.9477 14.9614 15.9228 14.9958C15.898 15.0302 15.8802 15.0692 15.8705 15.1105C15.8607 15.1518 15.8592 15.1946 15.866 15.2365C15.8728 15.2784 15.8877 15.3186 15.91 15.3547C15.9323 15.3908 15.9615 15.4221 15.996 15.447C16.0304 15.4718 16.0694 15.4896 16.1107 15.4993C16.1552 15.5132 16.1956 15.5379 16.2282 15.5713C16.2608 15.6046 16.2847 15.6455 16.2977 15.6903C16.3386 15.855 16.426 16.0045 16.5495 16.1209C16.353 16.4001 16.2205 16.7192 16.1615 17.0554C15.9922 17.0506 15.825 17.0945 15.6799 17.1819C15.6382 17.2047 15.5914 17.2167 15.5438 17.2167C15.4962 17.2167 15.4494 17.2047 15.4077 17.1819C15.3343 17.1374 15.2464 17.1239 15.1631 17.1444C15.0799 17.1648 15.0082 17.2174 14.9637 17.2907C14.9193 17.364 14.9058 17.452 14.9262 17.5353C14.9467 17.6185 14.9993 17.6902 15.0726 17.7347C15.2184 17.8195 15.384 17.864 15.5527 17.8637C15.7143 17.8642 15.873 17.8204 16.0115 17.737C16.0499 17.7142 16.0937 17.7021 16.1384 17.702C16.1851 18.1516 16.3621 18.5777 16.6476 18.9282C16.6158 18.9603 16.576 18.9831 16.5322 18.9942C16.3727 19.0364 16.2272 19.1203 16.1108 19.2373C15.9945 19.3543 15.9113 19.5002 15.87 19.6599C15.8584 19.7076 15.8578 19.7574 15.8682 19.8054C15.8787 19.8534 15.8999 19.8984 15.9303 19.937C15.9606 19.9756 15.9994 20.0067 16.0436 20.0282C16.0878 20.0496 16.1363 20.0607 16.1854 20.0607C16.2576 20.061 16.3278 20.0368 16.3845 19.9921C16.4412 19.9474 16.481 19.8848 16.4975 19.8145C16.5108 19.7687 16.5354 19.7269 16.569 19.6931C16.6027 19.6593 16.6443 19.6345 16.6901 19.6211C16.8548 19.5801 17.0042 19.4928 17.1206 19.3693C17.3998 19.5658 17.7189 19.6983 18.0552 19.7573C18.0503 19.9266 18.0942 20.0938 18.1816 20.2389C18.2045 20.2806 18.2164 20.3274 18.2164 20.3749C18.2164 20.4224 18.2045 20.4692 18.1816 20.5109C18.1391 20.5841 18.127 20.6711 18.1479 20.7531C18.1688 20.8352 18.2211 20.9057 18.2935 20.9497C18.3659 20.9936 18.4526 21.0073 18.535 20.988C18.6175 20.9686 18.689 20.9177 18.7343 20.8462C18.818 20.704 18.8624 20.5421 18.8628 20.3771C18.8632 20.212 18.8197 20.0499 18.7367 19.9073C18.7138 19.8689 18.7018 19.8251 18.7017 19.7804C19.1513 19.7336 19.5775 19.5567 19.9279 19.2712C19.96 19.3029 19.9829 19.3427 19.9939 19.3865C20.0361 19.546 20.12 19.6915 20.237 19.8079C20.354 19.9243 20.4999 20.0074 20.6596 20.0488C20.701 20.0585 20.7438 20.0601 20.7857 20.0533C20.8276 20.0465 20.8677 20.0315 20.9038 20.0092C20.94 19.9869 20.9713 19.9577 20.9962 19.9233C21.021 19.8889 21.0388 19.8499 21.0486 19.8086C21.0583 19.7673 21.0599 19.7245 21.0531 19.6826C21.0463 19.6407 21.0313 19.6005 21.009 19.5644C20.9867 19.5283 20.9575 19.4969 20.9231 19.4721C20.8887 19.4473 20.8497 19.4295 20.8084 19.4197C20.7639 19.4058 20.7235 19.3811 20.6908 19.3478C20.6582 19.3145 20.6343 19.2736 20.6214 19.2288C20.5805 19.0641 20.4931 18.9146 20.3696 18.7981C20.5662 18.5187 20.6988 18.1994 20.7577 17.8629C20.7654 17.8629 20.7728 17.8637 20.7805 17.8637C20.9421 17.8642 21.1007 17.8204 21.2392 17.737C21.2808 17.714 21.3276 17.702 21.3752 17.702C21.4227 17.702 21.4695 17.714 21.5112 17.737C21.5844 17.78 21.6717 17.7926 21.7541 17.7718C21.8365 17.751 21.9074 17.6987 21.9514 17.626C21.9955 17.5534 22.0092 17.4663 21.9896 17.3836C21.97 17.301 21.9186 17.2294 21.8466 17.1843L21.8467 17.185ZM18.4601 19.1469C18.0127 19.1471 17.5836 18.9694 17.2671 18.6532C16.9507 18.3369 16.7728 17.9079 16.7727 17.4605C16.7726 17.0131 16.9502 16.584 17.2665 16.2675C17.5828 15.9511 18.0118 15.7732 18.4592 15.7731H18.4605C18.9079 15.7731 19.337 15.9508 19.6534 16.2672C19.9697 16.5836 20.1474 17.0126 20.1474 17.46C20.1474 17.9074 19.9697 18.3365 19.6534 18.6529C19.337 18.9692 18.9079 19.1469 18.4605 19.1469H18.4601Z" fill="white"/>
<path d="M19.753 10.9798C19.8489 10.9798 19.9427 10.9513 20.0224 10.8981C20.1022 10.8448 20.1644 10.7691 20.2011 10.6805C20.2378 10.5919 20.2474 10.4944 20.2287 10.4003C20.21 10.3062 20.1638 10.2198 20.096 10.152C20.0282 10.0842 19.9418 10.038 19.8477 10.0193C19.7537 10.0005 19.6562 10.0101 19.5676 10.0468C19.4789 10.0835 19.4032 10.1457 19.3499 10.2254C19.2966 10.3052 19.2682 10.3989 19.2682 10.4948C19.2683 10.6234 19.3194 10.7466 19.4103 10.8376C19.5012 10.9285 19.6244 10.9796 19.753 10.9798Z" fill="white"/>
<path d="M12.6742 17.2168C12.6742 17.1209 12.6458 17.0272 12.5925 16.9474C12.5392 16.8677 12.4635 16.8055 12.3749 16.7688C12.2863 16.7321 12.1888 16.7225 12.0947 16.7412C12.0007 16.76 11.9142 16.8061 11.8464 16.874C11.7786 16.9418 11.7324 17.0282 11.7137 17.1222C11.695 17.2163 11.7046 17.3138 11.7413 17.4024C11.778 17.491 11.8402 17.5668 11.9199 17.62C11.9997 17.6733 12.0934 17.7018 12.1893 17.7018C12.3179 17.7016 12.4411 17.6505 12.5321 17.5596C12.623 17.4687 12.6741 17.3454 12.6742 17.2168Z" fill="white"/>
<path d="M9.30857 18.2349C9.21266 18.2348 9.11888 18.2633 9.03912 18.3165C8.95936 18.3698 8.89719 18.4456 8.86048 18.5342C8.82376 18.6228 8.81415 18.7203 8.83286 18.8144C8.85157 18.9084 8.89774 18.9948 8.96557 19.0627C9.03339 19.1305 9.11981 19.1767 9.21388 19.1954C9.30795 19.2141 9.40547 19.2045 9.49408 19.1678C9.58269 19.1311 9.65843 19.0689 9.7117 18.9891C9.76498 18.9094 9.7934 18.8156 9.79338 18.7197C9.79323 18.5911 9.74211 18.4679 9.65122 18.377C9.56033 18.2861 9.43711 18.235 9.30857 18.2349Z" fill="white"/>
<path d="M8.3156 15.9587C8.21969 15.9587 8.12594 15.9872 8.0462 16.0405C7.96645 16.0937 7.9043 16.1695 7.8676 16.2581C7.83089 16.3467 7.8213 16.4442 7.84001 16.5383C7.85872 16.6323 7.9049 16.7187 7.97271 16.7865C8.04053 16.8544 8.12693 16.9005 8.221 16.9192C8.31506 16.938 8.41257 16.9284 8.50117 16.8917C8.58978 16.855 8.66551 16.7928 8.71879 16.7131C8.77208 16.6333 8.80051 16.5396 8.80051 16.4437C8.80037 16.3151 8.74923 16.1918 8.65832 16.1009C8.56742 16.01 8.44416 15.9589 8.3156 15.9587Z" fill="white"/>
<path d="M6.48524 18.9853C6.38936 18.9853 6.29564 19.0138 6.21593 19.0671C6.13622 19.1203 6.0741 19.1961 6.03743 19.2847C6.00075 19.3732 5.99116 19.4707 6.00988 19.5647C6.0286 19.6588 6.07478 19.7452 6.14258 19.813C6.21039 19.8807 6.29678 19.9269 6.39081 19.9456C6.48485 19.9643 6.58233 19.9547 6.67091 19.918C6.75949 19.8813 6.8352 19.8192 6.88846 19.7394C6.94173 19.6597 6.97015 19.566 6.97015 19.4701C6.97001 19.3416 6.91888 19.2183 6.82796 19.1274C6.73705 19.0365 6.61379 18.9854 6.48524 18.9853Z" fill="white"/>
<path d="M12.913 20.0302C12.817 20.0302 12.7233 20.0586 12.6435 20.1119C12.5638 20.1652 12.5016 20.2409 12.4649 20.3295C12.4282 20.4182 12.4186 20.5157 12.4374 20.6097C12.4561 20.7038 12.5023 20.7902 12.5701 20.858C12.6379 20.9258 12.7244 20.972 12.8184 20.9907C12.9125 21.0094 13.01 20.9998 13.0986 20.9631C13.1872 20.9263 13.2629 20.8642 13.3162 20.7844C13.3695 20.7047 13.3979 20.6109 13.3979 20.515C13.3978 20.3864 13.3466 20.2631 13.2557 20.1722C13.1648 20.0814 13.0415 20.0303 12.913 20.0302Z" fill="white"/>
<path d="M17.2004 8.72704C17.2962 8.72702 17.39 8.69857 17.4697 8.64528C17.5494 8.592 17.6115 8.51628 17.6482 8.42769C17.6849 8.3391 17.6945 8.24162 17.6757 8.14758C17.657 8.05355 17.6108 7.96718 17.543 7.89939C17.4752 7.8316 17.3888 7.78544 17.2948 7.76674C17.2008 7.74804 17.1033 7.75765 17.0147 7.79434C16.9261 7.83104 16.8504 7.89318 16.7972 7.9729C16.7439 8.05263 16.7155 8.14636 16.7155 8.24224C16.7156 8.37079 16.7667 8.49403 16.8577 8.58492C16.9486 8.67581 17.0718 8.72693 17.2004 8.72704Z" fill="white"/>
<path d="M20.4704 7.17953C20.5663 7.17955 20.6601 7.15114 20.7398 7.09787C20.8196 7.0446 20.8818 6.96888 20.9185 6.88027C20.9552 6.79167 20.9648 6.69416 20.9461 6.60009C20.9274 6.50601 20.8813 6.4196 20.8135 6.35177C20.7456 6.28395 20.6592 6.23775 20.5652 6.21903C20.4711 6.20031 20.3736 6.2099 20.285 6.2466C20.1964 6.2833 20.1206 6.34546 20.0673 6.4252C20.014 6.50495 19.9856 6.59871 19.9856 6.69462C19.9857 6.82316 20.0369 6.94641 20.1278 7.03732C20.2186 7.12822 20.3419 7.17936 20.4704 7.17953Z" fill="white"/>
</g>
<defs>
<clipPath id="clip0">
<rect width="16" height="16" fill="white" transform="translate(6 5)"/>
</clipPath>
</defs>
</svg>
