<svg width="92" height="92" viewBox="0 0 92 92" fill="none" xmlns="http://www.w3.org/2000/svg">
<circle cx="46" cy="46" r="46" fill="#6600FF"/>
<g clip-path="url(#clip0)">
<path d="M28.2819 34.6236C28.3276 34.8005 28.4315 34.9573 28.5773 35.0694C28.723 35.1815 28.9023 35.2425 29.0869 35.2428C29.1564 35.2426 29.2255 35.234 29.2928 35.2172C29.5063 35.1634 29.6895 35.0281 29.8021 34.8409C29.9148 34.6537 29.9477 34.43 29.8937 34.2188C29.8207 33.9346 28.0606 27.2645 23.8412 27.2151C23.7305 27.2112 23.6201 27.2292 23.5165 27.2681C23.4129 27.307 23.3182 27.3661 23.238 27.4417C23.1578 27.5173 23.0936 27.608 23.0494 27.7084C23.0052 27.8089 22.9817 27.9171 22.9804 28.0267C22.979 28.1363 22.9999 28.245 23.0416 28.3465C23.0834 28.448 23.1453 28.5402 23.2236 28.6177C23.3019 28.6952 23.3951 28.7565 23.4977 28.7978C23.6003 28.8392 23.7103 28.8599 23.8211 28.8587C26.2671 28.8871 27.8702 33.03 28.2819 34.6236Z" fill="white"/>
<path d="M31.2507 34.4531C31.2592 34.6652 31.3503 34.866 31.5051 35.0132C31.6599 35.1604 31.8663 35.2426 32.081 35.2428H32.1138C32.334 35.2342 32.5418 35.1396 32.6915 34.9797C32.8412 34.8198 32.9207 34.6077 32.9125 34.39C32.9027 34.1444 32.6491 28.3419 30.0731 25.4947C29.9251 25.336 29.72 25.2412 29.5019 25.2308C29.2839 25.2204 29.0705 25.2952 28.9077 25.439C28.745 25.5828 28.646 25.7842 28.6321 25.9996C28.6182 26.215 28.6905 26.4271 28.8334 26.5902C31.0092 28.9946 31.2484 34.3985 31.2507 34.4531Z" fill="white"/>
<path d="M35.3384 35.2428C35.4475 35.2428 35.5555 35.2215 35.6563 35.1802C35.7571 35.1389 35.8487 35.0784 35.9259 35.0021C36.003 34.9259 36.0642 34.8353 36.106 34.7356C36.1478 34.636 36.1692 34.5291 36.1692 34.4212V24.8221C36.1722 24.7124 36.1528 24.6031 36.1124 24.5009C36.0719 24.3987 36.0112 24.3055 35.9337 24.2269C35.8562 24.1482 35.7636 24.0857 35.6613 24.043C35.559 24.0004 35.4491 23.9784 35.3381 23.9784C35.2271 23.9784 35.1172 24.0004 35.0149 24.043C34.9126 24.0857 34.82 24.1482 34.7425 24.2269C34.665 24.3055 34.6042 24.3987 34.5638 24.5009C34.5233 24.6031 34.504 24.7124 34.5069 24.8221V34.4212C34.5069 34.5292 34.5284 34.636 34.5702 34.7357C34.612 34.8355 34.6733 34.9261 34.7505 35.0024C34.8277 35.0786 34.9194 35.1391 35.0202 35.1804C35.1211 35.2217 35.2292 35.2428 35.3384 35.2428V35.2428Z" fill="white"/>
<path d="M41.3891 35.2189C41.4544 35.2349 41.5214 35.2429 41.5886 35.2428C41.7741 35.2423 41.9541 35.1804 42.1 35.0671C42.2459 34.9538 42.3492 34.7955 42.3936 34.6174C42.791 33.0255 44.367 28.8871 46.8527 28.8581C47.0694 28.8514 47.275 28.7612 47.4254 28.6068C47.5758 28.4524 47.6593 28.246 47.658 28.0316C47.6567 27.8172 47.5708 27.6118 47.4185 27.4592C47.2663 27.3065 47.0598 27.2187 46.843 27.2145H46.8332C42.5655 27.264 40.8532 33.9397 40.779 34.2234C40.7528 34.3284 40.7478 34.4374 40.7643 34.5443C40.7808 34.6512 40.8185 34.7538 40.8752 34.8463C40.9318 34.9388 41.0064 35.0193 41.0946 35.0832C41.1828 35.1471 41.2829 35.1932 41.3891 35.2189V35.2189Z" fill="white"/>
<path d="M38.5693 35.2422H38.5952C38.811 35.2422 39.0184 35.159 39.1734 35.0105C39.3283 34.8619 39.4187 34.6596 39.4254 34.4463C39.4254 34.3922 39.6192 29.002 41.837 26.5953C41.9105 26.5156 41.9674 26.4223 42.0045 26.3207C42.0415 26.2192 42.058 26.1115 42.0529 26.0037C42.0478 25.8959 42.0213 25.7901 41.9749 25.6925C41.9285 25.5948 41.8631 25.5071 41.7824 25.4344C41.7017 25.3617 41.6073 25.3055 41.5047 25.2689C41.402 25.2322 41.293 25.216 41.184 25.221C41.075 25.226 40.968 25.2522 40.8692 25.2981C40.7704 25.344 40.6817 25.4086 40.6082 25.4884C37.9805 28.3396 37.7712 34.1495 37.7637 34.3956C37.7603 34.5036 37.7784 34.6111 37.817 34.7121C37.8556 34.8131 37.9141 34.9055 37.9889 34.9842C38.0637 35.0628 38.1535 35.1261 38.2531 35.1703C38.3527 35.2146 38.4601 35.239 38.5693 35.2422Z" fill="white"/>
<path d="M57.6208 36.9535C59.248 36.9535 61.1024 38.787 61.1024 40.396C61.1052 40.4486 61.1283 40.4982 61.167 40.5344C61.2056 40.5707 61.2569 40.591 61.3103 40.591C61.3636 40.591 61.4148 40.5707 61.4535 40.5344C61.4922 40.4982 61.5153 40.4486 61.5181 40.396C61.5181 38.787 63.3725 36.9535 64.9991 36.9535C65.0274 36.955 65.0556 36.9507 65.0821 36.941C65.1086 36.9314 65.1329 36.9165 65.1534 36.8973C65.1739 36.878 65.1902 36.8549 65.2013 36.8292C65.2125 36.8035 65.2182 36.7759 65.2182 36.748C65.2182 36.72 65.2125 36.6924 65.2013 36.6667C65.1902 36.641 65.1739 36.6179 65.1534 36.5987C65.1329 36.5794 65.1086 36.5645 65.0821 36.5548C65.0556 36.5452 65.0274 36.541 64.9991 36.5424C63.3725 36.5424 61.5181 34.7089 61.5181 33.1005C61.5196 33.0726 61.5153 33.0447 61.5055 33.0185C61.4957 32.9923 61.4807 32.9683 61.4612 32.9481C61.4418 32.9278 61.4184 32.9116 61.3924 32.9006C61.3665 32.8896 61.3385 32.8839 61.3103 32.8839C61.282 32.8839 61.254 32.8896 61.2281 32.9006C61.2021 32.9116 61.1787 32.9278 61.1592 32.9481C61.1398 32.9683 61.1247 32.9923 61.1149 33.0185C61.1052 33.0447 61.1009 33.0726 61.1024 33.1005C61.1024 34.7089 59.248 36.5424 57.6208 36.5424C57.5675 36.5452 57.5174 36.5681 57.4807 36.6063C57.444 36.6446 57.4235 36.6952 57.4235 36.748C57.4235 36.8007 57.444 36.8514 57.4807 36.8896C57.5174 36.9278 57.5675 36.9507 57.6208 36.9535Z" fill="white"/>
<path d="M51.75 30.7496C52.3813 30.8199 52.9697 31.1001 53.4189 31.5442C53.8681 31.9884 54.1514 32.5702 54.2225 33.1944C54.221 33.2223 54.2253 33.2502 54.2351 33.2764C54.2448 33.3026 54.2599 33.3265 54.2794 33.3468C54.2988 33.3671 54.3222 33.3832 54.3482 33.3942C54.3742 33.4053 54.4021 33.411 54.4304 33.411C54.4586 33.411 54.4866 33.4053 54.5126 33.3942C54.5385 33.3832 54.5619 33.3671 54.5814 33.3468C54.6008 33.3265 54.6159 33.3026 54.6257 33.2764C54.6354 33.2502 54.6397 33.2223 54.6382 33.1944C54.7095 32.5698 54.9933 31.9877 55.443 31.5435C55.8928 31.0993 56.4819 30.8194 57.1136 30.7496C57.1688 30.7496 57.2218 30.728 57.2608 30.6894C57.2998 30.6508 57.3218 30.5984 57.3218 30.5438C57.3218 30.4893 57.2998 30.4369 57.2608 30.3983C57.2218 30.3597 57.1688 30.338 57.1136 30.338C56.4814 30.2682 55.892 29.9878 55.4422 29.5431C54.9924 29.0983 54.7089 28.5156 54.6382 27.8905C54.6354 27.8379 54.6123 27.7883 54.5736 27.752C54.535 27.7157 54.4837 27.6955 54.4304 27.6955C54.3771 27.6955 54.3258 27.7157 54.2871 27.752C54.2484 27.7883 54.2253 27.8379 54.2225 27.8905C54.1521 28.5152 53.869 29.0977 53.4197 29.5424C52.9705 29.9871 52.3817 30.2677 51.75 30.338C51.6948 30.338 51.6419 30.3597 51.6028 30.3983C51.5638 30.4369 51.5419 30.4893 51.5419 30.5438C51.5419 30.5984 51.5638 30.6508 51.6028 30.6894C51.6419 30.728 51.6948 30.7496 51.75 30.7496Z" fill="white"/>
<path d="M46.5509 42.3045C46.5509 42.359 46.5727 42.4112 46.6116 42.4497C46.6506 42.4882 46.7034 42.5098 46.7584 42.5098C48.9894 42.5098 51.5309 45.0244 51.5309 47.2286C51.5309 47.2556 51.5363 47.2823 51.5467 47.3072C51.5572 47.3321 51.5724 47.3547 51.5917 47.3737C51.611 47.3928 51.6339 47.4079 51.6591 47.4182C51.6843 47.4285 51.7112 47.4339 51.7385 47.4339C51.7658 47.4339 51.7928 47.4285 51.8179 47.4182C51.8431 47.4079 51.866 47.3928 51.8853 47.3737C51.9046 47.3547 51.9199 47.3321 51.9303 47.3072C51.9407 47.2823 51.9461 47.2556 51.9461 47.2286C51.9461 45.0233 54.4893 42.5098 56.7186 42.5098C56.7718 42.507 56.8219 42.4842 56.8586 42.4459C56.8953 42.4077 56.9158 42.357 56.9158 42.3043C56.9158 42.2516 56.8953 42.2008 56.8586 42.1626C56.8219 42.1244 56.7718 42.1015 56.7186 42.0987C54.4876 42.0987 51.9461 39.5841 51.9461 37.3799C51.9461 37.3255 51.9242 37.2733 51.8853 37.2348C51.8464 37.1963 51.7935 37.1747 51.7385 37.1747C51.6834 37.1747 51.6307 37.1963 51.5917 37.2348C51.5528 37.2733 51.5309 37.3255 51.5309 37.3799C51.5309 39.5858 48.9877 42.0987 46.7584 42.0987C46.7033 42.0989 46.6505 42.1206 46.6116 42.1592C46.5727 42.1978 46.5509 42.2501 46.5509 42.3045V42.3045Z" fill="white"/>
<path d="M57.9158 50.5869C57.032 50.3533 56.0838 50.156 55.1109 49.986C55.1003 49.9842 55.0894 49.985 55.0792 49.9884C55.0689 49.9918 55.0598 49.9976 55.0524 50.0054C55.0451 50.0132 55.0397 50.0227 55.037 50.033C55.0343 50.0433 55.0342 50.0541 55.0367 50.0644L55.9906 53.8856C56.0766 54.123 56.216 54.3381 56.3984 54.5144C56.5808 54.6907 56.8014 54.8237 57.0435 54.9032C61.816 56.4951 65.7093 61.0383 66.6305 66.0346C66.6328 66.0479 66.6378 66.0606 66.6452 66.072C66.6525 66.0833 66.6621 66.0931 66.6733 66.1008C66.6846 66.1085 66.6973 66.1139 66.7106 66.1166C66.724 66.1194 66.7378 66.1196 66.7512 66.117C67.3792 65.9931 67.9452 65.6598 68.3545 65.1728C68.7639 64.6858 68.9917 64.0747 69 63.4415C69.0196 57.4207 64.6686 52.375 57.9158 50.5869Z" fill="white"/>
<path d="M51.0404 58.0148C50.0417 58.0147 49.0653 58.3075 48.2348 58.856C47.4043 59.4046 46.757 60.1844 46.3747 61.0967C45.9925 62.0091 45.8924 63.0131 46.0872 63.9816C46.282 64.9502 46.763 65.8399 47.4692 66.5382C48.1755 67.2365 49.0753 67.712 50.0549 67.9047C51.0345 68.0973 52.0498 67.9984 52.9725 67.6204C53.8953 67.2424 54.6839 66.6024 55.2387 65.7812C55.7936 64.9601 56.0896 63.9947 56.0895 63.0071C56.088 61.6836 55.5556 60.4146 54.609 59.4787C53.6624 58.5428 52.3791 58.0163 51.0404 58.0148V58.0148ZM51.0404 66.3558C50.3706 66.3558 49.7158 66.1594 49.1589 65.7915C48.6019 65.4235 48.1678 64.9005 47.9115 64.2886C47.6552 63.6767 47.5881 63.0034 47.7188 62.3538C47.8495 61.7043 48.172 61.1076 48.6457 60.6393C49.1193 60.171 49.7228 59.852 50.3797 59.7228C51.0367 59.5936 51.7177 59.6599 52.3365 59.9134C52.9554 60.1668 53.4843 60.596 53.8564 61.1467C54.2286 61.6974 54.4272 62.3448 54.4272 63.0071C54.4251 63.8944 54.0675 64.7447 53.4327 65.3719C52.798 65.9991 51.9378 66.352 51.0404 66.3535V66.3558Z" fill="white"/>
<path d="M51.0404 60.8808C50.615 60.8807 50.199 61.0054 49.8452 61.239C49.4913 61.4727 49.2155 61.8049 49.0527 62.1935C48.8898 62.5822 48.8471 63.0099 48.9301 63.4225C49.0131 63.8351 49.218 64.2142 49.5188 64.5116C49.8197 64.8091 50.203 65.0117 50.6204 65.0938C51.0377 65.1758 51.4702 65.1336 51.8633 64.9726C52.2564 64.8115 52.5923 64.5388 52.8287 64.189C53.065 63.8391 53.1911 63.4279 53.1909 63.0071C53.1902 62.4434 52.9634 61.903 52.5602 61.5044C52.1571 61.1058 51.6106 60.8816 51.0404 60.8808V60.8808ZM51.0404 63.4898C50.9439 63.4899 50.8494 63.4617 50.7691 63.4088C50.6887 63.3558 50.6261 63.2804 50.589 63.1923C50.552 63.1041 50.5422 63.007 50.561 62.9133C50.5798 62.8197 50.6262 62.7336 50.6945 62.666C50.7627 62.5985 50.8497 62.5524 50.9444 62.5338C51.0391 62.5151 51.1373 62.5246 51.2266 62.5611C51.3158 62.5977 51.3921 62.6595 51.4457 62.7389C51.4994 62.8183 51.5281 62.9117 51.5281 63.0071C51.5279 63.135 51.4765 63.2576 51.3851 63.3481C51.2937 63.4386 51.1698 63.4895 51.0404 63.4898V63.4898Z" fill="white"/>
<path d="M56.6898 55.9419C56.2785 55.8045 55.9052 55.5745 55.5991 55.27C55.2931 54.9655 55.0628 54.5949 54.9263 54.1874L53.8528 49.8944C53.8443 49.8603 53.8257 49.8295 53.7994 49.8059C53.7731 49.7823 53.7402 49.767 53.705 49.762C51.2774 49.4106 48.8066 49.2213 46.8533 49.1207C46.2101 49.0849 45.5668 49.1898 44.9692 49.4278C44.3716 49.6658 43.8344 50.0311 43.3958 50.4977C42.6736 51.2826 42.2546 52.2942 42.2125 53.3545H40.518C40.2975 53.3547 40.0862 53.4414 39.9304 53.5955C39.7746 53.7497 39.6871 53.9587 39.6871 54.1766V56.2234H36.1675V44.1807H37.3422C37.481 44.1807 37.6176 44.1464 37.7395 44.0808C37.8614 44.0153 37.9648 43.9206 38.0403 43.8055L39.2575 41.9458H41.5265C42.2384 41.945 42.921 41.665 43.4244 41.1673C43.9278 40.6695 44.211 39.9947 44.2118 39.2907V37.1462C44.2118 36.9282 44.1242 36.7191 43.9682 36.5649C43.8123 36.4107 43.6008 36.3241 43.3803 36.3241H27.2941C27.0736 36.3241 26.8621 36.4107 26.7062 36.5649C26.5502 36.7191 26.4626 36.9282 26.4626 37.1462V39.2913C26.4632 39.9952 26.7463 40.6701 27.2496 41.1678C27.7529 41.6656 28.4354 41.9456 29.1473 41.9463H31.4163L32.6336 43.806C32.709 43.9212 32.8124 44.0159 32.9343 44.0814C33.0562 44.147 33.1928 44.1813 33.3316 44.1812H34.5069V56.2268H30.6268C29.5306 56.2268 28.459 56.5482 27.5475 57.1504C26.6361 57.7526 25.9257 58.6085 25.5062 59.6099C25.0867 60.6113 24.977 61.7132 25.1909 62.7762C25.4048 63.8393 25.9327 64.8157 26.7079 65.5821C27.4831 66.3485 28.4707 66.8704 29.5459 67.0817C30.6211 67.2931 31.7355 67.1845 32.7482 66.7697C33.7609 66.3548 34.6265 65.6523 35.2354 64.751C35.8444 63.8498 36.1693 62.7902 36.1692 61.7063V57.8704H39.6871V59.7705C39.687 59.8784 39.7085 59.9853 39.7502 60.085C39.7919 60.1848 39.8531 60.2754 39.9302 60.3517C40.0074 60.4281 40.099 60.4886 40.1998 60.53C40.3007 60.5713 40.4088 60.5925 40.518 60.5925H42.2004V62.4028C42.231 63.387 42.6373 64.3233 43.3378 65.0232C44.0382 65.7232 44.9808 66.1349 45.9759 66.1756C45.9895 66.1761 46.0031 66.173 46.0151 66.1665C46.0271 66.1599 46.037 66.1503 46.0438 66.1385C46.0507 66.1268 46.0541 66.1135 46.0538 66.0999C46.0534 66.0864 46.0494 66.0732 46.042 66.0618C45.4895 65.1806 45.1854 64.1694 45.1611 63.1329C45.1368 62.0963 45.3933 61.0722 45.9039 60.1667C46.4145 59.2611 47.1607 58.507 48.0651 57.9824C48.9696 57.4578 49.9995 57.1819 51.0481 57.1832C52.0967 57.1845 53.1258 57.463 54.029 57.9899C54.9321 58.5167 55.6764 59.2727 56.1846 60.1795C56.6929 61.0864 56.9467 62.1111 56.9198 63.1476C56.8929 64.184 56.5862 65.1945 56.0314 66.0744C56.0244 66.0851 56.0204 66.0976 56.0199 66.1104C56.0195 66.1233 56.0225 66.136 56.0288 66.1472C56.035 66.1585 56.0442 66.1679 56.0554 66.1743C56.0667 66.1808 56.0794 66.1842 56.0924 66.1841H65.4028C65.4181 66.1841 65.4333 66.1808 65.4472 66.1743C65.4611 66.1679 65.4733 66.1585 65.4831 66.1468C65.4929 66.1351 65.4999 66.1214 65.5037 66.1068C65.5076 66.0921 65.508 66.0767 65.5051 66.0618C64.6024 61.5727 60.9701 57.3673 56.6898 55.9419ZM33.3971 41.9446H37.2784L36.892 42.5353H33.7836L33.3971 41.9446ZM34.5063 61.7046C34.5063 62.4633 34.2788 63.2049 33.8525 63.8357C33.4262 64.4665 32.8203 64.9582 32.1114 65.2485C31.4025 65.5388 30.6225 65.6148 29.87 65.4668C29.1174 65.3188 28.4261 64.9535 27.8836 64.417C27.341 63.8805 26.9715 63.197 26.8218 62.4529C26.6721 61.7089 26.7489 60.9376 27.0426 60.2367C27.3362 59.5358 27.8335 58.9367 28.4714 58.5152C29.1094 58.0937 29.8595 57.8687 30.6268 57.8687H34.5069L34.5063 61.7046ZM42.2004 58.9472H41.3494V54.9987H42.2004V58.9472ZM47.8981 55.2893C47.5776 55.2891 47.2644 55.1951 46.998 55.019C46.7316 54.8429 46.524 54.5926 46.4015 54.2999C46.2789 54.0071 46.2469 53.685 46.3095 53.3742C46.3721 53.0635 46.5265 52.7781 46.7531 52.5541C46.9797 52.3301 47.2685 52.1775 47.5828 52.1158C47.8971 52.054 48.2228 52.0857 48.5189 52.207C48.8149 52.3283 49.0679 52.5336 49.246 52.7971C49.424 53.0606 49.519 53.3703 49.519 53.6871C49.5185 54.1121 49.3475 54.5195 49.0435 54.8199C48.7395 55.1203 48.3273 55.2891 47.8975 55.2893H47.8981Z" fill="white"/>
</g>
<defs>
<clipPath id="clip0">
<rect width="46" height="44" fill="white" transform="translate(23 24)"/>
</clipPath>
</defs>
</svg>
