<svg width="425" height="240" viewBox="0 0 425 240" fill="none" xmlns="http://www.w3.org/2000/svg">
<g clip-path="url(#clip0)">
<rect width="425" height="240" fill="white"/>
<rect width="425" height="240" fill="#9900FF"/>
<rect width="425" height="240" fill="white"/>
<rect y="122" width="425" height="120" fill="#6600FF"/>
<rect x="344" y="26" width="7" height="7" fill="black"/>
<rect x="357" y="26" width="7" height="7" fill="black"/>
<rect x="370" y="26" width="7" height="7" fill="black"/>
<rect x="331" y="26" width="7" height="7" fill="black"/>
<rect x="344" y="38" width="7" height="7" fill="black"/>
<rect x="357" y="38" width="7" height="7" fill="black"/>
<rect x="370" y="38" width="7" height="7" fill="black"/>
<rect x="331" y="38" width="7" height="7" fill="black"/>
<rect x="344" y="50" width="7" height="7" fill="black"/>
<rect x="357" y="50" width="7" height="7" fill="black"/>
<rect x="370" y="50" width="7" height="7" fill="black"/>
<rect x="331" y="50" width="7" height="7" fill="black"/>
<rect x="331" y="62" width="7" height="7" fill="black"/>
<rect x="344" y="62" width="7" height="7" fill="black"/>
<rect x="357" y="62" width="7" height="7" fill="black"/>
<rect x="370" y="62" width="7" height="7" fill="black"/>
<rect x="357" y="74" width="7" height="7" fill="black"/>
<rect x="370" y="74" width="7" height="7" fill="black"/>
<rect x="383" y="74" width="7" height="7" fill="black"/>
<rect x="344" y="74" width="7" height="7" fill="black"/>
<rect x="357" y="86" width="7" height="7" fill="black"/>
<rect x="370" y="86" width="7" height="7" fill="black"/>
<rect x="383" y="86" width="7" height="7" fill="black"/>
<rect x="344" y="86" width="7" height="7" fill="black"/>
<rect x="357" y="98" width="7" height="7" fill="black"/>
<rect x="370" y="98" width="7" height="7" fill="black"/>
<rect x="383" y="98" width="7" height="7" fill="black"/>
<rect x="344" y="98" width="7" height="7" fill="black"/>
<rect x="344" y="110" width="7" height="7" fill="black"/>
<rect x="357" y="110" width="7" height="7" fill="black"/>
<rect x="370" y="110" width="7" height="7" fill="black"/>
<rect x="383" y="110" width="7" height="7" fill="black"/>
<rect x="344" y="74" width="7" height="7" fill="black"/>
<rect x="357" y="74" width="7" height="7" fill="black"/>
<rect x="370" y="74" width="7" height="7" fill="black"/>
<rect x="331" y="74" width="7" height="7" fill="black"/>
<rect x="344" y="86" width="7" height="7" fill="black"/>
<rect x="357" y="86" width="7" height="7" fill="black"/>
<rect x="370" y="86" width="7" height="7" fill="black"/>
<rect x="331" y="86" width="7" height="7" fill="black"/>
<rect x="344" y="98" width="7" height="7" fill="black"/>
<rect x="357" y="98" width="7" height="7" fill="black"/>
<rect x="370" y="98" width="7" height="7" fill="black"/>
<rect x="331" y="98" width="7" height="7" fill="black"/>
<rect x="331" y="110" width="7" height="7" fill="black"/>
<rect x="344" y="110" width="7" height="7" fill="black"/>
<rect x="357" y="110" width="7" height="7" fill="black"/>
<rect x="370" y="110" width="7" height="7" fill="black"/>
<rect x="9.6279" y="223" width="1.95349" height="1.95349" fill="black"/>
<rect x="13.2558" y="223" width="1.95349" height="1.95349" fill="black"/>
<rect x="16.8837" y="223" width="1.95349" height="1.95349" fill="black"/>
<rect x="6" y="223" width="1.95349" height="1.95349" fill="black"/>
<rect x="9.6279" y="226.349" width="1.95349" height="1.95349" fill="black"/>
<rect x="13.2558" y="226.349" width="1.95349" height="1.95349" fill="black"/>
<rect x="16.8837" y="226.349" width="1.95349" height="1.95349" fill="black"/>
<rect x="6" y="226.349" width="1.95349" height="1.95349" fill="black"/>
<rect x="9.6279" y="229.698" width="1.95349" height="1.95349" fill="black"/>
<rect x="13.2558" y="229.698" width="1.95349" height="1.95349" fill="black"/>
<rect x="16.8837" y="229.698" width="1.95349" height="1.95349" fill="black"/>
<rect x="6" y="229.698" width="1.95349" height="1.95349" fill="black"/>
<rect x="6" y="233.047" width="1.95349" height="1.95349" fill="black"/>
<rect x="9.6279" y="233.047" width="1.95349" height="1.95349" fill="black"/>
<rect x="13.2558" y="233.047" width="1.95349" height="1.95349" fill="black"/>
<rect x="16.8837" y="233.047" width="1.95349" height="1.95349" fill="black"/>
<rect x="409" y="74" width="7" height="7" fill="black"/>
<rect x="422" y="74" width="7" height="7" fill="black"/>
<rect x="396" y="74" width="7" height="7" fill="black"/>
<rect x="409" y="86" width="7" height="7" fill="black"/>
<rect x="422" y="86" width="7" height="7" fill="black"/>
<rect x="396" y="86" width="7" height="7" fill="black"/>
<rect x="409" y="98" width="7" height="7" fill="black"/>
<rect x="422" y="98" width="7" height="7" fill="black"/>
<rect x="396" y="98" width="7" height="7" fill="black"/>
<rect x="396" y="110" width="7" height="7" fill="black"/>
<rect x="409" y="110" width="7" height="7" fill="black"/>
<rect x="422" y="110" width="7" height="7" fill="black"/>
<rect x="396" y="26" width="7" height="7" fill="black"/>
<rect x="409" y="26" width="7" height="7" fill="black"/>
<rect x="422" y="26" width="7" height="7" fill="black"/>
<rect x="383" y="26" width="7" height="7" fill="black"/>
<rect x="396" y="38" width="7" height="7" fill="black"/>
<rect x="409" y="38" width="7" height="7" fill="black"/>
<rect x="422" y="38" width="7" height="7" fill="black"/>
<rect x="383" y="38" width="7" height="7" fill="black"/>
<rect x="396" y="50" width="7" height="7" fill="black"/>
<rect x="409" y="50" width="7" height="7" fill="black"/>
<rect x="422" y="50" width="7" height="7" fill="black"/>
<rect x="383" y="50" width="7" height="7" fill="black"/>
<rect x="383" y="62" width="7" height="7" fill="black"/>
<rect x="396" y="62" width="7" height="7" fill="black"/>
<rect x="409" y="62" width="7" height="7" fill="black"/>
<rect x="422" y="62" width="7" height="7" fill="black"/>
</g>
<defs>
<clipPath id="clip0">
<rect width="425" height="240" fill="white"/>
</clipPath>
</defs>
</svg>
