<svg width="94" height="91" viewBox="0 0 94 91" fill="none" xmlns="http://www.w3.org/2000/svg">
<rect x="13" width="7" height="7" fill="black"/>
<rect x="26" width="7" height="7" fill="black"/>
<rect x="39" width="7" height="7" fill="black"/>
<rect width="7" height="7" fill="black"/>
<rect x="13" y="12" width="7" height="7" fill="black"/>
<rect x="26" y="12" width="7" height="7" fill="black"/>
<rect x="39" y="12" width="7" height="7" fill="black"/>
<rect y="12" width="7" height="7" fill="black"/>
<rect x="13" y="24" width="7" height="7" fill="black"/>
<rect x="26" y="24" width="7" height="7" fill="black"/>
<rect x="39" y="24" width="7" height="7" fill="black"/>
<rect y="24" width="7" height="7" fill="black"/>
<rect y="36" width="7" height="7" fill="black"/>
<rect x="13" y="36" width="7" height="7" fill="black"/>
<rect x="26" y="36" width="7" height="7" fill="black"/>
<rect x="39" y="36" width="7" height="7" fill="black"/>
<rect x="26" y="48" width="7" height="7" fill="black"/>
<rect x="39" y="48" width="7" height="7" fill="black"/>
<rect x="52" y="48" width="7" height="7" fill="black"/>
<rect x="13" y="48" width="7" height="7" fill="black"/>
<rect x="26" y="60" width="7" height="7" fill="black"/>
<rect x="39" y="60" width="7" height="7" fill="black"/>
<rect x="52" y="60" width="7" height="7" fill="black"/>
<rect x="13" y="60" width="7" height="7" fill="black"/>
<rect x="26" y="72" width="7" height="7" fill="black"/>
<rect x="39" y="72" width="7" height="7" fill="black"/>
<rect x="52" y="72" width="7" height="7" fill="black"/>
<rect x="13" y="72" width="7" height="7" fill="black"/>
<rect x="13" y="84" width="7" height="7" fill="black"/>
<rect x="26" y="84" width="7" height="7" fill="black"/>
<rect x="39" y="84" width="7" height="7" fill="black"/>
<rect x="52" y="84" width="7" height="7" fill="black"/>
<rect x="13" y="48" width="7" height="7" fill="black"/>
<rect x="26" y="48" width="7" height="7" fill="black"/>
<rect x="39" y="48" width="7" height="7" fill="black"/>
<rect y="48" width="7" height="7" fill="black"/>
<rect x="13" y="60" width="7" height="7" fill="black"/>
<rect x="26" y="60" width="7" height="7" fill="black"/>
<rect x="39" y="60" width="7" height="7" fill="black"/>
<rect y="60" width="7" height="7" fill="black"/>
<rect x="13" y="72" width="7" height="7" fill="black"/>
<rect x="26" y="72" width="7" height="7" fill="black"/>
<rect x="39" y="72" width="7" height="7" fill="black"/>
<rect y="72" width="7" height="7" fill="black"/>
<rect y="84" width="7" height="7" fill="black"/>
<rect x="13" y="84" width="7" height="7" fill="black"/>
<rect x="26" y="84" width="7" height="7" fill="black"/>
<rect x="39" y="84" width="7" height="7" fill="black"/>
<rect x="78" y="48" width="7" height="7" fill="black"/>
<rect x="91" y="48" width="7" height="7" fill="black"/>
<rect x="65" y="48" width="7" height="7" fill="black"/>
<rect x="78" y="60" width="7" height="7" fill="black"/>
<rect x="91" y="60" width="7" height="7" fill="black"/>
<rect x="65" y="60" width="7" height="7" fill="black"/>
<rect x="78" y="72" width="7" height="7" fill="black"/>
<rect x="91" y="72" width="7" height="7" fill="black"/>
<rect x="65" y="72" width="7" height="7" fill="black"/>
<rect x="65" y="84" width="7" height="7" fill="black"/>
<rect x="78" y="84" width="7" height="7" fill="black"/>
<rect x="91" y="84" width="7" height="7" fill="black"/>
<rect x="65" width="7" height="7" fill="black"/>
<rect x="78" width="7" height="7" fill="black"/>
<rect x="91" width="7" height="7" fill="black"/>
<rect x="52" width="7" height="7" fill="black"/>
<rect x="65" y="12" width="7" height="7" fill="black"/>
<rect x="78" y="12" width="7" height="7" fill="black"/>
<rect x="91" y="12" width="7" height="7" fill="black"/>
<rect x="52" y="12" width="7" height="7" fill="black"/>
<rect x="65" y="24" width="7" height="7" fill="black"/>
<rect x="78" y="24" width="7" height="7" fill="black"/>
<rect x="91" y="24" width="7" height="7" fill="black"/>
<rect x="52" y="24" width="7" height="7" fill="black"/>
<rect x="52" y="36" width="7" height="7" fill="black"/>
<rect x="65" y="36" width="7" height="7" fill="black"/>
<rect x="78" y="36" width="7" height="7" fill="black"/>
<rect x="91" y="36" width="7" height="7" fill="black"/>
</svg>
