<svg width="26" height="26" viewBox="0 0 26 26" fill="none" xmlns="http://www.w3.org/2000/svg">
<circle cx="13" cy="13" r="13" fill="white"/>
<path d="M18.8649 18.2358H7.14916C7.07135 18.2358 6.99672 18.2097 6.9417 18.1632C6.88668 18.1168 6.85577 18.0538 6.85577 17.9881V12.9584C6.85577 12.8927 6.88668 12.8297 6.9417 12.7833C6.99672 12.7368 7.07135 12.7107 7.14916 12.7107C7.22697 12.7107 7.30159 12.7368 7.35661 12.7833C7.41163 12.8297 7.44254 12.8927 7.44254 12.9584V17.7404H18.5715V12.9584C18.5715 12.8927 18.6024 12.8297 18.6575 12.7833C18.7125 12.7368 18.7871 12.7107 18.8649 12.7107C18.9427 12.7107 19.0173 12.7368 19.0724 12.7833C19.1274 12.8297 19.1583 12.8927 19.1583 12.9584V17.9881C19.1583 18.0538 19.1274 18.1168 19.0724 18.1632C19.0173 18.2097 18.9427 18.2358 18.8649 18.2358Z" fill="#6600FF"/>
<path d="M18.7672 13.085C18.3856 13.0865 18.0188 12.9601 17.7474 12.7336C17.476 12.507 17.3222 12.1989 17.3195 11.8767C17.3195 11.811 17.3505 11.748 17.4055 11.7016C17.4605 11.6552 17.5351 11.6291 17.6129 11.6291C17.6907 11.6291 17.7654 11.6552 17.8204 11.7016C17.8754 11.748 17.9063 11.811 17.9063 11.8767C17.9063 12.0676 17.9962 12.2507 18.1561 12.3857C18.316 12.5207 18.5329 12.5966 18.7591 12.5966C18.9852 12.5966 19.2021 12.5207 19.3621 12.3857C19.522 12.2507 19.6118 12.0676 19.6118 11.8767V11.197L17.3279 9.49532H8.64294L6.54264 11.1911V11.8767C6.54264 12.0658 6.63162 12.2472 6.79002 12.3809C6.94842 12.5146 7.16326 12.5897 7.38726 12.5897C7.61127 12.5897 7.82611 12.5146 7.98451 12.3809C8.1429 12.2472 8.23189 12.0658 8.23189 11.8767C8.23189 11.811 8.2628 11.748 8.31782 11.7016C8.37284 11.6552 8.44746 11.6291 8.52527 11.6291C8.60308 11.6291 8.67771 11.6552 8.73273 11.7016C8.78775 11.748 8.81866 11.811 8.81866 11.8767C8.81866 12.0354 8.78163 12.1925 8.7097 12.3391C8.63776 12.4857 8.53233 12.6189 8.39941 12.7311C8.26649 12.8433 8.1087 12.9323 7.93503 12.9931C7.76137 13.0538 7.57524 13.085 7.38726 13.085C7.19929 13.085 7.01316 13.0538 6.83949 12.9931C6.66583 12.9323 6.50803 12.8433 6.37512 12.7311C6.2422 12.6189 6.13676 12.4857 6.06483 12.3391C5.9929 12.1925 5.95587 12.0354 5.95587 11.8767V11.0853C5.95587 11.0518 5.9639 11.0187 5.97947 10.988C5.99504 10.9572 6.01783 10.9294 6.04647 10.9063L8.32245 9.06868C8.37705 9.0246 8.44969 9 8.52524 9H17.4388C17.5103 9 17.5794 9.02204 17.633 9.06198L20.0993 10.8996C20.1305 10.9229 20.1555 10.9514 20.1726 10.9834C20.1897 11.0155 20.1986 11.0502 20.1986 11.0853V11.8767C20.1981 12.1971 20.0472 12.5042 19.7789 12.7307C19.5105 12.9573 19.1467 13.0847 18.7672 13.085Z" fill="#6600FF"/>
<path d="M9.66324 13.0851C9.28373 13.0847 8.9199 12.9573 8.65155 12.7308C8.38321 12.5042 8.23227 12.1971 8.23184 11.8768C8.23184 11.8111 8.26275 11.7481 8.31777 11.7017C8.3728 11.6552 8.44742 11.6291 8.52523 11.6291C8.60304 11.6291 8.67767 11.6552 8.73269 11.7017C8.78771 11.7481 8.81862 11.8111 8.81862 11.8768C8.81786 11.9708 8.83915 12.064 8.88126 12.1511C8.92337 12.2382 8.98546 12.3173 9.06397 12.3841C9.14247 12.4508 9.23584 12.5037 9.33869 12.5399C9.44155 12.576 9.55185 12.5946 9.66325 12.5946C9.77466 12.5946 9.88496 12.576 9.98782 12.5399C10.0907 12.5037 10.184 12.4508 10.2625 12.3841C10.341 12.3173 10.4031 12.2382 10.4453 12.1511C10.4874 12.064 10.5086 11.9708 10.5079 11.8768C10.5079 11.8111 10.5388 11.7481 10.5938 11.7017C10.6488 11.6552 10.7235 11.6291 10.8013 11.6291C10.8791 11.6291 10.9537 11.6552 11.0087 11.7017C11.0638 11.7481 11.0947 11.8111 11.0947 11.8768C11.0942 12.1971 10.9433 12.5043 10.6749 12.7308C10.4066 12.9573 10.0427 13.0847 9.66324 13.0851Z" fill="#6600FF"/>
<path d="M11.9393 13.0851C11.5598 13.0847 11.1959 12.9573 10.9276 12.7308C10.6593 12.5042 10.5083 12.1971 10.5079 11.8768C10.5079 11.8111 10.5388 11.7481 10.5938 11.7017C10.6489 11.6552 10.7235 11.6291 10.8013 11.6291C10.8791 11.6291 10.9537 11.6552 11.0087 11.7017C11.0638 11.7481 11.0947 11.8111 11.0947 11.8768C11.0939 11.9708 11.1152 12.064 11.1573 12.1511C11.1994 12.2382 11.2615 12.3173 11.34 12.3841C11.4185 12.4508 11.5119 12.5037 11.6147 12.5399C11.7176 12.576 11.8279 12.5946 11.9393 12.5946C12.0507 12.5946 12.161 12.576 12.2638 12.5399C12.3667 12.5037 12.46 12.4508 12.5385 12.3841C12.617 12.3173 12.6791 12.2382 12.7212 12.1511C12.7633 12.064 12.7846 11.9708 12.7839 11.8768C12.7839 11.8111 12.8148 11.7481 12.8698 11.7017C12.9248 11.6552 12.9994 11.6291 13.0773 11.6291C13.1551 11.6291 13.2297 11.6552 13.2847 11.7017C13.3397 11.7481 13.3706 11.8111 13.3706 11.8768C13.3702 12.1971 13.2193 12.5043 12.9509 12.7308C12.6826 12.9573 12.3187 13.0847 11.9393 13.0851Z" fill="#6600FF"/>
<path d="M14.2152 13.0851C13.8357 13.0847 13.4719 12.9573 13.2036 12.7308C12.9352 12.5043 12.7843 12.1971 12.7838 11.8768C12.7838 11.8111 12.8148 11.7481 12.8698 11.7017C12.9248 11.6552 12.9994 11.6291 13.0772 11.6291C13.155 11.6291 13.2297 11.6552 13.2847 11.7017C13.3397 11.7481 13.3706 11.8111 13.3706 11.8768C13.3706 12.0648 13.4591 12.2452 13.6166 12.3782C13.7742 12.5112 13.9879 12.5859 14.2107 12.5859C14.4334 12.5859 14.6471 12.5112 14.8047 12.3782C14.9622 12.2452 15.0507 12.0648 15.0507 11.8768C15.0507 11.8111 15.0816 11.7481 15.1366 11.7017C15.1917 11.6552 15.2663 11.6291 15.3441 11.6291C15.4219 11.6291 15.4965 11.6552 15.5515 11.7017C15.6066 11.7481 15.6375 11.8111 15.6375 11.8768C15.6382 12.1961 15.4889 12.5027 15.2223 12.7292C14.9557 12.9557 14.5935 13.0837 14.2152 13.0851Z" fill="#6600FF"/>
<path d="M16.4913 13.0851C16.1105 13.0857 15.7451 12.9589 15.475 12.7324C15.205 12.5058 15.0524 12.1981 15.0508 11.8768C15.0508 11.8111 15.0817 11.7481 15.1367 11.7017C15.1917 11.6552 15.2663 11.6291 15.3441 11.6291C15.4219 11.6291 15.4966 11.6552 15.5516 11.7017C15.6066 11.7481 15.6375 11.8111 15.6375 11.8768C15.639 12.0668 15.7297 12.2486 15.8897 12.3823C16.0498 12.5159 16.2661 12.5906 16.4913 12.5898C16.9557 12.5898 17.3196 12.2766 17.3196 11.8768C17.3196 11.8111 17.3505 11.7481 17.4055 11.7017C17.4605 11.6552 17.5351 11.6291 17.6129 11.6291C17.6908 11.6291 17.7654 11.6552 17.8204 11.7017C17.8754 11.7481 17.9063 11.8111 17.9063 11.8768C17.9081 12.1953 17.76 12.5014 17.4948 12.7279C17.2295 12.9544 16.8686 13.0829 16.4913 13.0851Z" fill="#6600FF"/>
<path d="M12.0192 18.1048C11.9414 18.1048 11.8668 18.0787 11.8117 18.0322C11.7567 17.9858 11.7258 17.9228 11.7258 17.8571V14.6541H9.88727V17.8571C9.88727 17.9228 9.85636 17.9858 9.80134 18.0322C9.74632 18.0787 9.6717 18.1048 9.59389 18.1048C9.51608 18.1048 9.44146 18.0787 9.38644 18.0322C9.33142 17.9858 9.30051 17.9228 9.30051 17.8571V14.4064C9.30051 14.3407 9.33142 14.2777 9.38644 14.2313C9.44146 14.1848 9.51608 14.1587 9.59389 14.1587H12.0192C12.097 14.1587 12.1716 14.1848 12.2266 14.2313C12.2817 14.2777 12.3126 14.3407 12.3126 14.4064V17.8571C12.3126 17.9228 12.2817 17.9858 12.2266 18.0322C12.1716 18.0787 12.097 18.1048 12.0192 18.1048Z" fill="#6600FF"/>
<path d="M16.327 16.2794H14.4103C14.3325 16.2794 14.2578 16.2533 14.2028 16.2068C14.1478 16.1604 14.1169 16.0974 14.1169 16.0317V14.4137C14.1169 14.348 14.1478 14.285 14.2028 14.2386C14.2578 14.1921 14.3325 14.166 14.4103 14.166H16.327C16.4048 14.166 16.4794 14.1921 16.5345 14.2386C16.5895 14.285 16.6204 14.348 16.6204 14.4137V16.0317C16.6204 16.0974 16.5895 16.1604 16.5345 16.2068C16.4794 16.2533 16.4048 16.2794 16.327 16.2794ZM14.7036 15.7841H16.0336V14.6614H14.7036V15.7841Z" fill="#6600FF"/>
<path d="M8.53755 12.1279C8.45974 12.1279 8.38512 12.1018 8.3301 12.0554C8.27508 12.0089 8.24417 11.946 8.24417 11.8803V11.0426C8.24417 10.9935 8.26141 10.9456 8.29369 10.9049L8.61688 10.497C8.66014 10.4424 8.72732 10.4045 8.80364 10.3917C8.87997 10.3789 8.95918 10.3923 9.02386 10.4288C9.08854 10.4653 9.13339 10.522 9.14854 10.5864C9.16369 10.6509 9.1479 10.7177 9.10464 10.7723L8.83082 11.1177V11.8803C8.83082 11.9459 8.79992 12.0089 8.74493 12.0554C8.68993 12.1018 8.61534 12.1279 8.53755 12.1279Z" fill="#6600FF"/>
<path d="M10.8065 12.1279C10.7287 12.1279 10.654 12.1018 10.599 12.0554C10.544 12.0089 10.5131 11.9459 10.5131 11.8803V11.0425C10.5131 11.0187 10.5172 10.995 10.5252 10.9722L10.6684 10.5643C10.6909 10.5017 10.7418 10.4492 10.81 10.4182C10.8782 10.3872 10.9581 10.3802 11.0324 10.3988C11.1067 10.4173 11.1693 10.4599 11.2065 10.5173C11.2437 10.5747 11.2525 10.6421 11.231 10.7049L11.0999 11.0784V11.8803C11.0999 11.9128 11.0923 11.945 11.0776 11.975C11.0628 12.0051 11.0412 12.0324 11.014 12.0554C10.9867 12.0784 10.9544 12.0966 10.9188 12.1091C10.8832 12.1215 10.845 12.1279 10.8065 12.1279Z" fill="#6600FF"/>
<path d="M17.6129 12.128C17.5351 12.128 17.4605 12.1019 17.4055 12.0554C17.3504 12.009 17.3195 11.946 17.3195 11.8803V11.1208L17.0334 10.7769C17.011 10.7503 16.995 10.7203 16.9863 10.6884C16.9777 10.6566 16.9767 10.6236 16.9832 10.5914C16.9897 10.5592 17.0037 10.5284 17.0244 10.5008C17.0451 10.4732 17.0721 10.4494 17.1037 10.4306C17.1354 10.4118 17.1711 10.3985 17.2089 10.3914C17.2467 10.3844 17.2857 10.3837 17.3238 10.3894C17.3619 10.3951 17.3983 10.4072 17.4309 10.4248C17.4634 10.4425 17.4915 10.4654 17.5136 10.4922L17.853 10.9002C17.8877 10.9419 17.9063 10.9916 17.9063 11.0425V11.8803C17.9063 11.9128 17.8987 11.945 17.884 11.975C17.8692 12.0051 17.8476 12.0324 17.8204 12.0554C17.7931 12.0784 17.7608 12.0967 17.7252 12.1091C17.6896 12.1216 17.6514 12.128 17.6129 12.128Z" fill="#6600FF"/>
<path d="M15.3441 12.1279C15.2663 12.1279 15.1917 12.1018 15.1367 12.0554C15.0817 12.0089 15.0508 11.9459 15.0508 11.8803V11.0817L14.9083 10.711C14.896 10.68 14.8912 10.6473 14.894 10.6147C14.8968 10.582 14.9072 10.5502 14.9247 10.521C14.9421 10.4918 14.9662 10.4659 14.9956 10.4446C15.0251 10.4233 15.0592 10.4072 15.096 10.3971C15.1329 10.387 15.1717 10.3831 15.2103 10.3858C15.2489 10.3884 15.2865 10.3975 15.321 10.4125C15.3554 10.4274 15.386 10.448 15.4109 10.473C15.4359 10.498 15.4547 10.527 15.4664 10.5582L15.6232 10.9661C15.6327 10.9908 15.6375 11.0166 15.6375 11.0425V11.8803C15.6375 11.9128 15.6299 11.945 15.6152 11.975C15.6005 12.0051 15.5788 12.0324 15.5516 12.0554C15.5244 12.0784 15.492 12.0966 15.4564 12.1091C15.4208 12.1215 15.3827 12.1279 15.3441 12.1279Z" fill="#6600FF"/>
<path d="M13.0753 12.1279C12.9975 12.1279 12.9228 12.1018 12.8678 12.0554C12.8128 12.0089 12.7819 11.9459 12.7819 11.8803V10.6254C12.7819 10.5598 12.8128 10.4968 12.8678 10.4503C12.9228 10.4039 12.9975 10.3778 13.0753 10.3778C13.1531 10.3778 13.2277 10.4039 13.2827 10.4503C13.3377 10.4968 13.3687 10.5598 13.3687 10.6254V11.8803C13.3687 11.9459 13.3377 12.0089 13.2827 12.0554C13.2277 12.1018 13.1531 12.1279 13.0753 12.1279Z" fill="#6600FF"/>
<path d="M22.0528 18.2533H4.29338C4.21557 18.2533 4.14095 18.2272 4.08593 18.1808C4.03091 18.1344 4 18.0714 4 18.0057C4 17.94 4.03091 17.877 4.08593 17.8305C4.14095 17.7841 4.21557 17.758 4.29338 17.758H22.0528C22.1306 17.758 22.2052 17.7841 22.2602 17.8305C22.3153 17.877 22.3462 17.94 22.3462 18.0057C22.3462 18.0714 22.3153 18.1344 22.2602 18.1808C22.2052 18.2272 22.1306 18.2533 22.0528 18.2533Z" fill="#6600FF"/>
<path d="M21.0553 18.2027C20.9974 18.2027 20.9407 18.1881 20.8925 18.1609C20.8443 18.1337 20.8067 18.095 20.7845 18.0498C20.7624 18.0046 20.7565 17.9548 20.7678 17.9068C20.7791 17.8588 20.807 17.8147 20.848 17.78C20.9154 17.7235 20.9688 17.6562 21.0052 17.5821C21.0415 17.508 21.0601 17.4286 21.0598 17.3484C21.059 17.1955 20.9905 17.0483 20.8678 16.9358C20.7451 16.8233 20.577 16.7535 20.3965 16.7402C20.3223 16.7351 20.2531 16.7064 20.2031 16.6599C20.1531 16.6133 20.1258 16.5525 20.127 16.4896C20.127 16.489 20.127 16.4883 20.127 16.4875C20.1259 16.3608 20.0656 16.2395 19.9591 16.1502C19.8527 16.0608 19.7087 16.0106 19.5585 16.0104C19.4358 16.0101 19.3163 16.0436 19.2182 16.1059C19.1559 16.1453 19.0777 16.1621 19.0007 16.1528C18.9236 16.1435 18.8542 16.1087 18.8075 16.0561C18.7609 16.0036 18.7409 15.9375 18.7519 15.8725C18.763 15.8075 18.8042 15.7488 18.8664 15.7094C19.0214 15.6116 19.2029 15.5482 19.3944 15.525C19.586 15.5018 19.7813 15.5196 19.9626 15.5767C20.1438 15.6339 20.3052 15.7285 20.4318 15.852C20.5585 15.9754 20.6464 16.1238 20.6875 16.2834C20.9625 16.3491 21.2047 16.4886 21.3777 16.6806C21.5507 16.8727 21.6451 17.107 21.6466 17.3483C21.6471 17.4936 21.6134 17.6375 21.5476 17.7717C21.4817 17.9059 21.385 18.0277 21.263 18.1302C21.2357 18.1532 21.2034 18.1715 21.1677 18.1839C21.1321 18.1964 21.0939 18.2028 21.0553 18.2027Z" fill="#6600FF"/>
<path d="M20.2847 17.1809L19.9573 16.7699L19.9541 16.7717C19.9624 16.7667 20.1568 16.6473 20.1291 16.4552C20.1245 16.4229 20.1274 16.3902 20.1377 16.3589C20.1481 16.3275 20.1656 16.2982 20.1894 16.2726C20.2132 16.247 20.2427 16.2256 20.2762 16.2096C20.3098 16.1937 20.3467 16.1834 20.385 16.1795C20.4232 16.1756 20.462 16.178 20.4991 16.1868C20.5363 16.1955 20.571 16.2103 20.6013 16.2304C20.6316 16.2504 20.657 16.2753 20.6759 16.3037C20.6948 16.332 20.707 16.3632 20.7116 16.3955C20.7687 16.7918 20.4701 17.0756 20.2847 17.1809Z" fill="#6600FF"/>
<path d="M5.02304 18.2027C4.98452 18.2028 4.94637 18.1964 4.91079 18.1839C4.87521 18.1714 4.8429 18.1531 4.81572 18.1301C4.69369 18.0277 4.59695 17.9058 4.53108 17.7716C4.46522 17.6374 4.43155 17.4935 4.43201 17.3482C4.43352 17.107 4.52786 16.8726 4.70082 16.6805C4.87378 16.4884 5.11599 16.349 5.39098 16.2832C5.43207 16.1236 5.51998 15.9753 5.64664 15.8518C5.7733 15.7283 5.93466 15.6337 6.11592 15.5766C6.29718 15.5194 6.49253 15.5017 6.68405 15.5248C6.87557 15.548 7.05713 15.6114 7.21207 15.7093C7.24291 15.7288 7.2689 15.7532 7.28855 15.7812C7.3082 15.8091 7.32113 15.8401 7.3266 15.8723C7.33208 15.9045 7.32999 15.9373 7.32045 15.9688C7.31091 16.0003 7.29412 16.0299 7.27102 16.0559C7.24793 16.082 7.21898 16.1039 7.18584 16.1205C7.1527 16.1371 7.11602 16.148 7.07788 16.1526C7.03975 16.1573 7.0009 16.1555 6.96358 16.1474C6.92625 16.1394 6.89116 16.1252 6.86032 16.1057C6.76223 16.0435 6.64273 16.0099 6.52 16.0103C6.36985 16.0104 6.22585 16.0607 6.11939 16.15C6.01292 16.2394 5.9526 16.3607 5.95158 16.4874C5.95158 16.4895 5.95158 16.4916 5.95158 16.4932C5.95158 16.5554 5.92385 16.6154 5.87391 16.6611C5.82396 16.7068 5.75546 16.735 5.68202 16.7401C5.50152 16.7534 5.33342 16.8231 5.2107 16.9356C5.08797 17.0481 5.01948 17.1953 5.01866 17.3482C5.0184 17.4284 5.03699 17.5079 5.07335 17.582C5.10971 17.6561 5.16312 17.7233 5.23048 17.7799C5.27146 17.8145 5.29936 17.8586 5.31066 17.9066C5.32196 17.9546 5.31615 18.0044 5.29397 18.0496C5.27178 18.0949 5.23422 18.1335 5.18602 18.1607C5.13782 18.188 5.08115 18.2025 5.02316 18.2026L5.02304 18.2027Z" fill="#6600FF"/>
<path d="M5.95591 17.2232C5.89765 17.2232 5.84072 17.2085 5.79244 17.181C5.60706 17.0757 5.30852 16.7918 5.36555 16.3955C5.36991 16.363 5.38184 16.3316 5.40066 16.303C5.41947 16.2744 5.44481 16.2493 5.4752 16.229C5.50559 16.2087 5.54044 16.1937 5.57773 16.1849C5.61501 16.176 5.65401 16.1735 5.69245 16.1775C5.7309 16.1814 5.76805 16.1917 5.80174 16.2079C5.83544 16.224 5.86502 16.2456 5.88877 16.2714C5.91253 16.2972 5.93 16.3268 5.94016 16.3583C5.95033 16.3899 5.95299 16.4228 5.94801 16.4552C5.91992 16.6505 6.11789 16.7689 6.12012 16.7699C6.17233 16.7996 6.21188 16.8426 6.23294 16.8926C6.254 16.9426 6.25544 16.9971 6.23706 17.0479C6.21868 17.0987 6.18145 17.1431 6.13086 17.1747C6.08028 17.2062 6.01901 17.2232 5.9561 17.2232H5.95591Z" fill="#6600FF"/>
</svg>
