<svg width="26" height="26" viewBox="0 0 26 26" fill="none" xmlns="http://www.w3.org/2000/svg">
<circle cx="13" cy="13" r="13" fill="white"/>
<g clip-path="url(#clip0)">
<path d="M18.1002 19H7.09966C7.02994 19 6.96308 18.9723 6.91377 18.923C6.86447 18.8738 6.83678 18.8069 6.83678 18.7372V10.5489C6.8368 10.5109 6.84506 10.4734 6.86098 10.4389C6.8769 10.4045 6.9001 10.3738 6.929 10.3492L12.4293 5.656C12.4768 5.6154 12.5374 5.59309 12.5999 5.59309C12.6625 5.59309 12.723 5.6154 12.7706 5.656L18.2708 10.3491C18.2997 10.3737 18.3229 10.4043 18.3389 10.4388C18.3548 10.4733 18.363 10.5108 18.3631 10.5488V18.7371C18.3631 18.7716 18.3563 18.8058 18.3431 18.8377C18.3299 18.8696 18.3105 18.8986 18.2861 18.923C18.2617 18.9474 18.2327 18.9668 18.2008 18.98C18.1689 18.9932 18.1347 19 18.1002 19ZM7.36255 18.4745H17.8373V10.6701L12.5999 6.20138L7.36255 10.6701V18.4745Z" fill="#6600FF"/>
<path d="M7.10207 10.8015H5.58252C5.53869 10.8015 5.49556 10.7905 5.45705 10.7696C5.41854 10.7487 5.38587 10.7185 5.36201 10.6818C5.33814 10.645 5.32385 10.6029 5.32043 10.5592C5.31701 10.5155 5.32456 10.4717 5.34242 10.4317L7.26485 6.12218C7.28554 6.07581 7.31923 6.03643 7.36184 6.00879C7.40445 5.98115 7.45416 5.96644 7.50496 5.96645H12.0093C12.079 5.96645 12.1459 5.99413 12.1952 6.04341C12.2445 6.09269 12.2722 6.15953 12.2722 6.22922C12.2722 6.29891 12.2445 6.36575 12.1952 6.41503C12.1459 6.46431 12.079 6.49199 12.0093 6.49199H7.67559L5.98757 10.2759H7.10221C7.17194 10.2759 7.2388 10.3036 7.2881 10.3529C7.3374 10.4022 7.3651 10.469 7.3651 10.5387C7.3651 10.5732 7.3583 10.6074 7.34508 10.6393C7.33186 10.6712 7.31248 10.7002 7.28805 10.7246C7.26363 10.749 7.23463 10.7683 7.20272 10.7815C7.17081 10.7947 7.13661 10.8015 7.10207 10.8015Z" fill="#6600FF"/>
<path d="M15.9 6.49199H13.166C13.0963 6.49199 13.0294 6.46431 12.9801 6.41503C12.9308 6.36575 12.9031 6.29891 12.9031 6.22922C12.9031 6.15953 12.9308 6.09269 12.9801 6.04341C13.0294 5.99413 13.0963 5.96645 13.166 5.96645H15.9C15.9697 5.96645 16.0366 5.99413 16.0859 6.04341C16.1352 6.09269 16.1629 6.15953 16.1629 6.22922C16.1629 6.29891 16.1352 6.36575 16.0859 6.41503C16.0366 6.46431 15.9697 6.49199 15.9 6.49199Z" fill="#6600FF"/>
<path d="M19.6543 10.8015H18.1085C18.0388 10.8015 17.9719 10.7738 17.9226 10.7245C17.8733 10.6752 17.8456 10.6084 17.8456 10.5387C17.8456 10.469 17.8733 10.4022 17.9226 10.3529C17.9719 10.3036 18.0388 10.2759 18.1085 10.2759H19.2493L17.5613 6.49199H17.0217C16.9519 6.49199 16.8851 6.46431 16.8358 6.41503C16.7865 6.36575 16.7588 6.29891 16.7588 6.22922C16.7588 6.15953 16.7865 6.09269 16.8358 6.04341C16.8851 5.99413 16.9519 5.96645 17.0217 5.96645H17.7317C17.7825 5.96644 17.8322 5.98115 17.8748 6.00879C17.9174 6.03643 17.9511 6.07581 17.9718 6.12218L19.8942 10.4317C19.9121 10.4717 19.9196 10.5155 19.9162 10.5592C19.9128 10.6029 19.8985 10.645 19.8746 10.6818C19.8508 10.7185 19.8181 10.7487 19.7796 10.7696C19.7412 10.7905 19.6981 10.8014 19.6543 10.8015Z" fill="#6600FF"/>
<path d="M16.9829 7.11894C16.9131 7.11894 16.8463 7.09125 16.797 7.04198C16.7477 6.9927 16.72 6.92586 16.72 6.85617V5.52552H16.1618V6.85617C16.1618 6.89067 16.155 6.92484 16.1418 6.95673C16.1286 6.98861 16.1092 7.01757 16.0848 7.04198C16.0604 7.06638 16.0314 7.08573 15.9995 7.09894C15.9676 7.11214 15.9334 7.11894 15.8989 7.11894C15.8292 7.11894 15.7623 7.09125 15.713 7.04198C15.6637 6.9927 15.636 6.92586 15.636 6.85617V5.26274C15.636 5.19305 15.6637 5.12621 15.713 5.07693C15.7623 5.02766 15.8292 4.99997 15.8989 4.99997H16.9829C17.0526 4.99997 17.1195 5.02766 17.1688 5.07693C17.2181 5.12621 17.2458 5.19305 17.2458 5.26274V6.85617C17.2458 6.92586 17.2181 6.9927 17.1688 7.04198C17.1195 7.09125 17.0526 7.11894 16.9829 7.11894Z" fill="#6600FF"/>
<path d="M13.6334 19H11.7647C11.7302 19 11.696 18.9932 11.6641 18.98C11.6323 18.9668 11.6033 18.9475 11.5789 18.9231C11.5544 18.8987 11.5351 18.8697 11.5219 18.8378C11.5087 18.8059 11.5019 18.7718 11.5019 18.7372V15.6559C11.5019 15.5862 11.5296 15.5193 11.5789 15.47C11.6282 15.4208 11.695 15.3931 11.7647 15.3931H13.6334C13.7031 15.3931 13.77 15.4208 13.8193 15.47C13.8686 15.5193 13.8963 15.5862 13.8963 15.6559V18.7372C13.8963 18.8069 13.8686 18.8738 13.8193 18.9231C13.77 18.9723 13.7031 19 13.6334 19ZM12.0276 18.4745H13.3705V15.9186H12.0276V18.4745Z" fill="#6600FF"/>
<path d="M9.93367 14.6722H8.74857C8.67885 14.6722 8.61199 14.6445 8.56268 14.5952C8.51338 14.5459 8.48569 14.4791 8.48569 14.4094V13.2248C8.48569 13.1551 8.51338 13.0883 8.56268 13.039C8.61199 12.9897 8.67885 12.962 8.74857 12.962H9.93367C10.0034 12.962 10.0703 12.9897 10.1196 13.039C10.1689 13.0883 10.1966 13.1551 10.1966 13.2248V14.4094C10.1966 14.4791 10.1689 14.5459 10.1196 14.5952C10.0703 14.6445 10.0034 14.6722 9.93367 14.6722ZM9.01146 14.1466H9.67078V13.4876H9.01146V14.1466Z" fill="#6600FF"/>
<path d="M9.93367 12.3364H8.74857C8.67885 12.3364 8.61199 12.3087 8.56268 12.2594C8.51338 12.2101 8.48569 12.1433 8.48569 12.0736V10.8891C8.48569 10.8194 8.51338 10.7525 8.56268 10.7033C8.61199 10.654 8.67885 10.6263 8.74857 10.6263H9.93367C10.0034 10.6263 10.0703 10.654 10.1196 10.7033C10.1689 10.7525 10.1966 10.8194 10.1966 10.8891V12.0736C10.1966 12.1081 10.1898 12.1423 10.1765 12.1742C10.1633 12.2061 10.144 12.235 10.1196 12.2594C10.0951 12.2838 10.0662 12.3032 10.0343 12.3164C10.0024 12.3296 9.96819 12.3364 9.93367 12.3364ZM9.01146 11.8108H9.67078V11.1518H9.01146V11.8108Z" fill="#6600FF"/>
<path d="M13.2916 14.6722H12.1065C12.0368 14.6722 11.9699 14.6445 11.9206 14.5952C11.8713 14.5459 11.8436 14.4791 11.8436 14.4094V13.2248C11.8436 13.1551 11.8713 13.0883 11.9206 13.039C11.9699 12.9897 12.0368 12.962 12.1065 12.962H13.2916C13.3613 12.962 13.4282 12.9897 13.4775 13.039C13.5268 13.0883 13.5545 13.1551 13.5545 13.2248V14.4094C13.5545 14.4791 13.5268 14.5459 13.4775 14.5952C13.4282 14.6445 13.3613 14.6722 13.2916 14.6722ZM12.3694 14.1466H13.0287V13.4876H12.3694V14.1466Z" fill="#6600FF"/>
<path d="M13.2916 12.3364H12.1065C12.0368 12.3364 11.9699 12.3087 11.9206 12.2594C11.8713 12.2101 11.8436 12.1433 11.8436 12.0736V10.8891C11.8436 10.8194 11.8713 10.7525 11.9206 10.7033C11.9699 10.654 12.0368 10.6263 12.1065 10.6263H13.2916C13.3613 10.6263 13.4282 10.654 13.4775 10.7033C13.5268 10.7525 13.5545 10.8194 13.5545 10.8891V12.0736C13.5545 12.1081 13.5477 12.1423 13.5344 12.1742C13.5212 12.2061 13.5019 12.235 13.4775 12.2594C13.453 12.2838 13.4241 12.3032 13.3922 12.3164C13.3603 12.3296 13.3261 12.3364 13.2916 12.3364ZM12.3694 11.8108H13.0287V11.1518H12.3694V11.8108Z" fill="#6600FF"/>
<path d="M13.2916 9.79626H12.1065C12.0368 9.79626 11.9699 9.76858 11.9206 9.7193C11.8713 9.67002 11.8436 9.60318 11.8436 9.53349V8.34894C11.8436 8.27925 11.8713 8.21241 11.9206 8.16313C11.9699 8.11385 12.0368 8.08617 12.1065 8.08617H13.2916C13.3613 8.08617 13.4282 8.11385 13.4775 8.16313C13.5268 8.21241 13.5545 8.27925 13.5545 8.34894V9.53349C13.5545 9.568 13.5477 9.60216 13.5344 9.63405C13.5212 9.66593 13.5019 9.69489 13.4775 9.7193C13.453 9.7437 13.4241 9.76305 13.3922 9.77626C13.3603 9.78946 13.3261 9.79626 13.2916 9.79626ZM12.3694 9.27071H13.0287V8.61171H12.3694V9.27071Z" fill="#6600FF"/>
<path d="M16.6495 14.6722H15.4644C15.3947 14.6722 15.3279 14.6445 15.2786 14.5952C15.2293 14.5459 15.2016 14.4791 15.2016 14.4094V13.2248C15.2016 13.1551 15.2293 13.0883 15.2786 13.039C15.3279 12.9897 15.3947 12.962 15.4644 12.962H16.6495C16.7193 12.962 16.7861 12.9897 16.8354 13.039C16.8847 13.0883 16.9124 13.1551 16.9124 13.2248V14.4094C16.9124 14.4791 16.8847 14.5459 16.8354 14.5952C16.7861 14.6445 16.7193 14.6722 16.6495 14.6722ZM15.7273 14.1466H16.3866V13.4876H15.7273V14.1466Z" fill="#6600FF"/>
<path d="M9.93367 17.1032H8.74857C8.67885 17.1032 8.61199 17.0755 8.56268 17.0262C8.51338 16.977 8.48569 16.9101 8.48569 16.8404V15.6559C8.48569 15.5862 8.51338 15.5193 8.56268 15.47C8.61199 15.4208 8.67885 15.3931 8.74857 15.3931H9.93367C10.0034 15.3931 10.0703 15.4208 10.1196 15.47C10.1689 15.5193 10.1966 15.5862 10.1966 15.6559V16.8404C10.1966 16.9101 10.1689 16.977 10.1196 17.0262C10.0703 17.0755 10.0034 17.1032 9.93367 17.1032ZM9.01146 16.5777H9.67078V15.9186H9.01146V16.5777Z" fill="#6600FF"/>
<path d="M16.6495 17.1032H15.4644C15.3947 17.1032 15.3279 17.0755 15.2786 17.0262C15.2293 16.977 15.2016 16.9101 15.2016 16.8404V15.6559C15.2016 15.5862 15.2293 15.5193 15.2786 15.47C15.3279 15.4208 15.3947 15.3931 15.4644 15.3931H16.6495C16.7193 15.3931 16.7861 15.4208 16.8354 15.47C16.8847 15.5193 16.9124 15.5862 16.9124 15.6559V16.8404C16.9124 16.9101 16.8847 16.977 16.8354 17.0262C16.7861 17.0755 16.7193 17.1032 16.6495 17.1032ZM15.7273 16.5777H16.3866V15.9186H15.7273V16.5777Z" fill="#6600FF"/>
<path d="M16.6495 12.3364H15.4644C15.3947 12.3364 15.3279 12.3087 15.2786 12.2594C15.2293 12.2101 15.2016 12.1433 15.2016 12.0736V10.8891C15.2016 10.8194 15.2293 10.7525 15.2786 10.7033C15.3279 10.654 15.3947 10.6263 15.4644 10.6263H16.6495C16.7193 10.6263 16.7861 10.654 16.8354 10.7033C16.8847 10.7525 16.9124 10.8194 16.9124 10.8891V12.0736C16.9124 12.1081 16.9056 12.1423 16.8924 12.1742C16.8792 12.2061 16.8598 12.235 16.8354 12.2594C16.811 12.2838 16.782 12.3032 16.7501 12.3164C16.7182 12.3296 16.6841 12.3364 16.6495 12.3364ZM15.7273 11.8108H16.3866V11.1518H15.7273V11.8108Z" fill="#6600FF"/>
<path d="M20.7371 19H4.2629C4.19318 19 4.12631 18.9724 4.07701 18.9231C4.02771 18.8738 4.00002 18.807 4.00002 18.7373C4.00002 18.6676 4.02771 18.6007 4.07701 18.5515C4.12631 18.5022 4.19318 18.4745 4.2629 18.4745H20.7371C20.8069 18.4745 20.8737 18.5022 20.923 18.5515C20.9723 18.6007 21 18.6676 21 18.7373C21 18.807 20.9723 18.8738 20.923 18.9231C20.8737 18.9724 20.8069 19 20.7371 19Z" fill="#6600FF"/>
<path d="M5.19653 18.8886C5.16201 18.8887 5.12783 18.8819 5.09595 18.8686C5.06407 18.8554 5.03512 18.836 5.01076 18.8116C4.89983 18.7013 4.81189 18.5702 4.75202 18.4257C4.69214 18.2812 4.66153 18.1263 4.66196 17.97C4.6633 17.7097 4.74938 17.457 4.90718 17.2501C5.06498 17.0431 5.28591 16.8931 5.53657 16.8228C5.58721 16.5882 5.71665 16.378 5.90337 16.2271C6.09009 16.0762 6.32285 15.9938 6.56295 15.9934C6.78971 15.9928 7.01049 16.0662 7.1917 16.2024C7.21934 16.2231 7.24262 16.2491 7.26023 16.2787C7.27784 16.3084 7.28943 16.3413 7.29433 16.3755C7.29923 16.4096 7.29735 16.4444 7.2888 16.4778C7.28025 16.5113 7.26519 16.5427 7.24449 16.5703C7.22379 16.5979 7.19785 16.6212 7.16815 16.6388C7.13846 16.6564 7.10558 16.668 7.0714 16.6729C7.03723 16.6778 7.00242 16.6759 6.96897 16.6674C6.93552 16.6588 6.90408 16.6438 6.87645 16.6231C6.78607 16.5552 6.67598 16.5186 6.56291 16.519C6.42455 16.5192 6.29185 16.574 6.19374 16.6715C6.09563 16.769 6.04006 16.9014 6.03914 17.0397C6.03914 17.0419 6.03914 17.0442 6.03914 17.0459C6.03913 17.1119 6.01429 17.1755 5.96954 17.224C5.92478 17.2725 5.8634 17.3024 5.7976 17.3078C5.63164 17.3223 5.47708 17.3982 5.36425 17.5207C5.25142 17.6432 5.18845 17.8035 5.1877 17.97C5.18747 18.0573 5.20457 18.1438 5.238 18.2245C5.27143 18.3052 5.32054 18.3784 5.38248 18.44C5.43178 18.4893 5.45947 18.5561 5.45947 18.6258C5.45947 18.6955 5.43178 18.7623 5.38248 18.8116C5.35809 18.8361 5.32911 18.8555 5.2972 18.8687C5.26529 18.8819 5.23108 18.8887 5.19653 18.8886Z" fill="#6600FF"/>
<path d="M6.04923 17.83C5.99703 17.83 5.94602 17.8144 5.90275 17.7852C5.73451 17.672 5.46345 17.3669 5.51522 16.9408C5.52368 16.8717 5.55925 16.8087 5.61412 16.7657C5.669 16.7227 5.7387 16.7033 5.80791 16.7116C5.84218 16.7158 5.87529 16.7267 5.90536 16.7436C5.93543 16.7606 5.96187 16.7833 5.98316 16.8105C6.00445 16.8376 6.02018 16.8687 6.02945 16.902C6.03872 16.9352 6.04134 16.9699 6.03718 17.0042C6.01117 17.2181 6.19435 17.3478 6.19617 17.349C6.25402 17.3879 6.29404 17.4482 6.30743 17.5166C6.32083 17.585 6.3065 17.6559 6.26761 17.7137C6.24357 17.7495 6.21107 17.7789 6.17298 17.7991C6.13489 17.8194 6.09239 17.83 6.04923 17.83Z" fill="#6600FF"/>
<path d="M19.9767 18.8886C19.9422 18.8887 19.908 18.8818 19.8762 18.8686C19.8443 18.8554 19.8153 18.836 19.791 18.8116C19.7417 18.7623 19.714 18.6954 19.714 18.6258C19.714 18.5561 19.7417 18.4892 19.791 18.44C19.8529 18.3784 19.902 18.3051 19.9354 18.2244C19.9689 18.1438 19.986 18.0573 19.9857 17.9699C19.985 17.8034 19.922 17.6432 19.8092 17.5207C19.6963 17.3982 19.5418 17.3222 19.3758 17.3078C19.31 17.3024 19.2486 17.2725 19.2039 17.2239C19.1592 17.1754 19.1343 17.1119 19.1343 17.0459C19.1343 17.0441 19.1343 17.0418 19.1343 17.0396C19.1334 16.9013 19.0778 16.769 18.9797 16.6714C18.8816 16.5739 18.7489 16.5191 18.6106 16.5189C18.4975 16.5186 18.3874 16.5551 18.297 16.623C18.2694 16.6437 18.238 16.6588 18.2045 16.6673C18.1711 16.6759 18.1363 16.6778 18.1021 16.6729C18.0679 16.668 18.035 16.6564 18.0053 16.6388C17.9756 16.6212 17.9497 16.5979 17.929 16.5703C17.9083 16.5427 17.8932 16.5112 17.8847 16.4778C17.8761 16.4444 17.8743 16.4096 17.8792 16.3754C17.8841 16.3412 17.8956 16.3084 17.9133 16.2787C17.9309 16.249 17.9542 16.2231 17.9818 16.2024C18.163 16.0661 18.3838 15.9927 18.6105 15.9934C18.8506 15.9938 19.0834 16.0763 19.2701 16.2272C19.4568 16.3781 19.5862 16.5884 19.6367 16.823C19.8874 16.8933 20.1083 17.0433 20.2661 17.2503C20.4239 17.4572 20.51 17.7099 20.5113 17.9702C20.5117 18.1265 20.4811 18.2814 20.4213 18.4259C20.3614 18.5703 20.2735 18.7015 20.1625 18.8118C20.1382 18.8362 20.1092 18.8555 20.0773 18.8687C20.0454 18.8819 20.0113 18.8887 19.9767 18.8886Z" fill="#6600FF"/>
<path d="M19.2704 17.7852L18.977 17.3491L18.9743 17.351C18.9819 17.3455 19.1617 17.215 19.136 17.0043C19.1276 16.9351 19.147 16.8654 19.19 16.8106C19.233 16.7557 19.2961 16.7202 19.3653 16.7118C19.3995 16.7076 19.4343 16.7102 19.4676 16.7195C19.5008 16.7287 19.5319 16.7445 19.5591 16.7657C19.5863 16.787 19.609 16.8134 19.626 16.8435C19.6429 16.8736 19.6538 16.9067 19.658 16.9409C19.7098 17.3669 19.4387 17.672 19.2704 17.7852Z" fill="#6600FF"/>
</g>
<defs>
<clipPath id="clip0">
<rect width="17" height="14" fill="white" transform="translate(4 5)"/>
</clipPath>
</defs>
</svg>
