<svg width="26" height="26" viewBox="0 0 26 26" fill="none" xmlns="http://www.w3.org/2000/svg">
<circle cx="13" cy="13" r="13" fill="white"/>
<path d="M19.9579 18H7.10528C7.04247 18 6.98223 17.9749 6.93781 17.9302C6.89339 17.8855 6.86844 17.8248 6.86844 17.7616V5.23839C6.86844 5.17516 6.89339 5.11453 6.93781 5.06982C6.98223 5.02511 7.04247 5 7.10528 5H14.0211C14.0839 5 14.1441 5.02511 14.1885 5.06982C14.233 5.11453 14.2579 5.17516 14.2579 5.23839V12.0562H19.9579C20.0207 12.0562 20.081 12.0813 20.1254 12.1261C20.1698 12.1708 20.1948 12.2314 20.1948 12.2946V17.7616C20.1948 17.8248 20.1698 17.8855 20.1254 17.9302C20.081 17.9749 20.0207 18 19.9579 18ZM7.34212 17.5232H19.7211V12.533H14.0211C13.9583 12.533 13.898 12.5079 13.8536 12.4632C13.8092 12.4185 13.7842 12.3578 13.7842 12.2946V5.47677H7.34212V17.5232Z" fill="#6600FF"/>
<path d="M20.7632 18H6.23684C6.17403 18 6.11379 17.9749 6.06937 17.9302C6.02496 17.8855 6 17.8248 6 17.7616C6 17.6984 6.02496 17.6378 6.06937 17.593C6.11379 17.5483 6.17403 17.5232 6.23684 17.5232H20.7632C20.826 17.5232 20.8862 17.5483 20.9306 17.593C20.975 17.6378 21 17.6984 21 17.7616C21 17.8248 20.975 17.8855 20.9306 17.9302C20.8862 17.9749 20.826 18 20.7632 18Z" fill="#6600FF"/>
<path d="M10.5 6.81173H9.96316C9.90035 6.81173 9.84011 6.78662 9.79569 6.74191C9.75127 6.69721 9.72632 6.63657 9.72632 6.57335C9.72632 6.51012 9.75127 6.44949 9.79569 6.40478C9.84011 6.36008 9.90035 6.33496 9.96316 6.33496H10.5C10.5628 6.33496 10.6231 6.36008 10.6675 6.40478C10.7119 6.44949 10.7368 6.51012 10.7368 6.57335C10.7368 6.63657 10.7119 6.69721 10.6675 6.74191C10.6231 6.78662 10.5628 6.81173 10.5 6.81173Z" fill="#6600FF"/>
<path d="M8.73157 6.81173H8.19473C8.13191 6.81173 8.07167 6.78662 8.02726 6.74191C7.98284 6.69721 7.95789 6.63657 7.95789 6.57335C7.95789 6.51012 7.98284 6.44949 8.02726 6.40478C8.07167 6.36008 8.13191 6.33496 8.19473 6.33496H8.73157C8.79438 6.33496 8.85462 6.36008 8.89904 6.40478C8.94346 6.44949 8.96841 6.51012 8.96841 6.57335C8.96841 6.63657 8.94346 6.69721 8.89904 6.74191C8.85462 6.78662 8.79438 6.81173 8.73157 6.81173Z" fill="#6600FF"/>
<path d="M14.0052 6.81173H11.7316C11.6687 6.81173 11.6085 6.78662 11.5641 6.74191C11.5197 6.69721 11.4947 6.63657 11.4947 6.57335C11.4947 6.51012 11.5197 6.44949 11.5641 6.40478C11.6085 6.36008 11.6687 6.33496 11.7316 6.33496H14.0052C14.0681 6.33496 14.1283 6.36008 14.1727 6.40478C14.2171 6.44949 14.2421 6.51012 14.2421 6.57335C14.2421 6.63657 14.2171 6.69721 14.1727 6.74191C14.1283 6.78662 14.0681 6.81173 14.0052 6.81173Z" fill="#6600FF"/>
<path d="M10.5 8.24206H9.96316C9.90035 8.24206 9.84011 8.21695 9.79569 8.17224C9.75127 8.12754 9.72632 8.0669 9.72632 8.00368C9.72632 7.94045 9.75127 7.87982 9.79569 7.83511C9.84011 7.7904 9.90035 7.76529 9.96316 7.76529H10.5C10.5628 7.76529 10.6231 7.7904 10.6675 7.83511C10.7119 7.87982 10.7368 7.94045 10.7368 8.00368C10.7368 8.0669 10.7119 8.12754 10.6675 8.17224C10.6231 8.21695 10.5628 8.24206 10.5 8.24206Z" fill="#6600FF"/>
<path d="M8.73157 8.24206H8.19473C8.13191 8.24206 8.07167 8.21695 8.02726 8.17224C7.98284 8.12754 7.95789 8.0669 7.95789 8.00368C7.95789 7.94045 7.98284 7.87982 8.02726 7.83511C8.07167 7.7904 8.13191 7.76529 8.19473 7.76529H8.73157C8.79438 7.76529 8.85462 7.7904 8.89904 7.83511C8.94346 7.87982 8.96841 7.94045 8.96841 8.00368C8.96841 8.0669 8.94346 8.12754 8.89904 8.17224C8.85462 8.21695 8.79438 8.24206 8.73157 8.24206Z" fill="#6600FF"/>
<path d="M14.0052 8.24206H11.7316C11.6687 8.24206 11.6085 8.21695 11.5641 8.17224C11.5197 8.12754 11.4947 8.0669 11.4947 8.00368C11.4947 7.94045 11.5197 7.87982 11.5641 7.83511C11.6085 7.7904 11.6687 7.76529 11.7316 7.76529H14.0052C14.0681 7.76529 14.1283 7.7904 14.1727 7.83511C14.2171 7.87982 14.2421 7.94045 14.2421 8.00368C14.2421 8.0669 14.2171 8.12754 14.1727 8.17224C14.1283 8.21695 14.0681 8.24206 14.0052 8.24206Z" fill="#6600FF"/>
<path d="M10.5 9.67236H9.96316C9.90035 9.67236 9.84011 9.64725 9.79569 9.60254C9.75127 9.55783 9.72632 9.4972 9.72632 9.43397C9.72632 9.37075 9.75127 9.31011 9.79569 9.26541C9.84011 9.2207 9.90035 9.19559 9.96316 9.19559H10.5C10.5628 9.19559 10.6231 9.2207 10.6675 9.26541C10.7119 9.31011 10.7368 9.37075 10.7368 9.43397C10.7368 9.4972 10.7119 9.55783 10.6675 9.60254C10.6231 9.64725 10.5628 9.67236 10.5 9.67236Z" fill="#6600FF"/>
<path d="M8.73157 9.67236H8.19473C8.13191 9.67236 8.07167 9.64725 8.02726 9.60254C7.98284 9.55783 7.95789 9.4972 7.95789 9.43397C7.95789 9.37075 7.98284 9.31011 8.02726 9.26541C8.07167 9.2207 8.13191 9.19559 8.19473 9.19559H8.73157C8.79438 9.19559 8.85462 9.2207 8.89904 9.26541C8.94346 9.31011 8.96841 9.37075 8.96841 9.43397C8.96841 9.4972 8.94346 9.55783 8.89904 9.60254C8.85462 9.64725 8.79438 9.67236 8.73157 9.67236Z" fill="#6600FF"/>
<path d="M14.0052 9.67236H11.7316C11.6687 9.67236 11.6085 9.64725 11.5641 9.60254C11.5197 9.55783 11.4947 9.4972 11.4947 9.43397C11.4947 9.37075 11.5197 9.31011 11.5641 9.26541C11.6085 9.2207 11.6687 9.19559 11.7316 9.19559H14.0052C14.0681 9.19559 14.1283 9.2207 14.1727 9.26541C14.2171 9.31011 14.2421 9.37075 14.2421 9.43397C14.2421 9.4972 14.2171 9.55783 14.1727 9.60254C14.1283 9.64725 14.0681 9.67236 14.0052 9.67236Z" fill="#6600FF"/>
<path d="M10.5 11.1027H9.96316C9.90035 11.1027 9.84011 11.0776 9.79569 11.0329C9.75127 10.9882 9.72632 10.9275 9.72632 10.8643C9.72632 10.8011 9.75127 10.7404 9.79569 10.6957C9.84011 10.651 9.90035 10.6259 9.96316 10.6259H10.5C10.5628 10.6259 10.6231 10.651 10.6675 10.6957C10.7119 10.7404 10.7368 10.8011 10.7368 10.8643C10.7368 10.9275 10.7119 10.9882 10.6675 11.0329C10.6231 11.0776 10.5628 11.1027 10.5 11.1027Z" fill="#6600FF"/>
<path d="M8.73157 11.1027H8.19473C8.13191 11.1027 8.07167 11.0776 8.02726 11.0329C7.98284 10.9882 7.95789 10.9275 7.95789 10.8643C7.95789 10.8011 7.98284 10.7404 8.02726 10.6957C8.07167 10.651 8.13191 10.6259 8.19473 10.6259H8.73157C8.79438 10.6259 8.85462 10.651 8.89904 10.6957C8.94346 10.7404 8.96841 10.8011 8.96841 10.8643C8.96841 10.9275 8.94346 10.9882 8.89904 11.0329C8.85462 11.0776 8.79438 11.1027 8.73157 11.1027Z" fill="#6600FF"/>
<path d="M14.0052 11.1027H11.7316C11.6687 11.1027 11.6085 11.0776 11.5641 11.0329C11.5197 10.9882 11.4947 10.9275 11.4947 10.8643C11.4947 10.8011 11.5197 10.7404 11.5641 10.6957C11.6085 10.651 11.6687 10.6259 11.7316 10.6259H14.0052C14.0681 10.6259 14.1283 10.651 14.1727 10.6957C14.2171 10.7404 14.2421 10.8011 14.2421 10.8643C14.2421 10.9275 14.2171 10.9882 14.1727 11.0329C14.1283 11.0776 14.0681 11.1027 14.0052 11.1027Z" fill="#6600FF"/>
<path d="M10.5 12.533H9.96316C9.90035 12.533 9.84011 12.5079 9.79569 12.4632C9.75127 12.4185 9.72632 12.3578 9.72632 12.2946C9.72632 12.2314 9.75127 12.1708 9.79569 12.126C9.84011 12.0813 9.90035 12.0562 9.96316 12.0562H10.5C10.5628 12.0562 10.6231 12.0813 10.6675 12.126C10.7119 12.1708 10.7368 12.2314 10.7368 12.2946C10.7368 12.3578 10.7119 12.4185 10.6675 12.4632C10.6231 12.5079 10.5628 12.533 10.5 12.533Z" fill="#6600FF"/>
<path d="M8.73157 12.533H8.19473C8.13191 12.533 8.07167 12.5079 8.02726 12.4632C7.98284 12.4185 7.95789 12.3578 7.95789 12.2946C7.95789 12.2314 7.98284 12.1708 8.02726 12.126C8.07167 12.0813 8.13191 12.0562 8.19473 12.0562H8.73157C8.79438 12.0562 8.85462 12.0813 8.89904 12.126C8.94346 12.1708 8.96841 12.2314 8.96841 12.2946C8.96841 12.3578 8.94346 12.4185 8.89904 12.4632C8.85462 12.5079 8.79438 12.533 8.73157 12.533Z" fill="#6600FF"/>
<path d="M14.0368 12.533H11.7316C11.6687 12.533 11.6085 12.5079 11.5641 12.4632C11.5197 12.4185 11.4947 12.3578 11.4947 12.2946C11.4947 12.2314 11.5197 12.1708 11.5641 12.126C11.6085 12.0813 11.6687 12.0562 11.7316 12.0562H14.0368C14.0996 12.0562 14.1599 12.0813 14.2043 12.126C14.2487 12.1708 14.2737 12.2314 14.2737 12.2946C14.2737 12.3578 14.2487 12.4185 14.2043 12.4632C14.1599 12.5079 14.0996 12.533 14.0368 12.533Z" fill="#6600FF"/>
<path d="M10.5 14.0269H9.96316C9.90035 14.0269 9.84011 14.0018 9.79569 13.9571C9.75127 13.9124 9.72632 13.8517 9.72632 13.7885C9.72632 13.7253 9.75127 13.6647 9.79569 13.6199C9.84011 13.5752 9.90035 13.5501 9.96316 13.5501H10.5C10.5628 13.5501 10.6231 13.5752 10.6675 13.6199C10.7119 13.6647 10.7368 13.7253 10.7368 13.7885C10.7368 13.8517 10.7119 13.9124 10.6675 13.9571C10.6231 14.0018 10.5628 14.0269 10.5 14.0269Z" fill="#6600FF"/>
<path d="M8.73157 14.0269H8.19473C8.13191 14.0269 8.07167 14.0018 8.02726 13.9571C7.98284 13.9124 7.95789 13.8517 7.95789 13.7885C7.95789 13.7253 7.98284 13.6647 8.02726 13.6199C8.07167 13.5752 8.13191 13.5501 8.19473 13.5501H8.73157C8.79438 13.5501 8.85462 13.5752 8.89904 13.6199C8.94346 13.6647 8.96841 13.7253 8.96841 13.7885C8.96841 13.8517 8.94346 13.9124 8.89904 13.9571C8.85462 14.0018 8.79438 14.0269 8.73157 14.0269Z" fill="#6600FF"/>
<path d="M14.0368 14.0269H11.7316C11.6687 14.0269 11.6085 14.0018 11.5641 13.9571C11.5197 13.9124 11.4947 13.8517 11.4947 13.7885C11.4947 13.7253 11.5197 13.6647 11.5641 13.6199C11.6085 13.5752 11.6687 13.5501 11.7316 13.5501H14.0368C14.0996 13.5501 14.1599 13.5752 14.2043 13.6199C14.2487 13.6647 14.2737 13.7253 14.2737 13.7885C14.2737 13.8517 14.2487 13.9124 14.2043 13.9571C14.1599 14.0018 14.0996 14.0269 14.0368 14.0269Z" fill="#6600FF"/>
<path d="M16.4053 14.0269H15.1105C15.0477 14.0269 14.9875 14.0018 14.9431 13.9571C14.8986 13.9124 14.8737 13.8517 14.8737 13.7885C14.8737 13.7253 14.8986 13.6647 14.9431 13.6199C14.9875 13.5752 15.0477 13.5501 15.1105 13.5501H16.4053C16.4681 13.5501 16.5283 13.5752 16.5727 13.6199C16.6172 13.6647 16.6421 13.7253 16.6421 13.7885C16.6421 13.8517 16.6172 13.9124 16.5727 13.9571C16.5283 14.0018 16.4681 14.0269 16.4053 14.0269Z" fill="#6600FF"/>
<path d="M18.8684 14.0269H17.5737C17.5109 14.0269 17.4506 14.0018 17.4062 13.9571C17.3618 13.9124 17.3369 13.8517 17.3369 13.7885C17.3369 13.7253 17.3618 13.6647 17.4062 13.6199C17.4506 13.5752 17.5109 13.5501 17.5737 13.5501H18.8684C18.9312 13.5501 18.9915 13.5752 19.0359 13.6199C19.0803 13.6647 19.1053 13.7253 19.1053 13.7885C19.1053 13.8517 19.0803 13.9124 19.0359 13.9571C18.9915 14.0018 18.9312 14.0269 18.8684 14.0269Z" fill="#6600FF"/>
<path d="M14.0368 15.4254H13.2158C13.153 15.4254 13.0927 15.4003 13.0483 15.3556C13.0039 15.3109 12.9789 15.2503 12.9789 15.187C12.9789 15.1238 13.0039 15.0632 13.0483 15.0185C13.0927 14.9738 13.153 14.9487 13.2158 14.9487H14.0368C14.0997 14.9487 14.1599 14.9738 14.2043 15.0185C14.2487 15.0632 14.2737 15.1238 14.2737 15.187C14.2737 15.2503 14.2487 15.3109 14.2043 15.3556C14.1599 15.4003 14.0997 15.4254 14.0368 15.4254Z" fill="#6600FF"/>
<path d="M16.4053 15.4254H15.1105C15.0477 15.4254 14.9875 15.4003 14.9431 15.3556C14.8986 15.3109 14.8737 15.2503 14.8737 15.187C14.8737 15.1238 14.8986 15.0632 14.9431 15.0185C14.9875 14.9738 15.0477 14.9487 15.1105 14.9487H16.4053C16.4681 14.9487 16.5283 14.9738 16.5727 15.0185C16.6172 15.0632 16.6421 15.1238 16.6421 15.187C16.6421 15.2503 16.6172 15.3109 16.5727 15.3556C16.5283 15.4003 16.4681 15.4254 16.4053 15.4254Z" fill="#6600FF"/>
<path d="M18.8684 15.4254H17.5737C17.5109 15.4254 17.4506 15.4003 17.4062 15.3556C17.3618 15.3109 17.3369 15.2503 17.3369 15.187C17.3369 15.1238 17.3618 15.0632 17.4062 15.0185C17.4506 14.9738 17.5109 14.9487 17.5737 14.9487H18.8684C18.9312 14.9487 18.9915 14.9738 19.0359 15.0185C19.0803 15.0632 19.1053 15.1238 19.1053 15.187C19.1053 15.2503 19.0803 15.3109 19.0359 15.3556C18.9915 15.4003 18.9312 15.4254 18.8684 15.4254Z" fill="#6600FF"/>
<path d="M14.0368 16.7604H13.2158C13.153 16.7604 13.0927 16.7353 13.0483 16.6906C13.0039 16.6459 12.9789 16.5852 12.9789 16.522C12.9789 16.4588 13.0039 16.3981 13.0483 16.3534C13.0927 16.3087 13.153 16.2836 13.2158 16.2836H14.0368C14.0997 16.2836 14.1599 16.3087 14.2043 16.3534C14.2487 16.3981 14.2737 16.4588 14.2737 16.522C14.2737 16.5852 14.2487 16.6459 14.2043 16.6906C14.1599 16.7353 14.0997 16.7604 14.0368 16.7604Z" fill="#6600FF"/>
<path d="M16.4053 16.7604H15.1105C15.0477 16.7604 14.9875 16.7353 14.9431 16.6906C14.8986 16.6459 14.8737 16.5852 14.8737 16.522C14.8737 16.4588 14.8986 16.3981 14.9431 16.3534C14.9875 16.3087 15.0477 16.2836 15.1105 16.2836H16.4053C16.4681 16.2836 16.5283 16.3087 16.5727 16.3534C16.6172 16.3981 16.6421 16.4588 16.6421 16.522C16.6421 16.5852 16.6172 16.6459 16.5727 16.6906C16.5283 16.7353 16.4681 16.7604 16.4053 16.7604Z" fill="#6600FF"/>
<path d="M18.8684 16.7604H17.5737C17.5109 16.7604 17.4506 16.7353 17.4062 16.6906C17.3618 16.6459 17.3369 16.5852 17.3369 16.522C17.3369 16.4588 17.3618 16.3981 17.4062 16.3534C17.4506 16.3087 17.5109 16.2836 17.5737 16.2836H18.8684C18.9312 16.2836 18.9915 16.3087 19.0359 16.3534C19.0803 16.3981 19.1053 16.4588 19.1053 16.522C19.1053 16.5852 19.0803 16.6459 19.0359 16.6906C18.9915 16.7353 18.9312 16.7604 18.8684 16.7604Z" fill="#6600FF"/>
<path d="M11.7357 18H9.05896C8.99614 18 8.9359 17.9749 8.89148 17.9302C8.84707 17.8855 8.82211 17.8248 8.82211 17.7616V15.187C8.82211 15.1238 8.84707 15.0632 8.89148 15.0185C8.9359 14.9738 8.99614 14.9487 9.05896 14.9487H11.7357C11.7985 14.9487 11.8588 14.9738 11.9032 15.0185C11.9476 15.0632 11.9726 15.1238 11.9726 15.187V17.7616C11.9726 17.8248 11.9476 17.8855 11.9032 17.9302C11.8588 17.9749 11.7985 18 11.7357 18ZM9.2958 17.5232H11.4989V15.4254H9.2958V17.5232Z" fill="#6600FF"/>
<path d="M10.3895 17.8888C10.3266 17.8888 10.2664 17.8636 10.222 17.8189C10.1776 17.7742 10.1526 17.7136 10.1526 17.6504V15.2029C10.1526 15.1397 10.1776 15.0791 10.222 15.0344C10.2664 14.9897 10.3266 14.9646 10.3895 14.9646C10.4523 14.9646 10.5125 14.9897 10.5569 15.0344C10.6013 15.0791 10.6263 15.1397 10.6263 15.2029V17.6504C10.6263 17.7136 10.6013 17.7742 10.5569 17.8189C10.5125 17.8636 10.4523 17.8888 10.3895 17.8888Z" fill="#6600FF"/>
</svg>
