<?xml version="1.0" encoding="utf-8"?>
<!-- Generator: Adobe Illustrator 25.3.1, SVG Export Plug-In . SVG Version: 6.00 Build 0)  -->
<svg version="1.1" id="Layer_1" xmlns="http://www.w3.org/2000/svg" xmlns:xlink="http://www.w3.org/1999/xlink" x="0px" y="0px"
	 viewBox="0 0 147 34" style="enable-background:new 0 0 147 34;" xml:space="preserve">
<style type="text/css">
	.st0{fill:#6600FF;}
	.st1{fill:#FFFFFF;}
	.st2{fill:#DCBBFF;}
</style>
<g>
	<path class="st0" d="M21.8,13l-4.3-5l8.6,0L21.8,13z"/>
	<rect x="7" y="14" class="st0" width="109" height="12"/>
	<g>
		<path d="M5.1,19V7.8h2.8v4.4h4.5V7.8h2.8V19h-2.8v-4.4H7.8V19H5.1z M20.7,19v-4.2l-4.5-7h3.2l2.8,4.6l2.9-4.6h3l-4.6,6.9V19H20.7z
			 M39.3,13.4c0,0.8-0.1,1.6-0.4,2.3c-0.3,0.7-0.7,1.3-1.2,1.9c-0.5,0.5-1.1,0.9-1.8,1.2c-0.7,0.3-1.4,0.4-2.2,0.4
			c-0.8,0-1.6-0.1-2.3-0.4c-0.7-0.3-1.3-0.7-1.9-1.2c-0.5-0.5-0.9-1.1-1.2-1.8c-0.3-0.7-0.4-1.5-0.4-2.3c0-0.8,0.1-1.6,0.4-2.3
			c0.3-0.7,0.7-1.3,1.2-1.8c0.5-0.5,1.1-0.9,1.9-1.2c0.7-0.3,1.5-0.4,2.3-0.4c0.9,0,1.8,0.2,2.7,0.6c0.8,0.4,1.5,0.9,2,1.6l-1.9,1.7
			c-0.4-0.5-0.8-0.8-1.2-1.1c-0.5-0.2-1-0.4-1.5-0.4c-0.4,0-0.8,0.1-1.2,0.3c-0.4,0.2-0.7,0.4-0.9,0.7c-0.3,0.3-0.5,0.6-0.6,1.1
			c-0.1,0.4-0.2,0.8-0.2,1.3c0,0.5,0.1,0.9,0.2,1.3c0.2,0.4,0.4,0.8,0.7,1.1c0.3,0.3,0.6,0.5,1,0.7c0.4,0.2,0.8,0.3,1.2,0.3
			c0.6,0,1.2-0.2,1.6-0.5c0.5-0.4,0.8-0.8,0.9-1.3h-2.8v-2.3h5.8V13.4z M41.1,19V7.8h2.8V19H41.1z M46.1,19V7.8h8.5v2.3h-5.7v2.1h4
			v2.2h-4v2.2h5.8V19H46.1z M56.8,7.8h2.6l5,6.8l0-6.8h2.6V19h-2.4l-5.1-7l0,7h-2.6V7.8z M69.3,19V7.8H72V19H69.3z M73.4,10.2V7.8
			h10v2.4h-3.6V19h-2.8v-8.8H73.4z M85,19V7.8h8.5v2.3h-5.7v2.1h4v2.2h-4v2.2h5.8V19H85z M100.6,16.7c0.5,0,1-0.1,1.4-0.4
			s0.8-0.6,1.2-1L105,17c-0.5,0.6-1.1,1.2-2,1.6c-0.8,0.4-1.6,0.6-2.5,0.6c-0.8,0-1.6-0.1-2.3-0.4c-0.7-0.3-1.3-0.7-1.9-1.2
			c-0.5-0.5-0.9-1.1-1.2-1.8c-0.3-0.7-0.4-1.5-0.4-2.3c0-0.8,0.1-1.6,0.4-2.3c0.3-0.7,0.7-1.3,1.2-1.8c0.5-0.5,1.2-0.9,1.9-1.2
			c0.7-0.3,1.5-0.4,2.3-0.4c0.9,0,1.8,0.2,2.6,0.6c0.8,0.4,1.5,0.9,2,1.6l-1.9,1.8c-0.4-0.5-0.8-0.9-1.2-1.1
			c-0.4-0.3-0.9-0.4-1.5-0.4c-0.4,0-0.8,0.1-1.2,0.3c-0.4,0.2-0.7,0.4-1,0.7c-0.3,0.3-0.5,0.6-0.6,1.1c-0.1,0.4-0.2,0.8-0.2,1.3
			c0,0.5,0.1,0.9,0.2,1.3c0.2,0.4,0.4,0.8,0.7,1.1c0.3,0.3,0.6,0.5,1,0.7C99.7,16.6,100.1,16.7,100.6,16.7z M106.5,19V7.8h2.8v4.4
			h4.5V7.8h2.8V19h-2.8v-4.4h-4.5V19H106.5z"/>
	</g>
	<path class="st1" d="M5.1,19H4.9v0.2h0.2V19z M5.1,7.8V7.6H4.9v0.2H5.1z M7.8,7.8H8V7.6H7.8V7.8z M7.8,12.2H7.6v0.2h0.2V12.2z
		 M12.4,12.2v0.2h0.2v-0.2H12.4z M12.4,7.8V7.6h-0.2v0.2H12.4z M15.1,7.8h0.2V7.6h-0.2V7.8z M15.1,19v0.2h0.2V19H15.1z M12.4,19
		h-0.2v0.2h0.2V19z M12.4,14.6h0.2v-0.2h-0.2V14.6z M7.8,14.6v-0.2H7.6v0.2H7.8z M7.8,19v0.2H8V19H7.8z M5.3,19V7.8H4.9V19H5.3z
		 M5.1,8h2.8V7.6H5.1V8z M7.6,7.8v4.4H8V7.8H7.6z M7.8,12.4h4.5V12H7.8V12.4z M12.6,12.2V7.8h-0.4v4.4H12.6z M12.4,8h2.8V7.6h-2.8V8
		z M14.9,7.8V19h0.4V7.8H14.9z M15.1,18.8h-2.8v0.4h2.8V18.8z M12.6,19v-4.4h-0.4V19H12.6z M12.4,14.4H7.8v0.4h4.5V14.4z M7.6,14.6
		V19H8v-4.4H7.6z M7.8,18.8H5.1v0.4h2.8V18.8z M20.7,19h-0.2v0.2h0.2V19z M20.7,14.8h0.2v-0.1l0,0L20.7,14.8z M16.2,7.8V7.6h-0.4
		L16,7.9L16.2,7.8z M19.4,7.8l0.2-0.1l-0.1-0.1h-0.1V7.8z M22.2,12.4L22,12.5l0.2,0.3l0.2-0.3L22.2,12.4z M25.1,7.8V7.6h-0.1
		l-0.1,0.1L25.1,7.8z M28,7.8l0.2,0.1l0.2-0.3H28V7.8z M23.5,14.7l-0.2-0.1l0,0.1v0.1H23.5z M23.5,19v0.2h0.2V19H23.5z M20.9,19
		v-4.2h-0.4V19H20.9z M20.9,14.7l-4.5-7L16,7.9l4.5,7L20.9,14.7z M16.2,8h3.2V7.6h-3.2V8z M19.2,7.9l2.8,4.6l0.3-0.2l-2.8-4.6
		L19.2,7.9z M22.4,12.5l2.9-4.6l-0.3-0.2L22,12.3L22.4,12.5z M25.1,8h3V7.6h-3V8z M27.9,7.7l-4.6,6.9l0.3,0.2l4.6-6.9L27.9,7.7z
		 M23.3,14.7V19h0.4v-4.3H23.3z M23.5,18.8h-2.8v0.4h2.8V18.8z M38.8,15.7l-0.2-0.1l0,0L38.8,15.7z M37.7,17.5l0.1,0.1l0,0
		L37.7,17.5z M35.9,18.7l0.1,0.2l0,0L35.9,18.7z M31.4,18.7l-0.1,0.2l0,0L31.4,18.7z M29.5,17.5l-0.1,0.1l0,0L29.5,17.5z M28.2,15.7
		l-0.2,0.1l0,0L28.2,15.7z M28.2,11.1L28.1,11l0,0L28.2,11.1z M29.5,9.3l0.1,0.1l0,0L29.5,9.3z M31.4,8.1l0.1,0.2l0,0L31.4,8.1z
		 M36.3,8.2l-0.1,0.2l0,0L36.3,8.2z M38.3,9.8l0.1,0.2l0.1-0.1l-0.1-0.1L38.3,9.8z M36.4,11.5l-0.2,0.1l0.1,0.2l0.2-0.1L36.4,11.5z
		 M35.2,10.4l-0.1,0.2l0,0L35.2,10.4z M32.4,10.3l-0.1-0.2l0,0L32.4,10.3z M31.5,11l0.1,0.1l0,0L31.5,11z M30.9,12.1l0.2,0.1l0,0
		L30.9,12.1z M30.9,14.7l-0.2,0.1l0,0L30.9,14.7z M31.5,15.8l0.1-0.1l0,0L31.5,15.8z M32.5,16.5l-0.1,0.2l0,0L32.5,16.5z M35.4,16.2
		l-0.1-0.2l0,0L35.4,16.2z M36.3,14.9l0.2,0.1l0.1-0.3h-0.3V14.9z M33.5,14.9h-0.2v0.2h0.2V14.9z M33.5,12.6v-0.2h-0.2v0.2H33.5z
		 M39.3,12.6h0.2v-0.2h-0.2V12.6z M39.1,13.4c0,0.8-0.1,1.6-0.4,2.2l0.4,0.1c0.3-0.7,0.4-1.5,0.4-2.4H39.1z M38.7,15.6
		c-0.3,0.7-0.6,1.3-1.1,1.8l0.3,0.3c0.5-0.5,0.9-1.2,1.2-1.9L38.7,15.6z M37.5,17.4c-0.5,0.5-1,0.9-1.7,1.2l0.2,0.4
		c0.7-0.3,1.3-0.7,1.8-1.3L37.5,17.4z M35.8,18.6c-0.7,0.3-1.4,0.4-2.1,0.4v0.4c0.8,0,1.6-0.1,2.3-0.4L35.8,18.6z M33.7,19
		c-0.8,0-1.5-0.1-2.2-0.4l-0.2,0.4c0.8,0.3,1.5,0.5,2.4,0.5V19z M31.4,18.5c-0.7-0.3-1.3-0.7-1.8-1.2l-0.3,0.3
		c0.6,0.5,1.2,0.9,1.9,1.3L31.4,18.5z M29.6,17.4c-0.5-0.5-0.9-1.1-1.2-1.8l-0.4,0.2c0.3,0.7,0.7,1.4,1.3,1.9L29.6,17.4z M28.4,15.6
		c-0.3-0.7-0.4-1.4-0.4-2.2h-0.4c0,0.8,0.2,1.6,0.5,2.4L28.4,15.6z M28,13.4c0-0.8,0.1-1.5,0.4-2.2L28.1,11
		c-0.3,0.7-0.5,1.5-0.5,2.4H28z M28.4,11.2c0.3-0.7,0.7-1.3,1.2-1.8l-0.3-0.3c-0.5,0.5-1,1.2-1.3,1.9L28.4,11.2z M29.6,9.4
		c0.5-0.5,1.1-0.9,1.8-1.2l-0.2-0.4c-0.7,0.3-1.4,0.7-1.9,1.3L29.6,9.4z M31.4,8.3c0.7-0.3,1.4-0.4,2.2-0.4V7.4
		c-0.8,0-1.6,0.2-2.4,0.5L31.4,8.3z M33.6,7.8c0.9,0,1.8,0.2,2.6,0.6L36.4,8c-0.9-0.4-1.8-0.6-2.7-0.6V7.8z M36.2,8.4
		c0.8,0.4,1.5,0.9,2,1.5l0.3-0.2C38,9,37.2,8.4,36.4,8L36.2,8.4z M38.2,9.6l-1.9,1.7l0.3,0.3l1.9-1.7L38.2,9.6z M36.6,11.4
		c-0.4-0.5-0.8-0.9-1.3-1.1l-0.2,0.4c0.4,0.2,0.8,0.5,1.2,1L36.6,11.4z M35.2,10.2c-0.5-0.2-1-0.4-1.6-0.4v0.4c0.5,0,1,0.1,1.4,0.3
		L35.2,10.2z M33.6,9.9c-0.5,0-0.9,0.1-1.3,0.3l0.2,0.4c0.3-0.2,0.7-0.2,1.1-0.2V9.9z M32.4,10.1c-0.4,0.2-0.7,0.4-1,0.8l0.3,0.3
		c0.2-0.3,0.5-0.5,0.9-0.7L32.4,10.1z M31.3,10.9c-0.3,0.3-0.5,0.7-0.7,1.1l0.4,0.1c0.1-0.4,0.3-0.7,0.6-1L31.3,10.9z M30.7,12
		c-0.2,0.4-0.2,0.9-0.2,1.4h0.4c0-0.4,0.1-0.9,0.2-1.2L30.7,12z M30.4,13.4c0,0.5,0.1,1,0.2,1.4l0.4-0.1c-0.1-0.4-0.2-0.8-0.2-1.3
		H30.4z M30.7,14.8c0.2,0.4,0.4,0.8,0.7,1.1l0.3-0.3c-0.3-0.3-0.5-0.6-0.6-1L30.7,14.8z M31.4,15.9c0.3,0.3,0.6,0.6,1,0.7l0.2-0.4
		c-0.3-0.2-0.7-0.4-0.9-0.7L31.4,15.9z M32.4,16.7c0.4,0.2,0.8,0.3,1.3,0.3v-0.4c-0.4,0-0.8-0.1-1.2-0.2L32.4,16.7z M33.7,17
		c0.7,0,1.3-0.2,1.8-0.6l-0.2-0.3c-0.4,0.3-0.9,0.5-1.5,0.5V17z M35.5,16.4c0.5-0.4,0.8-0.9,1-1.5l-0.4-0.1
		c-0.1,0.5-0.4,0.9-0.9,1.2L35.5,16.4z M36.3,14.7h-2.8v0.4h2.8V14.7z M33.7,14.9v-2.3h-0.4v2.3H33.7z M33.5,12.8h5.8v-0.4h-5.8
		V12.8z M39.1,12.6v0.8h0.4v-0.8H39.1z M41.1,19h-0.2v0.2h0.2V19z M41.1,7.8V7.6h-0.2v0.2H41.1z M43.8,7.8H44V7.6h-0.2V7.8z
		 M43.8,19v0.2H44V19H43.8z M41.3,19V7.8h-0.4V19H41.3z M41.1,8h2.8V7.6h-2.8V8z M43.6,7.8V19H44V7.8H43.6z M43.8,18.8h-2.8v0.4h2.8
		V18.8z M46.1,19h-0.2v0.2h0.2V19z M46.1,7.8V7.6h-0.2v0.2H46.1z M54.6,7.8h0.2V7.6h-0.2V7.8z M54.6,10.1v0.2h0.2v-0.2H54.6z
		 M48.9,10.1V9.9h-0.2v0.2H48.9z M48.9,12.2h-0.2v0.2h0.2V12.2z M52.9,12.2h0.2V12h-0.2V12.2z M52.9,14.5v0.2h0.2v-0.2H52.9z
		 M48.9,14.5v-0.2h-0.2v0.2H48.9z M48.9,16.7h-0.2v0.2h0.2V16.7z M54.7,16.7h0.2v-0.2h-0.2V16.7z M54.7,19v0.2h0.2V19H54.7z
		 M46.3,19V7.8h-0.4V19H46.3z M46.1,8h8.5V7.6h-8.5V8z M54.4,7.8v2.3h0.4V7.8H54.4z M54.6,9.9h-5.7v0.4h5.7V9.9z M48.7,10.1v2.1h0.4
		v-2.1H48.7z M48.9,12.4h4V12h-4V12.4z M52.7,12.2v2.2h0.4v-2.2H52.7z M52.9,14.3h-4v0.4h4V14.3z M48.7,14.5v2.2h0.4v-2.2H48.7z
		 M48.9,16.9h5.8v-0.4h-5.8V16.9z M54.5,16.7V19h0.4v-2.3H54.5z M54.7,18.8h-8.5v0.4h8.5V18.8z M56.8,7.8V7.6h-0.2v0.2H56.8z
		 M59.4,7.8l0.2-0.1l-0.1-0.1h-0.1V7.8z M64.4,14.6l-0.2,0.1l0.4,0.5l0-0.6L64.4,14.6z M64.3,7.8V7.6h-0.2l0,0.2L64.3,7.8z
		 M66.9,7.8h0.2V7.6h-0.2V7.8z M66.9,19v0.2h0.2V19H66.9z M64.5,19l-0.2,0.1l0.1,0.1h0.1V19z M59.4,12l0.2-0.1l-0.4-0.5l0,0.6
		L59.4,12z M59.4,19v0.2h0.2l0-0.2L59.4,19z M56.8,19h-0.2v0.2h0.2V19z M56.8,8h2.6V7.6h-2.6V8z M59.3,7.9l5,6.8l0.3-0.2l-5-6.8
		L59.3,7.9z M64.6,14.6l0-6.8l-0.4,0l0,6.8L64.6,14.6z M64.3,8h2.6V7.6h-2.6V8z M66.7,7.8V19h0.4V7.8H66.7z M66.9,18.8h-2.4v0.4h2.4
		V18.8z M64.7,18.9l-5.1-7l-0.3,0.2l5.1,7L64.7,18.9z M59.2,12l0,7l0.4,0l0-7L59.2,12z M59.4,18.8h-2.6v0.4h2.6V18.8z M57,19V7.8
		h-0.4V19H57z M69.3,19h-0.2v0.2h0.2V19z M69.3,7.8V7.6h-0.2v0.2H69.3z M72,7.8h0.2V7.6H72V7.8z M72,19v0.2h0.2V19H72z M69.5,19V7.8
		h-0.4V19H69.5z M69.3,8H72V7.6h-2.8V8z M71.8,7.8V19h0.4V7.8H71.8z M72,18.8h-2.8v0.4H72V18.8z M73.4,10.2h-0.2v0.2h0.2V10.2z
		 M73.4,7.8V7.6h-0.2v0.2H73.4z M83.4,7.8h0.2V7.6h-0.2V7.8z M83.4,10.2v0.2h0.2v-0.2H83.4z M79.8,10.2V10h-0.2v0.2H79.8z M79.8,19
		v0.2H80V19H79.8z M77.1,19h-0.2v0.2h0.2V19z M77.1,10.2h0.2V10h-0.2V10.2z M73.6,10.2V7.8h-0.4v2.4H73.6z M73.4,8h10V7.6h-10V8z
		 M83.2,7.8v2.4h0.4V7.8H83.2z M83.4,10h-3.6v0.4h3.6V10z M79.6,10.2V19H80v-8.8H79.6z M79.8,18.8h-2.8v0.4h2.8V18.8z M77.3,19v-8.8
		h-0.4V19H77.3z M77.1,10h-3.6v0.4h3.6V10z M85,19h-0.2v0.2H85V19z M85,7.8V7.6h-0.2v0.2H85z M93.5,7.8h0.2V7.6h-0.2V7.8z
		 M93.5,10.1v0.2h0.2v-0.2H93.5z M87.8,10.1V9.9h-0.2v0.2H87.8z M87.8,12.2h-0.2v0.2h0.2V12.2z M91.8,12.2H92V12h-0.2V12.2z
		 M91.8,14.5v0.2H92v-0.2H91.8z M87.8,14.5v-0.2h-0.2v0.2H87.8z M87.8,16.7h-0.2v0.2h0.2V16.7z M93.5,16.7h0.2v-0.2h-0.2V16.7z
		 M93.5,19v0.2h0.2V19H93.5z M85.2,19V7.8h-0.4V19H85.2z M85,8h8.5V7.6H85V8z M93.3,7.8v2.3h0.4V7.8H93.3z M93.5,9.9h-5.7v0.4h5.7
		V9.9z M87.6,10.1v2.1h0.4v-2.1H87.6z M87.8,12.4h4V12h-4V12.4z M91.6,12.2v2.2H92v-2.2H91.6z M91.8,14.3h-4v0.4h4V14.3z M87.6,14.5
		v2.2h0.4v-2.2H87.6z M87.8,16.9h5.8v-0.4h-5.8V16.9z M93.3,16.7V19h0.4v-2.3H93.3z M93.5,18.8H85v0.4h8.5V18.8z M103.2,15.3
		l0.1-0.1l-0.2-0.2l-0.1,0.2L103.2,15.3z M105,17l0.2,0.1l0.1-0.1l-0.1-0.1L105,17z M103,18.6l0.1,0.2l0,0L103,18.6z M98.2,18.7
		l-0.1,0.2l0,0L98.2,18.7z M96.3,17.5l0.1-0.1l0,0L96.3,17.5z M95,15.7l-0.2,0.1l0,0L95,15.7z M95,11.1L94.9,11l0,0L95,11.1z
		 M96.3,9.3l-0.1-0.1l0,0L96.3,9.3z M98.2,8.1l-0.1-0.2l0,0L98.2,8.1z M103.1,8.2l0.1-0.2l0,0L103.1,8.2z M105,9.8l0.1,0.1l0.1-0.1
		l-0.1-0.1L105,9.8z M103.2,11.6l-0.2,0.1l0.1,0.2l0.2-0.2L103.2,11.6z M102,10.5l-0.1,0.2l0,0L102,10.5z M99.3,10.3l-0.1-0.2l0,0
		L99.3,10.3z M98.3,11l-0.1-0.1l0,0L98.3,11z M97.7,12.1L97.5,12l0,0L97.7,12.1z M97.7,14.7l-0.2,0.1l0,0L97.7,14.7z M98.3,15.8
		l-0.1,0.1l0,0L98.3,15.8z M99.3,16.5l-0.1,0.2l0,0L99.3,16.5z M100.6,16.9c0.5,0,1-0.1,1.5-0.4l-0.2-0.4c-0.4,0.2-0.8,0.3-1.3,0.3
		V16.9z M102.1,16.5c0.5-0.3,0.9-0.6,1.2-1.1l-0.3-0.2c-0.3,0.4-0.7,0.8-1.1,1L102.1,16.5z M103,15.4l1.8,1.7l0.3-0.3l-1.8-1.7
		L103,15.4z M104.8,16.9c-0.5,0.6-1.1,1.1-1.9,1.5l0.2,0.4c0.8-0.4,1.5-0.9,2-1.6L104.8,16.9z M102.9,18.4c-0.8,0.4-1.6,0.6-2.4,0.6
		v0.4c0.9,0,1.8-0.2,2.6-0.6L102.9,18.4z M100.5,19c-0.8,0-1.6-0.1-2.3-0.4l-0.2,0.4c0.8,0.3,1.6,0.5,2.4,0.5V19z M98.2,18.5
		c-0.7-0.3-1.3-0.7-1.8-1.2l-0.3,0.3c0.5,0.5,1.2,1,1.9,1.3L98.2,18.5z M96.4,17.4c-0.5-0.5-0.9-1.1-1.2-1.8l-0.4,0.2
		c0.3,0.7,0.7,1.4,1.3,1.9L96.4,17.4z M95.2,15.6c-0.3-0.7-0.4-1.4-0.4-2.2h-0.4c0,0.8,0.2,1.6,0.5,2.4L95.2,15.6z M94.8,13.4
		c0-0.8,0.1-1.5,0.4-2.2L94.9,11c-0.3,0.7-0.5,1.5-0.5,2.4H94.8z M95.2,11.2c0.3-0.7,0.7-1.3,1.2-1.8l-0.3-0.3
		c-0.5,0.5-1,1.2-1.3,1.9L95.2,11.2z M96.4,9.4c0.5-0.5,1.1-0.9,1.8-1.2l-0.2-0.4c-0.7,0.3-1.4,0.7-1.9,1.3L96.4,9.4z M98.2,8.3
		c0.7-0.3,1.5-0.4,2.3-0.4V7.4c-0.9,0-1.7,0.2-2.4,0.5L98.2,8.3z M100.5,7.8c0.9,0,1.7,0.2,2.5,0.6l0.2-0.4
		c-0.8-0.4-1.7-0.6-2.7-0.6V7.8z M103,8.4c0.8,0.4,1.4,0.9,1.9,1.5l0.3-0.2c-0.5-0.7-1.2-1.2-2-1.6L103,8.4z M104.9,9.7l-1.9,1.8
		l0.3,0.3l1.9-1.8L104.9,9.7z M103.3,11.4c-0.4-0.5-0.8-0.9-1.3-1.2l-0.2,0.4c0.4,0.2,0.8,0.6,1.2,1L103.3,11.4z M102.1,10.3
		c-0.5-0.3-1-0.4-1.6-0.4v0.4c0.5,0,0.9,0.1,1.4,0.4L102.1,10.3z M100.5,9.9c-0.5,0-0.9,0.1-1.3,0.3l0.2,0.4
		c0.3-0.2,0.7-0.2,1.1-0.2V9.9z M99.2,10.1c-0.4,0.2-0.7,0.4-1,0.7l0.3,0.3c0.3-0.3,0.6-0.5,0.9-0.7L99.2,10.1z M98.2,10.9
		c-0.3,0.3-0.5,0.7-0.7,1.1l0.4,0.1c0.2-0.4,0.4-0.7,0.6-1L98.2,10.9z M97.5,12c-0.2,0.4-0.2,0.9-0.2,1.4h0.4c0-0.4,0.1-0.9,0.2-1.2
		L97.5,12z M97.2,13.4c0,0.5,0.1,1,0.3,1.4l0.4-0.1c-0.2-0.4-0.2-0.8-0.2-1.2H97.2z M97.5,14.8c0.2,0.4,0.4,0.8,0.7,1.1l0.3-0.3
		c-0.3-0.3-0.5-0.6-0.6-1L97.5,14.8z M98.2,15.9c0.3,0.3,0.7,0.5,1.1,0.7l0.2-0.4c-0.4-0.2-0.7-0.4-0.9-0.6L98.2,15.9z M99.3,16.6
		c0.4,0.2,0.9,0.3,1.3,0.3v-0.4c-0.4,0-0.8-0.1-1.2-0.2L99.3,16.6z M106.5,19h-0.2v0.2h0.2V19z M106.5,7.8V7.6h-0.2v0.2H106.5z
		 M109.2,7.8h0.2V7.6h-0.2V7.8z M109.2,12.2H109v0.2h0.2V12.2z M113.8,12.2v0.2h0.2v-0.2H113.8z M113.8,7.8V7.6h-0.2v0.2H113.8z
		 M116.5,7.8h0.2V7.6h-0.2V7.8z M116.5,19v0.2h0.2V19H116.5z M113.8,19h-0.2v0.2h0.2V19z M113.8,14.6h0.2v-0.2h-0.2V14.6z
		 M109.2,14.6v-0.2H109v0.2H109.2z M109.2,19v0.2h0.2V19H109.2z M106.7,19V7.8h-0.4V19H106.7z M106.5,8h2.8V7.6h-2.8V8z M109,7.8
		v4.4h0.4V7.8H109z M109.2,12.4h4.5V12h-4.5V12.4z M114,12.2V7.8h-0.4v4.4H114z M113.8,8h2.8V7.6h-2.8V8z M116.3,7.8V19h0.4V7.8
		H116.3z M116.5,18.8h-2.8v0.4h2.8V18.8z M114,19v-4.4h-0.4V19H114z M113.8,14.4h-4.5v0.4h4.5V14.4z M109,14.6V19h0.4v-4.4H109z
		 M109.2,18.8h-2.8v0.4h2.8V18.8z"/>
	<g>
		<path class="st1" d="M10.4,23.9l-0.7-1.3V24H9.2v-2.1h0.6l0.5,1l0.5-1h0.6V24h-0.5v-1.4L10.4,23.9z M11.8,24l0.8-2.1h0.6L14,24
			h-0.6l-0.2-0.5h-0.8L12.3,24H11.8z M12.6,23.1h0.5l-0.2-0.7L12.6,23.1z M13.7,22.3v-0.4h1.9v0.4h-0.7V24h-0.5v-1.7H13.7z
			 M15.7,22.3v-0.4h1.9v0.4h-0.7V24h-0.5v-1.7H15.7z M17.9,24v-2.1h1c0.1,0,0.2,0,0.3,0.1c0.1,0,0.2,0.1,0.2,0.1
			c0.1,0.1,0.1,0.1,0.2,0.2c0,0.1,0.1,0.2,0.1,0.3c0,0.1,0,0.2-0.1,0.4c-0.1,0.1-0.2,0.2-0.3,0.2l0.4,0.8h-0.6l-0.4-0.8h-0.3V24
			H17.9z M18.9,22.3h-0.5v0.5h0.5c0.1,0,0.1,0,0.2-0.1c0,0,0.1-0.1,0.1-0.2c0-0.1,0-0.1-0.1-0.2C19,22.3,18.9,22.3,18.9,22.3z
			 M20,24v-2.1h1.6v0.4h-1.1v0.4h0.8v0.4h-0.8v0.4h1.1V24H20z M21.8,23.7l0.3-0.4c0.1,0.1,0.3,0.2,0.4,0.2c0.1,0,0.2,0.1,0.3,0.1
			c0.1,0,0.2,0,0.3-0.1c0.1,0,0.1-0.1,0.1-0.2c0-0.1,0-0.1-0.1-0.1c0,0-0.1-0.1-0.2-0.1l-0.4-0.1c-0.2,0-0.3-0.1-0.4-0.2
			c-0.1-0.1-0.1-0.2-0.1-0.4c0-0.2,0.1-0.4,0.2-0.5c0.1-0.1,0.4-0.2,0.6-0.2c0.2,0,0.3,0,0.5,0.1c0.2,0,0.3,0.1,0.4,0.2l-0.3,0.4
			c-0.1-0.1-0.2-0.1-0.3-0.2c-0.1,0-0.2-0.1-0.3-0.1c-0.1,0-0.2,0-0.2,0.1s-0.1,0.1-0.1,0.1c0,0.1,0,0.1,0.1,0.1
			c0,0,0.1,0.1,0.2,0.1l0.4,0.1c0.2,0,0.3,0.1,0.4,0.2c0.1,0.1,0.2,0.2,0.2,0.4c0,0.2-0.1,0.4-0.2,0.5S23,24,22.7,24
			c-0.2,0-0.3,0-0.5-0.1C22.1,23.9,22,23.8,21.8,23.7z M23.8,23.7l0.3-0.4c0.1,0.1,0.3,0.2,0.4,0.2c0.1,0,0.2,0.1,0.3,0.1
			c0.1,0,0.2,0,0.3-0.1c0.1,0,0.1-0.1,0.1-0.2c0-0.1,0-0.1-0.1-0.1c0,0-0.1-0.1-0.2-0.1l-0.4-0.1c-0.2,0-0.3-0.1-0.4-0.2
			c-0.1-0.1-0.1-0.2-0.1-0.4c0-0.2,0.1-0.4,0.2-0.5c0.1-0.1,0.4-0.2,0.6-0.2c0.2,0,0.3,0,0.5,0.1c0.2,0,0.3,0.1,0.4,0.2l-0.3,0.4
			c-0.1-0.1-0.2-0.1-0.3-0.2c-0.1,0-0.2-0.1-0.3-0.1c-0.1,0-0.2,0-0.2,0.1c-0.1,0-0.1,0.1-0.1,0.1c0,0.1,0,0.1,0.1,0.1
			c0,0,0.1,0.1,0.2,0.1l0.4,0.1c0.2,0,0.3,0.1,0.4,0.2c0.1,0.1,0.2,0.2,0.2,0.4c0,0.2-0.1,0.4-0.2,0.5C25.2,24,25,24,24.7,24
			c-0.2,0-0.3,0-0.5-0.1C24.1,23.9,24,23.8,23.8,23.7z M26.4,24l0.8-2.1h0.6l0.8,2.1H28l-0.2-0.5h-0.8L26.9,24H26.4z M27.2,23.1h0.5
			l-0.2-0.7L27.2,23.1z M28.8,21.9h0.5l0.9,1.3l0-1.3h0.5V24h-0.5l-1-1.3l0,1.3h-0.5V21.9z M31.2,24v-2.1h0.9c0.1,0,0.3,0,0.4,0.1
			c0.1,0.1,0.2,0.1,0.3,0.2c0.1,0.1,0.2,0.2,0.2,0.3c0.1,0.1,0.1,0.3,0.1,0.4c0,0.1,0,0.3-0.1,0.4c-0.1,0.1-0.1,0.2-0.2,0.3
			c-0.1,0.1-0.2,0.2-0.3,0.2C32.3,24,32.2,24,32.1,24H31.2z M32.1,22.3h-0.3v1.2h0.3c0.1,0,0.1,0,0.2,0c0.1,0,0.1-0.1,0.2-0.1
			c0-0.1,0.1-0.1,0.1-0.2c0-0.1,0-0.2,0-0.2c0-0.1,0-0.2,0-0.2c0-0.1-0.1-0.1-0.1-0.2c0-0.1-0.1-0.1-0.2-0.1S32.1,22.3,32.1,22.3z
			 M35.9,23.1c0,0.1,0,0.3-0.1,0.4c0,0.1-0.1,0.2-0.2,0.3c-0.1,0.1-0.2,0.1-0.3,0.2C35.3,24,35.2,24,35,24c-0.1,0-0.3,0-0.4-0.1
			c-0.1,0-0.2-0.1-0.3-0.2c-0.1-0.1-0.1-0.2-0.2-0.3c0-0.1-0.1-0.2-0.1-0.4v-1.2h0.5v1.2c0,0.1,0,0.3,0.1,0.3
			c0.1,0.1,0.2,0.1,0.3,0.1s0.2,0,0.3-0.1c0.1-0.1,0.1-0.2,0.1-0.3v-1.2h0.5V23.1z M36.4,24v-2.1h1c0.1,0,0.2,0,0.3,0.1
			c0.1,0,0.2,0.1,0.2,0.1c0.1,0.1,0.1,0.1,0.2,0.2c0,0.1,0.1,0.2,0.1,0.3c0,0.1,0,0.2-0.1,0.3c0,0.1-0.1,0.2-0.2,0.2
			c-0.1,0.1-0.1,0.1-0.2,0.1c-0.1,0-0.2,0.1-0.3,0.1h-0.5V24H36.4z M37.3,22.3h-0.4v0.5h0.4c0.1,0,0.2,0,0.2-0.1
			c0.1-0.1,0.1-0.1,0.1-0.2c0-0.1,0-0.1-0.1-0.2C37.5,22.4,37.4,22.3,37.3,22.3z M38.5,24v-2.1H39v0.8h0.8v-0.8h0.5V24h-0.5v-0.8H39
			V24H38.5z M42.9,23c0,0.1,0,0.3-0.1,0.4c-0.1,0.1-0.1,0.2-0.2,0.3c-0.1,0.1-0.2,0.2-0.3,0.2S41.9,24,41.8,24c-0.2,0-0.3,0-0.4-0.1
			c-0.1-0.1-0.2-0.1-0.3-0.2c-0.1-0.1-0.2-0.2-0.2-0.3c-0.1-0.1-0.1-0.3-0.1-0.4c0-0.2,0-0.3,0.1-0.4c0.1-0.1,0.1-0.2,0.2-0.3
			c0.1-0.1,0.2-0.2,0.3-0.2c0.1-0.1,0.3-0.1,0.4-0.1c0.2,0,0.3,0,0.4,0.1s0.2,0.1,0.3,0.2c0.1,0.1,0.2,0.2,0.2,0.3
			C42.8,22.7,42.9,22.8,42.9,23z M42.3,23c0-0.1,0-0.2,0-0.2c0-0.1-0.1-0.1-0.1-0.2c0-0.1-0.1-0.1-0.2-0.1c-0.1,0-0.1,0-0.2,0
			s-0.2,0-0.2,0c-0.1,0-0.1,0.1-0.2,0.1c0,0.1-0.1,0.1-0.1,0.2c0,0.1,0,0.2,0,0.2c0,0.1,0,0.2,0,0.2c0,0.1,0.1,0.1,0.1,0.2
			c0,0.1,0.1,0.1,0.2,0.1c0.1,0,0.1,0,0.2,0s0.2,0,0.2,0c0.1,0,0.1-0.1,0.2-0.1c0-0.1,0.1-0.1,0.1-0.2C42.3,23.1,42.3,23,42.3,23z
			 M43.2,24v-2.1h0.5v1.7h1V24H43.2z M45,23.7l0.3-0.4c0.1,0.1,0.3,0.2,0.4,0.2c0.1,0,0.2,0.1,0.3,0.1c0.1,0,0.2,0,0.3-0.1
			c0.1,0,0.1-0.1,0.1-0.2c0-0.1,0-0.1-0.1-0.1c0,0-0.1-0.1-0.2-0.1l-0.4-0.1c-0.2,0-0.3-0.1-0.4-0.2c-0.1-0.1-0.1-0.2-0.1-0.4
			c0-0.2,0.1-0.4,0.2-0.5c0.1-0.1,0.4-0.2,0.6-0.2c0.2,0,0.3,0,0.5,0.1c0.2,0,0.3,0.1,0.4,0.2l-0.3,0.4c-0.1-0.1-0.2-0.1-0.3-0.2
			c-0.1,0-0.2-0.1-0.3-0.1c-0.1,0-0.2,0-0.2,0.1s-0.1,0.1-0.1,0.1c0,0.1,0,0.1,0.1,0.1c0,0,0.1,0.1,0.2,0.1l0.4,0.1
			c0.2,0,0.3,0.1,0.4,0.2c0.1,0.1,0.2,0.2,0.2,0.4c0,0.2-0.1,0.4-0.2,0.5S46.2,24,45.9,24c-0.2,0-0.3,0-0.5-0.1
			C45.3,23.9,45.1,23.8,45,23.7z M46.9,22.3v-0.4h1.9v0.4h-0.7V24h-0.5v-1.7H46.9z M49.1,24v-2.1h1.6v0.4h-1.1v0.4h0.8v0.4h-0.8v0.4
			h1.1V24H49.1z M51.1,24v-2.1h1c0.1,0,0.2,0,0.3,0.1c0.1,0,0.2,0.1,0.2,0.1c0.1,0.1,0.1,0.1,0.2,0.2c0,0.1,0.1,0.2,0.1,0.3
			c0,0.1,0,0.2-0.1,0.4c-0.1,0.1-0.2,0.2-0.3,0.2l0.4,0.8h-0.6L52,23.2h-0.3V24H51.1z M52.1,22.3h-0.5v0.5h0.5c0.1,0,0.1,0,0.2-0.1
			c0.1,0,0.1-0.1,0.1-0.2c0-0.1,0-0.1-0.1-0.2C52.2,22.3,52.2,22.3,52.1,22.3z M53.7,24v-0.8l-0.9-1.3h0.6l0.5,0.9l0.5-0.9h0.6
			l-0.9,1.3V24H53.7z M57,23.6c0.1,0,0.2,0,0.3-0.1c0.1,0,0.2-0.1,0.2-0.2l0.3,0.3c-0.1,0.1-0.2,0.2-0.4,0.3C57.3,24,57.1,24,57,24
			c-0.2,0-0.3,0-0.4-0.1c-0.1-0.1-0.3-0.1-0.4-0.2c-0.1-0.1-0.2-0.2-0.2-0.3c-0.1-0.1-0.1-0.3-0.1-0.4c0-0.2,0-0.3,0.1-0.4
			c0.1-0.1,0.1-0.2,0.2-0.3c0.1-0.1,0.2-0.2,0.4-0.2c0.1-0.1,0.3-0.1,0.4-0.1c0.2,0,0.3,0,0.5,0.1c0.2,0.1,0.3,0.2,0.4,0.3l-0.3,0.3
			c-0.1-0.1-0.1-0.2-0.2-0.2c-0.1,0-0.2-0.1-0.3-0.1c-0.1,0-0.2,0-0.2,0c-0.1,0-0.1,0.1-0.2,0.1c0,0.1-0.1,0.1-0.1,0.2
			c0,0.1,0,0.2,0,0.2c0,0.1,0,0.2,0,0.2c0,0.1,0.1,0.1,0.1,0.2c0.1,0.1,0.1,0.1,0.2,0.1C56.8,23.6,56.9,23.6,57,23.6z M58.1,24v-2.1
			h0.5v1.7h1V24H58.1z M60.1,24v-2.1h1.6v0.4h-1.1v0.4h0.8v0.4h-0.8v0.4h1.1V24H60.1z M61.9,24l0.8-2.1h0.6l0.8,2.1h-0.6l-0.2-0.5
			h-0.8L62.4,24H61.9z M62.7,23.1h0.5L63,22.4L62.7,23.1z M64.3,21.9h0.5l0.9,1.3l0-1.3h0.5V24h-0.5l-1-1.3l0,1.3h-0.5V21.9z
			 M66.7,24v-2.1h0.5V24H66.7z M67.6,21.9h0.5l0.9,1.3l0-1.3h0.5V24h-0.5l-1-1.3l0,1.3h-0.5V21.9z M72,22.9c0,0.2,0,0.3-0.1,0.4
			c-0.1,0.1-0.1,0.2-0.2,0.3c-0.1,0.1-0.2,0.2-0.3,0.2C71.3,24,71.1,24,71,24c-0.2,0-0.3,0-0.4-0.1c-0.1-0.1-0.3-0.1-0.4-0.2
			c-0.1-0.1-0.2-0.2-0.2-0.3c-0.1-0.1-0.1-0.3-0.1-0.4c0-0.2,0-0.3,0.1-0.4c0.1-0.1,0.1-0.2,0.2-0.3c0.1-0.1,0.2-0.2,0.3-0.2
			c0.1-0.1,0.3-0.1,0.4-0.1c0.2,0,0.3,0,0.5,0.1c0.2,0.1,0.3,0.2,0.4,0.3l-0.4,0.3c-0.1-0.1-0.1-0.2-0.2-0.2c-0.1,0-0.2-0.1-0.3-0.1
			c-0.1,0-0.2,0-0.2,0c-0.1,0-0.1,0.1-0.2,0.1c-0.1,0.1-0.1,0.1-0.1,0.2c0,0.1,0,0.2,0,0.2c0,0.1,0,0.2,0,0.3c0,0.1,0.1,0.1,0.1,0.2
			s0.1,0.1,0.2,0.1c0.1,0,0.1,0,0.2,0c0.1,0,0.2,0,0.3-0.1c0.1-0.1,0.1-0.2,0.2-0.3H71v-0.4H72V22.9z M72.8,24l0.8-2.1h0.6L75,24
			h-0.6l-0.2-0.5h-0.8L73.4,24H72.8z M73.7,23.1h0.5l-0.2-0.7L73.7,23.1z M75.3,21.9h0.5l0.9,1.3l0-1.3h0.5V24h-0.5l-1-1.3l0,1.3
			h-0.5V21.9z M77.6,24v-2.1h0.9c0.1,0,0.3,0,0.4,0.1c0.1,0.1,0.2,0.1,0.3,0.2c0.1,0.1,0.2,0.2,0.2,0.3c0.1,0.1,0.1,0.3,0.1,0.4
			c0,0.1,0,0.3-0.1,0.4c-0.1,0.1-0.1,0.2-0.2,0.3c-0.1,0.1-0.2,0.2-0.3,0.2C78.8,24,78.6,24,78.5,24H77.6z M78.5,22.3h-0.3v1.2h0.3
			c0.1,0,0.1,0,0.2,0c0.1,0,0.1-0.1,0.2-0.1c0-0.1,0.1-0.1,0.1-0.2c0-0.1,0-0.2,0-0.2c0-0.1,0-0.2,0-0.2c0-0.1-0.1-0.1-0.1-0.2
			c0-0.1-0.1-0.1-0.2-0.1C78.6,22.4,78.6,22.3,78.5,22.3z M80.4,23.7l0.3-0.4c0.1,0.1,0.3,0.2,0.4,0.2c0.1,0,0.2,0.1,0.3,0.1
			c0.1,0,0.2,0,0.3-0.1c0.1,0,0.1-0.1,0.1-0.2c0-0.1,0-0.1-0.1-0.1c0,0-0.1-0.1-0.2-0.1L81,23.1c-0.2,0-0.3-0.1-0.4-0.2
			c-0.1-0.1-0.1-0.2-0.1-0.4c0-0.2,0.1-0.4,0.2-0.5c0.1-0.1,0.4-0.2,0.6-0.2c0.2,0,0.3,0,0.5,0.1c0.2,0,0.3,0.1,0.4,0.2l-0.3,0.4
			c-0.1-0.1-0.2-0.1-0.3-0.2c-0.1,0-0.2-0.1-0.3-0.1c-0.1,0-0.2,0-0.2,0.1s-0.1,0.1-0.1,0.1c0,0.1,0,0.1,0.1,0.1
			c0,0,0.1,0.1,0.2,0.1l0.4,0.1c0.2,0,0.3,0.1,0.4,0.2c0.1,0.1,0.2,0.2,0.2,0.4c0,0.2-0.1,0.4-0.2,0.5S81.6,24,81.3,24
			c-0.2,0-0.3,0-0.5-0.1C80.7,23.9,80.5,23.8,80.4,23.7z M82.3,24l0.8-2.1h0.6l0.8,2.1h-0.6l-0.2-0.5H83L82.8,24H82.3z M83.1,23.1
			h0.5l-0.2-0.7L83.1,23.1z M84.7,21.9h0.5l0.9,1.3l0-1.3h0.5V24h-0.5l-1-1.3l0,1.3h-0.5V21.9z M87.1,24v-2.1h0.5V24H87.1z
			 M87.8,22.3v-0.4h1.9v0.4H89V24h-0.5v-1.7H87.8z M90,24v-2.1h0.5V24H90z M90.8,24v-0.3l1-1.3l-1,0v-0.4h1.7v0.3l-1,1.3l1,0V24
			H90.8z M92.8,24v-2.1h0.5V24H92.8z M93.7,21.9h0.5l0.9,1.3l0-1.3h0.5V24h-0.5l-1-1.3l0,1.3h-0.5V21.9z M98.1,22.9
			c0,0.2,0,0.3-0.1,0.4c-0.1,0.1-0.1,0.2-0.2,0.3c-0.1,0.1-0.2,0.2-0.3,0.2C97.4,24,97.2,24,97.1,24c-0.2,0-0.3,0-0.4-0.1
			c-0.1-0.1-0.3-0.1-0.4-0.2c-0.1-0.1-0.2-0.2-0.2-0.3C96,23.2,96,23.1,96,23c0-0.2,0-0.3,0.1-0.4c0.1-0.1,0.1-0.2,0.2-0.3
			c0.1-0.1,0.2-0.2,0.3-0.2c0.1-0.1,0.3-0.1,0.4-0.1c0.2,0,0.3,0,0.5,0.1c0.2,0.1,0.3,0.2,0.4,0.3l-0.4,0.3
			c-0.1-0.1-0.1-0.2-0.2-0.2c-0.1,0-0.2-0.1-0.3-0.1c-0.1,0-0.2,0-0.2,0c-0.1,0-0.1,0.1-0.2,0.1c0,0.1-0.1,0.1-0.1,0.2
			c0,0.1,0,0.2,0,0.2c0,0.1,0,0.2,0,0.3c0,0.1,0.1,0.1,0.1,0.2s0.1,0.1,0.2,0.1c0.1,0,0.1,0,0.2,0c0.1,0,0.2,0,0.3-0.1
			c0.1-0.1,0.1-0.2,0.2-0.3h-0.5v-0.4h1.1V22.9z M99,23.7l0.3-0.4c0.1,0.1,0.3,0.2,0.4,0.2c0.1,0,0.2,0.1,0.3,0.1
			c0.1,0,0.2,0,0.3-0.1c0.1,0,0.1-0.1,0.1-0.2c0-0.1,0-0.1-0.1-0.1c0,0-0.1-0.1-0.2-0.1l-0.4-0.1c-0.2,0-0.3-0.1-0.4-0.2
			c-0.1-0.1-0.1-0.2-0.1-0.4c0-0.2,0.1-0.4,0.2-0.5c0.1-0.1,0.4-0.2,0.6-0.2c0.2,0,0.3,0,0.5,0.1c0.2,0,0.3,0.1,0.4,0.2l-0.3,0.4
			c-0.1-0.1-0.2-0.1-0.3-0.2c-0.1,0-0.2-0.1-0.3-0.1c-0.1,0-0.2,0-0.2,0.1s-0.1,0.1-0.1,0.1c0,0.1,0,0.1,0.1,0.1
			c0,0,0.1,0.1,0.2,0.1l0.4,0.1c0.2,0,0.3,0.1,0.4,0.2c0.1,0.1,0.2,0.2,0.2,0.4c0,0.2-0.1,0.4-0.2,0.5s-0.4,0.2-0.7,0.2
			c-0.2,0-0.3,0-0.5-0.1C99.2,23.9,99.1,23.8,99,23.7z M101.6,24v-0.8l-0.9-1.3h0.6l0.5,0.9l0.5-0.9h0.6l-0.9,1.3V24H101.6z
			 M103,23.7l0.3-0.4c0.1,0.1,0.3,0.2,0.4,0.2c0.1,0,0.2,0.1,0.3,0.1c0.1,0,0.2,0,0.3-0.1c0.1,0,0.1-0.1,0.1-0.2
			c0-0.1,0-0.1-0.1-0.1c0,0-0.1-0.1-0.2-0.1l-0.4-0.1c-0.2,0-0.3-0.1-0.4-0.2c-0.1-0.1-0.1-0.2-0.1-0.4c0-0.2,0.1-0.4,0.2-0.5
			c0.1-0.1,0.4-0.2,0.6-0.2c0.2,0,0.3,0,0.5,0.1c0.2,0,0.3,0.1,0.4,0.2l-0.3,0.4c-0.1-0.1-0.2-0.1-0.3-0.2c-0.1,0-0.2-0.1-0.3-0.1
			c-0.1,0-0.2,0-0.2,0.1s-0.1,0.1-0.1,0.1c0,0.1,0,0.1,0.1,0.1c0,0,0.1,0.1,0.2,0.1l0.4,0.1c0.2,0,0.3,0.1,0.4,0.2
			c0.1,0.1,0.2,0.2,0.2,0.4c0,0.2-0.1,0.4-0.2,0.5c-0.2,0.1-0.4,0.2-0.7,0.2c-0.2,0-0.3,0-0.5-0.1C103.3,23.9,103.2,23.8,103,23.7z
			 M105,22.3v-0.4h1.9v0.4h-0.7V24h-0.5v-1.7H105z M107.1,24v-2.1h1.6v0.4h-1.1v0.4h0.8v0.4h-0.8v0.4h1.1V24H107.1z M110.3,23.9
			l-0.7-1.3V24h-0.5v-2.1h0.6l0.5,1l0.5-1h0.6V24h-0.5v-1.4L110.3,23.9z M111.7,23.7l0.3-0.4c0.1,0.1,0.3,0.2,0.4,0.2
			c0.1,0,0.2,0.1,0.3,0.1c0.1,0,0.2,0,0.3-0.1c0.1,0,0.1-0.1,0.1-0.2c0-0.1,0-0.1-0.1-0.1c0,0-0.1-0.1-0.2-0.1l-0.4-0.1
			c-0.2,0-0.3-0.1-0.4-0.2c-0.1-0.1-0.1-0.2-0.1-0.4c0-0.2,0.1-0.4,0.2-0.5c0.1-0.1,0.4-0.2,0.6-0.2c0.2,0,0.3,0,0.5,0.1
			c0.2,0,0.3,0.1,0.4,0.2l-0.3,0.4c-0.1-0.1-0.2-0.1-0.3-0.2c-0.1,0-0.2-0.1-0.3-0.1c-0.1,0-0.2,0-0.2,0.1s-0.1,0.1-0.1,0.1
			c0,0.1,0,0.1,0.1,0.1c0,0,0.1,0.1,0.2,0.1l0.4,0.1c0.2,0,0.3,0.1,0.4,0.2c0.1,0.1,0.2,0.2,0.2,0.4c0,0.2-0.1,0.4-0.2,0.5
			c-0.2,0.1-0.4,0.2-0.7,0.2c-0.2,0-0.3,0-0.5-0.1C112,23.9,111.9,23.8,111.7,23.7z"/>
	</g>
	<rect x="24" y="4" class="st0" width="1" height="1"/>
	<rect x="27" y="4" class="st2" width="0.5" height="0.5"/>
	<rect x="23" y="4" class="st2" width="0.5" height="0.5"/>
	<rect x="25" y="3" class="st2" width="0.5" height="0.5"/>
	<rect x="27" y="2" class="st0" width="1" height="1"/>
	<rect x="23" y="1" class="st0" width="1" height="1"/>
	<g>
		<rect x="24" y="6" class="st0" width="1" height="1"/>
	</g>
	<rect x="26" y="5" class="st0" width="1" height="1"/>
	<rect x="29" y="5" class="st0" width="1" height="1"/>
	<path class="st0" d="M120.3,15.1l1.5-7.1l2,0c0.9,0,1.6,0.2,2.1,0.7c0.5,0.5,0.7,1.1,0.7,2c0,0.9-0.2,1.7-0.5,2.4
		c-0.3,0.7-0.8,1.2-1.4,1.5c-0.6,0.4-1.3,0.5-2.2,0.5L120.3,15.1z M122.7,13.7c0.5,0,0.9-0.1,1.2-0.4c0.3-0.3,0.6-0.6,0.7-1.1
		c0.2-0.4,0.2-0.9,0.2-1.5c0-0.5-0.1-0.8-0.3-1c-0.2-0.2-0.5-0.3-0.9-0.3l-0.5,0l-0.9,4.4L122.7,13.7z M127.1,15.1l1.5-7.1l2.2,0
		l0.2,5.2l0,0l2.5-5.2l2.3,0l-1.5,7.1l-1.5,0l0.6-3.1c0.1-0.5,0.2-1,0.3-1.4c0.1-0.4,0.2-0.7,0.2-0.9l0,0l-2.6,5.4l-1.6,0l-0.2-5.3
		l0,0c-0.1,0.3-0.1,0.7-0.2,1.2c-0.1,0.4-0.1,0.8-0.2,1.2l-0.6,3L127.1,15.1z M137.2,15l-0.6-7.1l1.6,0l0.2,4c0,0.2,0,0.3,0,0.5
		c0,0.2,0,0.4,0,0.6c0,0.2,0,0.3,0,0.5l0,0c0.1-0.2,0.1-0.5,0.2-0.8c0.1-0.3,0.2-0.5,0.3-0.7l1.9-4.1l1.8,0L139,15L137.2,15z"/>
</g>
</svg>
