<svg width="37" height="37" viewBox="0 0 37 37" fill="none" xmlns="http://www.w3.org/2000/svg">
<rect width="37" height="37" fill="#6600FF"/>
<path d="M14.2308 18.5C14.7937 18.5 15.344 18.3331 15.812 18.0203C16.2801 17.7076 16.6449 17.2631 16.8603 16.743C17.0757 16.2229 17.1321 15.6507 17.0223 15.0986C16.9124 14.5465 16.6414 14.0393 16.2433 13.6413C15.8453 13.2433 15.3381 12.9722 14.786 12.8624C14.2339 12.7526 13.6617 12.8089 13.1416 13.0243C12.6215 13.2398 12.177 13.6046 11.8643 14.0726C11.5516 14.5406 11.3846 15.0909 11.3846 15.6538C11.3846 16.4087 11.6845 17.1326 12.2183 17.6664C12.752 18.2001 13.4759 18.5 14.2308 18.5ZM14.2308 14.7051C14.4184 14.7051 14.6019 14.7608 14.7579 14.865C14.9139 14.9693 15.0355 15.1174 15.1073 15.2908C15.1791 15.4641 15.1979 15.6549 15.1613 15.8389C15.1247 16.023 15.0343 16.192 14.9016 16.3247C14.769 16.4574 14.5999 16.5477 14.4159 16.5843C14.2318 16.6209 14.0411 16.6021 13.8677 16.5303C13.6944 16.4585 13.5462 16.3369 13.442 16.1809C13.3377 16.0249 13.2821 15.8415 13.2821 15.6538C13.2821 15.4022 13.382 15.1609 13.5599 14.983C13.7379 14.8051 13.9792 14.7051 14.2308 14.7051ZM26.5641 12.8077H18.9744C18.7228 12.8077 18.4815 12.9076 18.3035 13.0856C18.1256 13.2635 18.0257 13.5048 18.0257 13.7564V19.4487H10.4359V11.859C10.4359 11.6074 10.336 11.366 10.158 11.1881C9.98013 11.0102 9.73882 10.9102 9.4872 10.9102C9.23558 10.9102 8.99427 11.0102 8.81636 11.1881C8.63844 11.366 8.53848 11.6074 8.53848 11.859V24.1923C8.53848 24.4439 8.63844 24.6852 8.81636 24.8631C8.99427 25.0411 9.23558 25.141 9.4872 25.141C9.73882 25.141 9.98013 25.0411 10.158 24.8631C10.336 24.6852 10.4359 24.4439 10.4359 24.1923V21.3461H27.5128V24.1923C27.5128 24.4439 27.6128 24.6852 27.7907 24.8631C27.9686 25.0411 28.2099 25.141 28.4616 25.141C28.7132 25.141 28.9545 25.0411 29.1324 24.8631C29.3103 24.6852 29.4103 24.4439 29.4103 24.1923V15.6538C29.4103 14.899 29.1104 14.1751 28.5767 13.6413C28.0429 13.1075 27.319 12.8077 26.5641 12.8077ZM27.5128 19.4487H19.9231V14.7051H26.5641C26.8157 14.7051 27.057 14.8051 27.235 14.983C27.4129 15.1609 27.5128 15.4022 27.5128 15.6538V19.4487Z" fill="white"/>
</svg>
