<svg width="139" height="26" viewBox="0 0 139 26" fill="none" xmlns="http://www.w3.org/2000/svg">
<path d="M18.7759 11.9901L14.6398 7.19012L22.9118 7.19L18.7759 11.9901Z" fill="#8C34EB"/>
<rect x="3" y="14" width="109" height="12" fill="#8C34EB"/>
<g filter="url(#filter0_i)">
<path d="M1.088 19V7.8H3.84V12.152H8.368V7.8H11.12V19H8.368V14.568H3.84V19H1.088ZM16.7311 19V14.76L12.1871 7.8H15.3551L18.1871 12.392L21.0511 7.8H24.0431L19.4831 14.744V19H16.7311ZM35.2541 13.352C35.2541 14.184 35.1155 14.9573 34.8381 15.672C34.5608 16.3867 34.1768 17.0053 33.6861 17.528C33.1955 18.04 32.6035 18.4453 31.9101 18.744C31.2275 19.032 30.4861 19.176 29.6861 19.176C28.8648 19.176 28.0915 19.0267 27.3661 18.728C26.6515 18.4293 26.0275 18.024 25.4941 17.512C24.9715 16.9893 24.5555 16.376 24.2461 15.672C23.9475 14.968 23.7981 14.2107 23.7981 13.4C23.7981 12.5893 23.9475 11.832 24.2461 11.128C24.5555 10.424 24.9715 9.816 25.4941 9.304C26.0168 8.78133 26.6355 8.37067 27.3501 8.072C28.0648 7.77333 28.8275 7.624 29.6381 7.624C30.5661 7.624 31.4515 7.816 32.2941 8.2C33.1368 8.57333 33.8195 9.10667 34.3421 9.8L32.4061 11.48C32.0541 11.0107 31.6381 10.6587 31.1581 10.424C30.6888 10.1893 30.1821 10.072 29.6381 10.072C29.2115 10.072 28.8115 10.1573 28.4381 10.328C28.0755 10.4987 27.7608 10.7333 27.4941 11.032C27.2275 11.32 27.0195 11.672 26.8701 12.088C26.7208 12.4933 26.6461 12.9307 26.6461 13.4C26.6461 13.88 26.7208 14.328 26.8701 14.744C27.0301 15.1493 27.2488 15.5013 27.5261 15.8C27.8035 16.0987 28.1288 16.3333 28.5021 16.504C28.8861 16.6747 29.2968 16.76 29.7341 16.76C30.3635 16.76 30.9075 16.584 31.3661 16.232C31.8355 15.88 32.1448 15.432 32.2941 14.888H29.4941V12.568H35.2541V13.352ZM37.0568 19V7.8H39.8088V19H37.0568ZM42.1386 19V7.8H50.6026V10.104H44.8906V12.232H48.9226V14.472H44.8906V16.696H50.6666V19H42.1386ZM52.8261 7.8H55.4181L60.3941 14.584L60.3461 7.8H62.9381V19H60.5061L55.3701 11.992L55.4181 19H52.8261V7.8ZM65.2755 19V7.8H68.0275V19H65.2755ZM69.4454 10.152V7.8H79.4134V10.152H75.8134V19H73.0614V10.152H69.4454ZM80.998 19V7.8H89.462V10.104H83.75V12.232H87.782V14.472H83.75V16.696H89.526V19H80.998ZM96.595 16.696C97.0963 16.696 97.5603 16.5787 97.987 16.344C98.4137 16.1093 98.803 15.7627 99.155 15.304L100.963 17.016C100.472 17.656 99.8217 18.1733 99.011 18.568C98.2003 18.9627 97.363 19.16 96.499 19.16C95.667 19.16 94.8883 19.0107 94.163 18.712C93.4377 18.4133 92.8137 18.008 92.291 17.496C91.7683 16.984 91.3523 16.376 91.043 15.672C90.7443 14.968 90.595 14.2107 90.595 13.4C90.595 12.5893 90.7443 11.832 91.043 11.128C91.3523 10.4133 91.7683 9.8 92.291 9.288C92.8243 8.776 93.4483 8.37067 94.163 8.072C94.8883 7.77333 95.667 7.624 96.499 7.624C97.395 7.624 98.2537 7.82133 99.075 8.216C99.8963 8.61067 100.552 9.13867 101.043 9.8L99.187 11.56C98.8243 11.0693 98.4137 10.7013 97.955 10.456C97.507 10.2 97.0217 10.072 96.499 10.072C96.0617 10.072 95.6563 10.1573 95.283 10.328C94.9097 10.4987 94.5843 10.7333 94.307 11.032C94.0403 11.32 93.827 11.672 93.667 12.088C93.5177 12.4933 93.443 12.9307 93.443 13.4C93.443 13.8693 93.523 14.3067 93.683 14.712C93.843 15.1173 94.0617 15.4693 94.339 15.768C94.627 16.056 94.963 16.2853 95.347 16.456C95.731 16.616 96.147 16.696 96.595 16.696ZM102.479 19V7.8H105.231V12.152H109.759V7.8H112.511V19H109.759V14.568H105.231V19H102.479Z" fill="black"/>
</g>
<path d="M1.088 19H0.588V19.5H1.088V19ZM1.088 7.8V7.3H0.588V7.8H1.088ZM3.84 7.8H4.34V7.3H3.84V7.8ZM3.84 12.152H3.34V12.652H3.84V12.152ZM8.368 12.152V12.652H8.868V12.152H8.368ZM8.368 7.8V7.3H7.868V7.8H8.368ZM11.12 7.8H11.62V7.3H11.12V7.8ZM11.12 19V19.5H11.62V19H11.12ZM8.368 19H7.868V19.5H8.368V19ZM8.368 14.568H8.868V14.068H8.368V14.568ZM3.84 14.568V14.068H3.34V14.568H3.84ZM3.84 19V19.5H4.34V19H3.84ZM1.588 19V7.8H0.588V19H1.588ZM1.088 8.3H3.84V7.3H1.088V8.3ZM3.34 7.8V12.152H4.34V7.8H3.34ZM3.84 12.652H8.368V11.652H3.84V12.652ZM8.868 12.152V7.8H7.868V12.152H8.868ZM8.368 8.3H11.12V7.3H8.368V8.3ZM10.62 7.8V19H11.62V7.8H10.62ZM11.12 18.5H8.368V19.5H11.12V18.5ZM8.868 19V14.568H7.868V19H8.868ZM8.368 14.068H3.84V15.068H8.368V14.068ZM3.34 14.568V19H4.34V14.568H3.34ZM3.84 18.5H1.088V19.5H3.84V18.5ZM16.7311 19H16.2311V19.5H16.7311V19ZM16.7311 14.76H17.2311V14.6112L17.1498 14.4867L16.7311 14.76ZM12.1871 7.8V7.3H11.2636L11.7685 8.07334L12.1871 7.8ZM15.3551 7.8L15.7807 7.53754L15.6342 7.3H15.3551V7.8ZM18.1871 12.392L17.7616 12.6545L18.1847 13.3406L18.6114 12.6566L18.1871 12.392ZM21.0511 7.8V7.3H20.7737L20.6269 7.5354L21.0511 7.8ZM24.0431 7.8L24.4611 8.07445L24.9696 7.3H24.0431V7.8ZM19.4831 14.744L19.0652 14.4695L18.9831 14.5945V14.744H19.4831ZM19.4831 19V19.5H19.9831V19H19.4831ZM17.2311 19V14.76H16.2311V19H17.2311ZM17.1498 14.4867L12.6058 7.52666L11.7685 8.07334L16.3125 15.0333L17.1498 14.4867ZM12.1871 8.3H15.3551V7.3H12.1871V8.3ZM14.9296 8.06246L17.7616 12.6545L18.6127 12.1295L15.7807 7.53754L14.9296 8.06246ZM18.6114 12.6566L21.4754 8.0646L20.6269 7.5354L17.7629 12.1274L18.6114 12.6566ZM21.0511 8.3H24.0431V7.3H21.0511V8.3ZM23.6252 7.52554L19.0652 14.4695L19.9011 15.0185L24.4611 8.07445L23.6252 7.52554ZM18.9831 14.744V19H19.9831V14.744H18.9831ZM19.4831 18.5H16.7311V19.5H19.4831V18.5ZM34.8381 15.672L34.372 15.4911L34.372 15.4911L34.8381 15.672ZM33.6861 17.528L34.0471 17.874L34.0507 17.8702L33.6861 17.528ZM31.9101 18.744L32.1045 19.2047L32.1079 19.2032L31.9101 18.744ZM27.3661 18.728L27.1733 19.1893L27.1758 19.1903L27.3661 18.728ZM25.4941 17.512L25.1405 17.8656L25.1479 17.8727L25.4941 17.512ZM24.2461 15.672L23.7858 15.8673L23.7884 15.8731L24.2461 15.672ZM24.2461 11.128L23.7883 10.9268L23.7858 10.9327L24.2461 11.128ZM25.4941 9.304L25.844 9.6612L25.8477 9.65755L25.4941 9.304ZM27.3501 8.072L27.5429 8.53333L27.5429 8.53333L27.3501 8.072ZM32.2941 8.2L32.0868 8.65501L32.0916 8.65714L32.2941 8.2ZM34.3421 9.8L34.6698 10.1776L35.0224 9.87173L34.7414 9.49902L34.3421 9.8ZM32.4061 11.48L32.0061 11.78L32.3283 12.2096L32.7338 11.8576L32.4061 11.48ZM31.1581 10.424L30.9345 10.8712L30.9385 10.8732L31.1581 10.424ZM28.4381 10.328L28.2302 9.87323L28.2252 9.87559L28.4381 10.328ZM27.4941 11.032L27.8611 11.3718L27.8671 11.365L27.4941 11.032ZM26.8701 12.088L27.3393 12.2609L27.3407 12.2569L26.8701 12.088ZM26.8701 14.744L26.3995 14.9129L26.4022 14.9203L26.405 14.9276L26.8701 14.744ZM27.5261 15.8L27.8925 15.4598L27.8925 15.4598L27.5261 15.8ZM28.5021 16.504L28.2942 16.9588L28.2991 16.9609L28.5021 16.504ZM31.3661 16.232L31.0661 15.832L31.0617 15.8353L31.3661 16.232ZM32.2941 14.888L32.7763 15.0204L32.9499 14.388H32.2941V14.888ZM29.4941 14.888H28.9941V15.388H29.4941V14.888ZM29.4941 12.568V12.068H28.9941V12.568H29.4941ZM35.2541 12.568H35.7541V12.068H35.2541V12.568ZM34.7541 13.352C34.7541 14.1274 34.6251 14.8389 34.372 15.4911L35.3043 15.8529C35.6058 15.0758 35.7541 14.2406 35.7541 13.352H34.7541ZM34.372 15.4911C34.1162 16.1502 33.7654 16.713 33.3216 17.1858L34.0507 17.8702C34.5882 17.2976 35.0053 16.6232 35.3043 15.8529L34.372 15.4911ZM33.3251 17.182C32.8837 17.6427 32.3482 18.0109 31.7123 18.2848L32.1079 19.2032C32.8587 18.8798 33.5072 18.4373 34.0471 17.874L33.3251 17.182ZM31.7158 18.2833C31.0994 18.5434 30.4247 18.676 29.6861 18.676V19.676C30.5475 19.676 31.3555 19.5206 32.1045 19.2047L31.7158 18.2833ZM29.6861 18.676C28.927 18.676 28.2186 18.5383 27.5565 18.2657L27.1758 19.1903C27.9643 19.515 28.8026 19.676 29.6861 19.676V18.676ZM27.5589 18.2667C26.8984 17.9906 26.3271 17.6186 25.8404 17.1513L25.1479 17.8727C25.7278 18.4294 26.4045 18.868 27.1733 19.1893L27.5589 18.2667ZM25.8477 17.1584C25.3707 16.6814 24.9893 16.1204 24.7039 15.4709L23.7884 15.8731C24.1216 16.6316 24.5722 17.2972 25.1406 17.8656L25.8477 17.1584ZM24.7064 15.4767C24.4355 14.8382 24.2981 14.1477 24.2981 13.4H23.2981C23.2981 14.2737 23.4594 15.0978 23.7858 15.8673L24.7064 15.4767ZM24.2981 13.4C24.2981 12.6523 24.4355 11.9618 24.7064 11.3233L23.7858 10.9327C23.4594 11.7022 23.2981 12.5263 23.2981 13.4H24.2981ZM24.7039 11.3291C24.9889 10.6805 25.3692 10.1263 25.844 9.66118L25.1442 8.94682C24.5737 9.50573 24.122 10.1675 23.7884 10.9269L24.7039 11.3291ZM25.8477 9.65755C26.3221 9.18313 26.8854 8.80811 27.5429 8.53333L27.1573 7.61067C26.3855 7.93322 25.7115 8.37953 25.1406 8.95045L25.8477 9.65755ZM27.5429 8.53333C28.1937 8.26137 28.8905 8.124 29.6381 8.124V7.124C28.7644 7.124 27.9359 7.28529 27.1573 7.61067L27.5429 8.53333ZM29.6381 8.124C30.4947 8.124 31.3094 8.30071 32.0868 8.65499L32.5015 7.74501C31.5936 7.33128 30.6375 7.124 29.6381 7.124V8.124ZM32.0916 8.65714C32.8614 8.9982 33.4746 9.47979 33.9429 10.101L34.7414 9.49902C34.1643 8.73354 33.4122 8.14846 32.4967 7.74286L32.0916 8.65714ZM34.0144 9.42236L32.0784 11.1024L32.7338 11.8576L34.6698 10.1776L34.0144 9.42236ZM32.8061 11.18C32.4114 10.6537 31.9356 10.2475 31.3777 9.97481L30.9385 10.8732C31.3407 11.0698 31.6969 11.3677 32.0061 11.78L32.8061 11.18ZM31.3817 9.97679C30.8404 9.70611 30.2568 9.572 29.6381 9.572V10.572C30.1074 10.572 30.5372 10.6726 30.9345 10.8712L31.3817 9.97679ZM29.6381 9.572C29.1426 9.572 28.6714 9.67159 28.2302 9.87326L28.646 10.7827C28.9515 10.6431 29.2803 10.572 29.6381 10.572V9.572ZM28.2252 9.87559C27.8018 10.0749 27.4327 10.3501 27.1212 10.699L27.8671 11.365C28.0889 11.1166 28.3491 10.9225 28.651 10.7804L28.2252 9.87559ZM27.1272 10.6923C26.8094 11.0355 26.5687 11.4477 26.3995 11.9191L27.3407 12.2569C27.4702 11.8963 27.6455 11.6045 27.861 11.3717L27.1272 10.6923ZM26.401 11.9151C26.2295 12.3804 26.1461 12.8768 26.1461 13.4H27.1461C27.1461 12.9845 27.212 12.6062 27.3393 12.2609L26.401 11.9151ZM26.1461 13.4C26.1461 13.9326 26.2291 14.4383 26.3995 14.9129L27.3407 14.5751C27.2125 14.2177 27.1461 13.8274 27.1461 13.4H26.1461ZM26.405 14.9276C26.5863 15.3868 26.8372 15.7929 27.1597 16.1402L27.8925 15.4598C27.6604 15.2098 27.4739 14.9119 27.3352 14.5604L26.405 14.9276ZM27.1597 16.1402C27.4822 16.4875 27.8615 16.7609 28.2942 16.9587L28.71 16.0493C28.3961 15.9058 28.1247 15.7099 27.8925 15.4598L27.1597 16.1402ZM28.2991 16.9609C28.7496 17.1611 29.2297 17.26 29.7341 17.26V16.26C29.3638 16.26 29.0227 16.1882 28.7052 16.0471L28.2991 16.9609ZM29.7341 17.26C30.4632 17.26 31.1167 17.0537 31.6705 16.6287L31.0617 15.8353C30.6982 16.1143 30.2637 16.26 29.7341 16.26V17.26ZM31.6661 16.632C32.2204 16.2163 32.5964 15.6758 32.7763 15.0204L31.812 14.7556C31.6932 15.1882 31.4506 15.5437 31.0661 15.832L31.6661 16.632ZM32.2941 14.388H29.4941V15.388H32.2941V14.388ZM29.9941 14.888V12.568H28.9941V14.888H29.9941ZM29.4941 13.068H35.2541V12.068H29.4941V13.068ZM34.7541 12.568V13.352H35.7541V12.568H34.7541ZM37.0568 19H36.5568V19.5H37.0568V19ZM37.0568 7.8V7.3H36.5568V7.8H37.0568ZM39.8088 7.8H40.3088V7.3H39.8088V7.8ZM39.8088 19V19.5H40.3088V19H39.8088ZM37.5568 19V7.8H36.5568V19H37.5568ZM37.0568 8.3H39.8088V7.3H37.0568V8.3ZM39.3088 7.8V19H40.3088V7.8H39.3088ZM39.8088 18.5H37.0568V19.5H39.8088V18.5ZM42.1386 19H41.6386V19.5H42.1386V19ZM42.1386 7.8V7.3H41.6386V7.8H42.1386ZM50.6026 7.8H51.1026V7.3H50.6026V7.8ZM50.6026 10.104V10.604H51.1026V10.104H50.6026ZM44.8906 10.104V9.604H44.3906V10.104H44.8906ZM44.8906 12.232H44.3906V12.732H44.8906V12.232ZM48.9226 12.232H49.4226V11.732H48.9226V12.232ZM48.9226 14.472V14.972H49.4226V14.472H48.9226ZM44.8906 14.472V13.972H44.3906V14.472H44.8906ZM44.8906 16.696H44.3906V17.196H44.8906V16.696ZM50.6666 16.696H51.1666V16.196H50.6666V16.696ZM50.6666 19V19.5H51.1666V19H50.6666ZM42.6386 19V7.8H41.6386V19H42.6386ZM42.1386 8.3H50.6026V7.3H42.1386V8.3ZM50.1026 7.8V10.104H51.1026V7.8H50.1026ZM50.6026 9.604H44.8906V10.604H50.6026V9.604ZM44.3906 10.104V12.232H45.3906V10.104H44.3906ZM44.8906 12.732H48.9226V11.732H44.8906V12.732ZM48.4226 12.232V14.472H49.4226V12.232H48.4226ZM48.9226 13.972H44.8906V14.972H48.9226V13.972ZM44.3906 14.472V16.696H45.3906V14.472H44.3906ZM44.8906 17.196H50.6666V16.196H44.8906V17.196ZM50.1666 16.696V19H51.1666V16.696H50.1666ZM50.6666 18.5H42.1386V19.5H50.6666V18.5ZM52.8261 7.8V7.3H52.3261V7.8H52.8261ZM55.4181 7.8L55.8213 7.50428L55.6715 7.3H55.4181V7.8ZM60.3941 14.584L59.991 14.8797L60.905 16.1259L60.8941 14.5805L60.3941 14.584ZM60.3461 7.8V7.3H59.8426L59.8461 7.80354L60.3461 7.8ZM62.9381 7.8H63.4381V7.3H62.9381V7.8ZM62.9381 19V19.5H63.4381V19H62.9381ZM60.5061 19L60.1028 19.2956L60.2527 19.5H60.5061V19ZM55.3701 11.992L55.7734 11.6964L54.8595 10.4495L54.8701 11.9954L55.3701 11.992ZM55.4181 19V19.5H55.9216L55.9181 18.9966L55.4181 19ZM52.8261 19H52.3261V19.5H52.8261V19ZM52.8261 8.3H55.4181V7.3H52.8261V8.3ZM55.015 8.09572L59.991 14.8797L60.7973 14.2883L55.8213 7.50428L55.015 8.09572ZM60.8941 14.5805L60.8461 7.79646L59.8461 7.80354L59.8941 14.5875L60.8941 14.5805ZM60.3461 8.3H62.9381V7.3H60.3461V8.3ZM62.4381 7.8V19H63.4381V7.8H62.4381ZM62.9381 18.5H60.5061V19.5H62.9381V18.5ZM60.9094 18.7044L55.7734 11.6964L54.9668 12.2876L60.1028 19.2956L60.9094 18.7044ZM54.8701 11.9954L54.9181 19.0034L55.9181 18.9966L55.8701 11.9886L54.8701 11.9954ZM55.4181 18.5H52.8261V19.5H55.4181V18.5ZM53.3261 19V7.8H52.3261V19H53.3261ZM65.2755 19H64.7755V19.5H65.2755V19ZM65.2755 7.8V7.3H64.7755V7.8H65.2755ZM68.0275 7.8H68.5275V7.3H68.0275V7.8ZM68.0275 19V19.5H68.5275V19H68.0275ZM65.7755 19V7.8H64.7755V19H65.7755ZM65.2755 8.3H68.0275V7.3H65.2755V8.3ZM67.5275 7.8V19H68.5275V7.8H67.5275ZM68.0275 18.5H65.2755V19.5H68.0275V18.5ZM69.4454 10.152H68.9454V10.652H69.4454V10.152ZM69.4454 7.8V7.3H68.9454V7.8H69.4454ZM79.4134 7.8H79.9134V7.3H79.4134V7.8ZM79.4134 10.152V10.652H79.9134V10.152H79.4134ZM75.8134 10.152V9.652H75.3134V10.152H75.8134ZM75.8134 19V19.5H76.3134V19H75.8134ZM73.0614 19H72.5614V19.5H73.0614V19ZM73.0614 10.152H73.5614V9.652H73.0614V10.152ZM69.9454 10.152V7.8H68.9454V10.152H69.9454ZM69.4454 8.3H79.4134V7.3H69.4454V8.3ZM78.9134 7.8V10.152H79.9134V7.8H78.9134ZM79.4134 9.652H75.8134V10.652H79.4134V9.652ZM75.3134 10.152V19H76.3134V10.152H75.3134ZM75.8134 18.5H73.0614V19.5H75.8134V18.5ZM73.5614 19V10.152H72.5614V19H73.5614ZM73.0614 9.652H69.4454V10.652H73.0614V9.652ZM80.998 19H80.498V19.5H80.998V19ZM80.998 7.8V7.3H80.498V7.8H80.998ZM89.462 7.8H89.962V7.3H89.462V7.8ZM89.462 10.104V10.604H89.962V10.104H89.462ZM83.75 10.104V9.604H83.25V10.104H83.75ZM83.75 12.232H83.25V12.732H83.75V12.232ZM87.782 12.232H88.282V11.732H87.782V12.232ZM87.782 14.472V14.972H88.282V14.472H87.782ZM83.75 14.472V13.972H83.25V14.472H83.75ZM83.75 16.696H83.25V17.196H83.75V16.696ZM89.526 16.696H90.026V16.196H89.526V16.696ZM89.526 19V19.5H90.026V19H89.526ZM81.498 19V7.8H80.498V19H81.498ZM80.998 8.3H89.462V7.3H80.998V8.3ZM88.962 7.8V10.104H89.962V7.8H88.962ZM89.462 9.604H83.75V10.604H89.462V9.604ZM83.25 10.104V12.232H84.25V10.104H83.25ZM83.75 12.732H87.782V11.732H83.75V12.732ZM87.282 12.232V14.472H88.282V12.232H87.282ZM87.782 13.972H83.75V14.972H87.782V13.972ZM83.25 14.472V16.696H84.25V14.472H83.25ZM83.75 17.196H89.526V16.196H83.75V17.196ZM89.026 16.696V19H90.026V16.696H89.026ZM89.526 18.5H80.998V19.5H89.526V18.5ZM99.155 15.304L99.4988 14.9409L99.096 14.5596L98.7583 14.9996L99.155 15.304ZM100.963 17.016L101.36 17.3202L101.634 16.9627L101.307 16.6529L100.963 17.016ZM99.011 18.568L99.2299 19.0176L99.2299 19.0176L99.011 18.568ZM94.163 18.712L93.9726 19.1743L93.9726 19.1743L94.163 18.712ZM92.291 17.496L92.6409 17.1388L92.6409 17.1388L92.291 17.496ZM91.043 15.672L90.5827 15.8673L90.5852 15.8731L91.043 15.672ZM91.043 11.128L90.5841 10.9294L90.5827 10.9327L91.043 11.128ZM92.291 9.288L91.9447 8.92729L91.9411 8.93082L92.291 9.288ZM94.163 8.072L93.9726 7.60965L93.9702 7.61067L94.163 8.072ZM99.075 8.216L99.2916 7.76533L99.2916 7.76533L99.075 8.216ZM101.043 9.8L101.387 10.1628L101.709 9.85792L101.445 9.50208L101.043 9.8ZM99.187 11.56L98.7849 11.8572L99.1209 12.3118L99.531 11.9228L99.187 11.56ZM97.955 10.456L97.7068 10.8903L97.7192 10.8969L97.955 10.456ZM95.283 10.328L95.0751 9.87326L95.0751 9.87326L95.283 10.328ZM94.307 11.032L93.9406 10.6918L93.9401 10.6923L94.307 11.032ZM93.667 12.088L93.2003 11.9085L93.1978 11.9151L93.667 12.088ZM93.683 14.712L93.2179 14.8956L93.2179 14.8956L93.683 14.712ZM94.339 15.768L93.9726 16.1082L93.9789 16.115L93.9854 16.1216L94.339 15.768ZM95.347 16.456L95.1439 16.913L95.1547 16.9175L95.347 16.456ZM96.595 17.196C97.178 17.196 97.7252 17.0586 98.228 16.7821L97.746 15.9059C97.3954 16.0987 97.0147 16.196 96.595 16.196V17.196ZM98.228 16.7821C98.7255 16.5085 99.1653 16.1118 99.5517 15.6084L98.7583 14.9996C98.4407 15.4135 98.1019 15.7102 97.746 15.9059L98.228 16.7821ZM98.8112 15.6671L100.619 17.3791L101.307 16.6529L99.4988 14.9409L98.8112 15.6671ZM100.566 16.7118C100.128 17.2832 99.5413 17.7537 98.7921 18.1184L99.2299 19.0176C100.102 18.593 100.817 18.0288 101.36 17.3202L100.566 16.7118ZM98.7921 18.1184C98.0466 18.4814 97.2838 18.66 96.499 18.66V19.66C97.4422 19.66 98.3541 19.4439 99.2299 19.0176L98.7921 18.1184ZM96.499 18.66C95.7283 18.66 95.0147 18.522 94.3534 18.2497L93.9726 19.1743C94.762 19.4994 95.6057 19.66 96.499 19.66V18.66ZM94.3534 18.2497C93.6832 17.9737 93.1144 17.6027 92.6409 17.1388L91.9411 17.8532C92.5129 18.4133 93.1922 18.853 93.9726 19.1743L94.3534 18.2497ZM92.6409 17.1388C92.1661 16.6737 91.7858 16.1195 91.5008 15.4709L90.5852 15.8731C90.9189 16.6325 91.3706 17.2943 91.9411 17.8532L92.6409 17.1388ZM91.5033 15.4767C91.2324 14.8382 91.095 14.1477 91.095 13.4H90.095C90.095 14.2737 90.2563 15.0978 90.5827 15.8673L91.5033 15.4767ZM91.095 13.4C91.095 12.6523 91.2324 11.9618 91.5033 11.3233L90.5827 10.9327C90.2563 11.7022 90.095 12.5263 90.095 13.4H91.095ZM91.5019 11.3266C91.7872 10.6675 92.1674 10.109 92.6409 9.64518L91.9411 8.93082C91.3693 9.49098 90.9175 10.1592 90.5841 10.9294L91.5019 11.3266ZM92.6373 9.64869C93.124 9.18144 93.6953 8.80936 94.3558 8.53333L93.9702 7.61067C93.2014 7.93197 92.5247 8.37056 91.9447 8.92731L92.6373 9.64869ZM94.3534 8.53434C95.0147 8.26202 95.7283 8.124 96.499 8.124V7.124C95.6057 7.124 94.762 7.28464 93.9726 7.60966L94.3534 8.53434ZM96.499 8.124C97.3187 8.124 98.1035 8.3039 98.8584 8.66667L99.2916 7.76533C98.4038 7.33876 97.4713 7.124 96.499 7.124V8.124ZM98.8584 8.66667C99.6146 9.03 100.204 9.50848 100.641 10.0979L101.445 9.50208C100.901 8.76885 100.178 8.19133 99.2916 7.76533L98.8584 8.66667ZM100.699 9.43719L98.843 11.1972L99.531 11.9228L101.387 10.1628L100.699 9.43719ZM99.5891 11.2628C99.1899 10.7227 98.7253 10.301 98.1908 10.0151L97.7192 10.8969C98.1021 11.1017 98.4588 11.4159 98.7849 11.8572L99.5891 11.2628ZM98.2031 10.0219C97.6785 9.72212 97.1075 9.572 96.499 9.572V10.572C96.9358 10.572 97.3355 10.6779 97.7069 10.8901L98.2031 10.0219ZM96.499 9.572C95.9947 9.572 95.5179 9.67085 95.0751 9.87326L95.4909 10.7827C95.7948 10.6438 96.1286 10.572 96.499 10.572V9.572ZM95.0751 9.87326C94.6424 10.0711 94.2631 10.3445 93.9406 10.6918L94.6734 11.3722C94.9056 11.1221 95.177 10.9262 95.4909 10.7827L95.0751 9.87326ZM93.9401 10.6923C93.6249 11.0328 93.3801 11.4412 93.2003 11.9085L94.1337 12.2675C94.2739 11.9028 94.4558 11.6072 94.6739 11.3717L93.9401 10.6923ZM93.1978 11.9151C93.0264 12.3804 92.943 12.8768 92.943 13.4H93.943C93.943 12.9845 94.0089 12.6062 94.1362 12.2609L93.1978 11.9151ZM92.943 13.4C92.943 13.9273 93.0331 14.4274 93.2179 14.8956L94.1481 14.5284C94.0129 14.1859 93.943 13.8114 93.943 13.4H92.943ZM93.2179 14.8956C93.3992 15.3548 93.6501 15.7609 93.9726 16.1082L94.7054 15.4278C94.4733 15.1778 94.2868 14.8799 94.1481 14.5284L93.2179 14.8956ZM93.9854 16.1216C94.3182 16.4543 94.7057 16.7181 95.1439 16.9129L95.5501 15.9991C95.2203 15.8525 94.9358 15.6577 94.6926 15.4144L93.9854 16.1216ZM95.1547 16.9175C95.6042 17.1048 96.0861 17.196 96.595 17.196V16.196C96.2079 16.196 95.8578 16.1272 95.5393 15.9945L95.1547 16.9175ZM102.479 19H101.979V19.5H102.479V19ZM102.479 7.8V7.3H101.979V7.8H102.479ZM105.231 7.8H105.731V7.3H105.231V7.8ZM105.231 12.152H104.731V12.652H105.231V12.152ZM109.759 12.152V12.652H110.259V12.152H109.759ZM109.759 7.8V7.3H109.259V7.8H109.759ZM112.511 7.8H113.011V7.3H112.511V7.8ZM112.511 19V19.5H113.011V19H112.511ZM109.759 19H109.259V19.5H109.759V19ZM109.759 14.568H110.259V14.068H109.759V14.568ZM105.231 14.568V14.068H104.731V14.568H105.231ZM105.231 19V19.5H105.731V19H105.231ZM102.979 19V7.8H101.979V19H102.979ZM102.479 8.3H105.231V7.3H102.479V8.3ZM104.731 7.8V12.152H105.731V7.8H104.731ZM105.231 12.652H109.759V11.652H105.231V12.652ZM110.259 12.152V7.8H109.259V12.152H110.259ZM109.759 8.3H112.511V7.3H109.759V8.3ZM112.011 7.8V19H113.011V7.8H112.011ZM112.511 18.5H109.759V19.5H112.511V18.5ZM110.259 19V14.568H109.259V19H110.259ZM109.759 14.068H105.231V15.068H109.759V14.068ZM104.731 14.568V19H105.731V14.568H104.731ZM105.231 18.5H102.479V19.5H105.231V18.5Z" fill="white"/>
<g filter="url(#filter1_i)">
<path d="M6.383 23.85L5.708 22.563V24H5.234V21.9H5.882L6.389 22.908L6.893 21.9H7.541V24H7.055V22.575L6.383 23.85ZM7.78041 24L8.59941 21.9H9.18741L9.99441 24H9.43641L9.26241 23.499H8.49441L8.31741 24H7.78041ZM8.63541 23.1H9.12441L8.88141 22.404L8.63541 23.1ZM9.70363 22.341V21.9H11.5726V22.341H10.8976V24H10.3816V22.341H9.70363ZM11.728 22.341V21.9H13.597V22.341H12.922V24H12.406V22.341H11.728ZM13.8942 24V21.9H14.9142C15.0222 21.9 15.1212 21.917 15.2112 21.951C15.3032 21.983 15.3812 22.029 15.4452 22.089C15.5112 22.147 15.5622 22.217 15.5982 22.299C15.6362 22.381 15.6552 22.471 15.6552 22.569C15.6552 22.701 15.6192 22.819 15.5472 22.923C15.4772 23.027 15.3832 23.105 15.2652 23.157L15.7062 24H15.1302L14.7492 23.229H14.4102V24H13.8942ZM14.8662 22.326H14.4102V22.824H14.8662C14.9462 22.824 15.0102 22.801 15.0582 22.755C15.1082 22.709 15.1332 22.649 15.1332 22.575C15.1332 22.501 15.1082 22.441 15.0582 22.395C15.0102 22.349 14.9462 22.326 14.8662 22.326ZM16.0035 24V21.9H17.5905V22.332H16.5195V22.731H17.2755V23.151H16.5195V23.568H17.6025V24H16.0035ZM17.8304 23.712L18.0944 23.331C18.2384 23.433 18.3624 23.505 18.4664 23.547C18.5704 23.589 18.6734 23.61 18.7754 23.61C18.8854 23.61 18.9724 23.59 19.0364 23.55C19.1004 23.508 19.1324 23.455 19.1324 23.391C19.1324 23.329 19.1114 23.282 19.0694 23.25C19.0294 23.218 18.9584 23.192 18.8564 23.172L18.4094 23.094C18.2434 23.062 18.1154 22.997 18.0254 22.899C17.9374 22.801 17.8934 22.679 17.8934 22.533C17.8934 22.331 17.9674 22.17 18.1154 22.05C18.2634 21.93 18.4674 21.87 18.7274 21.87C18.8894 21.87 19.0464 21.895 19.1984 21.945C19.3504 21.993 19.4804 22.06 19.5884 22.146L19.3274 22.521C19.2254 22.443 19.1224 22.385 19.0184 22.347C18.9164 22.309 18.8104 22.29 18.7004 22.29C18.5984 22.29 18.5194 22.309 18.4634 22.347C18.4074 22.385 18.3794 22.432 18.3794 22.488C18.3794 22.54 18.3974 22.581 18.4334 22.611C18.4714 22.641 18.5324 22.663 18.6164 22.677L19.0364 22.749C19.2324 22.783 19.3814 22.851 19.4834 22.953C19.5854 23.053 19.6364 23.183 19.6364 23.343C19.6364 23.545 19.5554 23.71 19.3934 23.838C19.2314 23.966 19.0134 24.03 18.7394 24.03C18.5734 24.03 18.4144 24.003 18.2624 23.949C18.1124 23.893 17.9684 23.814 17.8304 23.712ZM19.8256 23.712L20.0896 23.331C20.2336 23.433 20.3576 23.505 20.4616 23.547C20.5656 23.589 20.6686 23.61 20.7706 23.61C20.8806 23.61 20.9676 23.59 21.0316 23.55C21.0956 23.508 21.1276 23.455 21.1276 23.391C21.1276 23.329 21.1066 23.282 21.0646 23.25C21.0246 23.218 20.9536 23.192 20.8516 23.172L20.4046 23.094C20.2386 23.062 20.1106 22.997 20.0206 22.899C19.9326 22.801 19.8886 22.679 19.8886 22.533C19.8886 22.331 19.9626 22.17 20.1106 22.05C20.2586 21.93 20.4626 21.87 20.7226 21.87C20.8846 21.87 21.0416 21.895 21.1936 21.945C21.3456 21.993 21.4756 22.06 21.5836 22.146L21.3226 22.521C21.2206 22.443 21.1176 22.385 21.0136 22.347C20.9116 22.309 20.8056 22.29 20.6956 22.29C20.5936 22.29 20.5146 22.309 20.4586 22.347C20.4026 22.385 20.3746 22.432 20.3746 22.488C20.3746 22.54 20.3926 22.581 20.4286 22.611C20.4666 22.641 20.5276 22.663 20.6116 22.677L21.0316 22.749C21.2276 22.783 21.3766 22.851 21.4786 22.953C21.5806 23.053 21.6316 23.183 21.6316 23.343C21.6316 23.545 21.5506 23.71 21.3886 23.838C21.2266 23.966 21.0086 24.03 20.7346 24.03C20.5686 24.03 20.4096 24.003 20.2576 23.949C20.1076 23.893 19.9636 23.814 19.8256 23.712ZM22.3849 24L23.2039 21.9H23.7919L24.5989 24H24.0409L23.8669 23.499H23.0989L22.9219 24H22.3849ZM23.2399 23.1H23.7289L23.4859 22.404L23.2399 23.1ZM24.8395 21.9H25.3255L26.2585 23.172L26.2495 21.9H26.7355V24H26.2795L25.3165 22.686L25.3255 24H24.8395V21.9ZM27.2037 24V21.9H28.0587C28.2047 21.9 28.3417 21.928 28.4697 21.984C28.5997 22.038 28.7117 22.112 28.8057 22.206C28.9017 22.3 28.9767 22.412 29.0307 22.542C29.0867 22.67 29.1147 22.808 29.1147 22.956C29.1147 23.1 29.0867 23.236 29.0307 23.364C28.9767 23.492 28.9017 23.603 28.8057 23.697C28.7117 23.791 28.5997 23.865 28.4697 23.919C28.3417 23.973 28.2047 24 28.0587 24H27.2037ZM28.0587 22.341H27.7197V23.559H28.0587C28.1307 23.559 28.1987 23.544 28.2627 23.514C28.3267 23.482 28.3817 23.439 28.4277 23.385C28.4757 23.331 28.5127 23.267 28.5387 23.193C28.5667 23.119 28.5807 23.04 28.5807 22.956C28.5807 22.87 28.5667 22.79 28.5387 22.716C28.5127 22.64 28.4757 22.575 28.4277 22.521C28.3817 22.465 28.3267 22.421 28.2627 22.389C28.1987 22.357 28.1307 22.341 28.0587 22.341ZM31.9486 23.088C31.9486 23.23 31.9266 23.359 31.8826 23.475C31.8386 23.591 31.7756 23.69 31.6936 23.772C31.6136 23.854 31.5156 23.918 31.3996 23.964C31.2856 24.008 31.1576 24.03 31.0156 24.03C30.8736 24.03 30.7446 24.008 30.6286 23.964C30.5146 23.92 30.4176 23.857 30.3376 23.775C30.2576 23.693 30.1956 23.594 30.1516 23.478C30.1076 23.362 30.0856 23.232 30.0856 23.088V21.9H30.6016V23.088C30.6016 23.232 30.6396 23.348 30.7156 23.436C30.7916 23.524 30.8926 23.568 31.0186 23.568C31.1446 23.568 31.2446 23.524 31.3186 23.436C31.3946 23.348 31.4326 23.232 31.4326 23.088V21.9H31.9486V23.088ZM32.3746 24V21.9H33.4006C33.5126 21.9 33.6136 21.918 33.7036 21.954C33.7956 21.988 33.8736 22.036 33.9376 22.098C34.0036 22.158 34.0536 22.231 34.0876 22.317C34.1236 22.401 34.1416 22.493 34.1416 22.593C34.1416 22.687 34.1236 22.776 34.0876 22.86C34.0536 22.942 34.0036 23.013 33.9376 23.073C33.8736 23.133 33.7956 23.181 33.7036 23.217C33.6136 23.251 33.5126 23.268 33.4006 23.268H32.8906V24H32.3746ZM33.3106 22.326H32.8906V22.857H33.3076C33.4116 22.857 33.4896 22.832 33.5416 22.782C33.5936 22.73 33.6196 22.666 33.6196 22.59C33.6196 22.516 33.5936 22.454 33.5416 22.404C33.4896 22.352 33.4126 22.326 33.3106 22.326ZM34.4745 24V21.9H34.9905V22.716H35.8395V21.9H36.3555V24H35.8395V23.169H34.9905V24H34.4745ZM38.8626 22.95C38.8626 23.1 38.8346 23.242 38.7786 23.376C38.7226 23.508 38.6456 23.623 38.5476 23.721C38.4516 23.817 38.3376 23.893 38.2056 23.949C38.0736 24.005 37.9316 24.033 37.7796 24.033C37.6276 24.033 37.4846 24.005 37.3506 23.949C37.2186 23.893 37.1036 23.817 37.0056 23.721C36.9096 23.623 36.8336 23.508 36.7776 23.376C36.7216 23.242 36.6936 23.1 36.6936 22.95C36.6936 22.8 36.7216 22.659 36.7776 22.527C36.8336 22.393 36.9096 22.278 37.0056 22.182C37.1036 22.084 37.2186 22.007 37.3506 21.951C37.4846 21.895 37.6276 21.867 37.7796 21.867C37.9316 21.867 38.0736 21.895 38.2056 21.951C38.3376 22.007 38.4516 22.084 38.5476 22.182C38.6456 22.278 38.7226 22.393 38.7786 22.527C38.8346 22.659 38.8626 22.8 38.8626 22.95ZM38.3286 22.95C38.3286 22.862 38.3146 22.78 38.2866 22.704C38.2586 22.626 38.2196 22.56 38.1696 22.506C38.1216 22.45 38.0636 22.406 37.9956 22.374C37.9276 22.342 37.8546 22.326 37.7766 22.326C37.6986 22.326 37.6256 22.342 37.5576 22.374C37.4896 22.406 37.4306 22.45 37.3806 22.506C37.3326 22.56 37.2946 22.626 37.2666 22.704C37.2386 22.78 37.2246 22.862 37.2246 22.95C37.2246 23.038 37.2386 23.121 37.2666 23.199C37.2946 23.275 37.3326 23.341 37.3806 23.397C37.4306 23.451 37.4896 23.494 37.5576 23.526C37.6256 23.558 37.6986 23.574 37.7766 23.574C37.8546 23.574 37.9276 23.558 37.9956 23.526C38.0636 23.494 38.1216 23.451 38.1696 23.397C38.2196 23.341 38.2586 23.275 38.2866 23.199C38.3146 23.121 38.3286 23.038 38.3286 22.95ZM39.233 24V21.9H39.749V23.559H40.79V24H39.233ZM41.0013 23.712L41.2653 23.331C41.4093 23.433 41.5333 23.505 41.6373 23.547C41.7413 23.589 41.8443 23.61 41.9463 23.61C42.0563 23.61 42.1433 23.59 42.2073 23.55C42.2713 23.508 42.3033 23.455 42.3033 23.391C42.3033 23.329 42.2823 23.282 42.2403 23.25C42.2003 23.218 42.1293 23.192 42.0273 23.172L41.5803 23.094C41.4143 23.062 41.2863 22.997 41.1963 22.899C41.1083 22.801 41.0643 22.679 41.0643 22.533C41.0643 22.331 41.1383 22.17 41.2863 22.05C41.4343 21.93 41.6383 21.87 41.8983 21.87C42.0603 21.87 42.2173 21.895 42.3693 21.945C42.5213 21.993 42.6513 22.06 42.7593 22.146L42.4983 22.521C42.3963 22.443 42.2933 22.385 42.1893 22.347C42.0873 22.309 41.9813 22.29 41.8713 22.29C41.7693 22.29 41.6903 22.309 41.6343 22.347C41.5783 22.385 41.5503 22.432 41.5503 22.488C41.5503 22.54 41.5683 22.581 41.6043 22.611C41.6423 22.641 41.7033 22.663 41.7873 22.677L42.2073 22.749C42.4033 22.783 42.5523 22.851 42.6543 22.953C42.7563 23.053 42.8073 23.183 42.8073 23.343C42.8073 23.545 42.7263 23.71 42.5643 23.838C42.4023 23.966 42.1843 24.03 41.9103 24.03C41.7443 24.03 41.5853 24.003 41.4333 23.949C41.2833 23.893 41.1393 23.814 41.0013 23.712ZM42.9292 22.341V21.9H44.7982V22.341H44.1232V24H43.6072V22.341H42.9292ZM45.0953 24V21.9H46.6823V22.332H45.6113V22.731H46.3673V23.151H45.6113V23.568H46.6943V24H45.0953ZM47.0992 24V21.9H48.1192C48.2272 21.9 48.3262 21.917 48.4162 21.951C48.5082 21.983 48.5862 22.029 48.6502 22.089C48.7162 22.147 48.7672 22.217 48.8032 22.299C48.8412 22.381 48.8602 22.471 48.8602 22.569C48.8602 22.701 48.8242 22.819 48.7522 22.923C48.6822 23.027 48.5882 23.105 48.4702 23.157L48.9112 24H48.3352L47.9542 23.229H47.6152V24H47.0992ZM48.0712 22.326H47.6152V22.824H48.0712C48.1512 22.824 48.2152 22.801 48.2632 22.755C48.3132 22.709 48.3382 22.649 48.3382 22.575C48.3382 22.501 48.3132 22.441 48.2632 22.395C48.2152 22.349 48.1512 22.326 48.0712 22.326ZM49.7181 24V23.205L48.8661 21.9H49.4601L49.9911 22.761L50.5281 21.9H51.0891L50.2341 23.202V24H49.7181ZM52.9914 23.568C53.0854 23.568 53.1724 23.546 53.2524 23.502C53.3324 23.458 53.4054 23.393 53.4714 23.307L53.8104 23.628C53.7184 23.748 53.5964 23.845 53.4444 23.919C53.2924 23.993 53.1354 24.03 52.9734 24.03C52.8174 24.03 52.6714 24.002 52.5354 23.946C52.3994 23.89 52.2824 23.814 52.1844 23.718C52.0864 23.622 52.0084 23.508 51.9504 23.376C51.8944 23.244 51.8664 23.102 51.8664 22.95C51.8664 22.798 51.8944 22.656 51.9504 22.524C52.0084 22.39 52.0864 22.275 52.1844 22.179C52.2844 22.083 52.4014 22.007 52.5354 21.951C52.6714 21.895 52.8174 21.867 52.9734 21.867C53.1414 21.867 53.3024 21.904 53.4564 21.978C53.6104 22.052 53.7334 22.151 53.8254 22.275L53.4774 22.605C53.4094 22.513 53.3324 22.444 53.2464 22.398C53.1624 22.35 53.0714 22.326 52.9734 22.326C52.8914 22.326 52.8154 22.342 52.7454 22.374C52.6754 22.406 52.6144 22.45 52.5624 22.506C52.5124 22.56 52.4724 22.626 52.4424 22.704C52.4144 22.78 52.4004 22.862 52.4004 22.95C52.4004 23.038 52.4154 23.12 52.4454 23.196C52.4754 23.272 52.5164 23.338 52.5684 23.394C52.6224 23.448 52.6854 23.491 52.7574 23.523C52.8294 23.553 52.9074 23.568 52.9914 23.568ZM54.1246 24V21.9H54.6406V23.559H55.6816V24H54.1246ZM56.0699 24V21.9H57.6569V22.332H56.5859V22.731H57.3419V23.151H56.5859V23.568H57.6689V24H56.0699ZM57.8751 24L58.6941 21.9H59.2821L60.0891 24H59.5311L59.3571 23.499H58.5891L58.4121 24H57.8751ZM58.7301 23.1H59.2191L58.9761 22.404L58.7301 23.1ZM60.3297 21.9H60.8157L61.7487 23.172L61.7397 21.9H62.2257V24H61.7697L60.8067 22.686L60.8157 24H60.3297V21.9ZM62.664 24V21.9H63.18V24H62.664ZM63.6168 21.9H64.1028L65.0358 23.172L65.0268 21.9H65.5128V24H65.0568L64.0938 22.686L64.1028 24H63.6168V21.9ZM68.0301 22.941C68.0301 23.097 68.0041 23.242 67.9521 23.376C67.9001 23.51 67.8281 23.626 67.7361 23.724C67.6441 23.82 67.5331 23.896 67.4031 23.952C67.2751 24.006 67.1361 24.033 66.9861 24.033C66.8321 24.033 66.6871 24.005 66.5511 23.949C66.4171 23.893 66.3001 23.817 66.2001 23.721C66.1021 23.623 66.0241 23.508 65.9661 23.376C65.9101 23.244 65.8821 23.102 65.8821 22.95C65.8821 22.798 65.9101 22.656 65.9661 22.524C66.0241 22.392 66.1021 22.278 66.2001 22.182C66.2981 22.084 66.4141 22.007 66.5481 21.951C66.6821 21.895 66.8251 21.867 66.9771 21.867C67.1511 21.867 67.3171 21.903 67.4751 21.975C67.6331 22.045 67.7611 22.145 67.8591 22.275L67.4961 22.59C67.4301 22.502 67.3521 22.436 67.2621 22.392C67.1741 22.348 67.0791 22.326 66.9771 22.326C66.8971 22.326 66.8221 22.342 66.7521 22.374C66.6841 22.406 66.6251 22.45 66.5751 22.506C66.5251 22.56 66.4861 22.626 66.4581 22.704C66.4301 22.78 66.4161 22.862 66.4161 22.95C66.4161 23.04 66.4301 23.124 66.4581 23.202C66.4881 23.278 66.5291 23.344 66.5811 23.4C66.6331 23.456 66.6941 23.5 66.7641 23.532C66.8361 23.564 66.9131 23.58 66.9951 23.58C67.1131 23.58 67.2151 23.547 67.3011 23.481C67.3891 23.415 67.4471 23.331 67.4751 23.229H66.9501V22.794H68.0301V22.941ZM68.8146 24L69.6336 21.9H70.2216L71.0286 24H70.4706L70.2966 23.499H69.5286L69.3516 24H68.8146ZM69.6696 23.1H70.1586L69.9156 22.404L69.6696 23.1ZM71.2692 21.9H71.7552L72.6882 23.172L72.6792 21.9H73.1652V24H72.7092L71.7462 22.686L71.7552 24H71.2692V21.9ZM73.6334 24V21.9H74.4884C74.6344 21.9 74.7714 21.928 74.8994 21.984C75.0294 22.038 75.1414 22.112 75.2354 22.206C75.3314 22.3 75.4064 22.412 75.4604 22.542C75.5164 22.67 75.5444 22.808 75.5444 22.956C75.5444 23.1 75.5164 23.236 75.4604 23.364C75.4064 23.492 75.3314 23.603 75.2354 23.697C75.1414 23.791 75.0294 23.865 74.8994 23.919C74.7714 23.973 74.6344 24 74.4884 24H73.6334ZM74.4884 22.341H74.1494V23.559H74.4884C74.5604 23.559 74.6284 23.544 74.6924 23.514C74.7564 23.482 74.8114 23.439 74.8574 23.385C74.9054 23.331 74.9424 23.267 74.9684 23.193C74.9964 23.119 75.0104 23.04 75.0104 22.956C75.0104 22.87 74.9964 22.79 74.9684 22.716C74.9424 22.64 74.9054 22.575 74.8574 22.521C74.8114 22.465 74.7564 22.421 74.6924 22.389C74.6284 22.357 74.5604 22.341 74.4884 22.341ZM76.3802 23.712L76.6442 23.331C76.7882 23.433 76.9122 23.505 77.0162 23.547C77.1202 23.589 77.2232 23.61 77.3252 23.61C77.4352 23.61 77.5222 23.59 77.5862 23.55C77.6502 23.508 77.6822 23.455 77.6822 23.391C77.6822 23.329 77.6612 23.282 77.6192 23.25C77.5792 23.218 77.5082 23.192 77.4062 23.172L76.9592 23.094C76.7932 23.062 76.6652 22.997 76.5752 22.899C76.4872 22.801 76.4432 22.679 76.4432 22.533C76.4432 22.331 76.5172 22.17 76.6652 22.05C76.8132 21.93 77.0172 21.87 77.2772 21.87C77.4392 21.87 77.5962 21.895 77.7482 21.945C77.9002 21.993 78.0302 22.06 78.1382 22.146L77.8772 22.521C77.7752 22.443 77.6722 22.385 77.5682 22.347C77.4662 22.309 77.3602 22.29 77.2502 22.29C77.1482 22.29 77.0692 22.309 77.0132 22.347C76.9572 22.385 76.9292 22.432 76.9292 22.488C76.9292 22.54 76.9472 22.581 76.9832 22.611C77.0212 22.641 77.0822 22.663 77.1662 22.677L77.5862 22.749C77.7822 22.783 77.9312 22.851 78.0332 22.953C78.1352 23.053 78.1862 23.183 78.1862 23.343C78.1862 23.545 78.1052 23.71 77.9432 23.838C77.7812 23.966 77.5632 24.03 77.2892 24.03C77.1232 24.03 76.9642 24.003 76.8122 23.949C76.6622 23.893 76.5182 23.814 76.3802 23.712ZM78.2658 24L79.0848 21.9H79.6728L80.4798 24H79.9218L79.7478 23.499H78.9798L78.8028 24H78.2658ZM79.1208 23.1H79.6098L79.3668 22.404L79.1208 23.1ZM80.7203 21.9H81.2063L82.1393 23.172L82.1303 21.9H82.6163V24H82.1603L81.1973 22.686L81.2063 24H80.7203V21.9ZM83.0546 24V21.9H83.5706V24H83.0546ZM83.8364 22.341V21.9H85.7054V22.341H85.0304V24H84.5144V22.341H83.8364ZM85.9726 24V21.9H86.4886V24H85.9726ZM86.7784 24V23.664L87.8194 22.323L86.7844 22.332V21.9H88.4794V22.236L87.4444 23.577L88.4884 23.568V24H86.7784ZM88.7645 24V21.9H89.2805V24H88.7645ZM89.7174 21.9H90.2034L91.1364 23.172L91.1274 21.9H91.6134V24H91.1574L90.1944 22.686L90.2034 24H89.7174V21.9ZM94.1307 22.941C94.1307 23.097 94.1047 23.242 94.0527 23.376C94.0007 23.51 93.9287 23.626 93.8367 23.724C93.7447 23.82 93.6337 23.896 93.5037 23.952C93.3757 24.006 93.2367 24.033 93.0867 24.033C92.9327 24.033 92.7877 24.005 92.6517 23.949C92.5177 23.893 92.4007 23.817 92.3007 23.721C92.2027 23.623 92.1247 23.508 92.0667 23.376C92.0107 23.244 91.9827 23.102 91.9827 22.95C91.9827 22.798 92.0107 22.656 92.0667 22.524C92.1247 22.392 92.2027 22.278 92.3007 22.182C92.3987 22.084 92.5147 22.007 92.6487 21.951C92.7827 21.895 92.9257 21.867 93.0777 21.867C93.2517 21.867 93.4177 21.903 93.5757 21.975C93.7337 22.045 93.8617 22.145 93.9597 22.275L93.5967 22.59C93.5307 22.502 93.4527 22.436 93.3627 22.392C93.2747 22.348 93.1797 22.326 93.0777 22.326C92.9977 22.326 92.9227 22.342 92.8527 22.374C92.7847 22.406 92.7257 22.45 92.6757 22.506C92.6257 22.56 92.5867 22.626 92.5587 22.704C92.5307 22.78 92.5167 22.862 92.5167 22.95C92.5167 23.04 92.5307 23.124 92.5587 23.202C92.5887 23.278 92.6297 23.344 92.6817 23.4C92.7337 23.456 92.7947 23.5 92.8647 23.532C92.9367 23.564 93.0137 23.58 93.0957 23.58C93.2137 23.58 93.3157 23.547 93.4017 23.481C93.4897 23.415 93.5477 23.331 93.5757 23.229H93.0507V22.794H94.1307V22.941ZM94.9662 23.712L95.2302 23.331C95.3742 23.433 95.4982 23.505 95.6022 23.547C95.7062 23.589 95.8092 23.61 95.9112 23.61C96.0212 23.61 96.1082 23.59 96.1722 23.55C96.2362 23.508 96.2682 23.455 96.2682 23.391C96.2682 23.329 96.2472 23.282 96.2052 23.25C96.1652 23.218 96.0942 23.192 95.9922 23.172L95.5452 23.094C95.3792 23.062 95.2512 22.997 95.1612 22.899C95.0732 22.801 95.0292 22.679 95.0292 22.533C95.0292 22.331 95.1032 22.17 95.2512 22.05C95.3992 21.93 95.6032 21.87 95.8632 21.87C96.0252 21.87 96.1822 21.895 96.3342 21.945C96.4862 21.993 96.6162 22.06 96.7242 22.146L96.4632 22.521C96.3612 22.443 96.2582 22.385 96.1542 22.347C96.0522 22.309 95.9462 22.29 95.8362 22.29C95.7342 22.29 95.6552 22.309 95.5992 22.347C95.5432 22.385 95.5152 22.432 95.5152 22.488C95.5152 22.54 95.5332 22.581 95.5692 22.611C95.6072 22.641 95.6682 22.663 95.7522 22.677L96.1722 22.749C96.3682 22.783 96.5172 22.851 96.6192 22.953C96.7212 23.053 96.7722 23.183 96.7722 23.343C96.7722 23.545 96.6912 23.71 96.5292 23.838C96.3672 23.966 96.1492 24.03 95.8752 24.03C95.7092 24.03 95.5502 24.003 95.3982 23.949C95.2482 23.893 95.1042 23.814 94.9662 23.712ZM97.6478 24V23.205L96.7958 21.9H97.3898L97.9208 22.761L98.4578 21.9H99.0188L98.1638 23.202V24H97.6478ZM99.0297 23.712L99.2937 23.331C99.4377 23.433 99.5617 23.505 99.6657 23.547C99.7697 23.589 99.8727 23.61 99.9747 23.61C100.085 23.61 100.172 23.59 100.236 23.55C100.3 23.508 100.332 23.455 100.332 23.391C100.332 23.329 100.311 23.282 100.269 23.25C100.229 23.218 100.158 23.192 100.056 23.172L99.6087 23.094C99.4427 23.062 99.3147 22.997 99.2247 22.899C99.1367 22.801 99.0927 22.679 99.0927 22.533C99.0927 22.331 99.1667 22.17 99.3147 22.05C99.4627 21.93 99.6667 21.87 99.9267 21.87C100.089 21.87 100.246 21.895 100.398 21.945C100.55 21.993 100.68 22.06 100.788 22.146L100.527 22.521C100.425 22.443 100.322 22.385 100.218 22.347C100.116 22.309 100.01 22.29 99.8997 22.29C99.7977 22.29 99.7187 22.309 99.6627 22.347C99.6067 22.385 99.5787 22.432 99.5787 22.488C99.5787 22.54 99.5967 22.581 99.6327 22.611C99.6707 22.641 99.7317 22.663 99.8157 22.677L100.236 22.749C100.432 22.783 100.581 22.851 100.683 22.953C100.785 23.053 100.836 23.183 100.836 23.343C100.836 23.545 100.755 23.71 100.593 23.838C100.431 23.966 100.213 24.03 99.9387 24.03C99.7727 24.03 99.6137 24.003 99.4617 23.949C99.3117 23.893 99.1677 23.814 99.0297 23.712ZM100.958 22.341V21.9H102.827V22.341H102.152V24H101.636V22.341H100.958ZM103.124 24V21.9H104.711V22.332H103.64V22.731H104.396V23.151H103.64V23.568H104.723V24H103.124ZM106.277 23.85L105.602 22.563V24H105.128V21.9H105.776L106.283 22.908L106.787 21.9H107.435V24H106.949V22.575L106.277 23.85ZM107.725 23.712L107.989 23.331C108.133 23.433 108.257 23.505 108.361 23.547C108.465 23.589 108.568 23.61 108.67 23.61C108.78 23.61 108.867 23.59 108.931 23.55C108.995 23.508 109.027 23.455 109.027 23.391C109.027 23.329 109.006 23.282 108.964 23.25C108.924 23.218 108.853 23.192 108.751 23.172L108.304 23.094C108.138 23.062 108.01 22.997 107.92 22.899C107.832 22.801 107.788 22.679 107.788 22.533C107.788 22.331 107.862 22.17 108.01 22.05C108.158 21.93 108.362 21.87 108.622 21.87C108.784 21.87 108.941 21.895 109.093 21.945C109.245 21.993 109.375 22.06 109.483 22.146L109.222 22.521C109.12 22.443 109.017 22.385 108.913 22.347C108.811 22.309 108.705 22.29 108.595 22.29C108.493 22.29 108.414 22.309 108.358 22.347C108.302 22.385 108.274 22.432 108.274 22.488C108.274 22.54 108.292 22.581 108.328 22.611C108.366 22.641 108.427 22.663 108.511 22.677L108.931 22.749C109.127 22.783 109.276 22.851 109.378 22.953C109.48 23.053 109.531 23.183 109.531 23.343C109.531 23.545 109.45 23.71 109.288 23.838C109.126 23.966 108.908 24.03 108.634 24.03C108.468 24.03 108.309 24.003 108.157 23.949C108.007 23.893 107.863 23.814 107.725 23.712Z" fill="white"/>
</g>
<rect x="20" y="4" width="1" height="1" fill="#8C34EB"/>
<rect x="23" y="4" width="0.5" height="0.5" fill="#BB87F3"/>
<rect x="19" y="4" width="0.5" height="0.5" fill="#BB87F3"/>
<rect x="21" y="3" width="0.5" height="0.5" fill="#BB87F3"/>
<rect x="23" y="2" width="1" height="1" fill="#8C34EB"/>
<rect x="19" y="1" width="1" height="1" fill="#8C34EB"/>
<g filter="url(#filter2_d)">
<rect x="20" y="6" width="1" height="1" fill="#8C34EB"/>
</g>
<rect x="22" y="5" width="1" height="1" fill="#8C34EB"/>
<rect x="25" y="5" width="1" height="1" fill="#8C34EB"/>
<path d="M116.259 15.097L117.737 7.95038L119.717 7.94155C120.59 7.93765 121.275 8.1646 121.77 8.6224C122.266 9.0802 122.515 9.74909 122.519 10.6291C122.523 11.5424 122.367 12.3331 122.05 13.0012C121.739 13.6626 121.285 14.1746 120.687 14.5373C120.088 14.9 119.362 15.0832 118.509 15.087L116.259 15.097ZM118.673 13.6863C119.139 13.6842 119.529 13.5524 119.841 13.291C120.16 13.023 120.402 12.6652 120.566 12.2178C120.731 11.7704 120.812 11.2734 120.81 10.7267C120.807 10.2534 120.699 9.90385 120.485 9.67814C120.271 9.44576 119.977 9.3304 119.603 9.33207L119.143 9.33412L118.233 13.6882L118.673 13.6863ZM123.056 15.0667L124.534 7.92007L126.764 7.91013L126.957 13.1293L126.997 13.1291L129.494 7.89795L131.794 7.8877L130.306 15.0344L128.786 15.0412L129.412 11.9784C129.523 11.4579 129.628 11.0074 129.726 10.6269C129.831 10.2398 129.913 9.92944 129.972 9.69584L129.932 9.69602L127.366 15.0475L125.796 15.0545L125.612 9.71528L125.572 9.71546C125.52 10.0624 125.459 10.4493 125.387 10.8763C125.322 11.2966 125.254 11.6902 125.182 12.0572L124.566 15.06L123.056 15.0667ZM133.162 15.0217L132.56 7.88428L134.2 7.87697L134.407 11.8561C134.415 12.0094 134.419 12.186 134.42 12.386C134.421 12.5794 134.418 12.7694 134.412 12.9561C134.407 13.1428 134.394 13.3028 134.374 13.4362L134.414 13.4361C134.48 13.1958 134.559 12.9454 134.651 12.685C134.743 12.4246 134.836 12.1975 134.928 12.0038L136.83 7.86524L138.59 7.8574L135.022 15.0134L133.162 15.0217Z" fill="#8C34EB"/>
<defs>
<filter id="filter0_i" x="0.588013" y="7.12399" width="112.423" height="16.552" filterUnits="userSpaceOnUse" color-interpolation-filters="sRGB">
<feFlood flood-opacity="0" result="BackgroundImageFix"/>
<feBlend mode="normal" in="SourceGraphic" in2="BackgroundImageFix" result="shape"/>
<feColorMatrix in="SourceAlpha" type="matrix" values="0 0 0 0 0 0 0 0 0 0 0 0 0 0 0 0 0 0 127 0" result="hardAlpha"/>
<feOffset dy="4"/>
<feGaussianBlur stdDeviation="2"/>
<feComposite in2="hardAlpha" operator="arithmetic" k2="-1" k3="1"/>
<feColorMatrix type="matrix" values="0 0 0 0 0.898039 0 0 0 0 0.898039 0 0 0 0 0.898039 0 0 0 0.33 0"/>
<feBlend mode="normal" in2="shape" result="effect1_innerShadow"/>
</filter>
<filter id="filter1_i" x="5.23401" y="21.867" width="104.297" height="6.166" filterUnits="userSpaceOnUse" color-interpolation-filters="sRGB">
<feFlood flood-opacity="0" result="BackgroundImageFix"/>
<feBlend mode="normal" in="SourceGraphic" in2="BackgroundImageFix" result="shape"/>
<feColorMatrix in="SourceAlpha" type="matrix" values="0 0 0 0 0 0 0 0 0 0 0 0 0 0 0 0 0 0 127 0" result="hardAlpha"/>
<feOffset dy="4"/>
<feGaussianBlur stdDeviation="2"/>
<feComposite in2="hardAlpha" operator="arithmetic" k2="-1" k3="1"/>
<feColorMatrix type="matrix" values="0 0 0 0 0 0 0 0 0 0 0 0 0 0 0 0 0 0 0.11 0"/>
<feBlend mode="normal" in2="shape" result="effect1_innerShadow"/>
</filter>
<filter id="filter2_d" x="16" y="6" width="9" height="9" filterUnits="userSpaceOnUse" color-interpolation-filters="sRGB">
<feFlood flood-opacity="0" result="BackgroundImageFix"/>
<feColorMatrix in="SourceAlpha" type="matrix" values="0 0 0 0 0 0 0 0 0 0 0 0 0 0 0 0 0 0 127 0" result="hardAlpha"/>
<feOffset dy="4"/>
<feGaussianBlur stdDeviation="2"/>
<feComposite in2="hardAlpha" operator="out"/>
<feColorMatrix type="matrix" values="0 0 0 0 0 0 0 0 0 0 0 0 0 0 0 0 0 0 0.25 0"/>
<feBlend mode="normal" in2="BackgroundImageFix" result="effect1_dropShadow"/>
<feBlend mode="normal" in="SourceGraphic" in2="effect1_dropShadow" result="shape"/>
</filter>
</defs>
</svg>
