<svg width="113" height="13" viewBox="0 0 113 13" fill="none" xmlns="http://www.w3.org/2000/svg">
<g filter="url(#filter0_i)">
<path d="M1.088 12V0.799999H3.84V5.152H8.368V0.799999H11.12V12H8.368V7.568H3.84V12H1.088ZM16.7311 12V7.76L12.1871 0.799999H15.3551L18.1871 5.392L21.0511 0.799999H24.0431L19.4831 7.744V12H16.7311ZM35.2541 6.352C35.2541 7.184 35.1155 7.95733 34.8381 8.672C34.5608 9.38667 34.1768 10.0053 33.6861 10.528C33.1955 11.04 32.6035 11.4453 31.9101 11.744C31.2275 12.032 30.4861 12.176 29.6861 12.176C28.8648 12.176 28.0915 12.0267 27.3661 11.728C26.6515 11.4293 26.0275 11.024 25.4941 10.512C24.9715 9.98933 24.5555 9.376 24.2461 8.672C23.9475 7.968 23.7981 7.21067 23.7981 6.4C23.7981 5.58933 23.9475 4.832 24.2461 4.128C24.5555 3.424 24.9715 2.816 25.4941 2.304C26.0168 1.78133 26.6355 1.37067 27.3501 1.072C28.0648 0.773333 28.8275 0.624 29.6381 0.624C30.5661 0.624 31.4515 0.816 32.2941 1.2C33.1368 1.57333 33.8195 2.10667 34.3421 2.8L32.4061 4.48C32.0541 4.01067 31.6381 3.65867 31.1581 3.424C30.6888 3.18933 30.1821 3.072 29.6381 3.072C29.2115 3.072 28.8115 3.15733 28.4381 3.328C28.0755 3.49867 27.7608 3.73333 27.4941 4.032C27.2275 4.32 27.0195 4.672 26.8701 5.088C26.7208 5.49333 26.6461 5.93067 26.6461 6.4C26.6461 6.88 26.7208 7.328 26.8701 7.744C27.0301 8.14933 27.2488 8.50133 27.5261 8.8C27.8035 9.09867 28.1288 9.33333 28.5021 9.504C28.8861 9.67467 29.2968 9.76 29.7341 9.76C30.3635 9.76 30.9075 9.584 31.3661 9.232C31.8355 8.88 32.1448 8.432 32.2941 7.888H29.4941V5.568H35.2541V6.352ZM37.0568 12V0.799999H39.8088V12H37.0568ZM42.1386 12V0.799999H50.6026V3.104H44.8906V5.232H48.9226V7.472H44.8906V9.696H50.6666V12H42.1386ZM52.8261 0.799999H55.4181L60.3941 7.584L60.3461 0.799999H62.9381V12H60.5061L55.3701 4.992L55.4181 12H52.8261V0.799999ZM65.2755 12V0.799999H68.0275V12H65.2755ZM69.4454 3.152V0.799999H79.4134V3.152H75.8134V12H73.0614V3.152H69.4454ZM80.998 12V0.799999H89.462V3.104H83.75V5.232H87.782V7.472H83.75V9.696H89.526V12H80.998ZM96.595 9.696C97.0963 9.696 97.5603 9.57867 97.987 9.344C98.4137 9.10933 98.803 8.76267 99.155 8.304L100.963 10.016C100.472 10.656 99.8217 11.1733 99.011 11.568C98.2003 11.9627 97.363 12.16 96.499 12.16C95.667 12.16 94.8883 12.0107 94.163 11.712C93.4377 11.4133 92.8137 11.008 92.291 10.496C91.7683 9.984 91.3523 9.376 91.043 8.672C90.7443 7.968 90.595 7.21067 90.595 6.4C90.595 5.58933 90.7443 4.832 91.043 4.128C91.3523 3.41333 91.7683 2.8 92.291 2.288C92.8243 1.776 93.4483 1.37067 94.163 1.072C94.8883 0.773333 95.667 0.624 96.499 0.624C97.395 0.624 98.2537 0.821333 99.075 1.216C99.8963 1.61067 100.552 2.13867 101.043 2.8L99.187 4.56C98.8243 4.06933 98.4137 3.70133 97.955 3.456C97.507 3.2 97.0217 3.072 96.499 3.072C96.0617 3.072 95.6563 3.15733 95.283 3.328C94.9097 3.49867 94.5843 3.73333 94.307 4.032C94.0403 4.32 93.827 4.672 93.667 5.088C93.5177 5.49333 93.443 5.93067 93.443 6.4C93.443 6.86933 93.523 7.30667 93.683 7.712C93.843 8.11733 94.0617 8.46933 94.339 8.768C94.627 9.056 94.963 9.28533 95.347 9.456C95.731 9.616 96.147 9.696 96.595 9.696ZM102.479 12V0.799999H105.231V5.152H109.759V0.799999H112.511V12H109.759V7.568H105.231V12H102.479Z" fill="black"/>
</g>
<path d="M1.088 12H0.888V12.2H1.088V12ZM1.088 0.799999V0.599999H0.888V0.799999H1.088ZM3.84 0.799999H4.04V0.599999H3.84V0.799999ZM3.84 5.152H3.64V5.352H3.84V5.152ZM8.368 5.152V5.352H8.568V5.152H8.368ZM8.368 0.799999V0.599999H8.168V0.799999H8.368ZM11.12 0.799999H11.32V0.599999H11.12V0.799999ZM11.12 12V12.2H11.32V12H11.12ZM8.368 12H8.168V12.2H8.368V12ZM8.368 7.568H8.568V7.368H8.368V7.568ZM3.84 7.568V7.368H3.64V7.568H3.84ZM3.84 12V12.2H4.04V12H3.84ZM1.288 12V0.799999H0.888V12H1.288ZM1.088 0.999999H3.84V0.599999H1.088V0.999999ZM3.64 0.799999V5.152H4.04V0.799999H3.64ZM3.84 5.352H8.368V4.952H3.84V5.352ZM8.568 5.152V0.799999H8.168V5.152H8.568ZM8.368 0.999999H11.12V0.599999H8.368V0.999999ZM10.92 0.799999V12H11.32V0.799999H10.92ZM11.12 11.8H8.368V12.2H11.12V11.8ZM8.568 12V7.568H8.168V12H8.568ZM8.368 7.368H3.84V7.768H8.368V7.368ZM3.64 7.568V12H4.04V7.568H3.64ZM3.84 11.8H1.088V12.2H3.84V11.8ZM16.7311 12H16.5311V12.2H16.7311V12ZM16.7311 7.76H16.9311V7.70049L16.8986 7.65066L16.7311 7.76ZM12.1871 0.799999V0.599999H11.8177L12.0197 0.909335L12.1871 0.799999ZM15.3551 0.799999L15.5254 0.695014L15.4668 0.599999H15.3551V0.799999ZM18.1871 5.392L18.0169 5.49698L18.1862 5.77146L18.3568 5.49784L18.1871 5.392ZM21.0511 0.799999V0.599999H20.9402L20.8814 0.694159L21.0511 0.799999ZM24.0431 0.799999L24.2103 0.909781L24.4137 0.599999H24.0431V0.799999ZM19.4831 7.744L19.3159 7.63422L19.2831 7.6842V7.744H19.4831ZM19.4831 12V12.2H19.6831V12H19.4831ZM16.9311 12V7.76H16.5311V12H16.9311ZM16.8986 7.65066L12.3546 0.690663L12.0197 0.909335L16.5637 7.86934L16.8986 7.65066ZM12.1871 0.999999H15.3551V0.599999H12.1871V0.999999ZM15.1849 0.904984L18.0169 5.49698L18.3574 5.28701L15.5254 0.695014L15.1849 0.904984ZM18.3568 5.49784L21.2208 0.90584L20.8814 0.694159L18.0174 5.28616L18.3568 5.49784ZM21.0511 0.999999H24.0431V0.599999H21.0511V0.999999ZM23.8759 0.690217L19.3159 7.63422L19.6503 7.85378L24.2103 0.909781L23.8759 0.690217ZM19.2831 7.744V12H19.6831V7.744H19.2831ZM19.4831 11.8H16.7311V12.2H19.4831V11.8ZM34.8381 8.672L34.6517 8.59964L34.6517 8.59965L34.8381 8.672ZM33.6861 10.528L33.8305 10.6664L33.8319 10.6649L33.6861 10.528ZM31.9101 11.744L31.9879 11.9283L31.9893 11.9277L31.9101 11.744ZM27.3661 11.728L27.289 11.9125L27.29 11.9129L27.3661 11.728ZM25.4941 10.512L25.3527 10.6535L25.3556 10.6563L25.4941 10.512ZM24.2461 8.672L24.062 8.75012L24.063 8.75245L24.2461 8.672ZM24.2461 4.128L24.063 4.04754L24.062 4.04989L24.2461 4.128ZM25.4941 2.304L25.6341 2.44688L25.6355 2.44542L25.4941 2.304ZM27.3501 1.072L27.4272 1.25653L27.4272 1.25653L27.3501 1.072ZM32.2941 1.2L32.2112 1.382L32.2131 1.38286L32.2941 1.2ZM34.3421 2.8L34.4732 2.95105L34.6142 2.82869L34.5018 2.67961L34.3421 2.8ZM32.4061 4.48L32.2461 4.6L32.375 4.77182L32.5372 4.63105L32.4061 4.48ZM31.1581 3.424L31.0687 3.60289L31.0703 3.60368L31.1581 3.424ZM28.4381 3.328L28.355 3.14609L28.353 3.14704L28.4381 3.328ZM27.4941 4.032L27.6409 4.1679L27.6433 4.1652L27.4941 4.032ZM26.8701 5.088L27.0578 5.15714L27.0584 5.15557L26.8701 5.088ZM26.8701 7.744L26.6818 7.81161L26.6841 7.81743L26.8701 7.744ZM27.5261 8.8L27.6727 8.66391L27.6727 8.66391L27.5261 8.8ZM28.5021 9.504L28.419 9.6859L28.4209 9.68676L28.5021 9.504ZM31.3661 9.232L31.2461 9.07199L31.2444 9.07334L31.3661 9.232ZM32.2941 7.888L32.487 7.94094L32.5564 7.688H32.2941V7.888ZM29.4941 7.888H29.2941V8.088H29.4941V7.888ZM29.4941 5.568V5.368H29.2941V5.568H29.4941ZM35.2541 5.568H35.4541V5.368H35.2541V5.568ZM35.0541 6.352C35.0541 7.16137 34.9193 7.90995 34.6517 8.59964L35.0246 8.74435C35.3116 8.00472 35.4541 7.20663 35.4541 6.352H35.0541ZM34.6517 8.59965C34.383 9.29207 34.0122 9.88842 33.5403 10.3911L33.8319 10.6649C34.3414 10.1222 34.7386 9.48126 35.0246 8.74435L34.6517 8.59965ZM33.5417 10.3896C33.0707 10.8811 32.5014 11.2715 31.831 11.5603L31.9893 11.9277C32.7055 11.6191 33.3202 11.1989 33.8305 10.6664L33.5417 10.3896ZM31.8324 11.5597C31.1762 11.8365 30.4616 11.976 29.6861 11.976V12.376C30.5107 12.376 31.2787 12.2275 31.9879 11.9283L31.8324 11.5597ZM29.6861 11.976C28.8897 11.976 28.1423 11.8313 27.4423 11.5431L27.29 11.9129C28.0406 12.222 28.8399 12.376 29.6861 12.376V11.976ZM27.4432 11.5435C26.7502 11.2539 26.1473 10.8618 25.6326 10.3677L25.3556 10.6563C25.9076 11.1862 26.5527 11.6048 27.289 11.9125L27.4432 11.5435ZM25.6355 10.3706C25.1311 9.86618 24.729 9.27374 24.4292 8.59155L24.063 8.75245C24.3819 9.47826 24.8118 10.1125 25.3527 10.6534L25.6355 10.3706ZM24.4302 8.59389C24.1427 7.91606 23.9981 7.18546 23.9981 6.4H23.5981C23.5981 7.23587 23.7522 8.01994 24.062 8.75011L24.4302 8.59389ZM23.9981 6.4C23.9981 5.61453 24.1427 4.88394 24.4302 4.20611L24.062 4.04989C23.7522 4.78006 23.5981 5.56413 23.5981 6.4H23.9981ZM24.4292 4.20845C24.7288 3.52661 25.1306 2.94011 25.6341 2.44687L25.3542 2.16113C24.8123 2.69189 24.3821 3.32139 24.063 4.04755L24.4292 4.20845ZM25.6355 2.44542C26.1389 1.94205 26.7354 1.54564 27.4272 1.25653L27.273 0.887466C26.5355 1.19569 25.8947 1.62061 25.3527 2.16258L25.6355 2.44542ZM27.4272 1.25653C28.1163 0.968549 28.8527 0.824 29.6381 0.824V0.424C28.8022 0.424 28.0132 0.578116 27.273 0.887466L27.4272 1.25653ZM29.6381 0.824C30.5376 0.824 31.3946 1.00989 32.2112 1.38199L32.3771 1.01801C31.5083 0.622114 30.5947 0.424 29.6381 0.424V0.824ZM32.2131 1.38286C33.0266 1.74328 33.6815 2.25591 34.1824 2.92039L34.5018 2.67961C33.9574 1.95742 33.2469 1.40339 32.3751 1.01714L32.2131 1.38286ZM34.211 2.64894L32.275 4.32894L32.5372 4.63105L34.4732 2.95105L34.211 2.64894ZM32.5661 4.36C32.197 3.86787 31.7571 3.49422 31.246 3.24432L31.0703 3.60368C31.5191 3.82312 31.9112 4.15346 32.2461 4.6L32.5661 4.36ZM31.2476 3.24511C30.7494 2.99605 30.212 2.872 29.6381 2.872V3.272C30.1523 3.272 30.6282 3.38262 31.0687 3.60289L31.2476 3.24511ZM29.6381 2.872C29.1839 2.872 28.7554 2.96303 28.355 3.1461L28.5213 3.50989C28.8675 3.35163 29.239 3.272 29.6381 3.272V2.872ZM28.353 3.14704C27.966 3.32914 27.6295 3.58004 27.3449 3.8988L27.6433 4.1652C27.892 3.88662 28.1849 3.66819 28.5233 3.50896L28.353 3.14704ZM27.3474 3.89612C27.0603 4.20621 26.8392 4.58229 26.6819 5.02043L27.0584 5.15557C27.1998 4.76171 27.3947 4.43379 27.6409 4.16788L27.3474 3.89612ZM26.6825 5.01886C26.5243 5.44817 26.4461 5.90912 26.4461 6.4H26.8461C26.8461 5.95222 26.9173 5.53849 27.0578 5.15714L26.6825 5.01886ZM26.4461 6.4C26.4461 6.90105 26.5241 7.3721 26.6819 7.81157L27.0584 7.67643C26.9175 7.2839 26.8461 6.85895 26.8461 6.4H26.4461ZM26.6841 7.81743C26.8526 8.24431 27.0841 8.61795 27.3796 8.93609L27.6727 8.66391C27.4134 8.38472 27.2077 8.05436 27.0562 7.67057L26.6841 7.81743ZM27.3796 8.93609C27.6749 9.25419 28.0219 9.50436 28.419 9.68589L28.5853 9.32211C28.2357 9.1623 27.932 8.94314 27.6727 8.66391L27.3796 8.93609ZM28.4209 9.68676C28.8315 9.86926 29.27 9.96 29.7341 9.96V9.56C29.3236 9.56 28.9407 9.48007 28.5834 9.32124L28.4209 9.68676ZM29.7341 9.96C30.4034 9.96 30.9911 9.77188 31.4879 9.39066L31.2444 9.07334C30.8238 9.39612 30.3236 9.56 29.7341 9.56V9.96ZM31.4861 9.392C31.9894 9.01453 32.3254 8.52953 32.487 7.94094L32.1013 7.83506C31.9642 8.33447 31.6815 8.74547 31.2461 9.072L31.4861 9.392ZM32.2941 7.688H29.4941V8.088H32.2941V7.688ZM29.6941 7.888V5.568H29.2941V7.888H29.6941ZM29.4941 5.768H35.2541V5.368H29.4941V5.768ZM35.0541 5.568V6.352H35.4541V5.568H35.0541ZM37.0568 12H36.8568V12.2H37.0568V12ZM37.0568 0.799999V0.599999H36.8568V0.799999H37.0568ZM39.8088 0.799999H40.0088V0.599999H39.8088V0.799999ZM39.8088 12V12.2H40.0088V12H39.8088ZM37.2568 12V0.799999H36.8568V12H37.2568ZM37.0568 0.999999H39.8088V0.599999H37.0568V0.999999ZM39.6088 0.799999V12H40.0088V0.799999H39.6088ZM39.8088 11.8H37.0568V12.2H39.8088V11.8ZM42.1386 12H41.9386V12.2H42.1386V12ZM42.1386 0.799999V0.599999H41.9386V0.799999H42.1386ZM50.6026 0.799999H50.8026V0.599999H50.6026V0.799999ZM50.6026 3.104V3.304H50.8026V3.104H50.6026ZM44.8906 3.104V2.904H44.6906V3.104H44.8906ZM44.8906 5.232H44.6906V5.432H44.8906V5.232ZM48.9226 5.232H49.1226V5.032H48.9226V5.232ZM48.9226 7.472V7.672H49.1226V7.472H48.9226ZM44.8906 7.472V7.272H44.6906V7.472H44.8906ZM44.8906 9.696H44.6906V9.896H44.8906V9.696ZM50.6666 9.696H50.8666V9.496H50.6666V9.696ZM50.6666 12V12.2H50.8666V12H50.6666ZM42.3386 12V0.799999H41.9386V12H42.3386ZM42.1386 0.999999H50.6026V0.599999H42.1386V0.999999ZM50.4026 0.799999V3.104H50.8026V0.799999H50.4026ZM50.6026 2.904H44.8906V3.304H50.6026V2.904ZM44.6906 3.104V5.232H45.0906V3.104H44.6906ZM44.8906 5.432H48.9226V5.032H44.8906V5.432ZM48.7226 5.232V7.472H49.1226V5.232H48.7226ZM48.9226 7.272H44.8906V7.672H48.9226V7.272ZM44.6906 7.472V9.696H45.0906V7.472H44.6906ZM44.8906 9.896H50.6666V9.496H44.8906V9.896ZM50.4666 9.696V12H50.8666V9.696H50.4666ZM50.6666 11.8H42.1386V12.2H50.6666V11.8ZM52.8261 0.799999V0.599999H52.6261V0.799999H52.8261ZM55.4181 0.799999L55.5794 0.68171L55.5195 0.599999H55.4181V0.799999ZM60.3941 7.584L60.2329 7.70229L60.5985 8.20078L60.5941 7.58258L60.3941 7.584ZM60.3461 0.799999V0.599999H60.1447L60.1461 0.801414L60.3461 0.799999ZM62.9381 0.799999H63.1381V0.599999H62.9381V0.799999ZM62.9381 12V12.2H63.1381V12H62.9381ZM60.5061 12L60.3448 12.1182L60.4047 12.2H60.5061V12ZM55.3701 4.992L55.5314 4.87377L55.1659 4.37499L55.1701 4.99337L55.3701 4.992ZM55.4181 12V12.2H55.6195L55.6181 11.9986L55.4181 12ZM52.8261 12H52.6261V12.2H52.8261V12ZM52.8261 0.999999H55.4181V0.599999H52.8261V0.999999ZM55.2569 0.918288L60.2329 7.70229L60.5554 7.46571L55.5794 0.68171L55.2569 0.918288ZM60.5941 7.58258L60.5461 0.798584L60.1461 0.801414L60.1941 7.58541L60.5941 7.58258ZM60.3461 0.999999H62.9381V0.599999H60.3461V0.999999ZM62.7381 0.799999V12H63.1381V0.799999H62.7381ZM62.9381 11.8H60.5061V12.2H62.9381V11.8ZM60.6674 11.8818L55.5314 4.87377L55.2088 5.11022L60.3448 12.1182L60.6674 11.8818ZM55.1701 4.99337L55.2181 12.0014L55.6181 11.9986L55.5701 4.99063L55.1701 4.99337ZM55.4181 11.8H52.8261V12.2H55.4181V11.8ZM53.0261 12V0.799999H52.6261V12H53.0261ZM65.2755 12H65.0755V12.2H65.2755V12ZM65.2755 0.799999V0.599999H65.0755V0.799999H65.2755ZM68.0275 0.799999H68.2275V0.599999H68.0275V0.799999ZM68.0275 12V12.2H68.2275V12H68.0275ZM65.4755 12V0.799999H65.0755V12H65.4755ZM65.2755 0.999999H68.0275V0.599999H65.2755V0.999999ZM67.8275 0.799999V12H68.2275V0.799999H67.8275ZM68.0275 11.8H65.2755V12.2H68.0275V11.8ZM69.4454 3.152H69.2454V3.352H69.4454V3.152ZM69.4454 0.799999V0.599999H69.2454V0.799999H69.4454ZM79.4134 0.799999H79.6134V0.599999H79.4134V0.799999ZM79.4134 3.152V3.352H79.6134V3.152H79.4134ZM75.8134 3.152V2.952H75.6134V3.152H75.8134ZM75.8134 12V12.2H76.0134V12H75.8134ZM73.0614 12H72.8614V12.2H73.0614V12ZM73.0614 3.152H73.2614V2.952H73.0614V3.152ZM69.6454 3.152V0.799999H69.2454V3.152H69.6454ZM69.4454 0.999999H79.4134V0.599999H69.4454V0.999999ZM79.2134 0.799999V3.152H79.6134V0.799999H79.2134ZM79.4134 2.952H75.8134V3.352H79.4134V2.952ZM75.6134 3.152V12H76.0134V3.152H75.6134ZM75.8134 11.8H73.0614V12.2H75.8134V11.8ZM73.2614 12V3.152H72.8614V12H73.2614ZM73.0614 2.952H69.4454V3.352H73.0614V2.952ZM80.998 12H80.798V12.2H80.998V12ZM80.998 0.799999V0.599999H80.798V0.799999H80.998ZM89.462 0.799999H89.662V0.599999H89.462V0.799999ZM89.462 3.104V3.304H89.662V3.104H89.462ZM83.75 3.104V2.904H83.55V3.104H83.75ZM83.75 5.232H83.55V5.432H83.75V5.232ZM87.782 5.232H87.982V5.032H87.782V5.232ZM87.782 7.472V7.672H87.982V7.472H87.782ZM83.75 7.472V7.272H83.55V7.472H83.75ZM83.75 9.696H83.55V9.896H83.75V9.696ZM89.526 9.696H89.726V9.496H89.526V9.696ZM89.526 12V12.2H89.726V12H89.526ZM81.198 12V0.799999H80.798V12H81.198ZM80.998 0.999999H89.462V0.599999H80.998V0.999999ZM89.262 0.799999V3.104H89.662V0.799999H89.262ZM89.462 2.904H83.75V3.304H89.462V2.904ZM83.55 3.104V5.232H83.95V3.104H83.55ZM83.75 5.432H87.782V5.032H83.75V5.432ZM87.582 5.232V7.472H87.982V5.232H87.582ZM87.782 7.272H83.75V7.672H87.782V7.272ZM83.55 7.472V9.696H83.95V7.472H83.55ZM83.75 9.896H89.526V9.496H83.75V9.896ZM89.326 9.696V12H89.726V9.696H89.326ZM89.526 11.8H80.998V12.2H89.526V11.8ZM99.155 8.304L99.2925 8.15878L99.1314 8.00623L98.9963 8.18224L99.155 8.304ZM100.963 10.016L101.122 10.1377L101.231 9.99468L101.101 9.87078L100.963 10.016ZM99.011 11.568L99.0985 11.7478L99.0985 11.7478L99.011 11.568ZM94.163 11.712L94.0869 11.8969L94.0869 11.8969L94.163 11.712ZM92.291 10.496L92.431 10.3531L92.431 10.3531L92.291 10.496ZM91.043 8.672L90.8589 8.75012L90.8599 8.75245L91.043 8.672ZM91.043 4.128L90.8595 4.04855L90.8589 4.04989L91.043 4.128ZM92.291 2.288L92.1525 2.14371L92.151 2.14513L92.291 2.288ZM94.163 1.072L94.0868 0.887061L94.0859 0.887466L94.163 1.072ZM99.075 1.216L99.1616 1.03573L99.1616 1.03573L99.075 1.216ZM101.043 2.8L101.181 2.94512L101.309 2.82317L101.204 2.68083L101.043 2.8ZM99.187 4.56L99.0262 4.67888L99.1606 4.8607L99.3246 4.70512L99.187 4.56ZM97.955 3.456L97.8557 3.62972L97.8607 3.63236L97.955 3.456ZM95.283 3.328L95.1998 3.1461L95.1998 3.1461L95.283 3.328ZM94.307 4.032L94.1604 3.89591L94.1602 3.89612L94.307 4.032ZM93.667 5.088L93.4803 5.0162L93.4793 5.01886L93.667 5.088ZM93.683 7.712L93.497 7.78543L93.497 7.78543L93.683 7.712ZM94.339 8.768L94.1923 8.90418L94.1976 8.90942L94.339 8.768ZM95.347 9.456L95.2658 9.63881L95.2701 9.64062L95.347 9.456ZM96.595 9.896C97.129 9.896 97.6263 9.77064 98.0834 9.51924L97.8906 9.16876C97.4944 9.38669 97.0637 9.496 96.595 9.496V9.896ZM98.0834 9.51924C98.5384 9.26899 98.9479 8.90232 99.3137 8.42576L98.9963 8.18224C98.6581 8.62301 98.2889 8.94968 97.8906 9.16876L98.0834 9.51924ZM99.0175 8.44922L100.825 10.1612L101.101 9.87078L99.2925 8.15878L99.0175 8.44922ZM100.804 9.89431C100.335 10.5069 99.7095 11.0055 98.9235 11.3882L99.0985 11.7478C99.9338 11.3412 100.61 10.8051 101.122 10.1377L100.804 9.89431ZM98.9235 11.3882C98.1388 11.7702 97.3313 11.96 96.499 11.96V12.36C97.3947 12.36 98.2618 12.1552 99.0985 11.7478L98.9235 11.3882ZM96.499 11.96C95.6915 11.96 94.9389 11.8152 94.2392 11.5271L94.0869 11.8969C94.8378 12.2061 95.6425 12.36 96.499 12.36V11.96ZM94.2392 11.5271C93.5359 11.2375 92.934 10.8459 92.431 10.3531L92.151 10.6389C92.6934 11.1701 93.3395 11.5892 94.0869 11.8969L94.2392 11.5271ZM92.431 10.3531C91.9274 9.85989 91.5257 9.27339 91.2261 8.59155L90.8599 8.75245C91.179 9.47861 91.6092 10.1081 92.151 10.6389L92.431 10.3531ZM91.2271 8.59389C90.9396 7.91606 90.795 7.18546 90.795 6.4H90.395C90.395 7.23587 90.5491 8.01994 90.8589 8.75011L91.2271 8.59389ZM90.795 6.4C90.795 5.61453 90.9396 4.88394 91.2271 4.20611L90.8589 4.04989C90.5491 4.78006 90.395 5.56413 90.395 6.4H90.795ZM91.2265 4.20744C91.5263 3.51499 91.928 2.92361 92.431 2.43087L92.151 2.14513C91.6087 2.67639 91.1784 3.31167 90.8595 4.04856L91.2265 4.20744ZM92.4295 2.43228C92.9442 1.93818 93.5471 1.54614 94.2401 1.25653L94.0859 0.887466C93.3495 1.19519 92.7045 1.61382 92.1525 2.14372L92.4295 2.43228ZM94.2392 1.25694C94.9389 0.968809 95.6915 0.824 96.499 0.824V0.424C95.6425 0.424 94.8378 0.577857 94.0869 0.887064L94.2392 1.25694ZM96.499 0.824C97.3645 0.824 98.1936 1.01436 98.9884 1.39627L99.1616 1.03573C98.3137 0.628305 97.4255 0.424 96.499 0.424V0.824ZM98.9884 1.39627C99.7836 1.7784 100.413 2.28659 100.882 2.91917L101.204 2.68083C100.692 1.99074 100.009 1.44293 99.1616 1.03573L98.9884 1.39627ZM100.905 2.65487L99.0494 4.41487L99.3246 4.70512L101.181 2.94512L100.905 2.65487ZM99.3478 4.44112C98.9706 3.9307 98.5383 3.54119 98.0493 3.27964L97.8607 3.63236C98.289 3.86148 98.6781 4.20797 99.0262 4.67888L99.3478 4.44112ZM98.0542 3.28235C97.5756 3.00885 97.056 2.872 96.499 2.872V3.272C96.9873 3.272 97.4384 3.39115 97.8558 3.62965L98.0542 3.28235ZM96.499 2.872C96.0349 2.872 95.601 2.96274 95.1998 3.1461L95.3662 3.50989C95.7117 3.35193 96.0885 3.272 96.499 3.272V2.872ZM95.1998 3.1461C94.8027 3.32764 94.4558 3.57781 94.1604 3.89591L94.4536 4.16809C94.7128 3.88886 95.0166 3.6697 95.3662 3.50989L95.1998 3.1461ZM94.1602 3.89612C93.8741 4.20511 93.6482 4.57969 93.4803 5.0162L93.8537 5.1598C94.0058 4.76431 94.2065 4.43489 94.4538 4.16788L94.1602 3.89612ZM93.4793 5.01886C93.3212 5.44817 93.243 5.90912 93.243 6.4H93.643C93.643 5.95222 93.7142 5.53849 93.8547 5.15714L93.4793 5.01886ZM93.243 6.4C93.243 6.89252 93.327 7.35497 93.497 7.78543L93.869 7.63857C93.719 7.25836 93.643 6.84615 93.643 6.4H93.243ZM93.497 7.78543C93.6655 8.21231 93.897 8.58595 94.1924 8.90409L94.4856 8.63191C94.2263 8.35272 94.0205 8.02236 93.869 7.63857L93.497 7.78543ZM94.1976 8.90942C94.5035 9.21533 94.8601 9.45845 95.2658 9.63876L95.4282 9.27324C95.0659 9.11222 94.7505 8.89667 94.4804 8.62658L94.1976 8.90942ZM95.2701 9.64062C95.6803 9.81153 96.1226 9.896 96.595 9.896V9.496C96.1714 9.496 95.7817 9.42047 95.4239 9.27138L95.2701 9.64062ZM102.479 12H102.279V12.2H102.479V12ZM102.479 0.799999V0.599999H102.279V0.799999H102.479ZM105.231 0.799999H105.431V0.599999H105.231V0.799999ZM105.231 5.152H105.031V5.352H105.231V5.152ZM109.759 5.152V5.352H109.959V5.152H109.759ZM109.759 0.799999V0.599999H109.559V0.799999H109.759ZM112.511 0.799999H112.711V0.599999H112.511V0.799999ZM112.511 12V12.2H112.711V12H112.511ZM109.759 12H109.559V12.2H109.759V12ZM109.759 7.568H109.959V7.368H109.759V7.568ZM105.231 7.568V7.368H105.031V7.568H105.231ZM105.231 12V12.2H105.431V12H105.231ZM102.679 12V0.799999H102.279V12H102.679ZM102.479 0.999999H105.231V0.599999H102.479V0.999999ZM105.031 0.799999V5.152H105.431V0.799999H105.031ZM105.231 5.352H109.759V4.952H105.231V5.352ZM109.959 5.152V0.799999H109.559V5.152H109.959ZM109.759 0.999999H112.511V0.599999H109.759V0.999999ZM112.311 0.799999V12H112.711V0.799999H112.311ZM112.511 11.8H109.759V12.2H112.511V11.8ZM109.959 12V7.568H109.559V12H109.959ZM109.759 7.368H105.231V7.768H109.759V7.368ZM105.031 7.568V12H105.431V7.568H105.031ZM105.231 11.8H102.479V12.2H105.231V11.8Z" fill="white"/>
<defs>
<filter id="filter0_i" x="0.888" y="0.424011" width="111.823" height="15.952" filterUnits="userSpaceOnUse" color-interpolation-filters="sRGB">
<feFlood flood-opacity="0" result="BackgroundImageFix"/>
<feBlend mode="normal" in="SourceGraphic" in2="BackgroundImageFix" result="shape"/>
<feColorMatrix in="SourceAlpha" type="matrix" values="0 0 0 0 0 0 0 0 0 0 0 0 0 0 0 0 0 0 127 0" result="hardAlpha"/>
<feOffset dy="4"/>
<feGaussianBlur stdDeviation="2"/>
<feComposite in2="hardAlpha" operator="arithmetic" k2="-1" k3="1"/>
<feColorMatrix type="matrix" values="0 0 0 0 0.898039 0 0 0 0 0.898039 0 0 0 0 0.898039 0 0 0 0.33 0"/>
<feBlend mode="normal" in2="shape" result="effect1_innerShadow"/>
</filter>
</defs>
</svg>
