<svg width="147" height="34" viewBox="0 0 147 34" fill="none" xmlns="http://www.w3.org/2000/svg">
<g filter="url(#filter0_d)">
<path d="M22.7759 11.9901L18.6398 7.19012L26.9118 7.19L22.7759 11.9901Z" fill="#8C34EB"/>
<rect x="7" y="14" width="109" height="12" fill="#8C34EB"/>
<g filter="url(#filter1_i)">
<path d="M5.088 19V7.8H7.84V12.152H12.368V7.8H15.12V19H12.368V14.568H7.84V19H5.088ZM20.7311 19V14.76L16.1871 7.8H19.3551L22.1871 12.392L25.0511 7.8H28.0431L23.4831 14.744V19H20.7311ZM39.2541 13.352C39.2541 14.184 39.1155 14.9573 38.8381 15.672C38.5608 16.3867 38.1768 17.0053 37.6861 17.528C37.1955 18.04 36.6035 18.4453 35.9101 18.744C35.2275 19.032 34.4861 19.176 33.6861 19.176C32.8648 19.176 32.0915 19.0267 31.3661 18.728C30.6515 18.4293 30.0275 18.024 29.4941 17.512C28.9715 16.9893 28.5555 16.376 28.2461 15.672C27.9475 14.968 27.7981 14.2107 27.7981 13.4C27.7981 12.5893 27.9475 11.832 28.2461 11.128C28.5555 10.424 28.9715 9.816 29.4941 9.304C30.0168 8.78133 30.6355 8.37067 31.3501 8.072C32.0648 7.77333 32.8275 7.624 33.6381 7.624C34.5661 7.624 35.4515 7.816 36.2941 8.2C37.1368 8.57333 37.8195 9.10667 38.3421 9.8L36.4061 11.48C36.0541 11.0107 35.6381 10.6587 35.1581 10.424C34.6888 10.1893 34.1821 10.072 33.6381 10.072C33.2115 10.072 32.8115 10.1573 32.4381 10.328C32.0755 10.4987 31.7608 10.7333 31.4941 11.032C31.2275 11.32 31.0195 11.672 30.8701 12.088C30.7208 12.4933 30.6461 12.9307 30.6461 13.4C30.6461 13.88 30.7208 14.328 30.8701 14.744C31.0301 15.1493 31.2488 15.5013 31.5261 15.8C31.8035 16.0987 32.1288 16.3333 32.5021 16.504C32.8861 16.6747 33.2968 16.76 33.7341 16.76C34.3635 16.76 34.9075 16.584 35.3661 16.232C35.8355 15.88 36.1448 15.432 36.2941 14.888H33.4941V12.568H39.2541V13.352ZM41.0568 19V7.8H43.8088V19H41.0568ZM46.1386 19V7.8H54.6026V10.104H48.8906V12.232H52.9226V14.472H48.8906V16.696H54.6666V19H46.1386ZM56.8261 7.8H59.4181L64.3941 14.584L64.3461 7.8H66.9381V19H64.5061L59.3701 11.992L59.4181 19H56.8261V7.8ZM69.2755 19V7.8H72.0275V19H69.2755ZM73.4454 10.152V7.8H83.4134V10.152H79.8134V19H77.0614V10.152H73.4454ZM84.998 19V7.8H93.462V10.104H87.75V12.232H91.782V14.472H87.75V16.696H93.526V19H84.998ZM100.595 16.696C101.096 16.696 101.56 16.5787 101.987 16.344C102.414 16.1093 102.803 15.7627 103.155 15.304L104.963 17.016C104.472 17.656 103.822 18.1733 103.011 18.568C102.2 18.9627 101.363 19.16 100.499 19.16C99.667 19.16 98.8883 19.0107 98.163 18.712C97.4377 18.4133 96.8137 18.008 96.291 17.496C95.7683 16.984 95.3523 16.376 95.043 15.672C94.7443 14.968 94.595 14.2107 94.595 13.4C94.595 12.5893 94.7443 11.832 95.043 11.128C95.3523 10.4133 95.7683 9.8 96.291 9.288C96.8243 8.776 97.4483 8.37067 98.163 8.072C98.8883 7.77333 99.667 7.624 100.499 7.624C101.395 7.624 102.254 7.82133 103.075 8.216C103.896 8.61067 104.552 9.13867 105.043 9.8L103.187 11.56C102.824 11.0693 102.414 10.7013 101.955 10.456C101.507 10.2 101.022 10.072 100.499 10.072C100.062 10.072 99.6563 10.1573 99.283 10.328C98.9097 10.4987 98.5843 10.7333 98.307 11.032C98.0403 11.32 97.827 11.672 97.667 12.088C97.5177 12.4933 97.443 12.9307 97.443 13.4C97.443 13.8693 97.523 14.3067 97.683 14.712C97.843 15.1173 98.0617 15.4693 98.339 15.768C98.627 16.056 98.963 16.2853 99.347 16.456C99.731 16.616 100.147 16.696 100.595 16.696ZM106.479 19V7.8H109.231V12.152H113.759V7.8H116.511V19H113.759V14.568H109.231V19H106.479Z" fill="black"/>
</g>
<path d="M5.088 19H4.888V19.2H5.088V19ZM5.088 7.8V7.6H4.888V7.8H5.088ZM7.84 7.8H8.04V7.6H7.84V7.8ZM7.84 12.152H7.64V12.352H7.84V12.152ZM12.368 12.152V12.352H12.568V12.152H12.368ZM12.368 7.8V7.6H12.168V7.8H12.368ZM15.12 7.8H15.32V7.6H15.12V7.8ZM15.12 19V19.2H15.32V19H15.12ZM12.368 19H12.168V19.2H12.368V19ZM12.368 14.568H12.568V14.368H12.368V14.568ZM7.84 14.568V14.368H7.64V14.568H7.84ZM7.84 19V19.2H8.04V19H7.84ZM5.288 19V7.8H4.888V19H5.288ZM5.088 8H7.84V7.6H5.088V8ZM7.64 7.8V12.152H8.04V7.8H7.64ZM7.84 12.352H12.368V11.952H7.84V12.352ZM12.568 12.152V7.8H12.168V12.152H12.568ZM12.368 8H15.12V7.6H12.368V8ZM14.92 7.8V19H15.32V7.8H14.92ZM15.12 18.8H12.368V19.2H15.12V18.8ZM12.568 19V14.568H12.168V19H12.568ZM12.368 14.368H7.84V14.768H12.368V14.368ZM7.64 14.568V19H8.04V14.568H7.64ZM7.84 18.8H5.088V19.2H7.84V18.8ZM20.7311 19H20.5311V19.2H20.7311V19ZM20.7311 14.76H20.9311V14.7005L20.8986 14.6507L20.7311 14.76ZM16.1871 7.8V7.6H15.8177L16.0197 7.90933L16.1871 7.8ZM19.3551 7.8L19.5254 7.69501L19.4668 7.6H19.3551V7.8ZM22.1871 12.392L22.0169 12.497L22.1862 12.7715L22.3568 12.4978L22.1871 12.392ZM25.0511 7.8V7.6H24.9402L24.8814 7.69416L25.0511 7.8ZM28.0431 7.8L28.2103 7.90978L28.4137 7.6H28.0431V7.8ZM23.4831 14.744L23.3159 14.6342L23.2831 14.6842V14.744H23.4831ZM23.4831 19V19.2H23.6831V19H23.4831ZM20.9311 19V14.76H20.5311V19H20.9311ZM20.8986 14.6507L16.3546 7.69066L16.0197 7.90933L20.5637 14.8693L20.8986 14.6507ZM16.1871 8H19.3551V7.6H16.1871V8ZM19.1849 7.90498L22.0169 12.497L22.3574 12.287L19.5254 7.69501L19.1849 7.90498ZM22.3568 12.4978L25.2208 7.90584L24.8814 7.69416L22.0174 12.2862L22.3568 12.4978ZM25.0511 8H28.0431V7.6H25.0511V8ZM27.8759 7.69022L23.3159 14.6342L23.6503 14.8538L28.2103 7.90978L27.8759 7.69022ZM23.2831 14.744V19H23.6831V14.744H23.2831ZM23.4831 18.8H20.7311V19.2H23.4831V18.8ZM38.8381 15.672L38.6517 15.5996L38.6517 15.5996L38.8381 15.672ZM37.6861 17.528L37.8305 17.6664L37.8319 17.6649L37.6861 17.528ZM35.9101 18.744L35.9879 18.9283L35.9893 18.9277L35.9101 18.744ZM31.3661 18.728L31.289 18.9125L31.29 18.9129L31.3661 18.728ZM29.4941 17.512L29.3527 17.6535L29.3556 17.6563L29.4941 17.512ZM28.2461 15.672L28.062 15.7501L28.063 15.7525L28.2461 15.672ZM28.2461 11.128L28.063 11.0475L28.062 11.0499L28.2461 11.128ZM29.4941 9.304L29.6341 9.44688L29.6355 9.44542L29.4941 9.304ZM31.3501 8.072L31.4272 8.25653L31.4272 8.25653L31.3501 8.072ZM36.2941 8.2L36.2112 8.382L36.2131 8.38286L36.2941 8.2ZM38.3421 9.8L38.4732 9.95105L38.6142 9.82869L38.5018 9.67961L38.3421 9.8ZM36.4061 11.48L36.2461 11.6L36.375 11.7718L36.5372 11.6311L36.4061 11.48ZM35.1581 10.424L35.0687 10.6029L35.0703 10.6037L35.1581 10.424ZM32.4381 10.328L32.355 10.1461L32.353 10.147L32.4381 10.328ZM31.4941 11.032L31.6409 11.1679L31.6433 11.1652L31.4941 11.032ZM30.8701 12.088L31.0578 12.1571L31.0584 12.1556L30.8701 12.088ZM30.8701 14.744L30.6818 14.8116L30.6841 14.8174L30.8701 14.744ZM31.5261 15.8L31.6727 15.6639L31.6727 15.6639L31.5261 15.8ZM32.5021 16.504L32.419 16.6859L32.4209 16.6868L32.5021 16.504ZM35.3661 16.232L35.2461 16.072L35.2444 16.0733L35.3661 16.232ZM36.2941 14.888L36.487 14.9409L36.5564 14.688H36.2941V14.888ZM33.4941 14.888H33.2941V15.088H33.4941V14.888ZM33.4941 12.568V12.368H33.2941V12.568H33.4941ZM39.2541 12.568H39.4541V12.368H39.2541V12.568ZM39.0541 13.352C39.0541 14.1614 38.9193 14.9099 38.6517 15.5996L39.0246 15.7444C39.3116 15.0047 39.4541 14.2066 39.4541 13.352H39.0541ZM38.6517 15.5996C38.383 16.2921 38.0122 16.8884 37.5403 17.3911L37.8319 17.6649C38.3414 17.1222 38.7386 16.4813 39.0246 15.7444L38.6517 15.5996ZM37.5417 17.3896C37.0707 17.8811 36.5014 18.2715 35.831 18.5603L35.9893 18.9277C36.7055 18.6191 37.3202 18.1989 37.8305 17.6664L37.5417 17.3896ZM35.8324 18.5597C35.1762 18.8365 34.4616 18.976 33.6861 18.976V19.376C34.5107 19.376 35.2787 19.2275 35.9879 18.9283L35.8324 18.5597ZM33.6861 18.976C32.8897 18.976 32.1423 18.8313 31.4423 18.5431L31.29 18.9129C32.0406 19.222 32.8399 19.376 33.6861 19.376V18.976ZM31.4432 18.5435C30.7502 18.2539 30.1473 17.8618 29.6326 17.3677L29.3556 17.6563C29.9076 18.1862 30.5527 18.6048 31.289 18.9125L31.4432 18.5435ZM29.6355 17.3706C29.1311 16.8662 28.729 16.2737 28.4292 15.5915L28.063 15.7525C28.3819 16.4783 28.8118 17.1125 29.3527 17.6534L29.6355 17.3706ZM28.4302 15.5939C28.1427 14.9161 27.9981 14.1855 27.9981 13.4H27.5981C27.5981 14.2359 27.7522 15.0199 28.062 15.7501L28.4302 15.5939ZM27.9981 13.4C27.9981 12.6145 28.1427 11.8839 28.4302 11.2061L28.062 11.0499C27.7522 11.7801 27.5981 12.5641 27.5981 13.4H27.9981ZM28.4292 11.2085C28.7288 10.5266 29.1306 9.94011 29.6341 9.44687L29.3542 9.16113C28.8123 9.69189 28.3821 10.3214 28.063 11.0475L28.4292 11.2085ZM29.6355 9.44542C30.1389 8.94205 30.7354 8.54564 31.4272 8.25653L31.273 7.88747C30.5355 8.19569 29.8947 8.62061 29.3527 9.16258L29.6355 9.44542ZM31.4272 8.25653C32.1163 7.96855 32.8527 7.824 33.6381 7.824V7.424C32.8022 7.424 32.0132 7.57812 31.273 7.88747L31.4272 8.25653ZM33.6381 7.824C34.5376 7.824 35.3946 8.00989 36.2112 8.38199L36.3771 8.01801C35.5083 7.62211 34.5947 7.424 33.6381 7.424V7.824ZM36.2131 8.38286C37.0266 8.74328 37.6815 9.25591 38.1824 9.92039L38.5018 9.67961C37.9574 8.95742 37.2469 8.40339 36.3751 8.01714L36.2131 8.38286ZM38.211 9.64894L36.275 11.3289L36.5372 11.6311L38.4732 9.95105L38.211 9.64894ZM36.5661 11.36C36.197 10.8679 35.7571 10.4942 35.246 10.2443L35.0703 10.6037C35.5191 10.8231 35.9112 11.1535 36.2461 11.6L36.5661 11.36ZM35.2476 10.2451C34.7494 9.99605 34.212 9.872 33.6381 9.872V10.272C34.1523 10.272 34.6282 10.3826 35.0687 10.6029L35.2476 10.2451ZM33.6381 9.872C33.1839 9.872 32.7554 9.96303 32.355 10.1461L32.5213 10.5099C32.8675 10.3516 33.239 10.272 33.6381 10.272V9.872ZM32.353 10.147C31.966 10.3291 31.6295 10.58 31.3449 10.8988L31.6433 11.1652C31.892 10.8866 32.1849 10.6682 32.5233 10.509L32.353 10.147ZM31.3474 10.8961C31.0603 11.2062 30.8392 11.5823 30.6819 12.0204L31.0584 12.1556C31.1998 11.7617 31.3947 11.4338 31.6409 11.1679L31.3474 10.8961ZM30.6825 12.0189C30.5243 12.4482 30.4461 12.9091 30.4461 13.4H30.8461C30.8461 12.9522 30.9173 12.5385 31.0578 12.1571L30.6825 12.0189ZM30.4461 13.4C30.4461 13.9011 30.5241 14.3721 30.6819 14.8116L31.0584 14.6764C30.9175 14.2839 30.8461 13.8589 30.8461 13.4H30.4461ZM30.6841 14.8174C30.8526 15.2443 31.0841 15.6179 31.3796 15.9361L31.6727 15.6639C31.4134 15.3847 31.2077 15.0544 31.0562 14.6706L30.6841 14.8174ZM31.3796 15.9361C31.6749 16.2542 32.0219 16.5044 32.419 16.6859L32.5853 16.3221C32.2357 16.1623 31.932 15.9431 31.6727 15.6639L31.3796 15.9361ZM32.4209 16.6868C32.8315 16.8693 33.27 16.96 33.7341 16.96V16.56C33.3236 16.56 32.9407 16.4801 32.5834 16.3212L32.4209 16.6868ZM33.7341 16.96C34.4034 16.96 34.9911 16.7719 35.4879 16.3907L35.2444 16.0733C34.8238 16.3961 34.3236 16.56 33.7341 16.56V16.96ZM35.4861 16.392C35.9894 16.0145 36.3254 15.5295 36.487 14.9409L36.1013 14.8351C35.9642 15.3345 35.6815 15.7455 35.2461 16.072L35.4861 16.392ZM36.2941 14.688H33.4941V15.088H36.2941V14.688ZM33.6941 14.888V12.568H33.2941V14.888H33.6941ZM33.4941 12.768H39.2541V12.368H33.4941V12.768ZM39.0541 12.568V13.352H39.4541V12.568H39.0541ZM41.0568 19H40.8568V19.2H41.0568V19ZM41.0568 7.8V7.6H40.8568V7.8H41.0568ZM43.8088 7.8H44.0088V7.6H43.8088V7.8ZM43.8088 19V19.2H44.0088V19H43.8088ZM41.2568 19V7.8H40.8568V19H41.2568ZM41.0568 8H43.8088V7.6H41.0568V8ZM43.6088 7.8V19H44.0088V7.8H43.6088ZM43.8088 18.8H41.0568V19.2H43.8088V18.8ZM46.1386 19H45.9386V19.2H46.1386V19ZM46.1386 7.8V7.6H45.9386V7.8H46.1386ZM54.6026 7.8H54.8026V7.6H54.6026V7.8ZM54.6026 10.104V10.304H54.8026V10.104H54.6026ZM48.8906 10.104V9.904H48.6906V10.104H48.8906ZM48.8906 12.232H48.6906V12.432H48.8906V12.232ZM52.9226 12.232H53.1226V12.032H52.9226V12.232ZM52.9226 14.472V14.672H53.1226V14.472H52.9226ZM48.8906 14.472V14.272H48.6906V14.472H48.8906ZM48.8906 16.696H48.6906V16.896H48.8906V16.696ZM54.6666 16.696H54.8666V16.496H54.6666V16.696ZM54.6666 19V19.2H54.8666V19H54.6666ZM46.3386 19V7.8H45.9386V19H46.3386ZM46.1386 8H54.6026V7.6H46.1386V8ZM54.4026 7.8V10.104H54.8026V7.8H54.4026ZM54.6026 9.904H48.8906V10.304H54.6026V9.904ZM48.6906 10.104V12.232H49.0906V10.104H48.6906ZM48.8906 12.432H52.9226V12.032H48.8906V12.432ZM52.7226 12.232V14.472H53.1226V12.232H52.7226ZM52.9226 14.272H48.8906V14.672H52.9226V14.272ZM48.6906 14.472V16.696H49.0906V14.472H48.6906ZM48.8906 16.896H54.6666V16.496H48.8906V16.896ZM54.4666 16.696V19H54.8666V16.696H54.4666ZM54.6666 18.8H46.1386V19.2H54.6666V18.8ZM56.8261 7.8V7.6H56.6261V7.8H56.8261ZM59.4181 7.8L59.5794 7.68171L59.5195 7.6H59.4181V7.8ZM64.3941 14.584L64.2329 14.7023L64.5985 15.2008L64.5941 14.5826L64.3941 14.584ZM64.3461 7.8V7.6H64.1447L64.1461 7.80141L64.3461 7.8ZM66.9381 7.8H67.1381V7.6H66.9381V7.8ZM66.9381 19V19.2H67.1381V19H66.9381ZM64.5061 19L64.3448 19.1182L64.4047 19.2H64.5061V19ZM59.3701 11.992L59.5314 11.8738L59.1659 11.375L59.1701 11.9934L59.3701 11.992ZM59.4181 19V19.2H59.6195L59.6181 18.9986L59.4181 19ZM56.8261 19H56.6261V19.2H56.8261V19ZM56.8261 8H59.4181V7.6H56.8261V8ZM59.2569 7.91829L64.2329 14.7023L64.5554 14.4657L59.5794 7.68171L59.2569 7.91829ZM64.5941 14.5826L64.5461 7.79858L64.1461 7.80141L64.1941 14.5854L64.5941 14.5826ZM64.3461 8H66.9381V7.6H64.3461V8ZM66.7381 7.8V19H67.1381V7.8H66.7381ZM66.9381 18.8H64.5061V19.2H66.9381V18.8ZM64.6674 18.8818L59.5314 11.8738L59.2088 12.1102L64.3448 19.1182L64.6674 18.8818ZM59.1701 11.9934L59.2181 19.0014L59.6181 18.9986L59.5701 11.9906L59.1701 11.9934ZM59.4181 18.8H56.8261V19.2H59.4181V18.8ZM57.0261 19V7.8H56.6261V19H57.0261ZM69.2755 19H69.0755V19.2H69.2755V19ZM69.2755 7.8V7.6H69.0755V7.8H69.2755ZM72.0275 7.8H72.2275V7.6H72.0275V7.8ZM72.0275 19V19.2H72.2275V19H72.0275ZM69.4755 19V7.8H69.0755V19H69.4755ZM69.2755 8H72.0275V7.6H69.2755V8ZM71.8275 7.8V19H72.2275V7.8H71.8275ZM72.0275 18.8H69.2755V19.2H72.0275V18.8ZM73.4454 10.152H73.2454V10.352H73.4454V10.152ZM73.4454 7.8V7.6H73.2454V7.8H73.4454ZM83.4134 7.8H83.6134V7.6H83.4134V7.8ZM83.4134 10.152V10.352H83.6134V10.152H83.4134ZM79.8134 10.152V9.952H79.6134V10.152H79.8134ZM79.8134 19V19.2H80.0134V19H79.8134ZM77.0614 19H76.8614V19.2H77.0614V19ZM77.0614 10.152H77.2614V9.952H77.0614V10.152ZM73.6454 10.152V7.8H73.2454V10.152H73.6454ZM73.4454 8H83.4134V7.6H73.4454V8ZM83.2134 7.8V10.152H83.6134V7.8H83.2134ZM83.4134 9.952H79.8134V10.352H83.4134V9.952ZM79.6134 10.152V19H80.0134V10.152H79.6134ZM79.8134 18.8H77.0614V19.2H79.8134V18.8ZM77.2614 19V10.152H76.8614V19H77.2614ZM77.0614 9.952H73.4454V10.352H77.0614V9.952ZM84.998 19H84.798V19.2H84.998V19ZM84.998 7.8V7.6H84.798V7.8H84.998ZM93.462 7.8H93.662V7.6H93.462V7.8ZM93.462 10.104V10.304H93.662V10.104H93.462ZM87.75 10.104V9.904H87.55V10.104H87.75ZM87.75 12.232H87.55V12.432H87.75V12.232ZM91.782 12.232H91.982V12.032H91.782V12.232ZM91.782 14.472V14.672H91.982V14.472H91.782ZM87.75 14.472V14.272H87.55V14.472H87.75ZM87.75 16.696H87.55V16.896H87.75V16.696ZM93.526 16.696H93.726V16.496H93.526V16.696ZM93.526 19V19.2H93.726V19H93.526ZM85.198 19V7.8H84.798V19H85.198ZM84.998 8H93.462V7.6H84.998V8ZM93.262 7.8V10.104H93.662V7.8H93.262ZM93.462 9.904H87.75V10.304H93.462V9.904ZM87.55 10.104V12.232H87.95V10.104H87.55ZM87.75 12.432H91.782V12.032H87.75V12.432ZM91.582 12.232V14.472H91.982V12.232H91.582ZM91.782 14.272H87.75V14.672H91.782V14.272ZM87.55 14.472V16.696H87.95V14.472H87.55ZM87.75 16.896H93.526V16.496H87.75V16.896ZM93.326 16.696V19H93.726V16.696H93.326ZM93.526 18.8H84.998V19.2H93.526V18.8ZM103.155 15.304L103.293 15.1588L103.131 15.0062L102.996 15.1822L103.155 15.304ZM104.963 17.016L105.122 17.1377L105.231 16.9947L105.101 16.8708L104.963 17.016ZM103.011 18.568L103.099 18.7478L103.099 18.7478L103.011 18.568ZM98.163 18.712L98.0869 18.8969L98.0869 18.8969L98.163 18.712ZM96.291 17.496L96.431 17.3531L96.431 17.3531L96.291 17.496ZM95.043 15.672L94.8589 15.7501L94.8599 15.7525L95.043 15.672ZM95.043 11.128L94.8595 11.0486L94.8589 11.0499L95.043 11.128ZM96.291 9.288L96.1525 9.14371L96.151 9.14513L96.291 9.288ZM98.163 8.072L98.0868 7.88706L98.0859 7.88747L98.163 8.072ZM103.075 8.216L103.162 8.03573L103.162 8.03573L103.075 8.216ZM105.043 9.8L105.181 9.94512L105.309 9.82317L105.204 9.68083L105.043 9.8ZM103.187 11.56L103.026 11.6789L103.161 11.8607L103.325 11.7051L103.187 11.56ZM101.955 10.456L101.856 10.6297L101.861 10.6324L101.955 10.456ZM99.283 10.328L99.1998 10.1461L99.1998 10.1461L99.283 10.328ZM98.307 11.032L98.1604 10.8959L98.1602 10.8961L98.307 11.032ZM97.667 12.088L97.4803 12.0162L97.4793 12.0189L97.667 12.088ZM97.683 14.712L97.497 14.7854L97.497 14.7854L97.683 14.712ZM98.339 15.768L98.1923 15.9042L98.1976 15.9094L98.339 15.768ZM99.347 16.456L99.2658 16.6388L99.2701 16.6406L99.347 16.456ZM100.595 16.896C101.129 16.896 101.626 16.7706 102.083 16.5192L101.891 16.1688C101.494 16.3867 101.064 16.496 100.595 16.496V16.896ZM102.083 16.5192C102.538 16.269 102.948 15.9023 103.314 15.4258L102.996 15.1822C102.658 15.623 102.289 15.9497 101.891 16.1688L102.083 16.5192ZM103.017 15.4492L104.825 17.1612L105.101 16.8708L103.293 15.1588L103.017 15.4492ZM104.804 16.8943C104.335 17.5069 103.71 18.0055 102.923 18.3882L103.099 18.7478C103.934 18.3412 104.61 17.8051 105.122 17.1377L104.804 16.8943ZM102.923 18.3882C102.139 18.7702 101.331 18.96 100.499 18.96V19.36C101.395 19.36 102.262 19.1552 103.099 18.7478L102.923 18.3882ZM100.499 18.96C99.6915 18.96 98.9389 18.8152 98.2392 18.5271L98.0869 18.8969C98.8378 19.2061 99.6425 19.36 100.499 19.36V18.96ZM98.2392 18.5271C97.5359 18.2375 96.934 17.8459 96.431 17.3531L96.151 17.6389C96.6934 18.1701 97.3395 18.5892 98.0869 18.8969L98.2392 18.5271ZM96.431 17.3531C95.9274 16.8599 95.5257 16.2734 95.2261 15.5915L94.8599 15.7525C95.179 16.4786 95.6092 17.1081 96.151 17.6389L96.431 17.3531ZM95.2271 15.5939C94.9396 14.9161 94.795 14.1855 94.795 13.4H94.395C94.395 14.2359 94.5491 15.0199 94.8589 15.7501L95.2271 15.5939ZM94.795 13.4C94.795 12.6145 94.9396 11.8839 95.2271 11.2061L94.8589 11.0499C94.5491 11.7801 94.395 12.5641 94.395 13.4H94.795ZM95.2265 11.2074C95.5263 10.515 95.928 9.92361 96.431 9.43087L96.151 9.14513C95.6087 9.67639 95.1784 10.3117 94.8595 11.0486L95.2265 11.2074ZM96.4295 9.43228C96.9442 8.93818 97.5471 8.54614 98.2401 8.25653L98.0859 7.88747C97.3495 8.19519 96.7045 8.61382 96.1525 9.14372L96.4295 9.43228ZM98.2392 8.25694C98.9389 7.96881 99.6915 7.824 100.499 7.824V7.424C99.6425 7.424 98.8378 7.57786 98.0869 7.88706L98.2392 8.25694ZM100.499 7.824C101.364 7.824 102.194 8.01436 102.988 8.39627L103.162 8.03573C102.314 7.62831 101.426 7.424 100.499 7.424V7.824ZM102.988 8.39627C103.784 8.7784 104.413 9.28659 104.882 9.91917L105.204 9.68083C104.692 8.99074 104.009 8.44293 103.162 8.03573L102.988 8.39627ZM104.905 9.65487L103.049 11.4149L103.325 11.7051L105.181 9.94512L104.905 9.65487ZM103.348 11.4411C102.971 10.9307 102.538 10.5412 102.049 10.2796L101.861 10.6324C102.289 10.8615 102.678 11.208 103.026 11.6789L103.348 11.4411ZM102.054 10.2824C101.576 10.0088 101.056 9.872 100.499 9.872V10.272C100.987 10.272 101.438 10.3911 101.856 10.6296L102.054 10.2824ZM100.499 9.872C100.035 9.872 99.601 9.96274 99.1998 10.1461L99.3662 10.5099C99.7117 10.3519 100.088 10.272 100.499 10.272V9.872ZM99.1998 10.1461C98.8027 10.3276 98.4558 10.5778 98.1604 10.8959L98.4536 11.1681C98.7128 10.8889 99.0166 10.6697 99.3662 10.5099L99.1998 10.1461ZM98.1602 10.8961C97.8741 11.2051 97.6482 11.5797 97.4803 12.0162L97.8537 12.1598C98.0058 11.7643 98.2065 11.4349 98.4538 11.1679L98.1602 10.8961ZM97.4793 12.0189C97.3212 12.4482 97.243 12.9091 97.243 13.4H97.643C97.643 12.9522 97.7142 12.5385 97.8547 12.1571L97.4793 12.0189ZM97.243 13.4C97.243 13.8925 97.327 14.355 97.497 14.7854L97.869 14.6386C97.719 14.2584 97.643 13.8461 97.643 13.4H97.243ZM97.497 14.7854C97.6655 15.2123 97.897 15.5859 98.1924 15.9041L98.4856 15.6319C98.2263 15.3527 98.0205 15.0224 97.869 14.6386L97.497 14.7854ZM98.1976 15.9094C98.5035 16.2153 98.8601 16.4584 99.2658 16.6388L99.4282 16.2732C99.0659 16.1122 98.7505 15.8967 98.4804 15.6266L98.1976 15.9094ZM99.2701 16.6406C99.6803 16.8115 100.123 16.896 100.595 16.896V16.496C100.171 16.496 99.7817 16.4205 99.4239 16.2714L99.2701 16.6406ZM106.479 19H106.279V19.2H106.479V19ZM106.479 7.8V7.6H106.279V7.8H106.479ZM109.231 7.8H109.431V7.6H109.231V7.8ZM109.231 12.152H109.031V12.352H109.231V12.152ZM113.759 12.152V12.352H113.959V12.152H113.759ZM113.759 7.8V7.6H113.559V7.8H113.759ZM116.511 7.8H116.711V7.6H116.511V7.8ZM116.511 19V19.2H116.711V19H116.511ZM113.759 19H113.559V19.2H113.759V19ZM113.759 14.568H113.959V14.368H113.759V14.568ZM109.231 14.568V14.368H109.031V14.568H109.231ZM109.231 19V19.2H109.431V19H109.231ZM106.679 19V7.8H106.279V19H106.679ZM106.479 8H109.231V7.6H106.479V8ZM109.031 7.8V12.152H109.431V7.8H109.031ZM109.231 12.352H113.759V11.952H109.231V12.352ZM113.959 12.152V7.8H113.559V12.152H113.959ZM113.759 8H116.511V7.6H113.759V8ZM116.311 7.8V19H116.711V7.8H116.311ZM116.511 18.8H113.759V19.2H116.511V18.8ZM113.959 19V14.568H113.559V19H113.959ZM113.759 14.368H109.231V14.768H113.759V14.368ZM109.031 14.568V19H109.431V14.568H109.031ZM109.231 18.8H106.479V19.2H109.231V18.8Z" fill="white"/>
<g filter="url(#filter2_i)">
<path d="M10.383 23.85L9.708 22.563V24H9.234V21.9H9.882L10.389 22.908L10.893 21.9H11.541V24H11.055V22.575L10.383 23.85ZM11.7804 24L12.5994 21.9H13.1874L13.9944 24H13.4364L13.2624 23.499H12.4944L12.3174 24H11.7804ZM12.6354 23.1H13.1244L12.8814 22.404L12.6354 23.1ZM13.7036 22.341V21.9H15.5726V22.341H14.8976V24H14.3816V22.341H13.7036ZM15.728 22.341V21.9H17.597V22.341H16.922V24H16.406V22.341H15.728ZM17.8942 24V21.9H18.9142C19.0222 21.9 19.1212 21.917 19.2112 21.951C19.3032 21.983 19.3812 22.029 19.4452 22.089C19.5112 22.147 19.5622 22.217 19.5982 22.299C19.6362 22.381 19.6552 22.471 19.6552 22.569C19.6552 22.701 19.6192 22.819 19.5472 22.923C19.4772 23.027 19.3832 23.105 19.2652 23.157L19.7062 24H19.1302L18.7492 23.229H18.4102V24H17.8942ZM18.8662 22.326H18.4102V22.824H18.8662C18.9462 22.824 19.0102 22.801 19.0582 22.755C19.1082 22.709 19.1332 22.649 19.1332 22.575C19.1332 22.501 19.1082 22.441 19.0582 22.395C19.0102 22.349 18.9462 22.326 18.8662 22.326ZM20.0035 24V21.9H21.5905V22.332H20.5195V22.731H21.2755V23.151H20.5195V23.568H21.6025V24H20.0035ZM21.8304 23.712L22.0944 23.331C22.2384 23.433 22.3624 23.505 22.4664 23.547C22.5704 23.589 22.6734 23.61 22.7754 23.61C22.8854 23.61 22.9724 23.59 23.0364 23.55C23.1004 23.508 23.1324 23.455 23.1324 23.391C23.1324 23.329 23.1114 23.282 23.0694 23.25C23.0294 23.218 22.9584 23.192 22.8564 23.172L22.4094 23.094C22.2434 23.062 22.1154 22.997 22.0254 22.899C21.9374 22.801 21.8934 22.679 21.8934 22.533C21.8934 22.331 21.9674 22.17 22.1154 22.05C22.2634 21.93 22.4674 21.87 22.7274 21.87C22.8894 21.87 23.0464 21.895 23.1984 21.945C23.3504 21.993 23.4804 22.06 23.5884 22.146L23.3274 22.521C23.2254 22.443 23.1224 22.385 23.0184 22.347C22.9164 22.309 22.8104 22.29 22.7004 22.29C22.5984 22.29 22.5194 22.309 22.4634 22.347C22.4074 22.385 22.3794 22.432 22.3794 22.488C22.3794 22.54 22.3974 22.581 22.4334 22.611C22.4714 22.641 22.5324 22.663 22.6164 22.677L23.0364 22.749C23.2324 22.783 23.3814 22.851 23.4834 22.953C23.5854 23.053 23.6364 23.183 23.6364 23.343C23.6364 23.545 23.5554 23.71 23.3934 23.838C23.2314 23.966 23.0134 24.03 22.7394 24.03C22.5734 24.03 22.4144 24.003 22.2624 23.949C22.1124 23.893 21.9684 23.814 21.8304 23.712ZM23.8256 23.712L24.0896 23.331C24.2336 23.433 24.3576 23.505 24.4616 23.547C24.5656 23.589 24.6686 23.61 24.7706 23.61C24.8806 23.61 24.9676 23.59 25.0316 23.55C25.0956 23.508 25.1276 23.455 25.1276 23.391C25.1276 23.329 25.1066 23.282 25.0646 23.25C25.0246 23.218 24.9536 23.192 24.8516 23.172L24.4046 23.094C24.2386 23.062 24.1106 22.997 24.0206 22.899C23.9326 22.801 23.8886 22.679 23.8886 22.533C23.8886 22.331 23.9626 22.17 24.1106 22.05C24.2586 21.93 24.4626 21.87 24.7226 21.87C24.8846 21.87 25.0416 21.895 25.1936 21.945C25.3456 21.993 25.4756 22.06 25.5836 22.146L25.3226 22.521C25.2206 22.443 25.1176 22.385 25.0136 22.347C24.9116 22.309 24.8056 22.29 24.6956 22.29C24.5936 22.29 24.5146 22.309 24.4586 22.347C24.4026 22.385 24.3746 22.432 24.3746 22.488C24.3746 22.54 24.3926 22.581 24.4286 22.611C24.4666 22.641 24.5276 22.663 24.6116 22.677L25.0316 22.749C25.2276 22.783 25.3766 22.851 25.4786 22.953C25.5806 23.053 25.6316 23.183 25.6316 23.343C25.6316 23.545 25.5506 23.71 25.3886 23.838C25.2266 23.966 25.0086 24.03 24.7346 24.03C24.5686 24.03 24.4096 24.003 24.2576 23.949C24.1076 23.893 23.9636 23.814 23.8256 23.712ZM26.3849 24L27.2039 21.9H27.7919L28.5989 24H28.0409L27.8669 23.499H27.0989L26.9219 24H26.3849ZM27.2399 23.1H27.7289L27.4859 22.404L27.2399 23.1ZM28.8395 21.9H29.3255L30.2585 23.172L30.2495 21.9H30.7355V24H30.2795L29.3165 22.686L29.3255 24H28.8395V21.9ZM31.2037 24V21.9H32.0587C32.2047 21.9 32.3417 21.928 32.4697 21.984C32.5997 22.038 32.7117 22.112 32.8057 22.206C32.9017 22.3 32.9767 22.412 33.0307 22.542C33.0867 22.67 33.1147 22.808 33.1147 22.956C33.1147 23.1 33.0867 23.236 33.0307 23.364C32.9767 23.492 32.9017 23.603 32.8057 23.697C32.7117 23.791 32.5997 23.865 32.4697 23.919C32.3417 23.973 32.2047 24 32.0587 24H31.2037ZM32.0587 22.341H31.7197V23.559H32.0587C32.1307 23.559 32.1987 23.544 32.2627 23.514C32.3267 23.482 32.3817 23.439 32.4277 23.385C32.4757 23.331 32.5127 23.267 32.5387 23.193C32.5667 23.119 32.5807 23.04 32.5807 22.956C32.5807 22.87 32.5667 22.79 32.5387 22.716C32.5127 22.64 32.4757 22.575 32.4277 22.521C32.3817 22.465 32.3267 22.421 32.2627 22.389C32.1987 22.357 32.1307 22.341 32.0587 22.341ZM35.9486 23.088C35.9486 23.23 35.9266 23.359 35.8826 23.475C35.8386 23.591 35.7756 23.69 35.6936 23.772C35.6136 23.854 35.5156 23.918 35.3996 23.964C35.2856 24.008 35.1576 24.03 35.0156 24.03C34.8736 24.03 34.7446 24.008 34.6286 23.964C34.5146 23.92 34.4176 23.857 34.3376 23.775C34.2576 23.693 34.1956 23.594 34.1516 23.478C34.1076 23.362 34.0856 23.232 34.0856 23.088V21.9H34.6016V23.088C34.6016 23.232 34.6396 23.348 34.7156 23.436C34.7916 23.524 34.8926 23.568 35.0186 23.568C35.1446 23.568 35.2446 23.524 35.3186 23.436C35.3946 23.348 35.4326 23.232 35.4326 23.088V21.9H35.9486V23.088ZM36.3746 24V21.9H37.4006C37.5126 21.9 37.6136 21.918 37.7036 21.954C37.7956 21.988 37.8736 22.036 37.9376 22.098C38.0036 22.158 38.0536 22.231 38.0876 22.317C38.1236 22.401 38.1416 22.493 38.1416 22.593C38.1416 22.687 38.1236 22.776 38.0876 22.86C38.0536 22.942 38.0036 23.013 37.9376 23.073C37.8736 23.133 37.7956 23.181 37.7036 23.217C37.6136 23.251 37.5126 23.268 37.4006 23.268H36.8906V24H36.3746ZM37.3106 22.326H36.8906V22.857H37.3076C37.4116 22.857 37.4896 22.832 37.5416 22.782C37.5936 22.73 37.6196 22.666 37.6196 22.59C37.6196 22.516 37.5936 22.454 37.5416 22.404C37.4896 22.352 37.4126 22.326 37.3106 22.326ZM38.4745 24V21.9H38.9905V22.716H39.8395V21.9H40.3555V24H39.8395V23.169H38.9905V24H38.4745ZM42.8626 22.95C42.8626 23.1 42.8346 23.242 42.7786 23.376C42.7226 23.508 42.6456 23.623 42.5476 23.721C42.4516 23.817 42.3376 23.893 42.2056 23.949C42.0736 24.005 41.9316 24.033 41.7796 24.033C41.6276 24.033 41.4846 24.005 41.3506 23.949C41.2186 23.893 41.1036 23.817 41.0056 23.721C40.9096 23.623 40.8336 23.508 40.7776 23.376C40.7216 23.242 40.6936 23.1 40.6936 22.95C40.6936 22.8 40.7216 22.659 40.7776 22.527C40.8336 22.393 40.9096 22.278 41.0056 22.182C41.1036 22.084 41.2186 22.007 41.3506 21.951C41.4846 21.895 41.6276 21.867 41.7796 21.867C41.9316 21.867 42.0736 21.895 42.2056 21.951C42.3376 22.007 42.4516 22.084 42.5476 22.182C42.6456 22.278 42.7226 22.393 42.7786 22.527C42.8346 22.659 42.8626 22.8 42.8626 22.95ZM42.3286 22.95C42.3286 22.862 42.3146 22.78 42.2866 22.704C42.2586 22.626 42.2196 22.56 42.1696 22.506C42.1216 22.45 42.0636 22.406 41.9956 22.374C41.9276 22.342 41.8546 22.326 41.7766 22.326C41.6986 22.326 41.6256 22.342 41.5576 22.374C41.4896 22.406 41.4306 22.45 41.3806 22.506C41.3326 22.56 41.2946 22.626 41.2666 22.704C41.2386 22.78 41.2246 22.862 41.2246 22.95C41.2246 23.038 41.2386 23.121 41.2666 23.199C41.2946 23.275 41.3326 23.341 41.3806 23.397C41.4306 23.451 41.4896 23.494 41.5576 23.526C41.6256 23.558 41.6986 23.574 41.7766 23.574C41.8546 23.574 41.9276 23.558 41.9956 23.526C42.0636 23.494 42.1216 23.451 42.1696 23.397C42.2196 23.341 42.2586 23.275 42.2866 23.199C42.3146 23.121 42.3286 23.038 42.3286 22.95ZM43.233 24V21.9H43.749V23.559H44.79V24H43.233ZM45.0013 23.712L45.2653 23.331C45.4093 23.433 45.5333 23.505 45.6373 23.547C45.7413 23.589 45.8443 23.61 45.9463 23.61C46.0563 23.61 46.1433 23.59 46.2073 23.55C46.2713 23.508 46.3033 23.455 46.3033 23.391C46.3033 23.329 46.2823 23.282 46.2403 23.25C46.2003 23.218 46.1293 23.192 46.0273 23.172L45.5803 23.094C45.4143 23.062 45.2863 22.997 45.1963 22.899C45.1083 22.801 45.0643 22.679 45.0643 22.533C45.0643 22.331 45.1383 22.17 45.2863 22.05C45.4343 21.93 45.6383 21.87 45.8983 21.87C46.0603 21.87 46.2173 21.895 46.3693 21.945C46.5213 21.993 46.6513 22.06 46.7593 22.146L46.4983 22.521C46.3963 22.443 46.2933 22.385 46.1893 22.347C46.0873 22.309 45.9813 22.29 45.8713 22.29C45.7693 22.29 45.6903 22.309 45.6343 22.347C45.5783 22.385 45.5503 22.432 45.5503 22.488C45.5503 22.54 45.5683 22.581 45.6043 22.611C45.6423 22.641 45.7033 22.663 45.7873 22.677L46.2073 22.749C46.4033 22.783 46.5523 22.851 46.6543 22.953C46.7563 23.053 46.8073 23.183 46.8073 23.343C46.8073 23.545 46.7263 23.71 46.5643 23.838C46.4023 23.966 46.1843 24.03 45.9103 24.03C45.7443 24.03 45.5853 24.003 45.4333 23.949C45.2833 23.893 45.1393 23.814 45.0013 23.712ZM46.9292 22.341V21.9H48.7982V22.341H48.1232V24H47.6072V22.341H46.9292ZM49.0953 24V21.9H50.6823V22.332H49.6113V22.731H50.3673V23.151H49.6113V23.568H50.6943V24H49.0953ZM51.0992 24V21.9H52.1192C52.2272 21.9 52.3262 21.917 52.4162 21.951C52.5082 21.983 52.5862 22.029 52.6502 22.089C52.7162 22.147 52.7672 22.217 52.8032 22.299C52.8412 22.381 52.8602 22.471 52.8602 22.569C52.8602 22.701 52.8242 22.819 52.7522 22.923C52.6822 23.027 52.5882 23.105 52.4702 23.157L52.9112 24H52.3352L51.9542 23.229H51.6152V24H51.0992ZM52.0712 22.326H51.6152V22.824H52.0712C52.1512 22.824 52.2152 22.801 52.2632 22.755C52.3132 22.709 52.3382 22.649 52.3382 22.575C52.3382 22.501 52.3132 22.441 52.2632 22.395C52.2152 22.349 52.1512 22.326 52.0712 22.326ZM53.7181 24V23.205L52.8661 21.9H53.4601L53.9911 22.761L54.5281 21.9H55.0891L54.2341 23.202V24H53.7181ZM56.9914 23.568C57.0854 23.568 57.1724 23.546 57.2524 23.502C57.3324 23.458 57.4054 23.393 57.4714 23.307L57.8104 23.628C57.7184 23.748 57.5964 23.845 57.4444 23.919C57.2924 23.993 57.1354 24.03 56.9734 24.03C56.8174 24.03 56.6714 24.002 56.5354 23.946C56.3994 23.89 56.2824 23.814 56.1844 23.718C56.0864 23.622 56.0084 23.508 55.9504 23.376C55.8944 23.244 55.8664 23.102 55.8664 22.95C55.8664 22.798 55.8944 22.656 55.9504 22.524C56.0084 22.39 56.0864 22.275 56.1844 22.179C56.2844 22.083 56.4014 22.007 56.5354 21.951C56.6714 21.895 56.8174 21.867 56.9734 21.867C57.1414 21.867 57.3024 21.904 57.4564 21.978C57.6104 22.052 57.7334 22.151 57.8254 22.275L57.4774 22.605C57.4094 22.513 57.3324 22.444 57.2464 22.398C57.1624 22.35 57.0714 22.326 56.9734 22.326C56.8914 22.326 56.8154 22.342 56.7454 22.374C56.6754 22.406 56.6144 22.45 56.5624 22.506C56.5124 22.56 56.4724 22.626 56.4424 22.704C56.4144 22.78 56.4004 22.862 56.4004 22.95C56.4004 23.038 56.4154 23.12 56.4454 23.196C56.4754 23.272 56.5164 23.338 56.5684 23.394C56.6224 23.448 56.6854 23.491 56.7574 23.523C56.8294 23.553 56.9074 23.568 56.9914 23.568ZM58.1246 24V21.9H58.6406V23.559H59.6816V24H58.1246ZM60.0699 24V21.9H61.6569V22.332H60.5859V22.731H61.3419V23.151H60.5859V23.568H61.6689V24H60.0699ZM61.8751 24L62.6941 21.9H63.2821L64.0891 24H63.5311L63.3571 23.499H62.5891L62.4121 24H61.8751ZM62.7301 23.1H63.2191L62.9761 22.404L62.7301 23.1ZM64.3297 21.9H64.8157L65.7487 23.172L65.7397 21.9H66.2257V24H65.7697L64.8067 22.686L64.8157 24H64.3297V21.9ZM66.664 24V21.9H67.18V24H66.664ZM67.6168 21.9H68.1028L69.0358 23.172L69.0268 21.9H69.5128V24H69.0568L68.0938 22.686L68.1028 24H67.6168V21.9ZM72.0301 22.941C72.0301 23.097 72.0041 23.242 71.9521 23.376C71.9001 23.51 71.8281 23.626 71.7361 23.724C71.6441 23.82 71.5331 23.896 71.4031 23.952C71.2751 24.006 71.1361 24.033 70.9861 24.033C70.8321 24.033 70.6871 24.005 70.5511 23.949C70.4171 23.893 70.3001 23.817 70.2001 23.721C70.1021 23.623 70.0241 23.508 69.9661 23.376C69.9101 23.244 69.8821 23.102 69.8821 22.95C69.8821 22.798 69.9101 22.656 69.9661 22.524C70.0241 22.392 70.1021 22.278 70.2001 22.182C70.2981 22.084 70.4141 22.007 70.5481 21.951C70.6821 21.895 70.8251 21.867 70.9771 21.867C71.1511 21.867 71.3171 21.903 71.4751 21.975C71.6331 22.045 71.7611 22.145 71.8591 22.275L71.4961 22.59C71.4301 22.502 71.3521 22.436 71.2621 22.392C71.1741 22.348 71.0791 22.326 70.9771 22.326C70.8971 22.326 70.8221 22.342 70.7521 22.374C70.6841 22.406 70.6251 22.45 70.5751 22.506C70.5251 22.56 70.4861 22.626 70.4581 22.704C70.4301 22.78 70.4161 22.862 70.4161 22.95C70.4161 23.04 70.4301 23.124 70.4581 23.202C70.4881 23.278 70.5291 23.344 70.5811 23.4C70.6331 23.456 70.6941 23.5 70.7641 23.532C70.8361 23.564 70.9131 23.58 70.9951 23.58C71.1131 23.58 71.2151 23.547 71.3011 23.481C71.3891 23.415 71.4471 23.331 71.4751 23.229H70.9501V22.794H72.0301V22.941ZM72.8146 24L73.6336 21.9H74.2216L75.0286 24H74.4706L74.2966 23.499H73.5286L73.3516 24H72.8146ZM73.6696 23.1H74.1586L73.9156 22.404L73.6696 23.1ZM75.2692 21.9H75.7552L76.6882 23.172L76.6792 21.9H77.1652V24H76.7092L75.7462 22.686L75.7552 24H75.2692V21.9ZM77.6334 24V21.9H78.4884C78.6344 21.9 78.7714 21.928 78.8994 21.984C79.0294 22.038 79.1414 22.112 79.2354 22.206C79.3314 22.3 79.4064 22.412 79.4604 22.542C79.5164 22.67 79.5444 22.808 79.5444 22.956C79.5444 23.1 79.5164 23.236 79.4604 23.364C79.4064 23.492 79.3314 23.603 79.2354 23.697C79.1414 23.791 79.0294 23.865 78.8994 23.919C78.7714 23.973 78.6344 24 78.4884 24H77.6334ZM78.4884 22.341H78.1494V23.559H78.4884C78.5604 23.559 78.6284 23.544 78.6924 23.514C78.7564 23.482 78.8114 23.439 78.8574 23.385C78.9054 23.331 78.9424 23.267 78.9684 23.193C78.9964 23.119 79.0104 23.04 79.0104 22.956C79.0104 22.87 78.9964 22.79 78.9684 22.716C78.9424 22.64 78.9054 22.575 78.8574 22.521C78.8114 22.465 78.7564 22.421 78.6924 22.389C78.6284 22.357 78.5604 22.341 78.4884 22.341ZM80.3802 23.712L80.6442 23.331C80.7882 23.433 80.9122 23.505 81.0162 23.547C81.1202 23.589 81.2232 23.61 81.3252 23.61C81.4352 23.61 81.5222 23.59 81.5862 23.55C81.6502 23.508 81.6822 23.455 81.6822 23.391C81.6822 23.329 81.6612 23.282 81.6192 23.25C81.5792 23.218 81.5082 23.192 81.4062 23.172L80.9592 23.094C80.7932 23.062 80.6652 22.997 80.5752 22.899C80.4872 22.801 80.4432 22.679 80.4432 22.533C80.4432 22.331 80.5172 22.17 80.6652 22.05C80.8132 21.93 81.0172 21.87 81.2772 21.87C81.4392 21.87 81.5962 21.895 81.7482 21.945C81.9002 21.993 82.0302 22.06 82.1382 22.146L81.8772 22.521C81.7752 22.443 81.6722 22.385 81.5682 22.347C81.4662 22.309 81.3602 22.29 81.2502 22.29C81.1482 22.29 81.0692 22.309 81.0132 22.347C80.9572 22.385 80.9292 22.432 80.9292 22.488C80.9292 22.54 80.9472 22.581 80.9832 22.611C81.0212 22.641 81.0822 22.663 81.1662 22.677L81.5862 22.749C81.7822 22.783 81.9312 22.851 82.0332 22.953C82.1352 23.053 82.1862 23.183 82.1862 23.343C82.1862 23.545 82.1052 23.71 81.9432 23.838C81.7812 23.966 81.5632 24.03 81.2892 24.03C81.1232 24.03 80.9642 24.003 80.8122 23.949C80.6622 23.893 80.5182 23.814 80.3802 23.712ZM82.2658 24L83.0848 21.9H83.6728L84.4798 24H83.9218L83.7478 23.499H82.9798L82.8028 24H82.2658ZM83.1208 23.1H83.6098L83.3668 22.404L83.1208 23.1ZM84.7203 21.9H85.2063L86.1393 23.172L86.1303 21.9H86.6163V24H86.1603L85.1973 22.686L85.2063 24H84.7203V21.9ZM87.0546 24V21.9H87.5706V24H87.0546ZM87.8364 22.341V21.9H89.7054V22.341H89.0304V24H88.5144V22.341H87.8364ZM89.9726 24V21.9H90.4886V24H89.9726ZM90.7784 24V23.664L91.8194 22.323L90.7844 22.332V21.9H92.4794V22.236L91.4444 23.577L92.4884 23.568V24H90.7784ZM92.7645 24V21.9H93.2805V24H92.7645ZM93.7174 21.9H94.2034L95.1364 23.172L95.1274 21.9H95.6134V24H95.1574L94.1944 22.686L94.2034 24H93.7174V21.9ZM98.1307 22.941C98.1307 23.097 98.1047 23.242 98.0527 23.376C98.0007 23.51 97.9287 23.626 97.8367 23.724C97.7447 23.82 97.6337 23.896 97.5037 23.952C97.3757 24.006 97.2367 24.033 97.0867 24.033C96.9327 24.033 96.7877 24.005 96.6517 23.949C96.5177 23.893 96.4007 23.817 96.3007 23.721C96.2027 23.623 96.1247 23.508 96.0667 23.376C96.0107 23.244 95.9827 23.102 95.9827 22.95C95.9827 22.798 96.0107 22.656 96.0667 22.524C96.1247 22.392 96.2027 22.278 96.3007 22.182C96.3987 22.084 96.5147 22.007 96.6487 21.951C96.7827 21.895 96.9257 21.867 97.0777 21.867C97.2517 21.867 97.4177 21.903 97.5757 21.975C97.7337 22.045 97.8617 22.145 97.9597 22.275L97.5967 22.59C97.5307 22.502 97.4527 22.436 97.3627 22.392C97.2747 22.348 97.1797 22.326 97.0777 22.326C96.9977 22.326 96.9227 22.342 96.8527 22.374C96.7847 22.406 96.7257 22.45 96.6757 22.506C96.6257 22.56 96.5867 22.626 96.5587 22.704C96.5307 22.78 96.5167 22.862 96.5167 22.95C96.5167 23.04 96.5307 23.124 96.5587 23.202C96.5887 23.278 96.6297 23.344 96.6817 23.4C96.7337 23.456 96.7947 23.5 96.8647 23.532C96.9367 23.564 97.0137 23.58 97.0957 23.58C97.2137 23.58 97.3157 23.547 97.4017 23.481C97.4897 23.415 97.5477 23.331 97.5757 23.229H97.0507V22.794H98.1307V22.941ZM98.9662 23.712L99.2302 23.331C99.3742 23.433 99.4982 23.505 99.6022 23.547C99.7062 23.589 99.8092 23.61 99.9112 23.61C100.021 23.61 100.108 23.59 100.172 23.55C100.236 23.508 100.268 23.455 100.268 23.391C100.268 23.329 100.247 23.282 100.205 23.25C100.165 23.218 100.094 23.192 99.9922 23.172L99.5452 23.094C99.3792 23.062 99.2512 22.997 99.1612 22.899C99.0732 22.801 99.0292 22.679 99.0292 22.533C99.0292 22.331 99.1032 22.17 99.2512 22.05C99.3992 21.93 99.6032 21.87 99.8632 21.87C100.025 21.87 100.182 21.895 100.334 21.945C100.486 21.993 100.616 22.06 100.724 22.146L100.463 22.521C100.361 22.443 100.258 22.385 100.154 22.347C100.052 22.309 99.9462 22.29 99.8362 22.29C99.7342 22.29 99.6552 22.309 99.5992 22.347C99.5432 22.385 99.5152 22.432 99.5152 22.488C99.5152 22.54 99.5332 22.581 99.5692 22.611C99.6072 22.641 99.6682 22.663 99.7522 22.677L100.172 22.749C100.368 22.783 100.517 22.851 100.619 22.953C100.721 23.053 100.772 23.183 100.772 23.343C100.772 23.545 100.691 23.71 100.529 23.838C100.367 23.966 100.149 24.03 99.8752 24.03C99.7092 24.03 99.5502 24.003 99.3982 23.949C99.2482 23.893 99.1042 23.814 98.9662 23.712ZM101.648 24V23.205L100.796 21.9H101.39L101.921 22.761L102.458 21.9H103.019L102.164 23.202V24H101.648ZM103.03 23.712L103.294 23.331C103.438 23.433 103.562 23.505 103.666 23.547C103.77 23.589 103.873 23.61 103.975 23.61C104.085 23.61 104.172 23.59 104.236 23.55C104.3 23.508 104.332 23.455 104.332 23.391C104.332 23.329 104.311 23.282 104.269 23.25C104.229 23.218 104.158 23.192 104.056 23.172L103.609 23.094C103.443 23.062 103.315 22.997 103.225 22.899C103.137 22.801 103.093 22.679 103.093 22.533C103.093 22.331 103.167 22.17 103.315 22.05C103.463 21.93 103.667 21.87 103.927 21.87C104.089 21.87 104.246 21.895 104.398 21.945C104.55 21.993 104.68 22.06 104.788 22.146L104.527 22.521C104.425 22.443 104.322 22.385 104.218 22.347C104.116 22.309 104.01 22.29 103.9 22.29C103.798 22.29 103.719 22.309 103.663 22.347C103.607 22.385 103.579 22.432 103.579 22.488C103.579 22.54 103.597 22.581 103.633 22.611C103.671 22.641 103.732 22.663 103.816 22.677L104.236 22.749C104.432 22.783 104.581 22.851 104.683 22.953C104.785 23.053 104.836 23.183 104.836 23.343C104.836 23.545 104.755 23.71 104.593 23.838C104.431 23.966 104.213 24.03 103.939 24.03C103.773 24.03 103.614 24.003 103.462 23.949C103.312 23.893 103.168 23.814 103.03 23.712ZM104.958 22.341V21.9H106.827V22.341H106.152V24H105.636V22.341H104.958ZM107.124 24V21.9H108.711V22.332H107.64V22.731H108.396V23.151H107.64V23.568H108.723V24H107.124ZM110.277 23.85L109.602 22.563V24H109.128V21.9H109.776L110.283 22.908L110.787 21.9H111.435V24H110.949V22.575L110.277 23.85ZM111.725 23.712L111.989 23.331C112.133 23.433 112.257 23.505 112.361 23.547C112.465 23.589 112.568 23.61 112.67 23.61C112.78 23.61 112.867 23.59 112.931 23.55C112.995 23.508 113.027 23.455 113.027 23.391C113.027 23.329 113.006 23.282 112.964 23.25C112.924 23.218 112.853 23.192 112.751 23.172L112.304 23.094C112.138 23.062 112.01 22.997 111.92 22.899C111.832 22.801 111.788 22.679 111.788 22.533C111.788 22.331 111.862 22.17 112.01 22.05C112.158 21.93 112.362 21.87 112.622 21.87C112.784 21.87 112.941 21.895 113.093 21.945C113.245 21.993 113.375 22.06 113.483 22.146L113.222 22.521C113.12 22.443 113.017 22.385 112.913 22.347C112.811 22.309 112.705 22.29 112.595 22.29C112.493 22.29 112.414 22.309 112.358 22.347C112.302 22.385 112.274 22.432 112.274 22.488C112.274 22.54 112.292 22.581 112.328 22.611C112.366 22.641 112.427 22.663 112.511 22.677L112.931 22.749C113.127 22.783 113.276 22.851 113.378 22.953C113.48 23.053 113.531 23.183 113.531 23.343C113.531 23.545 113.45 23.71 113.288 23.838C113.126 23.966 112.908 24.03 112.634 24.03C112.468 24.03 112.309 24.003 112.157 23.949C112.007 23.893 111.863 23.814 111.725 23.712Z" fill="white"/>
</g>
<rect x="24" y="4" width="1" height="1" fill="#8C34EB"/>
<rect x="27" y="4" width="0.5" height="0.5" fill="#BB87F3"/>
<rect x="23" y="4" width="0.5" height="0.5" fill="#BB87F3"/>
<rect x="25" y="3" width="0.5" height="0.5" fill="#BB87F3"/>
<rect x="27" y="2" width="1" height="1" fill="#8C34EB"/>
<rect x="23" y="1" width="1" height="1" fill="#8C34EB"/>
<g filter="url(#filter3_d)">
<rect x="24" y="6" width="1" height="1" fill="#8C34EB"/>
</g>
<rect x="26" y="5" width="1" height="1" fill="#8C34EB"/>
<rect x="29" y="5" width="1" height="1" fill="#8C34EB"/>
<path d="M120.259 15.097L121.737 7.95038L123.717 7.94155C124.59 7.93765 125.275 8.1646 125.77 8.6224C126.266 9.0802 126.515 9.74909 126.519 10.6291C126.523 11.5424 126.367 12.3331 126.05 13.0012C125.739 13.6626 125.285 14.1746 124.687 14.5373C124.088 14.9 123.362 15.0832 122.509 15.087L120.259 15.097ZM122.673 13.6863C123.139 13.6842 123.529 13.5524 123.841 13.291C124.16 13.023 124.402 12.6652 124.566 12.2178C124.731 11.7704 124.812 11.2734 124.81 10.7267C124.807 10.2534 124.699 9.90385 124.485 9.67814C124.271 9.44576 123.977 9.3304 123.603 9.33207L123.143 9.33412L122.233 13.6882L122.673 13.6863ZM127.056 15.0667L128.534 7.92007L130.764 7.91013L130.957 13.1293L130.997 13.1291L133.494 7.89795L135.794 7.8877L134.306 15.0344L132.786 15.0412L133.412 11.9784C133.523 11.4579 133.628 11.0074 133.726 10.6269C133.831 10.2398 133.913 9.92944 133.972 9.69584L133.932 9.69602L131.366 15.0475L129.796 15.0545L129.612 9.71528L129.572 9.71546C129.52 10.0624 129.459 10.4493 129.387 10.8763C129.322 11.2966 129.254 11.6902 129.182 12.0572L128.566 15.06L127.056 15.0667ZM137.162 15.0217L136.56 7.88428L138.2 7.87697L138.407 11.8561C138.415 12.0094 138.419 12.186 138.42 12.386C138.421 12.5794 138.418 12.7694 138.412 12.9561C138.407 13.1428 138.394 13.3028 138.374 13.4362L138.414 13.4361C138.48 13.1958 138.559 12.9454 138.651 12.685C138.743 12.4246 138.836 12.1975 138.928 12.0038L140.83 7.86524L142.59 7.8574L139.022 15.0134L137.162 15.0217Z" fill="#8C34EB"/>
</g>
<defs>
<filter id="filter0_d" x="0" y="0" width="146.59" height="34" filterUnits="userSpaceOnUse" color-interpolation-filters="sRGB">
<feFlood flood-opacity="0" result="BackgroundImageFix"/>
<feColorMatrix in="SourceAlpha" type="matrix" values="0 0 0 0 0 0 0 0 0 0 0 0 0 0 0 0 0 0 127 0" result="hardAlpha"/>
<feOffset dy="4"/>
<feGaussianBlur stdDeviation="2"/>
<feComposite in2="hardAlpha" operator="out"/>
<feColorMatrix type="matrix" values="0 0 0 0 0 0 0 0 0 0 0 0 0 0 0 0 0 0 0.25 0"/>
<feBlend mode="normal" in2="BackgroundImageFix" result="effect1_dropShadow"/>
<feBlend mode="normal" in="SourceGraphic" in2="effect1_dropShadow" result="shape"/>
</filter>
<filter id="filter1_i" x="4.888" y="7.42401" width="111.823" height="15.952" filterUnits="userSpaceOnUse" color-interpolation-filters="sRGB">
<feFlood flood-opacity="0" result="BackgroundImageFix"/>
<feBlend mode="normal" in="SourceGraphic" in2="BackgroundImageFix" result="shape"/>
<feColorMatrix in="SourceAlpha" type="matrix" values="0 0 0 0 0 0 0 0 0 0 0 0 0 0 0 0 0 0 127 0" result="hardAlpha"/>
<feOffset dy="4"/>
<feGaussianBlur stdDeviation="2"/>
<feComposite in2="hardAlpha" operator="arithmetic" k2="-1" k3="1"/>
<feColorMatrix type="matrix" values="0 0 0 0 0.898039 0 0 0 0 0.898039 0 0 0 0 0.898039 0 0 0 0.33 0"/>
<feBlend mode="normal" in2="shape" result="effect1_innerShadow"/>
</filter>
<filter id="filter2_i" x="9.23401" y="21.867" width="104.297" height="6.166" filterUnits="userSpaceOnUse" color-interpolation-filters="sRGB">
<feFlood flood-opacity="0" result="BackgroundImageFix"/>
<feBlend mode="normal" in="SourceGraphic" in2="BackgroundImageFix" result="shape"/>
<feColorMatrix in="SourceAlpha" type="matrix" values="0 0 0 0 0 0 0 0 0 0 0 0 0 0 0 0 0 0 127 0" result="hardAlpha"/>
<feOffset dy="4"/>
<feGaussianBlur stdDeviation="2"/>
<feComposite in2="hardAlpha" operator="arithmetic" k2="-1" k3="1"/>
<feColorMatrix type="matrix" values="0 0 0 0 0 0 0 0 0 0 0 0 0 0 0 0 0 0 0.11 0"/>
<feBlend mode="normal" in2="shape" result="effect1_innerShadow"/>
</filter>
<filter id="filter3_d" x="20" y="6" width="9" height="9" filterUnits="userSpaceOnUse" color-interpolation-filters="sRGB">
<feFlood flood-opacity="0" result="BackgroundImageFix"/>
<feColorMatrix in="SourceAlpha" type="matrix" values="0 0 0 0 0 0 0 0 0 0 0 0 0 0 0 0 0 0 127 0" result="hardAlpha"/>
<feOffset dy="4"/>
<feGaussianBlur stdDeviation="2"/>
<feComposite in2="hardAlpha" operator="out"/>
<feColorMatrix type="matrix" values="0 0 0 0 0 0 0 0 0 0 0 0 0 0 0 0 0 0 0.25 0"/>
<feBlend mode="normal" in2="BackgroundImageFix" result="effect1_dropShadow"/>
<feBlend mode="normal" in="SourceGraphic" in2="effect1_dropShadow" result="shape"/>
</filter>
</defs>
</svg>
