<svg width="147" height="34" viewBox="0 0 147 34" fill="none" xmlns="http://www.w3.org/2000/svg">
<g filter="url(#filter0_d)">
<path d="M22.7759 11.9901L18.6398 7.19012L26.9118 7.19L22.7759 11.9901Z" fill="#8C34EB"/>
<rect x="7" y="14" width="109" height="12" fill="#6600FF"/>
<g filter="url(#filter1_i)">
<path d="M5.088 19V7.8H7.84V12.152H12.368V7.8H15.12V19H12.368V14.568H7.84V19H5.088ZM20.7311 19V14.76L16.1871 7.8H19.3551L22.1871 12.392L25.0511 7.8H28.0431L23.4831 14.744V19H20.7311ZM39.2541 13.352C39.2541 14.184 39.1155 14.9573 38.8381 15.672C38.5608 16.3867 38.1768 17.0053 37.6861 17.528C37.1955 18.04 36.6035 18.4453 35.9101 18.744C35.2275 19.032 34.4861 19.176 33.6861 19.176C32.8648 19.176 32.0915 19.0267 31.3661 18.728C30.6515 18.4293 30.0275 18.024 29.4941 17.512C28.9715 16.9893 28.5555 16.376 28.2461 15.672C27.9475 14.968 27.7981 14.2107 27.7981 13.4C27.7981 12.5893 27.9475 11.832 28.2461 11.128C28.5555 10.424 28.9715 9.816 29.4941 9.304C30.0168 8.78133 30.6355 8.37067 31.3501 8.072C32.0648 7.77333 32.8275 7.624 33.6381 7.624C34.5661 7.624 35.4515 7.816 36.2941 8.2C37.1368 8.57333 37.8195 9.10667 38.3421 9.8L36.4061 11.48C36.0541 11.0107 35.6381 10.6587 35.1581 10.424C34.6888 10.1893 34.1821 10.072 33.6381 10.072C33.2115 10.072 32.8115 10.1573 32.4381 10.328C32.0755 10.4987 31.7608 10.7333 31.4941 11.032C31.2275 11.32 31.0195 11.672 30.8701 12.088C30.7208 12.4933 30.6461 12.9307 30.6461 13.4C30.6461 13.88 30.7208 14.328 30.8701 14.744C31.0301 15.1493 31.2488 15.5013 31.5261 15.8C31.8035 16.0987 32.1288 16.3333 32.5021 16.504C32.8861 16.6747 33.2968 16.76 33.7341 16.76C34.3635 16.76 34.9075 16.584 35.3661 16.232C35.8355 15.88 36.1448 15.432 36.2941 14.888H33.4941V12.568H39.2541V13.352ZM41.0568 19V7.8H43.8088V19H41.0568ZM46.1386 19V7.8H54.6026V10.104H48.8906V12.232H52.9226V14.472H48.8906V16.696H54.6666V19H46.1386ZM56.8261 7.8H59.4181L64.3941 14.584L64.3461 7.8H66.9381V19H64.5061L59.3701 11.992L59.4181 19H56.8261V7.8ZM69.2755 19V7.8H72.0275V19H69.2755ZM73.4454 10.152V7.8H83.4134V10.152H79.8134V19H77.0614V10.152H73.4454ZM84.998 19V7.8H93.462V10.104H87.75V12.232H91.782V14.472H87.75V16.696H93.526V19H84.998ZM100.595 16.696C101.096 16.696 101.56 16.5787 101.987 16.344C102.414 16.1093 102.803 15.7627 103.155 15.304L104.963 17.016C104.472 17.656 103.822 18.1733 103.011 18.568C102.2 18.9627 101.363 19.16 100.499 19.16C99.667 19.16 98.8883 19.0107 98.163 18.712C97.4377 18.4133 96.8137 18.008 96.291 17.496C95.7683 16.984 95.3523 16.376 95.043 15.672C94.7443 14.968 94.595 14.2107 94.595 13.4C94.595 12.5893 94.7443 11.832 95.043 11.128C95.3523 10.4133 95.7683 9.8 96.291 9.288C96.8243 8.776 97.4483 8.37067 98.163 8.072C98.8883 7.77333 99.667 7.624 100.499 7.624C101.395 7.624 102.254 7.82133 103.075 8.216C103.896 8.61067 104.552 9.13867 105.043 9.8L103.187 11.56C102.824 11.0693 102.414 10.7013 101.955 10.456C101.507 10.2 101.022 10.072 100.499 10.072C100.062 10.072 99.6563 10.1573 99.283 10.328C98.9097 10.4987 98.5843 10.7333 98.307 11.032C98.0403 11.32 97.827 11.672 97.667 12.088C97.5177 12.4933 97.443 12.9307 97.443 13.4C97.443 13.8693 97.523 14.3067 97.683 14.712C97.843 15.1173 98.0617 15.4693 98.339 15.768C98.627 16.056 98.963 16.2853 99.347 16.456C99.731 16.616 100.147 16.696 100.595 16.696ZM106.479 19V7.8H109.231V12.152H113.759V7.8H116.511V19H113.759V14.568H109.231V19H106.479Z" fill="black"/>
</g>
<path d="M5.088 19H4.588V19.5H5.088V19ZM5.088 7.8V7.3H4.588V7.8H5.088ZM7.84 7.8H8.34V7.3H7.84V7.8ZM7.84 12.152H7.34V12.652H7.84V12.152ZM12.368 12.152V12.652H12.868V12.152H12.368ZM12.368 7.8V7.3H11.868V7.8H12.368ZM15.12 7.8H15.62V7.3H15.12V7.8ZM15.12 19V19.5H15.62V19H15.12ZM12.368 19H11.868V19.5H12.368V19ZM12.368 14.568H12.868V14.068H12.368V14.568ZM7.84 14.568V14.068H7.34V14.568H7.84ZM7.84 19V19.5H8.34V19H7.84ZM5.588 19V7.8H4.588V19H5.588ZM5.088 8.3H7.84V7.3H5.088V8.3ZM7.34 7.8V12.152H8.34V7.8H7.34ZM7.84 12.652H12.368V11.652H7.84V12.652ZM12.868 12.152V7.8H11.868V12.152H12.868ZM12.368 8.3H15.12V7.3H12.368V8.3ZM14.62 7.8V19H15.62V7.8H14.62ZM15.12 18.5H12.368V19.5H15.12V18.5ZM12.868 19V14.568H11.868V19H12.868ZM12.368 14.068H7.84V15.068H12.368V14.068ZM7.34 14.568V19H8.34V14.568H7.34ZM7.84 18.5H5.088V19.5H7.84V18.5ZM20.7311 19H20.2311V19.5H20.7311V19ZM20.7311 14.76H21.2311V14.6112L21.1498 14.4867L20.7311 14.76ZM16.1871 7.8V7.3H15.2636L15.7685 8.07334L16.1871 7.8ZM19.3551 7.8L19.7807 7.53754L19.6342 7.3H19.3551V7.8ZM22.1871 12.392L21.7616 12.6545L22.1847 13.3406L22.6114 12.6566L22.1871 12.392ZM25.0511 7.8V7.3H24.7737L24.6269 7.5354L25.0511 7.8ZM28.0431 7.8L28.4611 8.07445L28.9696 7.3H28.0431V7.8ZM23.4831 14.744L23.0652 14.4695L22.9831 14.5945V14.744H23.4831ZM23.4831 19V19.5H23.9831V19H23.4831ZM21.2311 19V14.76H20.2311V19H21.2311ZM21.1498 14.4867L16.6058 7.52666L15.7685 8.07334L20.3125 15.0333L21.1498 14.4867ZM16.1871 8.3H19.3551V7.3H16.1871V8.3ZM18.9296 8.06246L21.7616 12.6545L22.6127 12.1295L19.7807 7.53754L18.9296 8.06246ZM22.6114 12.6566L25.4754 8.0646L24.6269 7.5354L21.7629 12.1274L22.6114 12.6566ZM25.0511 8.3H28.0431V7.3H25.0511V8.3ZM27.6252 7.52554L23.0652 14.4695L23.9011 15.0185L28.4611 8.07445L27.6252 7.52554ZM22.9831 14.744V19H23.9831V14.744H22.9831ZM23.4831 18.5H20.7311V19.5H23.4831V18.5ZM38.8381 15.672L38.372 15.4911L38.372 15.4911L38.8381 15.672ZM37.6861 17.528L38.0471 17.874L38.0507 17.8702L37.6861 17.528ZM35.9101 18.744L36.1045 19.2047L36.1079 19.2032L35.9101 18.744ZM31.3661 18.728L31.1733 19.1893L31.1758 19.1903L31.3661 18.728ZM29.4941 17.512L29.1405 17.8656L29.1479 17.8727L29.4941 17.512ZM28.2461 15.672L27.7858 15.8673L27.7884 15.8731L28.2461 15.672ZM28.2461 11.128L27.7883 10.9268L27.7858 10.9327L28.2461 11.128ZM29.4941 9.304L29.844 9.6612L29.8477 9.65755L29.4941 9.304ZM31.3501 8.072L31.5429 8.53333L31.5429 8.53333L31.3501 8.072ZM36.2941 8.2L36.0868 8.65501L36.0916 8.65714L36.2941 8.2ZM38.3421 9.8L38.6698 10.1776L39.0224 9.87173L38.7414 9.49902L38.3421 9.8ZM36.4061 11.48L36.0061 11.78L36.3283 12.2096L36.7338 11.8576L36.4061 11.48ZM35.1581 10.424L34.9345 10.8712L34.9385 10.8732L35.1581 10.424ZM32.4381 10.328L32.2302 9.87323L32.2252 9.87559L32.4381 10.328ZM31.4941 11.032L31.8611 11.3718L31.8671 11.365L31.4941 11.032ZM30.8701 12.088L31.3393 12.2609L31.3407 12.2569L30.8701 12.088ZM30.8701 14.744L30.3995 14.9129L30.4022 14.9203L30.405 14.9276L30.8701 14.744ZM31.5261 15.8L31.8925 15.4598L31.8925 15.4598L31.5261 15.8ZM32.5021 16.504L32.2942 16.9588L32.2991 16.9609L32.5021 16.504ZM35.3661 16.232L35.0661 15.832L35.0617 15.8353L35.3661 16.232ZM36.2941 14.888L36.7763 15.0204L36.9499 14.388H36.2941V14.888ZM33.4941 14.888H32.9941V15.388H33.4941V14.888ZM33.4941 12.568V12.068H32.9941V12.568H33.4941ZM39.2541 12.568H39.7541V12.068H39.2541V12.568ZM38.7541 13.352C38.7541 14.1274 38.6251 14.8389 38.372 15.4911L39.3043 15.8529C39.6058 15.0758 39.7541 14.2406 39.7541 13.352H38.7541ZM38.372 15.4911C38.1162 16.1502 37.7654 16.713 37.3216 17.1858L38.0507 17.8702C38.5882 17.2976 39.0053 16.6232 39.3043 15.8529L38.372 15.4911ZM37.3251 17.182C36.8837 17.6427 36.3482 18.0109 35.7123 18.2848L36.1079 19.2032C36.8587 18.8798 37.5072 18.4373 38.0471 17.874L37.3251 17.182ZM35.7158 18.2833C35.0994 18.5434 34.4247 18.676 33.6861 18.676V19.676C34.5475 19.676 35.3555 19.5206 36.1045 19.2047L35.7158 18.2833ZM33.6861 18.676C32.927 18.676 32.2186 18.5383 31.5565 18.2657L31.1758 19.1903C31.9643 19.515 32.8026 19.676 33.6861 19.676V18.676ZM31.5589 18.2667C30.8984 17.9906 30.3271 17.6186 29.8404 17.1513L29.1479 17.8727C29.7278 18.4294 30.4045 18.868 31.1733 19.1893L31.5589 18.2667ZM29.8477 17.1584C29.3707 16.6814 28.9893 16.1204 28.7039 15.4709L27.7884 15.8731C28.1216 16.6316 28.5722 17.2972 29.1406 17.8656L29.8477 17.1584ZM28.7064 15.4767C28.4355 14.8382 28.2981 14.1477 28.2981 13.4H27.2981C27.2981 14.2737 27.4594 15.0978 27.7858 15.8673L28.7064 15.4767ZM28.2981 13.4C28.2981 12.6523 28.4355 11.9618 28.7064 11.3233L27.7858 10.9327C27.4594 11.7022 27.2981 12.5263 27.2981 13.4H28.2981ZM28.7039 11.3291C28.9889 10.6805 29.3692 10.1263 29.844 9.66118L29.1442 8.94682C28.5737 9.50573 28.122 10.1675 27.7884 10.9269L28.7039 11.3291ZM29.8477 9.65755C30.3221 9.18313 30.8854 8.80811 31.5429 8.53333L31.1573 7.61067C30.3855 7.93322 29.7115 8.37953 29.1406 8.95045L29.8477 9.65755ZM31.5429 8.53333C32.1937 8.26137 32.8905 8.124 33.6381 8.124V7.124C32.7644 7.124 31.9359 7.28529 31.1573 7.61067L31.5429 8.53333ZM33.6381 8.124C34.4947 8.124 35.3094 8.30071 36.0868 8.65499L36.5015 7.74501C35.5936 7.33128 34.6375 7.124 33.6381 7.124V8.124ZM36.0916 8.65714C36.8614 8.9982 37.4746 9.47979 37.9429 10.101L38.7414 9.49902C38.1643 8.73354 37.4122 8.14846 36.4967 7.74286L36.0916 8.65714ZM38.0144 9.42236L36.0784 11.1024L36.7338 11.8576L38.6698 10.1776L38.0144 9.42236ZM36.8061 11.18C36.4114 10.6537 35.9356 10.2475 35.3777 9.97481L34.9385 10.8732C35.3407 11.0698 35.6969 11.3677 36.0061 11.78L36.8061 11.18ZM35.3817 9.97679C34.8404 9.70611 34.2568 9.572 33.6381 9.572V10.572C34.1074 10.572 34.5372 10.6726 34.9345 10.8712L35.3817 9.97679ZM33.6381 9.572C33.1426 9.572 32.6714 9.67159 32.2302 9.87326L32.646 10.7827C32.9515 10.6431 33.2803 10.572 33.6381 10.572V9.572ZM32.2252 9.87559C31.8018 10.0749 31.4327 10.3501 31.1212 10.699L31.8671 11.365C32.0889 11.1166 32.3491 10.9225 32.651 10.7804L32.2252 9.87559ZM31.1272 10.6923C30.8094 11.0355 30.5687 11.4477 30.3995 11.9191L31.3407 12.2569C31.4702 11.8963 31.6455 11.6045 31.861 11.3717L31.1272 10.6923ZM30.401 11.9151C30.2295 12.3804 30.1461 12.8768 30.1461 13.4H31.1461C31.1461 12.9845 31.212 12.6062 31.3393 12.2609L30.401 11.9151ZM30.1461 13.4C30.1461 13.9326 30.2291 14.4383 30.3995 14.9129L31.3407 14.5751C31.2125 14.2177 31.1461 13.8274 31.1461 13.4H30.1461ZM30.405 14.9276C30.5863 15.3868 30.8372 15.7929 31.1597 16.1402L31.8925 15.4598C31.6604 15.2098 31.4739 14.9119 31.3352 14.5604L30.405 14.9276ZM31.1597 16.1402C31.4822 16.4875 31.8615 16.7609 32.2942 16.9587L32.71 16.0493C32.3961 15.9058 32.1247 15.7099 31.8925 15.4598L31.1597 16.1402ZM32.2991 16.9609C32.7496 17.1611 33.2297 17.26 33.7341 17.26V16.26C33.3638 16.26 33.0227 16.1882 32.7052 16.0471L32.2991 16.9609ZM33.7341 17.26C34.4632 17.26 35.1167 17.0537 35.6705 16.6287L35.0617 15.8353C34.6982 16.1143 34.2637 16.26 33.7341 16.26V17.26ZM35.6661 16.632C36.2204 16.2163 36.5964 15.6758 36.7763 15.0204L35.812 14.7556C35.6932 15.1882 35.4506 15.5437 35.0661 15.832L35.6661 16.632ZM36.2941 14.388H33.4941V15.388H36.2941V14.388ZM33.9941 14.888V12.568H32.9941V14.888H33.9941ZM33.4941 13.068H39.2541V12.068H33.4941V13.068ZM38.7541 12.568V13.352H39.7541V12.568H38.7541ZM41.0568 19H40.5568V19.5H41.0568V19ZM41.0568 7.8V7.3H40.5568V7.8H41.0568ZM43.8088 7.8H44.3088V7.3H43.8088V7.8ZM43.8088 19V19.5H44.3088V19H43.8088ZM41.5568 19V7.8H40.5568V19H41.5568ZM41.0568 8.3H43.8088V7.3H41.0568V8.3ZM43.3088 7.8V19H44.3088V7.8H43.3088ZM43.8088 18.5H41.0568V19.5H43.8088V18.5ZM46.1386 19H45.6386V19.5H46.1386V19ZM46.1386 7.8V7.3H45.6386V7.8H46.1386ZM54.6026 7.8H55.1026V7.3H54.6026V7.8ZM54.6026 10.104V10.604H55.1026V10.104H54.6026ZM48.8906 10.104V9.604H48.3906V10.104H48.8906ZM48.8906 12.232H48.3906V12.732H48.8906V12.232ZM52.9226 12.232H53.4226V11.732H52.9226V12.232ZM52.9226 14.472V14.972H53.4226V14.472H52.9226ZM48.8906 14.472V13.972H48.3906V14.472H48.8906ZM48.8906 16.696H48.3906V17.196H48.8906V16.696ZM54.6666 16.696H55.1666V16.196H54.6666V16.696ZM54.6666 19V19.5H55.1666V19H54.6666ZM46.6386 19V7.8H45.6386V19H46.6386ZM46.1386 8.3H54.6026V7.3H46.1386V8.3ZM54.1026 7.8V10.104H55.1026V7.8H54.1026ZM54.6026 9.604H48.8906V10.604H54.6026V9.604ZM48.3906 10.104V12.232H49.3906V10.104H48.3906ZM48.8906 12.732H52.9226V11.732H48.8906V12.732ZM52.4226 12.232V14.472H53.4226V12.232H52.4226ZM52.9226 13.972H48.8906V14.972H52.9226V13.972ZM48.3906 14.472V16.696H49.3906V14.472H48.3906ZM48.8906 17.196H54.6666V16.196H48.8906V17.196ZM54.1666 16.696V19H55.1666V16.696H54.1666ZM54.6666 18.5H46.1386V19.5H54.6666V18.5ZM56.8261 7.8V7.3H56.3261V7.8H56.8261ZM59.4181 7.8L59.8213 7.50428L59.6715 7.3H59.4181V7.8ZM64.3941 14.584L63.991 14.8797L64.905 16.1259L64.8941 14.5805L64.3941 14.584ZM64.3461 7.8V7.3H63.8426L63.8461 7.80354L64.3461 7.8ZM66.9381 7.8H67.4381V7.3H66.9381V7.8ZM66.9381 19V19.5H67.4381V19H66.9381ZM64.5061 19L64.1028 19.2956L64.2527 19.5H64.5061V19ZM59.3701 11.992L59.7734 11.6964L58.8595 10.4495L58.8701 11.9954L59.3701 11.992ZM59.4181 19V19.5H59.9216L59.9181 18.9966L59.4181 19ZM56.8261 19H56.3261V19.5H56.8261V19ZM56.8261 8.3H59.4181V7.3H56.8261V8.3ZM59.015 8.09572L63.991 14.8797L64.7973 14.2883L59.8213 7.50428L59.015 8.09572ZM64.8941 14.5805L64.8461 7.79646L63.8461 7.80354L63.8941 14.5875L64.8941 14.5805ZM64.3461 8.3H66.9381V7.3H64.3461V8.3ZM66.4381 7.8V19H67.4381V7.8H66.4381ZM66.9381 18.5H64.5061V19.5H66.9381V18.5ZM64.9094 18.7044L59.7734 11.6964L58.9668 12.2876L64.1028 19.2956L64.9094 18.7044ZM58.8701 11.9954L58.9181 19.0034L59.9181 18.9966L59.8701 11.9886L58.8701 11.9954ZM59.4181 18.5H56.8261V19.5H59.4181V18.5ZM57.3261 19V7.8H56.3261V19H57.3261ZM69.2755 19H68.7755V19.5H69.2755V19ZM69.2755 7.8V7.3H68.7755V7.8H69.2755ZM72.0275 7.8H72.5275V7.3H72.0275V7.8ZM72.0275 19V19.5H72.5275V19H72.0275ZM69.7755 19V7.8H68.7755V19H69.7755ZM69.2755 8.3H72.0275V7.3H69.2755V8.3ZM71.5275 7.8V19H72.5275V7.8H71.5275ZM72.0275 18.5H69.2755V19.5H72.0275V18.5ZM73.4454 10.152H72.9454V10.652H73.4454V10.152ZM73.4454 7.8V7.3H72.9454V7.8H73.4454ZM83.4134 7.8H83.9134V7.3H83.4134V7.8ZM83.4134 10.152V10.652H83.9134V10.152H83.4134ZM79.8134 10.152V9.652H79.3134V10.152H79.8134ZM79.8134 19V19.5H80.3134V19H79.8134ZM77.0614 19H76.5614V19.5H77.0614V19ZM77.0614 10.152H77.5614V9.652H77.0614V10.152ZM73.9454 10.152V7.8H72.9454V10.152H73.9454ZM73.4454 8.3H83.4134V7.3H73.4454V8.3ZM82.9134 7.8V10.152H83.9134V7.8H82.9134ZM83.4134 9.652H79.8134V10.652H83.4134V9.652ZM79.3134 10.152V19H80.3134V10.152H79.3134ZM79.8134 18.5H77.0614V19.5H79.8134V18.5ZM77.5614 19V10.152H76.5614V19H77.5614ZM77.0614 9.652H73.4454V10.652H77.0614V9.652ZM84.998 19H84.498V19.5H84.998V19ZM84.998 7.8V7.3H84.498V7.8H84.998ZM93.462 7.8H93.962V7.3H93.462V7.8ZM93.462 10.104V10.604H93.962V10.104H93.462ZM87.75 10.104V9.604H87.25V10.104H87.75ZM87.75 12.232H87.25V12.732H87.75V12.232ZM91.782 12.232H92.282V11.732H91.782V12.232ZM91.782 14.472V14.972H92.282V14.472H91.782ZM87.75 14.472V13.972H87.25V14.472H87.75ZM87.75 16.696H87.25V17.196H87.75V16.696ZM93.526 16.696H94.026V16.196H93.526V16.696ZM93.526 19V19.5H94.026V19H93.526ZM85.498 19V7.8H84.498V19H85.498ZM84.998 8.3H93.462V7.3H84.998V8.3ZM92.962 7.8V10.104H93.962V7.8H92.962ZM93.462 9.604H87.75V10.604H93.462V9.604ZM87.25 10.104V12.232H88.25V10.104H87.25ZM87.75 12.732H91.782V11.732H87.75V12.732ZM91.282 12.232V14.472H92.282V12.232H91.282ZM91.782 13.972H87.75V14.972H91.782V13.972ZM87.25 14.472V16.696H88.25V14.472H87.25ZM87.75 17.196H93.526V16.196H87.75V17.196ZM93.026 16.696V19H94.026V16.696H93.026ZM93.526 18.5H84.998V19.5H93.526V18.5ZM103.155 15.304L103.499 14.9409L103.096 14.5596L102.758 14.9996L103.155 15.304ZM104.963 17.016L105.36 17.3202L105.634 16.9627L105.307 16.6529L104.963 17.016ZM103.011 18.568L103.23 19.0176L103.23 19.0176L103.011 18.568ZM98.163 18.712L97.9726 19.1743L97.9726 19.1743L98.163 18.712ZM96.291 17.496L96.6409 17.1388L96.6409 17.1388L96.291 17.496ZM95.043 15.672L94.5827 15.8673L94.5852 15.8731L95.043 15.672ZM95.043 11.128L94.5841 10.9294L94.5827 10.9327L95.043 11.128ZM96.291 9.288L95.9447 8.92729L95.9411 8.93082L96.291 9.288ZM98.163 8.072L97.9726 7.60965L97.9702 7.61067L98.163 8.072ZM103.075 8.216L103.292 7.76533L103.292 7.76533L103.075 8.216ZM105.043 9.8L105.387 10.1628L105.709 9.85792L105.445 9.50208L105.043 9.8ZM103.187 11.56L102.785 11.8572L103.121 12.3118L103.531 11.9228L103.187 11.56ZM101.955 10.456L101.707 10.8903L101.719 10.8969L101.955 10.456ZM99.283 10.328L99.0751 9.87326L99.0751 9.87326L99.283 10.328ZM98.307 11.032L97.9406 10.6918L97.9401 10.6923L98.307 11.032ZM97.667 12.088L97.2003 11.9085L97.1978 11.9151L97.667 12.088ZM97.683 14.712L97.2179 14.8956L97.2179 14.8956L97.683 14.712ZM98.339 15.768L97.9726 16.1082L97.9789 16.115L97.9854 16.1216L98.339 15.768ZM99.347 16.456L99.1439 16.913L99.1547 16.9175L99.347 16.456ZM100.595 17.196C101.178 17.196 101.725 17.0586 102.228 16.7821L101.746 15.9059C101.395 16.0987 101.015 16.196 100.595 16.196V17.196ZM102.228 16.7821C102.725 16.5085 103.165 16.1118 103.552 15.6084L102.758 14.9996C102.441 15.4135 102.102 15.7102 101.746 15.9059L102.228 16.7821ZM102.811 15.6671L104.619 17.3791L105.307 16.6529L103.499 14.9409L102.811 15.6671ZM104.566 16.7118C104.128 17.2832 103.541 17.7537 102.792 18.1184L103.23 19.0176C104.102 18.593 104.817 18.0288 105.36 17.3202L104.566 16.7118ZM102.792 18.1184C102.047 18.4814 101.284 18.66 100.499 18.66V19.66C101.442 19.66 102.354 19.4439 103.23 19.0176L102.792 18.1184ZM100.499 18.66C99.7283 18.66 99.0147 18.522 98.3534 18.2497L97.9726 19.1743C98.762 19.4994 99.6057 19.66 100.499 19.66V18.66ZM98.3534 18.2497C97.6832 17.9737 97.1144 17.6027 96.6409 17.1388L95.9411 17.8532C96.5129 18.4133 97.1922 18.853 97.9726 19.1743L98.3534 18.2497ZM96.6409 17.1388C96.1661 16.6737 95.7858 16.1195 95.5008 15.4709L94.5852 15.8731C94.9189 16.6325 95.3706 17.2943 95.9411 17.8532L96.6409 17.1388ZM95.5033 15.4767C95.2324 14.8382 95.095 14.1477 95.095 13.4H94.095C94.095 14.2737 94.2563 15.0978 94.5827 15.8673L95.5033 15.4767ZM95.095 13.4C95.095 12.6523 95.2324 11.9618 95.5033 11.3233L94.5827 10.9327C94.2563 11.7022 94.095 12.5263 94.095 13.4H95.095ZM95.5019 11.3266C95.7872 10.6675 96.1674 10.109 96.6409 9.64518L95.9411 8.93082C95.3693 9.49098 94.9175 10.1592 94.5841 10.9294L95.5019 11.3266ZM96.6373 9.64869C97.124 9.18144 97.6953 8.80936 98.3558 8.53333L97.9702 7.61067C97.2014 7.93197 96.5247 8.37056 95.9447 8.92731L96.6373 9.64869ZM98.3534 8.53434C99.0147 8.26202 99.7283 8.124 100.499 8.124V7.124C99.6057 7.124 98.762 7.28464 97.9726 7.60966L98.3534 8.53434ZM100.499 8.124C101.319 8.124 102.103 8.3039 102.858 8.66667L103.292 7.76533C102.404 7.33876 101.471 7.124 100.499 7.124V8.124ZM102.858 8.66667C103.615 9.03 104.204 9.50848 104.641 10.0979L105.445 9.50208C104.901 8.76885 104.178 8.19133 103.292 7.76533L102.858 8.66667ZM104.699 9.43719L102.843 11.1972L103.531 11.9228L105.387 10.1628L104.699 9.43719ZM103.589 11.2628C103.19 10.7227 102.725 10.301 102.191 10.0151L101.719 10.8969C102.102 11.1017 102.459 11.4159 102.785 11.8572L103.589 11.2628ZM102.203 10.0219C101.679 9.72212 101.107 9.572 100.499 9.572V10.572C100.936 10.572 101.335 10.6779 101.707 10.8901L102.203 10.0219ZM100.499 9.572C99.9947 9.572 99.5179 9.67085 99.0751 9.87326L99.4909 10.7827C99.7948 10.6438 100.129 10.572 100.499 10.572V9.572ZM99.0751 9.87326C98.6424 10.0711 98.2631 10.3445 97.9406 10.6918L98.6734 11.3722C98.9056 11.1221 99.177 10.9262 99.4909 10.7827L99.0751 9.87326ZM97.9401 10.6923C97.6249 11.0328 97.3801 11.4412 97.2003 11.9085L98.1337 12.2675C98.2739 11.9028 98.4558 11.6072 98.6739 11.3717L97.9401 10.6923ZM97.1978 11.9151C97.0264 12.3804 96.943 12.8768 96.943 13.4H97.943C97.943 12.9845 98.0089 12.6062 98.1362 12.2609L97.1978 11.9151ZM96.943 13.4C96.943 13.9273 97.0331 14.4274 97.2179 14.8956L98.1481 14.5284C98.0129 14.1859 97.943 13.8114 97.943 13.4H96.943ZM97.2179 14.8956C97.3992 15.3548 97.6501 15.7609 97.9726 16.1082L98.7054 15.4278C98.4733 15.1778 98.2868 14.8799 98.1481 14.5284L97.2179 14.8956ZM97.9854 16.1216C98.3182 16.4543 98.7057 16.7181 99.1439 16.9129L99.5501 15.9991C99.2203 15.8525 98.9358 15.6577 98.6926 15.4144L97.9854 16.1216ZM99.1547 16.9175C99.6042 17.1048 100.086 17.196 100.595 17.196V16.196C100.208 16.196 99.8578 16.1272 99.5393 15.9945L99.1547 16.9175ZM106.479 19H105.979V19.5H106.479V19ZM106.479 7.8V7.3H105.979V7.8H106.479ZM109.231 7.8H109.731V7.3H109.231V7.8ZM109.231 12.152H108.731V12.652H109.231V12.152ZM113.759 12.152V12.652H114.259V12.152H113.759ZM113.759 7.8V7.3H113.259V7.8H113.759ZM116.511 7.8H117.011V7.3H116.511V7.8ZM116.511 19V19.5H117.011V19H116.511ZM113.759 19H113.259V19.5H113.759V19ZM113.759 14.568H114.259V14.068H113.759V14.568ZM109.231 14.568V14.068H108.731V14.568H109.231ZM109.231 19V19.5H109.731V19H109.231ZM106.979 19V7.8H105.979V19H106.979ZM106.479 8.3H109.231V7.3H106.479V8.3ZM108.731 7.8V12.152H109.731V7.8H108.731ZM109.231 12.652H113.759V11.652H109.231V12.652ZM114.259 12.152V7.8H113.259V12.152H114.259ZM113.759 8.3H116.511V7.3H113.759V8.3ZM116.011 7.8V19H117.011V7.8H116.011ZM116.511 18.5H113.759V19.5H116.511V18.5ZM114.259 19V14.568H113.259V19H114.259ZM113.759 14.068H109.231V15.068H113.759V14.068ZM108.731 14.568V19H109.731V14.568H108.731ZM109.231 18.5H106.479V19.5H109.231V18.5Z" fill="white"/>
<g filter="url(#filter2_i)">
<path d="M10.383 23.85L9.708 22.563V24H9.234V21.9H9.882L10.389 22.908L10.893 21.9H11.541V24H11.055V22.575L10.383 23.85ZM11.7804 24L12.5994 21.9H13.1874L13.9944 24H13.4364L13.2624 23.499H12.4944L12.3174 24H11.7804ZM12.6354 23.1H13.1244L12.8814 22.404L12.6354 23.1ZM13.7036 22.341V21.9H15.5726V22.341H14.8976V24H14.3816V22.341H13.7036ZM15.728 22.341V21.9H17.597V22.341H16.922V24H16.406V22.341H15.728ZM17.8942 24V21.9H18.9142C19.0222 21.9 19.1212 21.917 19.2112 21.951C19.3032 21.983 19.3812 22.029 19.4452 22.089C19.5112 22.147 19.5622 22.217 19.5982 22.299C19.6362 22.381 19.6552 22.471 19.6552 22.569C19.6552 22.701 19.6192 22.819 19.5472 22.923C19.4772 23.027 19.3832 23.105 19.2652 23.157L19.7062 24H19.1302L18.7492 23.229H18.4102V24H17.8942ZM18.8662 22.326H18.4102V22.824H18.8662C18.9462 22.824 19.0102 22.801 19.0582 22.755C19.1082 22.709 19.1332 22.649 19.1332 22.575C19.1332 22.501 19.1082 22.441 19.0582 22.395C19.0102 22.349 18.9462 22.326 18.8662 22.326ZM20.0035 24V21.9H21.5905V22.332H20.5195V22.731H21.2755V23.151H20.5195V23.568H21.6025V24H20.0035ZM21.8304 23.712L22.0944 23.331C22.2384 23.433 22.3624 23.505 22.4664 23.547C22.5704 23.589 22.6734 23.61 22.7754 23.61C22.8854 23.61 22.9724 23.59 23.0364 23.55C23.1004 23.508 23.1324 23.455 23.1324 23.391C23.1324 23.329 23.1114 23.282 23.0694 23.25C23.0294 23.218 22.9584 23.192 22.8564 23.172L22.4094 23.094C22.2434 23.062 22.1154 22.997 22.0254 22.899C21.9374 22.801 21.8934 22.679 21.8934 22.533C21.8934 22.331 21.9674 22.17 22.1154 22.05C22.2634 21.93 22.4674 21.87 22.7274 21.87C22.8894 21.87 23.0464 21.895 23.1984 21.945C23.3504 21.993 23.4804 22.06 23.5884 22.146L23.3274 22.521C23.2254 22.443 23.1224 22.385 23.0184 22.347C22.9164 22.309 22.8104 22.29 22.7004 22.29C22.5984 22.29 22.5194 22.309 22.4634 22.347C22.4074 22.385 22.3794 22.432 22.3794 22.488C22.3794 22.54 22.3974 22.581 22.4334 22.611C22.4714 22.641 22.5324 22.663 22.6164 22.677L23.0364 22.749C23.2324 22.783 23.3814 22.851 23.4834 22.953C23.5854 23.053 23.6364 23.183 23.6364 23.343C23.6364 23.545 23.5554 23.71 23.3934 23.838C23.2314 23.966 23.0134 24.03 22.7394 24.03C22.5734 24.03 22.4144 24.003 22.2624 23.949C22.1124 23.893 21.9684 23.814 21.8304 23.712ZM23.8256 23.712L24.0896 23.331C24.2336 23.433 24.3576 23.505 24.4616 23.547C24.5656 23.589 24.6686 23.61 24.7706 23.61C24.8806 23.61 24.9676 23.59 25.0316 23.55C25.0956 23.508 25.1276 23.455 25.1276 23.391C25.1276 23.329 25.1066 23.282 25.0646 23.25C25.0246 23.218 24.9536 23.192 24.8516 23.172L24.4046 23.094C24.2386 23.062 24.1106 22.997 24.0206 22.899C23.9326 22.801 23.8886 22.679 23.8886 22.533C23.8886 22.331 23.9626 22.17 24.1106 22.05C24.2586 21.93 24.4626 21.87 24.7226 21.87C24.8846 21.87 25.0416 21.895 25.1936 21.945C25.3456 21.993 25.4756 22.06 25.5836 22.146L25.3226 22.521C25.2206 22.443 25.1176 22.385 25.0136 22.347C24.9116 22.309 24.8056 22.29 24.6956 22.29C24.5936 22.29 24.5146 22.309 24.4586 22.347C24.4026 22.385 24.3746 22.432 24.3746 22.488C24.3746 22.54 24.3926 22.581 24.4286 22.611C24.4666 22.641 24.5276 22.663 24.6116 22.677L25.0316 22.749C25.2276 22.783 25.3766 22.851 25.4786 22.953C25.5806 23.053 25.6316 23.183 25.6316 23.343C25.6316 23.545 25.5506 23.71 25.3886 23.838C25.2266 23.966 25.0086 24.03 24.7346 24.03C24.5686 24.03 24.4096 24.003 24.2576 23.949C24.1076 23.893 23.9636 23.814 23.8256 23.712ZM26.3849 24L27.2039 21.9H27.7919L28.5989 24H28.0409L27.8669 23.499H27.0989L26.9219 24H26.3849ZM27.2399 23.1H27.7289L27.4859 22.404L27.2399 23.1ZM28.8395 21.9H29.3255L30.2585 23.172L30.2495 21.9H30.7355V24H30.2795L29.3165 22.686L29.3255 24H28.8395V21.9ZM31.2037 24V21.9H32.0587C32.2047 21.9 32.3417 21.928 32.4697 21.984C32.5997 22.038 32.7117 22.112 32.8057 22.206C32.9017 22.3 32.9767 22.412 33.0307 22.542C33.0867 22.67 33.1147 22.808 33.1147 22.956C33.1147 23.1 33.0867 23.236 33.0307 23.364C32.9767 23.492 32.9017 23.603 32.8057 23.697C32.7117 23.791 32.5997 23.865 32.4697 23.919C32.3417 23.973 32.2047 24 32.0587 24H31.2037ZM32.0587 22.341H31.7197V23.559H32.0587C32.1307 23.559 32.1987 23.544 32.2627 23.514C32.3267 23.482 32.3817 23.439 32.4277 23.385C32.4757 23.331 32.5127 23.267 32.5387 23.193C32.5667 23.119 32.5807 23.04 32.5807 22.956C32.5807 22.87 32.5667 22.79 32.5387 22.716C32.5127 22.64 32.4757 22.575 32.4277 22.521C32.3817 22.465 32.3267 22.421 32.2627 22.389C32.1987 22.357 32.1307 22.341 32.0587 22.341ZM35.9486 23.088C35.9486 23.23 35.9266 23.359 35.8826 23.475C35.8386 23.591 35.7756 23.69 35.6936 23.772C35.6136 23.854 35.5156 23.918 35.3996 23.964C35.2856 24.008 35.1576 24.03 35.0156 24.03C34.8736 24.03 34.7446 24.008 34.6286 23.964C34.5146 23.92 34.4176 23.857 34.3376 23.775C34.2576 23.693 34.1956 23.594 34.1516 23.478C34.1076 23.362 34.0856 23.232 34.0856 23.088V21.9H34.6016V23.088C34.6016 23.232 34.6396 23.348 34.7156 23.436C34.7916 23.524 34.8926 23.568 35.0186 23.568C35.1446 23.568 35.2446 23.524 35.3186 23.436C35.3946 23.348 35.4326 23.232 35.4326 23.088V21.9H35.9486V23.088ZM36.3746 24V21.9H37.4006C37.5126 21.9 37.6136 21.918 37.7036 21.954C37.7956 21.988 37.8736 22.036 37.9376 22.098C38.0036 22.158 38.0536 22.231 38.0876 22.317C38.1236 22.401 38.1416 22.493 38.1416 22.593C38.1416 22.687 38.1236 22.776 38.0876 22.86C38.0536 22.942 38.0036 23.013 37.9376 23.073C37.8736 23.133 37.7956 23.181 37.7036 23.217C37.6136 23.251 37.5126 23.268 37.4006 23.268H36.8906V24H36.3746ZM37.3106 22.326H36.8906V22.857H37.3076C37.4116 22.857 37.4896 22.832 37.5416 22.782C37.5936 22.73 37.6196 22.666 37.6196 22.59C37.6196 22.516 37.5936 22.454 37.5416 22.404C37.4896 22.352 37.4126 22.326 37.3106 22.326ZM38.4745 24V21.9H38.9905V22.716H39.8395V21.9H40.3555V24H39.8395V23.169H38.9905V24H38.4745ZM42.8626 22.95C42.8626 23.1 42.8346 23.242 42.7786 23.376C42.7226 23.508 42.6456 23.623 42.5476 23.721C42.4516 23.817 42.3376 23.893 42.2056 23.949C42.0736 24.005 41.9316 24.033 41.7796 24.033C41.6276 24.033 41.4846 24.005 41.3506 23.949C41.2186 23.893 41.1036 23.817 41.0056 23.721C40.9096 23.623 40.8336 23.508 40.7776 23.376C40.7216 23.242 40.6936 23.1 40.6936 22.95C40.6936 22.8 40.7216 22.659 40.7776 22.527C40.8336 22.393 40.9096 22.278 41.0056 22.182C41.1036 22.084 41.2186 22.007 41.3506 21.951C41.4846 21.895 41.6276 21.867 41.7796 21.867C41.9316 21.867 42.0736 21.895 42.2056 21.951C42.3376 22.007 42.4516 22.084 42.5476 22.182C42.6456 22.278 42.7226 22.393 42.7786 22.527C42.8346 22.659 42.8626 22.8 42.8626 22.95ZM42.3286 22.95C42.3286 22.862 42.3146 22.78 42.2866 22.704C42.2586 22.626 42.2196 22.56 42.1696 22.506C42.1216 22.45 42.0636 22.406 41.9956 22.374C41.9276 22.342 41.8546 22.326 41.7766 22.326C41.6986 22.326 41.6256 22.342 41.5576 22.374C41.4896 22.406 41.4306 22.45 41.3806 22.506C41.3326 22.56 41.2946 22.626 41.2666 22.704C41.2386 22.78 41.2246 22.862 41.2246 22.95C41.2246 23.038 41.2386 23.121 41.2666 23.199C41.2946 23.275 41.3326 23.341 41.3806 23.397C41.4306 23.451 41.4896 23.494 41.5576 23.526C41.6256 23.558 41.6986 23.574 41.7766 23.574C41.8546 23.574 41.9276 23.558 41.9956 23.526C42.0636 23.494 42.1216 23.451 42.1696 23.397C42.2196 23.341 42.2586 23.275 42.2866 23.199C42.3146 23.121 42.3286 23.038 42.3286 22.95ZM43.233 24V21.9H43.749V23.559H44.79V24H43.233ZM45.0013 23.712L45.2653 23.331C45.4093 23.433 45.5333 23.505 45.6373 23.547C45.7413 23.589 45.8443 23.61 45.9463 23.61C46.0563 23.61 46.1433 23.59 46.2073 23.55C46.2713 23.508 46.3033 23.455 46.3033 23.391C46.3033 23.329 46.2823 23.282 46.2403 23.25C46.2003 23.218 46.1293 23.192 46.0273 23.172L45.5803 23.094C45.4143 23.062 45.2863 22.997 45.1963 22.899C45.1083 22.801 45.0643 22.679 45.0643 22.533C45.0643 22.331 45.1383 22.17 45.2863 22.05C45.4343 21.93 45.6383 21.87 45.8983 21.87C46.0603 21.87 46.2173 21.895 46.3693 21.945C46.5213 21.993 46.6513 22.06 46.7593 22.146L46.4983 22.521C46.3963 22.443 46.2933 22.385 46.1893 22.347C46.0873 22.309 45.9813 22.29 45.8713 22.29C45.7693 22.29 45.6903 22.309 45.6343 22.347C45.5783 22.385 45.5503 22.432 45.5503 22.488C45.5503 22.54 45.5683 22.581 45.6043 22.611C45.6423 22.641 45.7033 22.663 45.7873 22.677L46.2073 22.749C46.4033 22.783 46.5523 22.851 46.6543 22.953C46.7563 23.053 46.8073 23.183 46.8073 23.343C46.8073 23.545 46.7263 23.71 46.5643 23.838C46.4023 23.966 46.1843 24.03 45.9103 24.03C45.7443 24.03 45.5853 24.003 45.4333 23.949C45.2833 23.893 45.1393 23.814 45.0013 23.712ZM46.9292 22.341V21.9H48.7982V22.341H48.1232V24H47.6072V22.341H46.9292ZM49.0953 24V21.9H50.6823V22.332H49.6113V22.731H50.3673V23.151H49.6113V23.568H50.6943V24H49.0953ZM51.0992 24V21.9H52.1192C52.2272 21.9 52.3262 21.917 52.4162 21.951C52.5082 21.983 52.5862 22.029 52.6502 22.089C52.7162 22.147 52.7672 22.217 52.8032 22.299C52.8412 22.381 52.8602 22.471 52.8602 22.569C52.8602 22.701 52.8242 22.819 52.7522 22.923C52.6822 23.027 52.5882 23.105 52.4702 23.157L52.9112 24H52.3352L51.9542 23.229H51.6152V24H51.0992ZM52.0712 22.326H51.6152V22.824H52.0712C52.1512 22.824 52.2152 22.801 52.2632 22.755C52.3132 22.709 52.3382 22.649 52.3382 22.575C52.3382 22.501 52.3132 22.441 52.2632 22.395C52.2152 22.349 52.1512 22.326 52.0712 22.326ZM53.7181 24V23.205L52.8661 21.9H53.4601L53.9911 22.761L54.5281 21.9H55.0891L54.2341 23.202V24H53.7181ZM56.9914 23.568C57.0854 23.568 57.1724 23.546 57.2524 23.502C57.3324 23.458 57.4054 23.393 57.4714 23.307L57.8104 23.628C57.7184 23.748 57.5964 23.845 57.4444 23.919C57.2924 23.993 57.1354 24.03 56.9734 24.03C56.8174 24.03 56.6714 24.002 56.5354 23.946C56.3994 23.89 56.2824 23.814 56.1844 23.718C56.0864 23.622 56.0084 23.508 55.9504 23.376C55.8944 23.244 55.8664 23.102 55.8664 22.95C55.8664 22.798 55.8944 22.656 55.9504 22.524C56.0084 22.39 56.0864 22.275 56.1844 22.179C56.2844 22.083 56.4014 22.007 56.5354 21.951C56.6714 21.895 56.8174 21.867 56.9734 21.867C57.1414 21.867 57.3024 21.904 57.4564 21.978C57.6104 22.052 57.7334 22.151 57.8254 22.275L57.4774 22.605C57.4094 22.513 57.3324 22.444 57.2464 22.398C57.1624 22.35 57.0714 22.326 56.9734 22.326C56.8914 22.326 56.8154 22.342 56.7454 22.374C56.6754 22.406 56.6144 22.45 56.5624 22.506C56.5124 22.56 56.4724 22.626 56.4424 22.704C56.4144 22.78 56.4004 22.862 56.4004 22.95C56.4004 23.038 56.4154 23.12 56.4454 23.196C56.4754 23.272 56.5164 23.338 56.5684 23.394C56.6224 23.448 56.6854 23.491 56.7574 23.523C56.8294 23.553 56.9074 23.568 56.9914 23.568ZM58.1246 24V21.9H58.6406V23.559H59.6816V24H58.1246ZM60.0699 24V21.9H61.6569V22.332H60.5859V22.731H61.3419V23.151H60.5859V23.568H61.6689V24H60.0699ZM61.8751 24L62.6941 21.9H63.2821L64.0891 24H63.5311L63.3571 23.499H62.5891L62.4121 24H61.8751ZM62.7301 23.1H63.2191L62.9761 22.404L62.7301 23.1ZM64.3297 21.9H64.8157L65.7487 23.172L65.7397 21.9H66.2257V24H65.7697L64.8067 22.686L64.8157 24H64.3297V21.9ZM66.664 24V21.9H67.18V24H66.664ZM67.6168 21.9H68.1028L69.0358 23.172L69.0268 21.9H69.5128V24H69.0568L68.0938 22.686L68.1028 24H67.6168V21.9ZM72.0301 22.941C72.0301 23.097 72.0041 23.242 71.9521 23.376C71.9001 23.51 71.8281 23.626 71.7361 23.724C71.6441 23.82 71.5331 23.896 71.4031 23.952C71.2751 24.006 71.1361 24.033 70.9861 24.033C70.8321 24.033 70.6871 24.005 70.5511 23.949C70.4171 23.893 70.3001 23.817 70.2001 23.721C70.1021 23.623 70.0241 23.508 69.9661 23.376C69.9101 23.244 69.8821 23.102 69.8821 22.95C69.8821 22.798 69.9101 22.656 69.9661 22.524C70.0241 22.392 70.1021 22.278 70.2001 22.182C70.2981 22.084 70.4141 22.007 70.5481 21.951C70.6821 21.895 70.8251 21.867 70.9771 21.867C71.1511 21.867 71.3171 21.903 71.4751 21.975C71.6331 22.045 71.7611 22.145 71.8591 22.275L71.4961 22.59C71.4301 22.502 71.3521 22.436 71.2621 22.392C71.1741 22.348 71.0791 22.326 70.9771 22.326C70.8971 22.326 70.8221 22.342 70.7521 22.374C70.6841 22.406 70.6251 22.45 70.5751 22.506C70.5251 22.56 70.4861 22.626 70.4581 22.704C70.4301 22.78 70.4161 22.862 70.4161 22.95C70.4161 23.04 70.4301 23.124 70.4581 23.202C70.4881 23.278 70.5291 23.344 70.5811 23.4C70.6331 23.456 70.6941 23.5 70.7641 23.532C70.8361 23.564 70.9131 23.58 70.9951 23.58C71.1131 23.58 71.2151 23.547 71.3011 23.481C71.3891 23.415 71.4471 23.331 71.4751 23.229H70.9501V22.794H72.0301V22.941ZM72.8146 24L73.6336 21.9H74.2216L75.0286 24H74.4706L74.2966 23.499H73.5286L73.3516 24H72.8146ZM73.6696 23.1H74.1586L73.9156 22.404L73.6696 23.1ZM75.2692 21.9H75.7552L76.6882 23.172L76.6792 21.9H77.1652V24H76.7092L75.7462 22.686L75.7552 24H75.2692V21.9ZM77.6334 24V21.9H78.4884C78.6344 21.9 78.7714 21.928 78.8994 21.984C79.0294 22.038 79.1414 22.112 79.2354 22.206C79.3314 22.3 79.4064 22.412 79.4604 22.542C79.5164 22.67 79.5444 22.808 79.5444 22.956C79.5444 23.1 79.5164 23.236 79.4604 23.364C79.4064 23.492 79.3314 23.603 79.2354 23.697C79.1414 23.791 79.0294 23.865 78.8994 23.919C78.7714 23.973 78.6344 24 78.4884 24H77.6334ZM78.4884 22.341H78.1494V23.559H78.4884C78.5604 23.559 78.6284 23.544 78.6924 23.514C78.7564 23.482 78.8114 23.439 78.8574 23.385C78.9054 23.331 78.9424 23.267 78.9684 23.193C78.9964 23.119 79.0104 23.04 79.0104 22.956C79.0104 22.87 78.9964 22.79 78.9684 22.716C78.9424 22.64 78.9054 22.575 78.8574 22.521C78.8114 22.465 78.7564 22.421 78.6924 22.389C78.6284 22.357 78.5604 22.341 78.4884 22.341ZM80.3802 23.712L80.6442 23.331C80.7882 23.433 80.9122 23.505 81.0162 23.547C81.1202 23.589 81.2232 23.61 81.3252 23.61C81.4352 23.61 81.5222 23.59 81.5862 23.55C81.6502 23.508 81.6822 23.455 81.6822 23.391C81.6822 23.329 81.6612 23.282 81.6192 23.25C81.5792 23.218 81.5082 23.192 81.4062 23.172L80.9592 23.094C80.7932 23.062 80.6652 22.997 80.5752 22.899C80.4872 22.801 80.4432 22.679 80.4432 22.533C80.4432 22.331 80.5172 22.17 80.6652 22.05C80.8132 21.93 81.0172 21.87 81.2772 21.87C81.4392 21.87 81.5962 21.895 81.7482 21.945C81.9002 21.993 82.0302 22.06 82.1382 22.146L81.8772 22.521C81.7752 22.443 81.6722 22.385 81.5682 22.347C81.4662 22.309 81.3602 22.29 81.2502 22.29C81.1482 22.29 81.0692 22.309 81.0132 22.347C80.9572 22.385 80.9292 22.432 80.9292 22.488C80.9292 22.54 80.9472 22.581 80.9832 22.611C81.0212 22.641 81.0822 22.663 81.1662 22.677L81.5862 22.749C81.7822 22.783 81.9312 22.851 82.0332 22.953C82.1352 23.053 82.1862 23.183 82.1862 23.343C82.1862 23.545 82.1052 23.71 81.9432 23.838C81.7812 23.966 81.5632 24.03 81.2892 24.03C81.1232 24.03 80.9642 24.003 80.8122 23.949C80.6622 23.893 80.5182 23.814 80.3802 23.712ZM82.2658 24L83.0848 21.9H83.6728L84.4798 24H83.9218L83.7478 23.499H82.9798L82.8028 24H82.2658ZM83.1208 23.1H83.6098L83.3668 22.404L83.1208 23.1ZM84.7203 21.9H85.2063L86.1393 23.172L86.1303 21.9H86.6163V24H86.1603L85.1973 22.686L85.2063 24H84.7203V21.9ZM87.0546 24V21.9H87.5706V24H87.0546ZM87.8364 22.341V21.9H89.7054V22.341H89.0304V24H88.5144V22.341H87.8364ZM89.9726 24V21.9H90.4886V24H89.9726ZM90.7784 24V23.664L91.8194 22.323L90.7844 22.332V21.9H92.4794V22.236L91.4444 23.577L92.4884 23.568V24H90.7784ZM92.7645 24V21.9H93.2805V24H92.7645ZM93.7174 21.9H94.2034L95.1364 23.172L95.1274 21.9H95.6134V24H95.1574L94.1944 22.686L94.2034 24H93.7174V21.9ZM98.1307 22.941C98.1307 23.097 98.1047 23.242 98.0527 23.376C98.0007 23.51 97.9287 23.626 97.8367 23.724C97.7447 23.82 97.6337 23.896 97.5037 23.952C97.3757 24.006 97.2367 24.033 97.0867 24.033C96.9327 24.033 96.7877 24.005 96.6517 23.949C96.5177 23.893 96.4007 23.817 96.3007 23.721C96.2027 23.623 96.1247 23.508 96.0667 23.376C96.0107 23.244 95.9827 23.102 95.9827 22.95C95.9827 22.798 96.0107 22.656 96.0667 22.524C96.1247 22.392 96.2027 22.278 96.3007 22.182C96.3987 22.084 96.5147 22.007 96.6487 21.951C96.7827 21.895 96.9257 21.867 97.0777 21.867C97.2517 21.867 97.4177 21.903 97.5757 21.975C97.7337 22.045 97.8617 22.145 97.9597 22.275L97.5967 22.59C97.5307 22.502 97.4527 22.436 97.3627 22.392C97.2747 22.348 97.1797 22.326 97.0777 22.326C96.9977 22.326 96.9227 22.342 96.8527 22.374C96.7847 22.406 96.7257 22.45 96.6757 22.506C96.6257 22.56 96.5867 22.626 96.5587 22.704C96.5307 22.78 96.5167 22.862 96.5167 22.95C96.5167 23.04 96.5307 23.124 96.5587 23.202C96.5887 23.278 96.6297 23.344 96.6817 23.4C96.7337 23.456 96.7947 23.5 96.8647 23.532C96.9367 23.564 97.0137 23.58 97.0957 23.58C97.2137 23.58 97.3157 23.547 97.4017 23.481C97.4897 23.415 97.5477 23.331 97.5757 23.229H97.0507V22.794H98.1307V22.941ZM98.9662 23.712L99.2302 23.331C99.3742 23.433 99.4982 23.505 99.6022 23.547C99.7062 23.589 99.8092 23.61 99.9112 23.61C100.021 23.61 100.108 23.59 100.172 23.55C100.236 23.508 100.268 23.455 100.268 23.391C100.268 23.329 100.247 23.282 100.205 23.25C100.165 23.218 100.094 23.192 99.9922 23.172L99.5452 23.094C99.3792 23.062 99.2512 22.997 99.1612 22.899C99.0732 22.801 99.0292 22.679 99.0292 22.533C99.0292 22.331 99.1032 22.17 99.2512 22.05C99.3992 21.93 99.6032 21.87 99.8632 21.87C100.025 21.87 100.182 21.895 100.334 21.945C100.486 21.993 100.616 22.06 100.724 22.146L100.463 22.521C100.361 22.443 100.258 22.385 100.154 22.347C100.052 22.309 99.9462 22.29 99.8362 22.29C99.7342 22.29 99.6552 22.309 99.5992 22.347C99.5432 22.385 99.5152 22.432 99.5152 22.488C99.5152 22.54 99.5332 22.581 99.5692 22.611C99.6072 22.641 99.6682 22.663 99.7522 22.677L100.172 22.749C100.368 22.783 100.517 22.851 100.619 22.953C100.721 23.053 100.772 23.183 100.772 23.343C100.772 23.545 100.691 23.71 100.529 23.838C100.367 23.966 100.149 24.03 99.8752 24.03C99.7092 24.03 99.5502 24.003 99.3982 23.949C99.2482 23.893 99.1042 23.814 98.9662 23.712ZM101.648 24V23.205L100.796 21.9H101.39L101.921 22.761L102.458 21.9H103.019L102.164 23.202V24H101.648ZM103.03 23.712L103.294 23.331C103.438 23.433 103.562 23.505 103.666 23.547C103.77 23.589 103.873 23.61 103.975 23.61C104.085 23.61 104.172 23.59 104.236 23.55C104.3 23.508 104.332 23.455 104.332 23.391C104.332 23.329 104.311 23.282 104.269 23.25C104.229 23.218 104.158 23.192 104.056 23.172L103.609 23.094C103.443 23.062 103.315 22.997 103.225 22.899C103.137 22.801 103.093 22.679 103.093 22.533C103.093 22.331 103.167 22.17 103.315 22.05C103.463 21.93 103.667 21.87 103.927 21.87C104.089 21.87 104.246 21.895 104.398 21.945C104.55 21.993 104.68 22.06 104.788 22.146L104.527 22.521C104.425 22.443 104.322 22.385 104.218 22.347C104.116 22.309 104.01 22.29 103.9 22.29C103.798 22.29 103.719 22.309 103.663 22.347C103.607 22.385 103.579 22.432 103.579 22.488C103.579 22.54 103.597 22.581 103.633 22.611C103.671 22.641 103.732 22.663 103.816 22.677L104.236 22.749C104.432 22.783 104.581 22.851 104.683 22.953C104.785 23.053 104.836 23.183 104.836 23.343C104.836 23.545 104.755 23.71 104.593 23.838C104.431 23.966 104.213 24.03 103.939 24.03C103.773 24.03 103.614 24.003 103.462 23.949C103.312 23.893 103.168 23.814 103.03 23.712ZM104.958 22.341V21.9H106.827V22.341H106.152V24H105.636V22.341H104.958ZM107.124 24V21.9H108.711V22.332H107.64V22.731H108.396V23.151H107.64V23.568H108.723V24H107.124ZM110.277 23.85L109.602 22.563V24H109.128V21.9H109.776L110.283 22.908L110.787 21.9H111.435V24H110.949V22.575L110.277 23.85ZM111.725 23.712L111.989 23.331C112.133 23.433 112.257 23.505 112.361 23.547C112.465 23.589 112.568 23.61 112.67 23.61C112.78 23.61 112.867 23.59 112.931 23.55C112.995 23.508 113.027 23.455 113.027 23.391C113.027 23.329 113.006 23.282 112.964 23.25C112.924 23.218 112.853 23.192 112.751 23.172L112.304 23.094C112.138 23.062 112.01 22.997 111.92 22.899C111.832 22.801 111.788 22.679 111.788 22.533C111.788 22.331 111.862 22.17 112.01 22.05C112.158 21.93 112.362 21.87 112.622 21.87C112.784 21.87 112.941 21.895 113.093 21.945C113.245 21.993 113.375 22.06 113.483 22.146L113.222 22.521C113.12 22.443 113.017 22.385 112.913 22.347C112.811 22.309 112.705 22.29 112.595 22.29C112.493 22.29 112.414 22.309 112.358 22.347C112.302 22.385 112.274 22.432 112.274 22.488C112.274 22.54 112.292 22.581 112.328 22.611C112.366 22.641 112.427 22.663 112.511 22.677L112.931 22.749C113.127 22.783 113.276 22.851 113.378 22.953C113.48 23.053 113.531 23.183 113.531 23.343C113.531 23.545 113.45 23.71 113.288 23.838C113.126 23.966 112.908 24.03 112.634 24.03C112.468 24.03 112.309 24.003 112.157 23.949C112.007 23.893 111.863 23.814 111.725 23.712Z" fill="white"/>
</g>
<rect x="24" y="4" width="1" height="1" fill="#8C34EB"/>
<rect x="27" y="4" width="0.5" height="0.5" fill="#BB87F3"/>
<rect x="23" y="4" width="0.5" height="0.5" fill="#BB87F3"/>
<rect x="25" y="3" width="0.5" height="0.5" fill="#BB87F3"/>
<rect x="27" y="2" width="1" height="1" fill="#8C34EB"/>
<rect x="23" y="1" width="1" height="1" fill="#8C34EB"/>
<g filter="url(#filter3_d)">
<rect x="24" y="6" width="1" height="1" fill="#8C34EB"/>
</g>
<rect x="26" y="5" width="1" height="1" fill="#8C34EB"/>
<rect x="29" y="5" width="1" height="1" fill="#8C34EB"/>
<path d="M120.259 15.097L121.737 7.95038L123.717 7.94155C124.59 7.93765 125.275 8.1646 125.77 8.6224C126.266 9.0802 126.515 9.74909 126.519 10.6291C126.523 11.5424 126.367 12.3331 126.05 13.0012C125.739 13.6626 125.285 14.1746 124.687 14.5373C124.088 14.9 123.362 15.0832 122.509 15.087L120.259 15.097ZM122.673 13.6863C123.139 13.6842 123.529 13.5524 123.841 13.291C124.16 13.023 124.402 12.6652 124.566 12.2178C124.731 11.7704 124.812 11.2734 124.81 10.7267C124.807 10.2534 124.699 9.90385 124.485 9.67814C124.271 9.44576 123.977 9.3304 123.603 9.33207L123.143 9.33412L122.233 13.6882L122.673 13.6863ZM127.056 15.0667L128.534 7.92007L130.764 7.91013L130.957 13.1293L130.997 13.1291L133.494 7.89795L135.794 7.8877L134.306 15.0344L132.786 15.0412L133.412 11.9784C133.523 11.4579 133.628 11.0074 133.726 10.6269C133.831 10.2398 133.913 9.92944 133.972 9.69584L133.932 9.69602L131.366 15.0475L129.796 15.0545L129.612 9.71528L129.572 9.71546C129.52 10.0624 129.459 10.4493 129.387 10.8763C129.322 11.2966 129.254 11.6902 129.182 12.0572L128.566 15.06L127.056 15.0667ZM137.162 15.0217L136.56 7.88428L138.2 7.87697L138.407 11.8561C138.415 12.0094 138.419 12.186 138.42 12.386C138.421 12.5794 138.418 12.7694 138.412 12.9561C138.407 13.1428 138.394 13.3028 138.374 13.4362L138.414 13.4361C138.48 13.1958 138.559 12.9454 138.651 12.685C138.743 12.4246 138.836 12.1975 138.928 12.0038L140.83 7.86524L142.59 7.8574L139.022 15.0134L137.162 15.0217Z" fill="#6600FF"/>
</g>
<defs>
<filter id="filter0_d" x="0" y="0" width="146.59" height="34" filterUnits="userSpaceOnUse" color-interpolation-filters="sRGB">
<feFlood flood-opacity="0" result="BackgroundImageFix"/>
<feColorMatrix in="SourceAlpha" type="matrix" values="0 0 0 0 0 0 0 0 0 0 0 0 0 0 0 0 0 0 127 0" result="hardAlpha"/>
<feOffset dy="4"/>
<feGaussianBlur stdDeviation="2"/>
<feComposite in2="hardAlpha" operator="out"/>
<feColorMatrix type="matrix" values="0 0 0 0 0 0 0 0 0 0 0 0 0 0 0 0 0 0 0.25 0"/>
<feBlend mode="normal" in2="BackgroundImageFix" result="effect1_dropShadow"/>
<feBlend mode="normal" in="SourceGraphic" in2="effect1_dropShadow" result="shape"/>
</filter>
<filter id="filter1_i" x="4.58801" y="7.12399" width="112.423" height="16.552" filterUnits="userSpaceOnUse" color-interpolation-filters="sRGB">
<feFlood flood-opacity="0" result="BackgroundImageFix"/>
<feBlend mode="normal" in="SourceGraphic" in2="BackgroundImageFix" result="shape"/>
<feColorMatrix in="SourceAlpha" type="matrix" values="0 0 0 0 0 0 0 0 0 0 0 0 0 0 0 0 0 0 127 0" result="hardAlpha"/>
<feOffset dy="4"/>
<feGaussianBlur stdDeviation="2"/>
<feComposite in2="hardAlpha" operator="arithmetic" k2="-1" k3="1"/>
<feColorMatrix type="matrix" values="0 0 0 0 0.898039 0 0 0 0 0.898039 0 0 0 0 0.898039 0 0 0 0.33 0"/>
<feBlend mode="normal" in2="shape" result="effect1_innerShadow"/>
</filter>
<filter id="filter2_i" x="9.23401" y="21.867" width="104.297" height="6.166" filterUnits="userSpaceOnUse" color-interpolation-filters="sRGB">
<feFlood flood-opacity="0" result="BackgroundImageFix"/>
<feBlend mode="normal" in="SourceGraphic" in2="BackgroundImageFix" result="shape"/>
<feColorMatrix in="SourceAlpha" type="matrix" values="0 0 0 0 0 0 0 0 0 0 0 0 0 0 0 0 0 0 127 0" result="hardAlpha"/>
<feOffset dy="4"/>
<feGaussianBlur stdDeviation="2"/>
<feComposite in2="hardAlpha" operator="arithmetic" k2="-1" k3="1"/>
<feColorMatrix type="matrix" values="0 0 0 0 0 0 0 0 0 0 0 0 0 0 0 0 0 0 0.11 0"/>
<feBlend mode="normal" in2="shape" result="effect1_innerShadow"/>
</filter>
<filter id="filter3_d" x="20" y="6" width="9" height="9" filterUnits="userSpaceOnUse" color-interpolation-filters="sRGB">
<feFlood flood-opacity="0" result="BackgroundImageFix"/>
<feColorMatrix in="SourceAlpha" type="matrix" values="0 0 0 0 0 0 0 0 0 0 0 0 0 0 0 0 0 0 127 0" result="hardAlpha"/>
<feOffset dy="4"/>
<feGaussianBlur stdDeviation="2"/>
<feComposite in2="hardAlpha" operator="out"/>
<feColorMatrix type="matrix" values="0 0 0 0 0 0 0 0 0 0 0 0 0 0 0 0 0 0 0.25 0"/>
<feBlend mode="normal" in2="BackgroundImageFix" result="effect1_dropShadow"/>
<feBlend mode="normal" in="SourceGraphic" in2="effect1_dropShadow" result="shape"/>
</filter>
</defs>
</svg>
