<svg id="visual" viewBox="0 0 960 540" width="960" height="540" xmlns="http://www.w3.org/2000/svg" xmlns:xlink="http://www.w3.org/1999/xlink" version="1.1"><path d="M0 23L960 44L960 0L0 0Z" fill="#ffffff"></path><path d="M0 60L960 71L960 42L0 21Z" fill="#f3e6ff"></path><path d="M0 174L960 195L960 69L0 58Z" fill="#e7ceff"></path><path d="M0 239L960 260L960 193L0 172Z" fill="#d9b5ff"></path><path d="M0 325L960 347L960 258L0 237Z" fill="#cb9dff"></path><path d="M0 357L960 368L960 345L0 323Z" fill="#bb85ff"></path><path d="M0 374L960 411L960 366L0 355Z" fill="#aa6cff"></path><path d="M0 401L960 444L960 409L0 372Z" fill="#9752ff"></path><path d="M0 449L960 465L960 442L0 399Z" fill="#8134ff"></path><path d="M0 541L960 541L960 463L0 447Z" fill="#6600ff"></path></svg>