<svg width="37" height="37" viewBox="0 0 37 37" fill="none" xmlns="http://www.w3.org/2000/svg">
<rect width="37" height="37" fill="#6600FF"/>
<path d="M17 16C17 15.8022 16.9414 15.6089 16.8315 15.4444C16.7216 15.28 16.5654 15.1518 16.3827 15.0761C16.2 15.0004 15.9989 14.9806 15.8049 15.0192C15.6109 15.0578 15.4328 15.153 15.2929 15.2929C15.153 15.4327 15.0578 15.6109 15.0192 15.8049C14.9806 15.9989 15.0004 16.2 15.0761 16.3827C15.1518 16.5654 15.28 16.7216 15.4444 16.8315C15.6089 16.9414 15.8022 17 16 17C16.2652 17 16.5196 16.8946 16.7071 16.7071C16.8946 16.5196 17 16.2652 17 16ZM21.5 20.06C21.3865 19.9935 21.2609 19.95 21.1305 19.9321C21.0002 19.9142 20.8675 19.9222 20.7403 19.9556C20.613 19.9891 20.4936 20.0473 20.3889 20.127C20.2841 20.2067 20.1962 20.3062 20.13 20.42C20.0165 20.6196 19.8521 20.7856 19.6536 20.901C19.4551 21.0165 19.2296 21.0773 19 21.0773C18.7704 21.0773 18.5449 21.0165 18.3464 20.901C18.1479 20.7856 17.9835 20.6196 17.87 20.42C17.8038 20.3062 17.7159 20.2067 17.6112 20.127C17.5064 20.0473 17.387 19.9891 17.2597 19.9556C17.1325 19.9222 16.9998 19.9142 16.8695 19.9321C16.7391 19.95 16.6135 19.9935 16.5 20.06C16.2713 20.1919 16.104 20.4089 16.0347 20.6637C15.9654 20.9185 15.9996 21.1904 16.13 21.42C16.42 21.9248 16.8381 22.3442 17.342 22.6358C17.8459 22.9274 18.4178 23.081 19 23.081C19.5822 23.081 20.1541 22.9274 20.658 22.6358C21.1619 22.3442 21.58 21.9248 21.87 21.42C22.0004 21.1904 22.0346 20.9185 21.9653 20.6637C21.896 20.4089 21.7287 20.1919 21.5 20.06ZM22 15C21.8022 15 21.6089 15.0586 21.4444 15.1685C21.28 15.2784 21.1518 15.4346 21.0761 15.6173C21.0004 15.8 20.9806 16.0011 21.0192 16.1951C21.0578 16.3891 21.153 16.5673 21.2929 16.7071C21.4328 16.847 21.6109 16.9422 21.8049 16.9808C21.9989 17.0194 22.2 16.9996 22.3827 16.9239C22.5654 16.8482 22.7216 16.72 22.8315 16.5556C22.9414 16.3911 23 16.1978 23 16C23 15.7348 22.8946 15.4804 22.7071 15.2929C22.5196 15.1054 22.2652 15 22 15ZM19 8C17.0222 8 15.0888 8.58649 13.4443 9.6853C11.7998 10.7841 10.5181 12.3459 9.76121 14.1732C9.00433 16.0004 8.8063 18.0111 9.19215 19.9509C9.578 21.8907 10.5304 23.6725 11.9289 25.0711C13.3275 26.4696 15.1093 27.422 17.0491 27.8079C18.9889 28.1937 20.9996 27.9957 22.8268 27.2388C24.6541 26.4819 26.2159 25.2002 27.3147 23.5557C28.4135 21.9112 29 19.9778 29 18C29 16.6868 28.7413 15.3864 28.2388 14.1732C27.7363 12.9599 26.9997 11.8575 26.0711 10.9289C25.1425 10.0003 24.0401 9.26375 22.8268 8.7612C21.6136 8.25866 20.3132 8 19 8ZM19 26C17.1373 26.008 15.3302 25.3658 13.8903 24.1842C12.4504 23.0025 11.468 21.3554 11.1125 19.5269C10.757 17.6984 11.0507 15.8032 11.9429 14.1681C12.8352 12.533 14.27 11.2605 16 10.57C15.9897 10.7131 15.9897 10.8569 16 11C16 11.7956 16.3161 12.5587 16.8787 13.1213C17.4413 13.6839 18.2044 14 19 14C19.2652 14 19.5196 13.8946 19.7071 13.7071C19.8946 13.5196 20 13.2652 20 13C20 12.7348 19.8946 12.4804 19.7071 12.2929C19.5196 12.1054 19.2652 12 19 12C18.7348 12 18.4804 11.8946 18.2929 11.7071C18.1054 11.5196 18 11.2652 18 11C18 10.7348 18.1054 10.4804 18.2929 10.2929C18.4804 10.1054 18.7348 10 19 10C21.1217 10 23.1566 10.8429 24.6569 12.3431C26.1572 13.8434 27 15.8783 27 18C27 20.1217 26.1572 22.1566 24.6569 23.6569C23.1566 25.1571 21.1217 26 19 26Z" fill="white"/>
</svg>
